<svg width="1304" height="1020" viewBox="0 0 1304 1020" fill="none" xmlns="http://www.w3.org/2000/svg">
<rect width="1304" height="1020" fill="white"/>
<g clip-path="url(#clip0_10_527)">
<path d="M590.387 467.516H671.287C682.757 467.516 693.758 472.085 701.868 480.218C709.979 488.352 714.536 499.383 714.536 510.885V581H590.387V467.516Z" fill="#19FFC1"/>
<path d="M611.026 490.646V531.125H601.655V514.524H583.322V531.125H573.976V490.646H583.322V506.597H601.655V490.646H611.026Z" fill="black"/>
<path d="M628.806 529.197C625.522 527.43 622.777 524.802 620.863 521.595C618.95 518.387 617.939 514.72 617.939 510.982C617.939 507.244 618.95 503.577 620.863 500.369C622.777 497.161 625.522 494.534 628.806 492.767C632.301 490.926 636.199 489.99 640.147 490.044C644.079 489.987 647.963 490.923 651.44 492.767C654.731 494.529 657.482 497.154 659.401 500.362C661.32 503.57 662.333 507.241 662.333 510.982C662.333 514.723 661.32 518.394 659.401 521.602C657.482 524.81 654.731 527.435 651.44 529.197C647.963 531.041 644.079 531.977 640.147 531.92C636.199 531.974 632.301 531.038 628.806 529.197ZM646.61 522.282C648.516 521.203 650.081 519.608 651.127 517.68C652.256 515.632 652.828 513.322 652.785 510.982C652.825 508.635 652.254 506.318 651.127 504.26C650.08 502.339 648.515 500.752 646.61 499.682C644.629 498.591 642.406 498.02 640.147 498.02C637.887 498.02 635.664 498.591 633.683 499.682C631.779 500.752 630.214 502.339 629.166 504.26C628.04 506.318 627.469 508.635 627.508 510.982C627.466 513.322 628.038 515.632 629.166 517.68C630.212 519.608 631.777 521.203 633.683 522.282C635.669 523.358 637.89 523.921 640.147 523.921C642.403 523.921 644.625 523.358 646.61 522.282V522.282Z" fill="black"/>
<path d="M578.83 570.399C577.149 568.561 575.857 566.4 575.031 564.048C574.206 561.696 573.863 559.201 574.024 556.713V534.016H583.371V556.327C583.371 563.572 586.366 567.194 592.357 567.194C593.598 567.279 594.843 567.088 596.002 566.634C597.161 566.18 598.206 565.474 599.061 564.568C600.823 562.2 601.676 559.275 601.463 556.327V534.016H610.69V556.689C610.567 560.323 609.416 563.846 607.371 566.848C605.326 569.85 602.471 572.207 599.139 573.642C595.808 575.077 592.139 575.532 588.559 574.953C584.98 574.375 581.638 572.787 578.926 570.374L578.83 570.399Z" fill="black"/>
<path d="M626.379 573.916C623.787 573.241 621.343 572.089 619.171 570.519L622.342 563.459C624.223 564.812 626.308 565.853 628.517 566.543C630.844 567.307 633.277 567.698 635.726 567.7C637.76 567.833 639.793 567.417 641.612 566.495C642.182 566.194 642.659 565.744 642.993 565.192C643.328 564.641 643.506 564.009 643.511 563.363C643.517 562.902 643.419 562.445 643.223 562.028C643.028 561.61 642.74 561.243 642.381 560.954C641.527 560.26 640.548 559.736 639.498 559.412C638.321 559.026 636.735 558.616 634.693 558.159C632.135 557.575 629.615 556.835 627.148 555.942C625.19 555.228 623.452 554.016 622.102 552.424C620.619 550.602 619.865 548.292 619.988 545.943C619.962 543.671 620.624 541.445 621.886 539.558C623.323 537.523 625.318 535.949 627.628 535.028C630.601 533.819 633.793 533.245 636.999 533.342C639.542 533.342 642.075 533.649 644.544 534.257C646.824 534.806 649.005 535.708 651.007 536.932L648.124 544.16C644.742 542.136 640.889 541.039 636.951 540.979C634.931 540.839 632.913 541.282 631.136 542.256C630.559 542.602 630.083 543.093 629.754 543.68C629.425 544.268 629.256 544.932 629.262 545.606C629.259 546.281 629.465 546.941 629.853 547.494C630.24 548.046 630.79 548.464 631.425 548.69C633.553 549.582 635.767 550.252 638.032 550.689C640.593 551.282 643.12 552.014 645.601 552.882C647.534 553.619 649.264 554.809 650.647 556.352C652.116 558.161 652.861 560.454 652.737 562.785C652.748 565.043 652.078 567.252 650.815 569.122C649.359 571.158 647.348 572.731 645.024 573.651C642.029 574.841 638.826 575.415 635.606 575.338C632.479 575.304 629.372 574.825 626.379 573.916V573.916Z" fill="black"/>
<path d="M691.085 567.001V574.519H659.85V534.016H690.34V541.534H669.124V550.328H687.865V557.556H669.124V566.929L691.085 567.001Z" fill="black"/>
<path d="M698.75 572.905C698.22 572.376 697.804 571.744 697.527 571.048C697.25 570.351 697.119 569.606 697.14 568.857C697.107 568.11 697.234 567.364 697.511 566.67C697.789 565.977 698.211 565.35 698.75 564.833C699.838 563.841 701.256 563.291 702.726 563.291C704.197 563.291 705.615 563.841 706.703 564.833C707.241 565.35 707.663 565.977 707.941 566.67C708.219 567.364 708.345 568.11 708.313 568.857C708.327 569.98 708.007 571.082 707.394 572.021C706.78 572.96 705.9 573.695 704.868 574.129C703.835 574.564 702.697 574.68 701.598 574.462C700.499 574.244 699.491 573.701 698.702 572.905H698.75Z" fill="black"/>
<path d="M574 447.277H592.333C596.343 447.168 600.323 447.992 603.962 449.686C607.194 451.249 609.912 453.707 611.795 456.77C613.636 460.011 614.604 463.677 614.604 467.407C614.604 471.138 613.636 474.804 611.795 478.045C609.926 481.119 607.204 483.581 603.962 485.129C600.337 486.875 596.353 487.742 592.333 487.659H574V447.277ZM591.876 480.069C595.399 480.236 598.848 479.017 601.487 476.672C603.801 474.183 605.088 470.907 605.088 467.504C605.088 464.101 603.801 460.825 601.487 458.336C598.839 456.008 595.394 454.799 591.876 454.963H583.347V480.069H591.876Z" fill="black"/>
<path d="M647.643 479.105H628.902L625.322 487.779H615.711L633.707 447.301H642.934L660.978 487.779H651.175L647.643 479.105ZM644.712 471.997L638.297 456.481L631.905 471.997H644.712Z" fill="black"/>
<path d="M668.932 454.505L729 440.048V535.582L668.932 521.005V454.505Z" fill="#E5E5E5"/>
</g>
<defs>
<clipPath id="clip0_10_527">
<rect width="155" height="141" fill="white" transform="translate(574 440)"/>
</clipPath>
</defs>
</svg>
