<svg width="1304" height="1020" viewBox="0 0 1304 1020" fill="none" xmlns="http://www.w3.org/2000/svg">
<rect width="1304" height="1020" fill="#D0D6FA"/>
<g clip-path="url(#clip0_19_1114)">
<path d="M935.865 566.029C933.586 566.075 931.32 565.666 929.2 564.825C927.081 563.984 925.15 562.729 923.522 561.133C921.894 559.537 920.6 557.632 919.717 555.53C918.834 553.428 918.379 551.171 918.379 548.89C918.379 546.61 918.834 544.353 919.717 542.251C920.6 540.149 921.894 538.244 923.522 536.648C925.15 535.052 927.081 533.797 929.2 532.956C931.32 532.115 933.586 531.706 935.865 531.751V545.559C935.415 545.539 934.965 545.61 934.543 545.768C934.121 545.926 933.736 546.168 933.41 546.479C933.084 546.791 932.825 547.165 932.648 547.579C932.47 547.994 932.379 548.44 932.379 548.89C932.379 549.341 932.47 549.787 932.648 550.202C932.825 550.616 933.084 550.99 933.41 551.301C933.736 551.613 934.121 551.855 934.543 552.013C934.965 552.171 935.415 552.242 935.865 552.222V566.029Z" fill="#1A3BE2"/>
<path d="M935.865 586.5V572.692C936.722 572.653 937.532 572.285 938.124 571.664C938.717 571.044 939.048 570.219 939.048 569.361C939.048 568.503 938.717 567.677 938.124 567.057C937.532 566.437 936.722 566.069 935.865 566.029V552.222C940.351 552.312 944.623 554.157 947.764 557.361C950.904 560.566 952.664 564.874 952.664 569.361C952.664 573.848 950.904 578.156 947.764 581.36C944.623 584.564 940.351 586.41 935.865 586.5V586.5Z" fill="#1A3BE2"/>
<path d="M935.865 606.969C933.586 607.015 931.32 606.606 929.2 605.765C927.081 604.924 925.15 603.669 923.522 602.073C921.894 600.477 920.6 598.572 919.717 596.47C918.834 594.368 918.379 592.111 918.379 589.83C918.379 587.55 918.834 585.293 919.717 583.191C920.6 581.089 921.894 579.184 923.522 577.588C925.15 575.992 927.081 574.737 929.2 573.896C931.32 573.055 933.586 572.646 935.865 572.691V586.499C935.415 586.479 934.965 586.55 934.543 586.708C934.121 586.866 933.736 587.108 933.41 587.419C933.084 587.731 932.825 588.105 932.648 588.519C932.47 588.934 932.379 589.38 932.379 589.83C932.379 590.281 932.47 590.727 932.648 591.141C932.825 591.556 933.084 591.93 933.41 592.241C933.736 592.553 934.121 592.795 934.543 592.953C934.965 593.111 935.415 593.182 935.865 593.162V606.969Z" fill="#1A3BE2"/>
<path d="M935.865 627.439V613.632C936.722 613.593 937.532 613.225 938.124 612.604C938.717 611.984 939.048 611.159 939.048 610.301C939.048 609.442 938.717 608.617 938.124 607.997C937.532 607.376 936.722 607.008 935.865 606.969V593.162C940.351 593.252 944.623 595.097 947.764 598.301C950.904 601.506 952.664 605.814 952.664 610.301C952.664 614.787 950.904 619.095 947.764 622.3C944.623 625.504 940.351 627.349 935.865 627.439V627.439Z" fill="#1A3BE2"/>
<path d="M935.865 647.909C933.586 647.955 931.32 647.546 929.2 646.705C927.081 645.864 925.15 644.609 923.522 643.013C921.894 641.417 920.6 639.512 919.717 637.41C918.834 635.308 918.379 633.05 918.379 630.77C918.379 628.49 918.834 626.233 919.717 624.131C920.6 622.029 921.894 620.124 923.522 618.528C925.15 616.932 927.081 615.677 929.2 614.836C931.32 613.995 933.586 613.586 935.865 613.631V627.439C935.415 627.419 934.965 627.49 934.543 627.648C934.121 627.806 933.736 628.048 933.41 628.359C933.084 628.671 932.825 629.045 932.648 629.459C932.47 629.874 932.379 630.32 932.379 630.77C932.379 631.221 932.47 631.667 932.648 632.081C932.825 632.496 933.084 632.87 933.41 633.181C933.736 633.493 934.121 633.735 934.543 633.893C934.965 634.051 935.415 634.122 935.865 634.101V647.909Z" fill="#1A3BE2"/>
<path d="M935.865 668.38H881.711V654.572H935.851C936.709 654.533 937.518 654.165 938.111 653.545C938.703 652.924 939.034 652.099 939.034 651.241C939.034 650.383 938.703 649.558 938.111 648.937C937.518 648.317 936.709 647.949 935.851 647.91V634.102C940.337 634.192 944.609 636.037 947.75 639.242C950.891 642.446 952.65 646.754 952.65 651.241C952.65 655.728 950.891 660.036 947.75 663.24C944.609 666.445 940.337 668.29 935.851 668.38H935.865Z" fill="#1A3BE2"/>
<path d="M935.865 545.559C931.32 545.554 926.963 543.746 923.749 540.532C920.536 537.319 918.728 532.962 918.722 528.417V425.783C918.676 423.504 919.086 421.238 919.927 419.118C920.767 416.999 922.023 415.068 923.619 413.44C925.215 411.812 927.12 410.518 929.222 409.635C931.324 408.752 933.581 408.297 935.861 408.297C938.141 408.297 940.398 408.752 942.501 409.635C944.603 410.518 946.508 411.812 948.104 413.44C949.7 415.068 950.955 416.999 951.796 419.118C952.636 421.238 953.046 423.504 953 425.783V528.417C952.996 532.961 951.19 537.318 947.978 540.532C944.765 543.746 940.409 545.554 935.865 545.559V545.559ZM935.865 422.449C934.981 422.451 934.134 422.802 933.509 423.427C932.884 424.052 932.532 424.899 932.53 425.783V528.417C932.51 528.867 932.58 529.317 932.739 529.739C932.897 530.161 933.139 530.546 933.45 530.872C933.762 531.198 934.136 531.457 934.55 531.635C934.964 531.812 935.41 531.903 935.861 531.903C936.312 531.903 936.758 531.812 937.172 531.635C937.587 531.457 937.961 531.198 938.272 530.872C938.583 530.546 938.826 530.161 938.984 529.739C939.142 529.317 939.213 528.867 939.192 528.417V425.783C939.192 424.9 938.842 424.053 938.218 423.428C937.594 422.803 936.748 422.451 935.865 422.449V422.449Z" fill="#1A3BE2"/>
<path d="M657.12 586.499V572.691C657.57 572.711 658.02 572.64 658.442 572.482C658.864 572.324 659.25 572.082 659.575 571.771C659.901 571.459 660.161 571.085 660.338 570.671C660.515 570.256 660.606 569.81 660.606 569.36C660.606 568.909 660.515 568.463 660.338 568.049C660.161 567.634 659.901 567.26 659.575 566.949C659.25 566.637 658.864 566.395 658.442 566.237C658.02 566.079 657.57 566.008 657.12 566.029V552.221C659.4 552.175 661.666 552.584 663.785 553.425C665.905 554.266 667.835 555.521 669.463 557.117C671.092 558.713 672.385 560.618 673.269 562.72C674.152 564.822 674.607 567.08 674.607 569.36C674.607 571.64 674.152 573.897 673.269 575.999C672.385 578.101 671.092 580.006 669.463 581.602C667.835 583.198 665.905 584.453 663.785 585.294C661.666 586.135 659.4 586.544 657.12 586.499V586.499Z" fill="#1A3BE2"/>
<path d="M657.12 606.969C652.634 606.879 648.362 605.034 645.221 601.83C642.08 598.625 640.321 594.317 640.321 589.83C640.321 585.343 642.08 581.035 645.221 577.831C648.362 574.627 652.634 572.781 657.12 572.691V586.499C656.262 586.538 655.453 586.906 654.86 587.527C654.268 588.147 653.937 588.972 653.937 589.83C653.937 590.688 654.268 591.514 654.86 592.134C655.453 592.754 656.262 593.122 657.12 593.162V606.969Z" fill="#1A3BE2"/>
<path d="M657.12 627.439V613.631C657.57 613.652 658.02 613.581 658.442 613.423C658.864 613.264 659.25 613.022 659.575 612.711C659.901 612.4 660.161 612.026 660.338 611.611C660.515 611.197 660.606 610.751 660.606 610.3C660.606 609.849 660.515 609.403 660.338 608.989C660.161 608.575 659.901 608.2 659.575 607.889C659.25 607.578 658.864 607.336 658.442 607.178C658.02 607.019 657.57 606.948 657.12 606.969V593.161C659.4 593.115 661.666 593.525 663.785 594.366C665.905 595.206 667.835 596.462 669.463 598.058C671.092 599.654 672.385 601.558 673.269 603.661C674.152 605.763 674.607 608.02 674.607 610.3C674.607 612.58 674.152 614.837 673.269 616.94C672.385 619.042 671.092 620.947 669.463 622.543C667.835 624.139 665.905 625.394 663.785 626.235C661.666 627.075 659.4 627.485 657.12 627.439V627.439Z" fill="#1A3BE2"/>
<path d="M657.12 647.909C652.634 647.819 648.362 645.974 645.221 642.77C642.08 639.565 640.321 635.257 640.321 630.77C640.321 626.283 642.08 621.975 645.221 618.771C648.362 615.567 652.634 613.721 657.12 613.631V627.439C656.262 627.478 655.453 627.846 654.86 628.467C654.268 629.087 653.937 629.912 653.937 630.77C653.937 631.628 654.268 632.454 654.86 633.074C655.453 633.694 656.262 634.062 657.12 634.101V647.909Z" fill="#1A3BE2"/>
<path d="M657.12 668.379H639.984V654.571H657.12C657.57 654.592 658.02 654.521 658.442 654.363C658.864 654.204 659.249 653.962 659.575 653.651C659.901 653.34 660.16 652.965 660.338 652.551C660.515 652.137 660.606 651.691 660.606 651.24C660.606 650.789 660.515 650.343 660.338 649.929C660.16 649.515 659.901 649.14 659.575 648.829C659.249 648.518 658.864 648.276 658.442 648.118C658.02 647.959 657.57 647.888 657.12 647.909V634.101C659.4 634.055 661.665 634.465 663.785 635.306C665.904 636.146 667.835 637.401 669.463 638.998C671.092 640.594 672.385 642.498 673.268 644.601C674.151 646.703 674.606 648.96 674.606 651.24C674.606 653.52 674.151 655.777 673.268 657.88C672.385 659.982 671.092 661.887 669.463 663.483C667.835 665.079 665.904 666.334 663.785 667.175C661.665 668.015 659.4 668.425 657.12 668.379V668.379Z" fill="#1A3BE2"/>
<path d="M657.12 484.149C652.576 484.141 648.221 482.333 645.009 479.119C641.797 475.906 639.99 471.55 639.984 467.006V369.482C640.074 364.996 641.92 360.724 645.124 357.583C648.328 354.442 652.636 352.683 657.123 352.683C661.61 352.683 665.918 354.442 669.123 357.583C672.327 360.724 674.172 364.996 674.262 369.482V467.006C674.257 471.551 672.449 475.908 669.235 479.122C666.022 482.335 661.665 484.143 657.12 484.149V484.149ZM657.12 366.154C656.237 366.154 655.391 366.504 654.767 367.129C654.143 367.753 653.792 368.599 653.792 369.482V467.006C653.772 467.456 653.843 467.906 654.001 468.328C654.159 468.75 654.401 469.136 654.712 469.461C655.024 469.787 655.398 470.047 655.812 470.224C656.227 470.401 656.673 470.492 657.123 470.492C657.574 470.492 658.02 470.401 658.434 470.224C658.849 470.047 659.223 469.787 659.534 469.461C659.846 469.136 660.088 468.75 660.246 468.328C660.404 467.906 660.475 467.456 660.454 467.006V369.482C660.449 368.601 660.095 367.759 659.47 367.139C658.845 366.52 658 366.173 657.12 366.175V366.154Z" fill="#1A3BE2"/>
<path d="M657.12 504.619V490.811C657.57 490.831 658.02 490.76 658.442 490.602C658.864 490.444 659.25 490.202 659.575 489.891C659.901 489.579 660.161 489.205 660.338 488.791C660.515 488.376 660.606 487.93 660.606 487.48C660.606 487.029 660.515 486.583 660.338 486.169C660.161 485.754 659.901 485.38 659.575 485.069C659.25 484.757 658.864 484.515 658.442 484.357C658.02 484.199 657.57 484.128 657.12 484.149V470.341C659.4 470.295 661.666 470.705 663.785 471.545C665.905 472.386 667.835 473.641 669.463 475.237C671.092 476.833 672.385 478.738 673.269 480.84C674.152 482.942 674.607 485.2 674.607 487.48C674.607 489.76 674.152 492.017 673.269 494.119C672.385 496.221 671.092 498.126 669.463 499.722C667.835 501.318 665.905 502.573 663.785 503.414C661.666 504.255 659.4 504.665 657.12 504.619V504.619Z" fill="#1A3BE2"/>
<path d="M657.12 525.089C652.634 524.999 648.362 523.154 645.221 519.949C642.08 516.745 640.321 512.437 640.321 507.95C640.321 503.463 642.08 499.155 645.221 495.951C648.362 492.746 652.634 490.901 657.12 490.811V504.619C656.262 504.658 655.453 505.026 654.86 505.646C654.268 506.267 653.937 507.092 653.937 507.95C653.937 508.808 654.268 509.633 654.86 510.254C655.453 510.874 656.262 511.242 657.12 511.281V525.089Z" fill="#1A3BE2"/>
<path d="M657.12 545.559V531.751C657.57 531.771 658.02 531.7 658.442 531.542C658.864 531.384 659.25 531.142 659.575 530.831C659.901 530.519 660.161 530.145 660.338 529.731C660.515 529.316 660.606 528.87 660.606 528.42C660.606 527.969 660.515 527.523 660.338 527.109C660.161 526.694 659.901 526.32 659.575 526.009C659.25 525.697 658.864 525.455 658.442 525.297C658.02 525.139 657.57 525.068 657.12 525.089V511.281C659.4 511.235 661.666 511.645 663.785 512.485C665.905 513.326 667.835 514.581 669.463 516.177C671.092 517.773 672.385 519.678 673.269 521.78C674.152 523.882 674.607 526.14 674.607 528.42C674.607 530.7 674.152 532.957 673.269 535.059C672.385 537.161 671.092 539.066 669.463 540.662C667.835 542.258 665.905 543.513 663.785 544.354C661.666 545.195 659.4 545.604 657.12 545.559V545.559Z" fill="#1A3BE2"/>
<path d="M657.12 566.029C652.634 565.939 648.362 564.094 645.221 560.889C642.08 557.685 640.321 553.377 640.321 548.89C640.321 544.403 642.08 540.095 645.221 536.891C648.362 533.686 652.634 531.841 657.12 531.751V545.559C656.262 545.598 655.453 545.966 654.86 546.586C654.268 547.207 653.937 548.032 653.937 548.89C653.937 549.748 654.268 550.573 654.86 551.194C655.453 551.814 656.262 552.182 657.12 552.221V566.029Z" fill="#1A3BE2"/>
<path d="M657.12 586.499V572.691C657.57 572.712 658.02 572.641 658.442 572.483C658.864 572.325 659.25 572.082 659.575 571.771C659.901 571.46 660.161 571.086 660.338 570.671C660.515 570.257 660.606 569.811 660.606 569.36C660.606 568.91 660.515 568.464 660.338 568.049C660.161 567.635 659.901 567.261 659.575 566.949C659.25 566.638 658.864 566.396 658.442 566.238C658.02 566.08 657.57 566.009 657.12 566.029V552.221C659.4 552.175 661.666 552.585 663.785 553.426C665.905 554.267 667.835 555.522 669.463 557.118C671.092 558.714 672.385 560.619 673.269 562.721C674.152 564.823 674.607 567.08 674.607 569.36C674.607 571.64 674.152 573.898 673.269 576C672.385 578.102 671.092 580.007 669.463 581.603C667.835 583.199 665.905 584.454 663.785 585.295C661.666 586.135 659.4 586.545 657.12 586.499V586.499Z" fill="#1A3BE2"/>
<path d="M580.01 519.227H563.268V350.986H580.01C584.69 351.021 589.166 352.911 592.454 356.243C595.742 359.575 597.573 364.076 597.545 368.756V501.491C597.562 506.165 595.726 510.656 592.44 513.98C589.153 517.304 584.684 519.191 580.01 519.227V519.227ZM577.075 505.419H580.01C581.028 505.385 581.992 504.949 582.691 504.207C583.389 503.464 583.766 502.476 583.738 501.457V368.77C583.754 368.264 583.671 367.76 583.493 367.286C583.314 366.813 583.044 366.379 582.698 366.009C582.352 365.64 581.936 365.343 581.475 365.134C581.013 364.925 580.516 364.81 580.01 364.794H577.075V505.419Z" fill="#1A3BE2"/>
<path d="M577.075 668.379H563.268V505.447H580.01C589.675 505.447 597.545 512.668 597.545 521.547H583.738C583.738 520.483 582.108 519.255 580.01 519.255H577.075V668.379Z" fill="#1A3BE2"/>
<path d="M597.553 521.526H583.745V654.578H597.553V521.526Z" fill="#1A3BE2"/>
<path d="M368.591 668.38H351V352.367H368.591C373.015 352.373 377.256 354.133 380.384 357.261C383.513 360.389 385.272 364.63 385.278 369.054V651.714C385.267 656.134 383.505 660.37 380.377 663.494C377.25 666.617 373.012 668.374 368.591 668.38V668.38ZM364.808 654.572H368.591C369.355 654.572 370.087 654.269 370.627 653.729C371.167 653.189 371.47 652.457 371.47 651.693V369.033C371.47 368.27 371.167 367.537 370.627 366.997C370.087 366.458 369.355 366.154 368.591 366.154H364.808V654.572Z" fill="#1A3BE2"/>
<path d="M490.12 379.582H476.312V507.946H490.12V379.582Z" fill="#1A3BE2"/>
<path d="M490.12 507.946H476.312V668.379H490.12V507.946Z" fill="#1A3BE2"/>
<path d="M531.806 517.267C527.26 517.262 522.901 515.452 519.689 512.235C516.476 509.018 514.671 504.657 514.671 500.111V369.482C514.761 364.996 516.606 360.724 519.811 357.583C523.015 354.443 527.323 352.684 531.81 352.684C536.297 352.684 540.605 354.443 543.809 357.583C547.013 360.724 548.859 364.996 548.949 369.482V500.111C548.947 504.658 547.141 509.019 543.927 512.235C540.713 515.452 536.354 517.262 531.806 517.267V517.267ZM531.806 366.154C530.924 366.154 530.077 366.505 529.453 367.129C528.829 367.753 528.479 368.599 528.479 369.482V500.111C528.458 500.561 528.529 501.011 528.687 501.433C528.846 501.855 529.088 502.24 529.399 502.566C529.71 502.892 530.084 503.151 530.499 503.329C530.913 503.506 531.359 503.597 531.81 503.597C532.261 503.597 532.707 503.506 533.121 503.329C533.535 503.151 533.909 502.892 534.221 502.566C534.532 502.24 534.774 501.855 534.932 501.433C535.091 501.011 535.162 500.561 535.141 500.111V369.482C535.134 368.602 534.779 367.761 534.155 367.142C533.53 366.523 532.686 366.175 531.806 366.175V366.154Z" fill="#1A3BE2"/>
<path d="M531.806 668.379C527.262 668.374 522.906 666.566 519.693 663.352C516.481 660.138 514.675 655.781 514.671 651.237V585.919H528.479V651.237C528.458 651.687 528.529 652.137 528.687 652.559C528.846 652.981 529.088 653.366 529.399 653.692C529.71 654.018 530.084 654.277 530.499 654.455C530.913 654.632 531.359 654.723 531.81 654.723C532.261 654.723 532.707 654.632 533.121 654.455C533.535 654.277 533.909 654.018 534.221 653.692C534.532 653.366 534.774 652.981 534.932 652.559C535.091 652.137 535.162 651.687 535.141 651.237V534.63H548.949V651.237C548.943 655.782 547.136 660.139 543.922 663.352C540.708 666.566 536.351 668.374 531.806 668.379Z" fill="#1A3BE2"/>
<path d="M528.479 428.262H514.671V612.451H528.479V428.262Z" fill="#1A3BE2"/>
<path d="M391.787 367.058L406.496 381.767L421.205 367.058L406.496 352.349L391.787 367.058Z" fill="#1A3BE2"/>
<path d="M601.626 366.154H615.434V352.346H601.626V366.154Z" fill="#1A3BE2"/>
<path d="M842.006 366.154H855.813V352.346H842.006V366.154Z" fill="#1A3BE2"/>
<path d="M472.233 654.572H437.955V668.38H472.233V654.572Z" fill="#1A3BE2"/>
<path d="M472.233 411.34H437.955V425.148H472.233V411.34Z" fill="#1A3BE2"/>
<path d="M455.097 650.988C450.553 650.985 446.196 649.178 442.982 645.966C439.769 642.753 437.961 638.397 437.955 633.853V391.443H451.763V633.853C451.802 634.71 452.17 635.519 452.79 636.112C453.411 636.705 454.236 637.036 455.094 637.036C455.952 637.036 456.777 636.705 457.398 636.112C458.018 635.519 458.386 634.71 458.425 633.853V551.973H472.233V633.853C472.229 638.396 470.423 642.753 467.21 645.965C463.997 649.178 459.641 650.985 455.097 650.988V650.988Z" fill="#1A3BE2"/>
<path d="M772.207 378.588H737.17V392.396H772.207V378.588Z" fill="#1A3BE2"/>
<path d="M750.978 408.641H722.141V422.448H750.978V408.641Z" fill="#1A3BE2"/>
<path d="M733.836 668.379C729.293 668.372 724.938 666.563 721.727 663.35C718.516 660.136 716.711 655.78 716.707 651.237V378.429H730.515V651.237C730.494 651.687 730.565 652.137 730.723 652.559C730.882 652.981 731.124 653.367 731.435 653.692C731.746 654.018 732.121 654.278 732.535 654.455C732.949 654.632 733.395 654.723 733.846 654.723C734.297 654.723 734.743 654.632 735.157 654.455C735.571 654.278 735.946 654.018 736.257 653.692C736.568 653.367 736.81 652.981 736.969 652.559C737.127 652.137 737.198 651.687 737.177 651.237V434.806H750.985V651.237C750.979 655.783 749.171 660.141 745.956 663.355C742.74 666.569 738.382 668.376 733.836 668.379V668.379Z" fill="#1A3BE2" stroke="#F8CD47" stroke-width="0.690391" stroke-miterlimit="10"/>
<path d="M782.439 668.379C777.895 668.374 773.537 666.566 770.324 663.352C767.11 660.139 765.302 655.782 765.297 651.237V352.367H779.105V651.237C779.084 651.687 779.155 652.137 779.313 652.559C779.471 652.981 779.714 653.366 780.025 653.692C780.336 654.018 780.71 654.277 781.125 654.455C781.539 654.632 781.985 654.723 782.436 654.723C782.887 654.723 783.332 654.632 783.747 654.455C784.161 654.277 784.535 654.018 784.847 653.692C785.158 653.366 785.4 652.981 785.558 652.559C785.716 652.137 785.787 651.687 785.767 651.237V385.505H799.575V651.237C799.569 655.78 797.762 660.136 794.55 663.35C791.338 666.563 786.983 668.372 782.439 668.379V668.379Z" fill="#1A3BE2"/>
<path d="M642.186 668.38H600.886C596.344 668.374 591.988 666.567 588.776 663.355C585.564 660.142 583.756 655.787 583.751 651.244H597.559C597.559 651.681 597.645 652.114 597.812 652.518C597.979 652.921 598.224 653.288 598.533 653.597C598.842 653.906 599.209 654.151 599.613 654.319C600.017 654.486 600.449 654.572 600.886 654.572H642.186V668.38Z" fill="#1A3BE2"/>
<path d="M692.15 378.429H678.342V668.379H692.15V378.429Z" fill="#1A3BE2"/>
<path d="M712.62 668.379H698.812V520.594C698.773 519.737 698.405 518.928 697.784 518.335C697.164 517.742 696.339 517.411 695.481 517.411C694.623 517.411 693.798 517.742 693.177 518.335C692.557 518.928 692.189 519.737 692.15 520.594H678.342C678.432 516.108 680.277 511.837 683.481 508.696C686.686 505.555 690.994 503.796 695.481 503.796C699.968 503.796 704.276 505.555 707.48 508.696C710.684 511.837 712.53 516.108 712.62 520.594V668.379Z" fill="#1A3BE2"/>
<path d="M817.463 668.38H803.655V367.997C803.571 367.517 803.32 367.082 802.947 366.769C802.574 366.456 802.102 366.284 801.615 366.284C801.127 366.284 800.656 366.456 800.283 366.769C799.909 367.082 799.659 367.517 799.575 367.997V391.664H785.746V367.997C785.999 363.966 787.778 360.182 790.723 357.416C793.667 354.651 797.555 353.111 801.594 353.111C805.634 353.111 809.521 354.651 812.465 357.416C815.41 360.182 817.189 363.966 817.442 367.997L817.463 668.38Z" fill="#1A3BE2"/>
<path d="M837.933 634.046H824.125V528.23C824.125 527.402 822.827 526.159 820.791 526.159C818.754 526.159 817.463 527.367 817.463 528.23V579.719H803.655V528.23C803.655 519.49 811.346 512.351 820.791 512.351C830.235 512.351 837.933 519.455 837.933 528.23V634.046Z" fill="#1A3BE2"/>
<path d="M839.969 668.379C835.764 668.37 831.734 666.693 828.764 663.716C825.793 660.739 824.125 656.706 824.125 652.5V624.864H837.933V652.535C838.017 653.015 838.268 653.45 838.641 653.763C839.014 654.077 839.486 654.249 839.973 654.249C840.46 654.249 840.932 654.077 841.305 653.763C841.678 653.45 841.929 653.015 842.013 652.535V373.928H855.821V652.535C855.812 656.736 854.138 660.761 851.168 663.731C848.197 666.701 844.17 668.372 839.969 668.379Z" fill="#1A3BE2"/>
<path d="M510.59 668.379H496.783V519.614C496.783 516.804 495.029 514.85 493.455 514.85C491.881 514.85 490.12 516.804 490.12 519.614H476.312C476.312 509.376 484.003 501.042 493.455 501.042C502.906 501.042 510.59 509.376 510.59 519.614V668.379Z" fill="#1A3BE2"/>
<path d="M900.897 646.176L876.291 458.57V646.17H862.483V352.346H876.229L900.842 539.946V391.402H914.649V646.17L900.897 646.176Z" fill="#1A3BE2"/>
<path d="M953 438.148H939.192V378.429C939.192 375.174 937.899 372.051 935.597 369.749C933.295 367.447 930.172 366.154 926.917 366.154C923.661 366.154 920.539 367.447 918.237 369.749C915.935 372.051 914.642 375.174 914.642 378.429V399.376H900.834V378.429C900.834 371.512 903.582 364.877 908.473 359.986C913.365 355.094 919.999 352.346 926.917 352.346C933.835 352.346 940.469 355.094 945.36 359.986C950.252 364.877 953 371.512 953 378.429V438.148Z" fill="#1A3BE2"/>
<path d="M490.121 399.645H476.313V378.698C476.313 375.443 475.02 372.32 472.718 370.018C470.416 367.716 467.294 366.423 464.038 366.423C460.782 366.423 457.66 367.716 455.358 370.018C453.056 372.32 451.763 375.443 451.763 378.698V399.645H437.955V378.698C437.955 371.781 440.703 365.146 445.595 360.255C450.486 355.363 457.12 352.615 464.038 352.615C470.956 352.615 477.59 355.363 482.481 360.255C487.373 365.146 490.121 371.781 490.121 378.698V399.645Z" fill="#1A3BE2"/>
<path d="M618.768 646.474V632.666C619.651 632.664 620.497 632.312 621.121 631.687C621.745 631.062 622.095 630.214 622.095 629.331V506.911H635.903V629.324C635.901 633.87 634.096 638.228 630.883 641.444C627.67 644.659 623.313 646.468 618.768 646.474V646.474Z" fill="#1A3BE2"/>
<path d="M618.767 646.473C614.223 646.468 609.866 644.66 606.652 641.446C603.438 638.233 601.63 633.876 601.625 629.331V373.928H615.433V629.324C615.435 630.208 615.787 631.055 616.412 631.68C617.036 632.305 617.884 632.657 618.767 632.659V646.473Z" fill="#1A3BE2"/>
<path d="M406.493 668.379C401.95 668.374 397.595 666.567 394.382 663.355C391.17 660.142 389.363 655.787 389.357 651.244V406.307C389.447 401.821 391.293 397.549 394.497 394.409C397.701 391.268 402.009 389.509 406.496 389.509C410.983 389.509 415.291 391.268 418.496 394.409C421.7 397.549 423.545 401.821 423.635 406.307V651.244C423.628 655.788 421.819 660.143 418.606 663.355C415.393 666.567 411.036 668.374 406.493 668.379V668.379ZM406.493 402.979C405.61 402.979 404.764 403.33 404.14 403.954C403.516 404.578 403.165 405.425 403.165 406.307V651.244C403.204 652.101 403.572 652.91 404.193 653.503C404.813 654.096 405.638 654.427 406.496 654.427C407.354 654.427 408.18 654.096 408.8 653.503C409.42 652.91 409.788 652.101 409.828 651.244V406.307C409.826 405.424 409.474 404.578 408.848 403.954C408.223 403.33 407.376 402.979 406.493 402.979V402.979Z" fill="#1A3BE2"/>
<path d="M881.71 668.379C876.586 668.368 871.676 666.328 868.053 662.705C864.43 659.082 862.39 654.172 862.379 649.048V645.472H876.187V649.048C876.187 650.513 876.769 651.918 877.804 652.954C878.84 653.99 880.245 654.572 881.71 654.572V668.379Z" fill="#1A3BE2"/>
<path d="M730.515 378.429H716.707C716.707 375.174 715.413 372.051 713.111 369.749C710.809 367.447 707.687 366.154 704.432 366.154C701.176 366.154 698.054 367.447 695.752 369.749C693.45 372.051 692.156 375.174 692.156 378.429H678.349C678.349 375.004 679.023 371.612 680.334 368.448C681.645 365.283 683.566 362.408 685.988 359.986C688.41 357.564 691.286 355.642 694.45 354.332C697.615 353.021 701.006 352.346 704.432 352.346C707.857 352.346 711.249 353.021 714.413 354.332C717.578 355.642 720.453 357.564 722.875 359.986C725.297 362.408 727.218 365.283 728.529 368.448C729.84 371.612 730.515 375.004 730.515 378.429Z" fill="#1A3BE2"/>
</g>
<defs>
<clipPath id="clip0_19_1114">
<rect width="602" height="317.725" fill="white" transform="translate(351 351)"/>
</clipPath>
</defs>
</svg>
