<svg width="1304" height="1020" viewBox="0 0 1304 1020" fill="none" xmlns="http://www.w3.org/2000/svg">
<rect width="1304" height="1020" fill="#0055FF"/>
<g clip-path="url(#clip0_20_1587)">
<path d="M370.615 430H353V517.692H370.615V430Z" fill="white"/>
<path d="M476.291 535.233H458.676V570.308H476.291V535.233Z" fill="white"/>
<path d="M511.514 552.767H493.899V587.843H511.514V552.767Z" fill="white"/>
<path d="M582.029 535.233H537.934V552.774H582.029V535.233Z" fill="white"/>
<path d="M652.351 430.062H634.736V482.678H652.351V430.062Z" fill="white"/>
<path d="M705.127 430.062H687.513V482.678H705.127V430.062Z" fill="white"/>
<path d="M652.476 482.616H634.861V552.773H652.476V482.616Z" fill="white"/>
<path d="M687.575 482.616H669.96V552.773H687.575V482.616Z" fill="white"/>
<path d="M722.804 500.219H705.189V587.837H722.804V500.219Z" fill="white"/>
<path d="M916.48 517.661H898.865V552.761H916.48V517.661Z" fill="white"/>
<path d="M793.126 500.219H775.512V587.88H793.126V500.219Z" fill="white"/>
<path d="M951.703 570.234H827.784V587.775H951.703V570.234Z" fill="white"/>
<path d="M546.744 465.075H529.129V587.843H546.744V465.075Z" fill="white"/>
<path d="M511.514 500.157H493.899V535.233H511.514V500.157Z" fill="white"/>
<path d="M423.453 517.692H353V535.233H423.453V517.692Z" fill="white"/>
<path d="M423.453 465.075H405.838V570.308H423.453V465.075Z" fill="white"/>
<path d="M617.19 500.157H599.575V587.849H617.19V500.157Z" fill="white"/>
<path d="M652.476 500.157H634.861V587.849H652.476V500.157Z" fill="white"/>
<path d="M388.211 552.767H370.627V587.843H388.211V552.767Z" fill="white"/>
<path d="M423.434 430.031H405.851V447.541H423.434V430.031Z" fill="white"/>
<path d="M687.625 570.327H670.041V587.837H687.625V570.327Z" fill="white"/>
<path d="M704.997 430H634.675V447.541H704.997V430Z" fill="white"/>
<path d="M758.028 430.062H740.413V589.204H758.028V430.062Z" fill="white"/>
<path d="M846.027 465.044H828.412V517.661H846.027V465.044Z" fill="white"/>
<path d="M916.473 465.088H829.922V482.629H916.473V465.088Z" fill="white"/>
<path d="M916.479 500.182H810.486V517.723H916.479V500.182Z" fill="white"/>
<path d="M951.951 535.208H810.486V552.749H951.951V535.208Z" fill="white"/>
<path d="M652.32 535.233H617.141V552.774H652.32V535.233Z" fill="white"/>
<path d="M582.029 570.308H529.253V587.849H582.029V570.308Z" fill="white"/>
<path d="M652.352 500.157H564.353V517.698H652.352V500.157Z" fill="white"/>
<path d="M704.997 465.075H599.514V482.616H704.997V465.075Z" fill="white"/>
<path d="M617.19 430H529.253V447.541H617.19V430Z" fill="white"/>
<path d="M617.19 570.401H529.253V587.942H617.19V570.401Z" fill="white"/>
<path d="M810.741 570.401H776.717V587.942H810.741V570.401Z" fill="white"/>
<path d="M756.891 465.137H722.55V482.678H756.891V465.137Z" fill="white"/>
<path d="M951.703 430H934.088V447.541H951.703V430Z" fill="white"/>
<path d="M951.703 465.088H934.088V517.661H951.703V465.088Z" fill="white"/>
<path d="M810.897 465.137H776.556V482.678H810.897V465.137Z" fill="white"/>
<path d="M915.771 430.062H828.033V447.603H915.771V430.062Z" fill="white"/>
<path d="M810.487 430.062H722.55V447.603H810.487V430.062Z" fill="white"/>
<path d="M458.676 430H441.062V517.692H458.676V430Z" fill="white"/>
<path d="M511.514 430H458.676V447.541H511.514V430Z" fill="white"/>
<path d="M581.96 465.075H458.676V482.616H581.96V465.075Z" fill="white"/>
<path d="M511.514 500.157H441.062V517.698H511.514V500.157Z" fill="white"/>
<path d="M476.291 570.308H405.838V587.849H476.291V570.308Z" fill="white"/>
</g>
<defs>
<clipPath id="clip0_20_1587">
<rect width="598.951" height="159.204" fill="white" transform="translate(353 430)"/>
</clipPath>
</defs>
</svg>
