<svg width="722" height="625" viewBox="0 0 722 625" fill="none" xmlns="http://www.w3.org/2000/svg">
<rect x="-2.38867" width="723.649" height="625" fill="#F2F2F2"/>
<rect x="197.438" y="305.75" width="92.0455" height="92.0455" fill="#19FFC1"/>
<rect x="197.438" y="227.205" width="92.0455" height="92.0455" fill="white"/>
<rect x="313.414" y="305.75" width="92.0455" height="92.0455" fill="black"/>
<rect x="313.414" y="227.205" width="92.0455" height="92.0455" fill="white"/>
<rect x="429.393" y="305.75" width="92.0455" height="92.0455" fill="#E5E5E5"/>
<rect x="429.393" y="227.205" width="92.0455" height="92.0455" fill="white"/>
<rect width="59" height="13" transform="translate(26 588)" fill="black"/>
<path d="M36.0398 594H35.5114C35.4801 593.848 35.4254 593.714 35.3473 593.599C35.2706 593.484 35.1768 593.388 35.0661 593.31C34.9567 593.23 34.8352 593.17 34.7017 593.131C34.5682 593.091 34.429 593.071 34.2841 593.071C34.0199 593.071 33.7805 593.138 33.5661 593.271C33.353 593.405 33.1832 593.602 33.0568 593.862C32.9318 594.121 32.8693 594.44 32.8693 594.818C32.8693 595.196 32.9318 595.515 33.0568 595.775C33.1832 596.035 33.353 596.232 33.5661 596.365C33.7805 596.499 34.0199 596.565 34.2841 596.565C34.429 596.565 34.5682 596.545 34.7017 596.506C34.8352 596.466 34.9567 596.407 35.0661 596.329C35.1768 596.249 35.2706 596.152 35.3473 596.037C35.4254 595.92 35.4801 595.787 35.5114 595.636H36.0398C36 595.859 35.9276 596.059 35.8224 596.235C35.7173 596.411 35.5866 596.561 35.4304 596.685C35.2741 596.807 35.0987 596.9 34.9041 596.964C34.7109 597.028 34.5043 597.06 34.2841 597.06C33.9119 597.06 33.581 596.969 33.2912 596.787C33.0014 596.605 32.7734 596.347 32.6072 596.011C32.4411 595.676 32.358 595.278 32.358 594.818C32.358 594.358 32.4411 593.96 32.6072 593.625C32.7734 593.29 33.0014 593.031 33.2912 592.849C33.581 592.668 33.9119 592.577 34.2841 592.577C34.5043 592.577 34.7109 592.609 34.9041 592.673C35.0987 592.737 35.2741 592.83 35.4304 592.954C35.5866 593.076 35.7173 593.225 35.8224 593.401C35.9276 593.576 36 593.776 36.0398 594ZM40.5755 594.818C40.5755 595.278 40.4924 595.676 40.3262 596.011C40.16 596.347 39.932 596.605 39.6422 596.787C39.3525 596.969 39.0215 597.06 38.6493 597.06C38.2772 597.06 37.9462 596.969 37.6564 596.787C37.3667 596.605 37.1387 596.347 36.9725 596.011C36.8063 595.676 36.7232 595.278 36.7232 594.818C36.7232 594.358 36.8063 593.96 36.9725 593.625C37.1387 593.29 37.3667 593.031 37.6564 592.849C37.9462 592.668 38.2772 592.577 38.6493 592.577C39.0215 592.577 39.3525 592.668 39.6422 592.849C39.932 593.031 40.16 593.29 40.3262 593.625C40.4924 593.96 40.5755 594.358 40.5755 594.818ZM40.0641 594.818C40.0641 594.44 40.0009 594.121 39.8745 593.862C39.7495 593.602 39.5797 593.405 39.3652 593.271C39.1522 593.138 38.9135 593.071 38.6493 593.071C38.3851 593.071 38.1458 593.138 37.9313 593.271C37.7182 593.405 37.5485 593.602 37.4221 593.862C37.2971 594.121 37.2346 594.44 37.2346 594.818C37.2346 595.196 37.2971 595.515 37.4221 595.775C37.5485 596.035 37.7182 596.232 37.9313 596.365C38.1458 596.499 38.3851 596.565 38.6493 596.565C38.9135 596.565 39.1522 596.499 39.3652 596.365C39.5797 596.232 39.7495 596.035 39.8745 595.775C40.0009 595.515 40.0641 595.196 40.0641 594.818ZM41.464 597V592.636H41.9924V596.531H44.0208V597H41.464ZM48.3509 594.818C48.3509 595.278 48.2678 595.676 48.1016 596.011C47.9354 596.347 47.7074 596.605 47.4176 596.787C47.1278 596.969 46.7969 597.06 46.4247 597.06C46.0526 597.06 45.7216 596.969 45.4318 596.787C45.142 596.605 44.9141 596.347 44.7479 596.011C44.5817 595.676 44.4986 595.278 44.4986 594.818C44.4986 594.358 44.5817 593.96 44.7479 593.625C44.9141 593.29 45.142 593.031 45.4318 592.849C45.7216 592.668 46.0526 592.577 46.4247 592.577C46.7969 592.577 47.1278 592.668 47.4176 592.849C47.7074 593.031 47.9354 593.29 48.1016 593.625C48.2678 593.96 48.3509 594.358 48.3509 594.818ZM47.8395 594.818C47.8395 594.44 47.7763 594.121 47.6499 593.862C47.5249 593.602 47.3551 593.405 47.1406 593.271C46.9276 593.138 46.6889 593.071 46.4247 593.071C46.1605 593.071 45.9212 593.138 45.7067 593.271C45.4936 593.405 45.3239 593.602 45.1974 593.862C45.0724 594.121 45.0099 594.44 45.0099 594.818C45.0099 595.196 45.0724 595.515 45.1974 595.775C45.3239 596.035 45.4936 596.232 45.7067 596.365C45.9212 596.499 46.1605 596.565 46.4247 596.565C46.6889 596.565 46.9276 596.499 47.1406 596.365C47.3551 596.232 47.5249 596.035 47.6499 595.775C47.7763 595.515 47.8395 595.196 47.8395 594.818ZM49.2393 597V592.636H50.7138C51.0547 592.636 51.3345 592.695 51.5533 592.811C51.772 592.926 51.9339 593.085 52.0391 593.286C52.1442 593.488 52.1967 593.717 52.1967 593.974C52.1967 594.232 52.1442 594.46 52.0391 594.658C51.9339 594.857 51.7727 595.013 51.5554 595.127C51.3381 595.239 51.0604 595.295 50.7223 595.295H49.5291V594.818H50.7053C50.9382 594.818 51.1257 594.784 51.2678 594.716C51.4112 594.648 51.5149 594.551 51.5788 594.426C51.6442 594.3 51.6768 594.149 51.6768 593.974C51.6768 593.8 51.6442 593.647 51.5788 593.516C51.5135 593.386 51.4091 593.285 51.2656 593.214C51.1222 593.141 50.9325 593.105 50.6967 593.105H49.7678V597H49.2393ZM51.2933 595.04L52.3672 597H51.7536L50.6967 595.04H51.2933ZM57.1511 593.727C57.1255 593.511 57.0218 593.344 56.84 593.224C56.6582 593.105 56.4352 593.045 56.171 593.045C55.9778 593.045 55.8088 593.077 55.6639 593.139C55.5204 593.202 55.4082 593.288 55.3272 593.397C55.2477 593.506 55.2079 593.631 55.2079 593.77C55.2079 593.886 55.2356 593.987 55.291 594.07C55.3478 594.153 55.4203 594.222 55.5083 594.277C55.5964 594.331 55.6887 594.376 55.7853 594.411C55.8819 594.445 55.9707 594.473 56.0517 594.494L56.4949 594.614C56.6085 594.643 56.7349 594.685 56.8741 594.737C57.0147 594.79 57.149 594.862 57.2768 594.952C57.4061 595.042 57.5126 595.157 57.5964 595.298C57.6802 595.438 57.7221 595.611 57.7221 595.815C57.7221 596.051 57.6603 596.264 57.5368 596.455C57.4146 596.645 57.2356 596.796 56.9998 596.908C56.7654 597.021 56.4806 597.077 56.1454 597.077C55.8329 597.077 55.5623 597.026 55.3336 596.925C55.1064 596.825 54.9274 596.684 54.7967 596.504C54.6674 596.323 54.5943 596.114 54.5772 595.875H55.1227C55.1369 596.04 55.1923 596.176 55.2889 596.284C55.3869 596.391 55.5105 596.47 55.6596 596.523C55.8102 596.574 55.9721 596.599 56.1454 596.599C56.3471 596.599 56.5282 596.567 56.6887 596.501C56.8493 596.435 56.9764 596.342 57.0701 596.224C57.1639 596.105 57.2108 595.966 57.2108 595.807C57.2108 595.662 57.1703 595.544 57.0893 595.453C57.0083 595.362 56.9018 595.288 56.7697 595.232C56.6376 595.175 56.4949 595.125 56.3414 595.082L55.8045 594.929C55.4636 594.831 55.1937 594.691 54.9949 594.509C54.796 594.327 54.6966 594.089 54.6966 593.795C54.6966 593.551 54.7626 593.338 54.8947 593.156C55.0282 592.973 55.2072 592.831 55.4316 592.73C55.6575 592.628 55.9096 592.577 56.188 592.577C56.4693 592.577 56.7193 592.627 56.938 592.728C57.1568 592.827 57.3301 592.964 57.4579 593.137C57.5872 593.31 57.6554 593.507 57.6625 593.727H57.1511ZM58.2159 592.636H58.821L60.0312 594.673H60.0824L61.2926 592.636H61.8977L60.321 595.202V597H59.7926V595.202L58.2159 592.636ZM64.9675 593.727C64.9419 593.511 64.8382 593.344 64.6564 593.224C64.4746 593.105 64.2516 593.045 63.9874 593.045C63.7942 593.045 63.6252 593.077 63.4803 593.139C63.3368 593.202 63.2246 593.288 63.1436 593.397C63.0641 593.506 63.0243 593.631 63.0243 593.77C63.0243 593.886 63.052 593.987 63.1074 594.07C63.1642 594.153 63.2367 594.222 63.3248 594.277C63.4128 594.331 63.5051 594.376 63.6017 594.411C63.6983 594.445 63.7871 594.473 63.8681 594.494L64.3113 594.614C64.4249 594.643 64.5513 594.685 64.6905 594.737C64.8311 594.79 64.9654 594.862 65.0932 594.952C65.2225 595.042 65.329 595.157 65.4128 595.298C65.4966 595.438 65.5385 595.611 65.5385 595.815C65.5385 596.051 65.4767 596.264 65.3532 596.455C65.231 596.645 65.052 596.796 64.8162 596.908C64.5819 597.021 64.2971 597.077 63.9618 597.077C63.6493 597.077 63.3787 597.026 63.15 596.925C62.9228 596.825 62.7438 596.684 62.6131 596.504C62.4838 596.323 62.4107 596.114 62.3936 595.875H62.9391C62.9533 596.04 63.0087 596.176 63.1053 596.284C63.2033 596.391 63.3269 596.47 63.476 596.523C63.6266 596.574 63.7885 596.599 63.9618 596.599C64.1635 596.599 64.3446 596.567 64.5051 596.501C64.6657 596.435 64.7928 596.342 64.8865 596.224C64.9803 596.105 65.0272 595.966 65.0272 595.807C65.0272 595.662 64.9867 595.544 64.9057 595.453C64.8248 595.362 64.7182 595.288 64.5861 595.232C64.454 595.175 64.3113 595.125 64.1578 595.082L63.6209 594.929C63.28 594.831 63.0101 594.691 62.8113 594.509C62.6124 594.327 62.513 594.089 62.513 593.795C62.513 593.551 62.579 593.338 62.7111 593.156C62.8446 592.973 63.0236 592.831 63.248 592.73C63.4739 592.628 63.726 592.577 64.0044 592.577C64.2857 592.577 64.5357 592.627 64.7544 592.728C64.9732 592.827 65.1465 592.964 65.2743 593.137C65.4036 593.31 65.4718 593.507 65.4789 593.727H64.9675ZM66.1687 593.105V592.636H69.4414V593.105H68.0692V597H67.5408V593.105H66.1687ZM70.2569 597V592.636H72.8904V593.105H70.7853V594.58H72.7541V595.048H70.7853V596.531H72.9245V597H70.2569ZM73.8429 592.636H74.4735L75.9565 596.259H76.0076L77.4906 592.636H78.1213V597H77.627V593.685H77.5843L76.2207 597H75.7434L74.3798 593.685H74.3372V597H73.8429V592.636Z" fill="white"/>
</svg>
