<svg width="1440" height="936" viewBox="0 0 1440 936" fill="none" xmlns="http://www.w3.org/2000/svg">
<rect width="1440" height="936" fill="white"/>
<rect width="52" height="13" transform="translate(23 900)" fill="black"/>
<path d="M29.5284 909V904.636H31.054C31.358 904.636 31.6087 904.689 31.8061 904.794C32.0036 904.898 32.1506 905.038 32.2472 905.214C32.3438 905.388 32.392 905.582 32.392 905.795C32.392 905.983 32.3587 906.138 32.2919 906.26C32.2266 906.382 32.1399 906.479 32.032 906.55C31.9254 906.621 31.8097 906.673 31.6847 906.707V906.75C31.8182 906.759 31.9524 906.805 32.0874 906.891C32.2223 906.976 32.3352 907.098 32.4261 907.257C32.517 907.416 32.5625 907.611 32.5625 907.841C32.5625 908.06 32.5128 908.256 32.4134 908.431C32.3139 908.606 32.157 908.744 31.9425 908.847C31.728 908.949 31.4489 909 31.1051 909H29.5284ZM30.0568 908.531H31.1051C31.4503 908.531 31.6953 908.464 31.8402 908.331C31.9865 908.196 32.0597 908.033 32.0597 907.841C32.0597 907.693 32.022 907.557 31.9467 907.432C31.8714 907.305 31.7642 907.205 31.625 907.129C31.4858 907.053 31.321 907.014 31.1307 907.014H30.0568V908.531ZM30.0568 906.554H31.0369C31.196 906.554 31.3395 906.523 31.4673 906.46C31.5966 906.398 31.6989 906.31 31.7741 906.196C31.8509 906.082 31.8892 905.949 31.8892 905.795C31.8892 905.604 31.8224 905.441 31.6889 905.308C31.5554 905.173 31.3438 905.105 31.054 905.105H30.0568V906.554ZM33.4308 909V904.636H34.9052C35.2461 904.636 35.5259 904.695 35.7447 904.811C35.9634 904.926 36.1254 905.085 36.2305 905.286C36.3356 905.488 36.3881 905.717 36.3881 905.974C36.3881 906.232 36.3356 906.46 36.2305 906.658C36.1254 906.857 35.9641 907.013 35.7468 907.127C35.5295 907.239 35.2518 907.295 34.9137 907.295H33.7205V906.818H34.8967C35.1296 906.818 35.3171 906.784 35.4592 906.716C35.6026 906.648 35.7063 906.551 35.7702 906.426C35.8356 906.3 35.8683 906.149 35.8683 905.974C35.8683 905.8 35.8356 905.647 35.7702 905.516C35.7049 905.386 35.6005 905.285 35.457 905.214C35.3136 905.141 35.1239 905.105 34.8881 905.105H33.9592V909H33.4308ZM35.4847 907.04L36.5586 909H35.945L34.8881 907.04H35.4847ZM37.4476 909H36.8936L38.4959 904.636H39.0414L40.6436 909H40.0897L38.7857 905.327H38.7516L37.4476 909ZM37.6522 907.295H39.8851V907.764H37.6522V907.295ZM44.7836 904.636V909H44.2722L41.8944 905.574H41.8517V909H41.3233V904.636H41.8347L44.2211 908.071H44.2637V904.636H44.7836ZM47.1875 909H45.8409V904.636H47.2472C47.6705 904.636 48.0327 904.724 48.3338 904.898C48.6349 905.072 48.8658 905.321 49.0263 905.646C49.1868 905.97 49.267 906.358 49.267 906.81C49.267 907.264 49.1861 907.656 49.0241 907.984C48.8622 908.31 48.6264 908.562 48.3168 908.738C48.0071 908.913 47.6307 909 47.1875 909ZM46.3693 908.531H47.1534C47.5142 908.531 47.8132 908.462 48.0504 908.322C48.2876 908.183 48.4645 907.985 48.581 907.728C48.6974 907.471 48.7557 907.165 48.7557 906.81C48.7557 906.457 48.6982 906.154 48.5831 905.9C48.468 905.644 48.2962 905.448 48.0675 905.312C47.8388 905.174 47.554 905.105 47.2131 905.105H46.3693V908.531ZM51.8409 904.636H52.4716L53.9545 908.259H54.0057L55.4886 904.636H56.1193V909H55.625V905.685H55.5824L54.2188 909H53.7415L52.3778 905.685H52.3352V909H51.8409V904.636ZM57.3578 909H56.8038L58.4061 904.636H58.9515L60.5538 909H59.9998L58.6958 905.327H58.6618L57.3578 909ZM57.5623 907.295H59.7953V907.764H57.5623V907.295ZM61.2335 909V904.636H62.7079C63.0488 904.636 63.3287 904.695 63.5474 904.811C63.7662 904.926 63.9281 905.085 64.0332 905.286C64.1383 905.488 64.1909 905.717 64.1909 905.974C64.1909 906.232 64.1383 906.46 64.0332 906.658C63.9281 906.857 63.7669 907.013 63.5495 907.127C63.3322 907.239 63.0545 907.295 62.7164 907.295H61.5233V906.818H62.6994C62.9324 906.818 63.1199 906.784 63.2619 906.716C63.4054 906.648 63.5091 906.551 63.573 906.426C63.6383 906.3 63.671 906.149 63.671 905.974C63.671 905.8 63.6383 905.647 63.573 905.516C63.5076 905.386 63.4032 905.285 63.2598 905.214C63.1163 905.141 62.9267 905.105 62.6909 905.105H61.7619V909H61.2335ZM63.2875 907.04L64.3613 909H63.7477L62.6909 907.04H63.2875ZM65.0714 909V904.636H65.5998V906.801H65.6509L67.6112 904.636H68.3015L66.4691 906.605L68.3015 909H67.6623L66.1452 906.972L65.5998 907.585V909H65.0714Z" fill="white"/>
<g clip-path="url(#clip0_508_3448)">
<path d="M658.896 425.016H739.796C751.267 425.016 762.267 429.585 770.378 437.719C778.489 445.852 783.045 456.883 783.045 468.386V538.5H658.896V425.016Z" fill="#19FFC1"/>
<path d="M679.536 448.146V488.625H670.166V472.024H651.833V488.625H642.486V448.146H651.833V464.097H670.166V448.146H679.536Z" fill="black"/>
<path d="M697.316 486.697C694.032 484.929 691.287 482.302 689.373 479.094C687.46 475.887 686.449 472.219 686.449 468.481C686.449 464.744 687.46 461.076 689.373 457.869C691.287 454.661 694.032 452.034 697.316 450.266C700.811 448.425 704.709 447.489 708.657 447.544C712.589 447.486 716.473 448.422 719.949 450.266C723.24 452.028 725.992 454.653 727.911 457.862C729.829 461.07 730.843 464.741 730.843 468.481C730.843 472.222 729.829 475.893 727.911 479.101C725.992 482.31 723.24 484.935 719.949 486.697C716.473 488.541 712.589 489.477 708.657 489.419C704.709 489.474 700.811 488.538 697.316 486.697ZM715.12 479.782C717.026 478.703 718.591 477.108 719.637 475.18C720.766 473.131 721.337 470.821 721.295 468.481C721.335 466.134 720.763 463.817 719.637 461.759C718.59 459.838 717.024 458.252 715.12 457.181C713.139 456.091 710.916 455.519 708.657 455.519C706.397 455.519 704.174 456.091 702.193 457.181C700.289 458.252 698.723 459.838 697.676 461.759C696.55 463.817 695.978 466.134 696.018 468.481C695.976 470.821 696.548 473.131 697.676 475.18C698.722 477.108 700.287 478.703 702.193 479.782C704.179 480.857 706.4 481.42 708.657 481.42C710.913 481.42 713.134 480.857 715.12 479.782V479.782Z" fill="black"/>
<path d="M647.34 527.898C645.66 526.06 644.368 523.9 643.542 521.548C642.716 519.196 642.374 516.701 642.535 514.213V491.516H651.881V513.827C651.881 521.071 654.877 524.693 660.868 524.693C662.109 524.779 663.354 524.588 664.513 524.133C665.672 523.679 666.716 522.974 667.571 522.067C669.334 519.7 670.187 516.774 669.974 513.827V491.516H679.2V514.188C679.078 517.822 677.927 521.346 675.882 524.348C673.836 527.35 670.981 529.706 667.65 531.141C664.319 532.577 660.649 533.031 657.07 532.453C653.49 531.874 650.149 530.286 647.436 527.874L647.34 527.898Z" fill="black"/>
<path d="M694.89 531.417C692.298 530.742 689.854 529.59 687.682 528.02L690.853 520.96C692.734 522.313 694.819 523.354 697.028 524.044C699.355 524.808 701.788 525.199 704.236 525.201C706.271 525.334 708.303 524.918 710.123 523.996C710.693 523.695 711.17 523.245 711.504 522.693C711.838 522.142 712.017 521.509 712.021 520.864C712.028 520.403 711.93 519.946 711.734 519.529C711.538 519.111 711.25 518.744 710.892 518.455C710.038 517.761 709.059 517.237 708.009 516.913C706.831 516.527 705.246 516.117 703.203 515.66C700.646 515.076 698.126 514.336 695.659 513.443C693.701 512.729 691.962 511.517 690.613 509.925C689.13 508.103 688.376 505.793 688.499 503.444C688.472 501.172 689.134 498.946 690.397 497.059C691.834 495.024 693.828 493.45 696.139 492.529C699.112 491.32 702.303 490.746 705.51 490.842C708.052 490.843 710.585 491.15 713.054 491.758C715.335 492.307 717.515 493.209 719.518 494.433L716.634 501.661C713.253 499.637 709.4 498.54 705.462 498.48C703.442 498.34 701.424 498.783 699.647 499.757C699.07 500.103 698.593 500.594 698.265 501.181C697.936 501.769 697.766 502.433 697.773 503.106C697.769 503.782 697.976 504.442 698.363 504.995C698.751 505.547 699.3 505.965 699.936 506.191C702.064 507.083 704.278 507.753 706.543 508.19C709.104 508.783 711.63 509.515 714.112 510.383C716.045 511.12 717.775 512.31 719.157 513.853C720.627 515.662 721.372 517.955 721.248 520.286C721.259 522.544 720.588 524.753 719.326 526.623C717.87 528.659 715.859 530.232 713.535 531.152C710.54 532.342 707.337 532.916 704.116 532.839C700.989 532.805 697.883 532.326 694.89 531.417V531.417Z" fill="black"/>
<path d="M759.595 524.501V532.018H728.359V491.516H758.85V499.033H737.634V507.827H756.375V515.056H737.634V524.428L759.595 524.501Z" fill="black"/>
<path d="M767.259 530.404C766.73 529.875 766.314 529.243 766.037 528.547C765.76 527.851 765.628 527.106 765.65 526.356C765.617 525.609 765.744 524.864 766.021 524.17C766.299 523.476 766.721 522.85 767.259 522.333C768.347 521.341 769.765 520.791 771.236 520.791C772.707 520.791 774.124 521.341 775.212 522.333C775.751 522.85 776.173 523.476 776.451 524.17C776.728 524.864 776.855 525.609 776.822 526.356C776.837 527.479 776.517 528.581 775.903 529.521C775.29 530.46 774.41 531.194 773.378 531.629C772.345 532.064 771.206 532.18 770.108 531.962C769.009 531.743 768.001 531.201 767.211 530.404H767.259Z" fill="black"/>
<path d="M642.51 404.777H660.843C664.853 404.668 668.833 405.493 672.472 407.187C675.704 408.749 678.422 411.208 680.305 414.27C682.146 417.512 683.114 421.178 683.114 424.908C683.114 428.638 682.146 432.304 680.305 435.546C678.436 438.62 675.714 441.081 672.472 442.629C668.847 444.376 664.863 445.242 660.843 445.159H642.51V404.777ZM660.386 437.569C663.909 437.737 667.357 436.518 669.997 434.172C672.311 431.683 673.598 428.407 673.598 425.004C673.598 421.602 672.311 418.325 669.997 415.836C667.349 413.509 663.904 412.3 660.386 412.463H651.856V437.569H660.386Z" fill="black"/>
<path d="M716.153 436.605H697.412L693.832 445.279H684.221L702.217 404.801H711.444L729.488 445.279H719.685L716.153 436.605ZM713.222 429.497L706.806 413.98L700.415 429.497H713.222Z" fill="black"/>
<path d="M737.441 412.005L797.51 397.549V493.083L737.441 478.506V412.005Z" fill="#E5E5E5"/>
</g>
<defs>
<clipPath id="clip0_508_3448">
<rect width="155" height="141" fill="white" transform="translate(642.51 397.5)"/>
</clipPath>
</defs>
</svg>
