<svg width="720" height="625" viewBox="0 0 720 625" fill="none" xmlns="http://www.w3.org/2000/svg">
<rect width="723.649" height="625" fill="#19FFC1"/>
<path d="M403.792 594.483H427.699L383.682 495.613H361.181L317.305 594.483H340.649L349.368 573.297H395.073L403.792 594.483ZM356.681 555.924L372.291 518.071L387.901 555.924H356.681Z" fill="white"/>
<path d="M466.882 517.365C454.788 517.365 442.553 520.613 434.256 526.545L442.131 541.941C447.615 537.562 455.913 534.879 463.928 534.879C475.741 534.879 481.367 540.387 481.367 549.851H463.928C440.865 549.851 431.443 559.173 431.443 572.591C431.443 585.726 441.99 595.613 459.71 595.613C470.819 595.613 478.695 591.941 482.773 585.02V594.483H503.305V551.122C503.305 528.099 489.945 517.365 466.882 517.365ZM465.194 580.783C457.46 580.783 452.819 577.11 452.819 571.602C452.819 566.517 456.053 562.704 466.319 562.704H481.367V570.472C478.835 577.393 472.507 580.783 465.194 580.783Z" fill="white"/>
<path d="M534.749 595.609V577.409H537.531L545.487 590.695H544.031L551.857 577.409H554.639L554.665 595.609H551.467L551.441 582.427H552.117L545.461 593.529H543.953L537.193 582.427H537.973V595.609H534.749ZM565.509 595.791C564.087 595.791 562.822 595.488 561.713 594.881C560.603 594.257 559.728 593.408 559.087 592.333C558.445 591.259 558.125 590.037 558.125 588.667C558.125 587.281 558.445 586.059 559.087 585.001C559.728 583.927 560.603 583.086 561.713 582.479C562.822 581.873 564.087 581.569 565.509 581.569C566.947 581.569 568.221 581.873 569.331 582.479C570.457 583.086 571.333 583.918 571.957 584.975C572.598 586.033 572.919 587.263 572.919 588.667C572.919 590.037 572.598 591.259 571.957 592.333C571.333 593.408 570.457 594.257 569.331 594.881C568.221 595.488 566.947 595.791 565.509 595.791ZM565.509 593.009C566.306 593.009 567.017 592.836 567.641 592.489C568.265 592.143 568.75 591.64 569.097 590.981C569.461 590.323 569.643 589.551 569.643 588.667C569.643 587.766 569.461 586.995 569.097 586.353C568.75 585.695 568.265 585.192 567.641 584.845C567.017 584.499 566.315 584.325 565.535 584.325C564.737 584.325 564.027 584.499 563.403 584.845C562.796 585.192 562.311 585.695 561.947 586.353C561.583 586.995 561.401 587.766 561.401 588.667C561.401 589.551 561.583 590.323 561.947 590.981C562.311 591.64 562.796 592.143 563.403 592.489C564.027 592.836 564.729 593.009 565.509 593.009ZM583.905 581.569C585.014 581.569 586.002 581.786 586.869 582.219C587.753 582.653 588.446 583.32 588.949 584.221C589.451 585.105 589.703 586.249 589.703 587.653V595.609H586.453V588.069C586.453 586.839 586.158 585.92 585.569 585.313C584.997 584.707 584.191 584.403 583.151 584.403C582.388 584.403 581.712 584.559 581.123 584.871C580.533 585.183 580.074 585.651 579.745 586.275C579.433 586.882 579.277 587.653 579.277 588.589V595.609H576.027V581.725H579.121V585.469L578.575 584.325C579.06 583.441 579.762 582.765 580.681 582.297C581.617 581.812 582.691 581.569 583.905 581.569ZM599.051 595.791C597.526 595.791 596.347 595.401 595.515 594.621C594.683 593.824 594.267 592.654 594.267 591.111V578.657H597.517V591.033C597.517 591.692 597.682 592.203 598.011 592.567C598.358 592.931 598.835 593.113 599.441 593.113C600.169 593.113 600.776 592.923 601.261 592.541L602.171 594.855C601.79 595.167 601.322 595.401 600.767 595.557C600.213 595.713 599.641 595.791 599.051 595.791ZM591.979 584.429V581.829H601.235V584.429H591.979ZM609.135 595.791C607.974 595.791 606.856 595.644 605.781 595.349C604.724 595.037 603.883 594.665 603.259 594.231L604.507 591.761C605.131 592.16 605.876 592.489 606.743 592.749C607.61 593.009 608.476 593.139 609.343 593.139C610.366 593.139 611.102 593.001 611.553 592.723C612.021 592.446 612.255 592.073 612.255 591.605C612.255 591.224 612.099 590.938 611.787 590.747C611.475 590.539 611.068 590.383 610.565 590.279C610.062 590.175 609.499 590.08 608.875 589.993C608.268 589.907 607.653 589.794 607.029 589.655C606.422 589.499 605.868 589.283 605.365 589.005C604.862 588.711 604.455 588.321 604.143 587.835C603.831 587.35 603.675 586.709 603.675 585.911C603.675 585.027 603.926 584.265 604.429 583.623C604.932 582.965 605.634 582.462 606.535 582.115C607.454 581.751 608.537 581.569 609.785 581.569C610.721 581.569 611.666 581.673 612.619 581.881C613.572 582.089 614.361 582.384 614.985 582.765L613.737 585.235C613.078 584.837 612.411 584.568 611.735 584.429C611.076 584.273 610.418 584.195 609.759 584.195C608.771 584.195 608.034 584.343 607.549 584.637C607.081 584.932 606.847 585.305 606.847 585.755C606.847 586.171 607.003 586.483 607.315 586.691C607.627 586.899 608.034 587.064 608.537 587.185C609.04 587.307 609.594 587.411 610.201 587.497C610.825 587.567 611.44 587.679 612.047 587.835C612.654 587.991 613.208 588.208 613.711 588.485C614.231 588.745 614.647 589.118 614.959 589.603C615.271 590.089 615.427 590.721 615.427 591.501C615.427 592.368 615.167 593.122 614.647 593.763C614.144 594.405 613.425 594.907 612.489 595.271C611.553 595.618 610.435 595.791 609.135 595.791ZM624.752 595.791C623.209 595.791 621.857 595.488 620.696 594.881C619.552 594.257 618.659 593.408 618.018 592.333C617.394 591.259 617.082 590.037 617.082 588.667C617.082 587.281 617.385 586.059 617.992 585.001C618.616 583.927 619.465 583.086 620.54 582.479C621.632 581.873 622.871 581.569 624.258 581.569C625.61 581.569 626.814 581.864 627.872 582.453C628.929 583.043 629.761 583.875 630.368 584.949C630.974 586.024 631.278 587.289 631.278 588.745C631.278 588.884 631.269 589.04 631.252 589.213C631.252 589.387 631.243 589.551 631.226 589.707H619.656V587.549H629.51L628.236 588.225C628.253 587.428 628.088 586.726 627.742 586.119C627.395 585.513 626.918 585.036 626.312 584.689C625.722 584.343 625.038 584.169 624.258 584.169C623.46 584.169 622.758 584.343 622.152 584.689C621.562 585.036 621.094 585.521 620.748 586.145C620.418 586.752 620.254 587.471 620.254 588.303V588.823C620.254 589.655 620.444 590.392 620.826 591.033C621.207 591.675 621.744 592.169 622.438 592.515C623.131 592.862 623.928 593.035 624.83 593.035C625.61 593.035 626.312 592.914 626.936 592.671C627.56 592.429 628.114 592.047 628.6 591.527L630.342 593.529C629.718 594.257 628.929 594.821 627.976 595.219C627.04 595.601 625.965 595.791 624.752 595.791ZM634.4 595.609V581.725H637.494V585.547L637.13 584.429C637.546 583.493 638.196 582.783 639.08 582.297C639.981 581.812 641.099 581.569 642.434 581.569V584.663C642.295 584.629 642.165 584.611 642.044 584.611C641.922 584.594 641.801 584.585 641.68 584.585C640.449 584.585 639.47 584.949 638.742 585.677C638.014 586.388 637.65 587.454 637.65 588.875V595.609H634.4ZM645.191 595.609V581.725H648.285V585.547L647.921 584.429C648.337 583.493 648.987 582.783 649.871 582.297C650.772 581.812 651.89 581.569 653.225 581.569V584.663C653.086 584.629 652.956 584.611 652.835 584.611C652.713 584.594 652.592 584.585 652.471 584.585C651.24 584.585 650.261 584.949 649.533 585.677C648.805 586.388 648.441 587.454 648.441 588.875V595.609H645.191ZM663.545 595.609V592.801L663.363 592.203V587.289C663.363 586.336 663.077 585.599 662.505 585.079C661.933 584.542 661.067 584.273 659.905 584.273C659.125 584.273 658.354 584.395 657.591 584.637C656.846 584.88 656.213 585.218 655.693 585.651L654.419 583.285C655.165 582.713 656.049 582.289 657.071 582.011C658.111 581.717 659.186 581.569 660.295 581.569C662.306 581.569 663.857 582.055 664.949 583.025C666.059 583.979 666.613 585.461 666.613 587.471V595.609H663.545ZM659.177 595.791C658.137 595.791 657.227 595.618 656.447 595.271C655.667 594.907 655.061 594.413 654.627 593.789C654.211 593.148 654.003 592.429 654.003 591.631C654.003 590.851 654.185 590.149 654.549 589.525C654.931 588.901 655.546 588.407 656.395 588.043C657.245 587.679 658.371 587.497 659.775 587.497H663.805V589.655H660.009C658.9 589.655 658.155 589.837 657.773 590.201C657.392 590.548 657.201 590.981 657.201 591.501C657.201 592.091 657.435 592.559 657.903 592.905C658.371 593.252 659.021 593.425 659.853 593.425C660.651 593.425 661.361 593.243 661.985 592.879C662.627 592.515 663.086 591.978 663.363 591.267L663.909 593.217C663.597 594.032 663.034 594.665 662.219 595.115C661.422 595.566 660.408 595.791 659.177 595.791ZM676.01 595.791C674.485 595.791 673.306 595.401 672.474 594.621C671.642 593.824 671.226 592.654 671.226 591.111V578.657H674.476V591.033C674.476 591.692 674.641 592.203 674.97 592.567C675.317 592.931 675.794 593.113 676.4 593.113C677.128 593.113 677.735 592.923 678.22 592.541L679.13 594.855C678.749 595.167 678.281 595.401 677.726 595.557C677.172 595.713 676.6 595.791 676.01 595.791ZM668.938 584.429V581.829H678.194V584.429H668.938Z" fill="white"/>
<rect width="54" height="13" transform="translate(24 581.5)" fill="black"/>
<path d="M30.2898 586.605V586.136H33.5625V586.605H32.1903V590.5H31.6619V586.605H30.2898ZM34.003 586.136H34.6081L35.8184 588.173H35.8695L37.0797 586.136H37.6848L36.1081 588.702V590.5H35.5797V588.702L34.003 586.136ZM38.3683 590.5V586.136H39.8427C40.185 586.136 40.4648 586.198 40.6822 586.322C40.9009 586.444 41.0629 586.609 41.168 586.818C41.2731 587.027 41.3256 587.26 41.3256 587.517C41.3256 587.774 41.2731 588.008 41.168 588.218C41.0643 588.428 40.9038 588.596 40.6864 588.721C40.4691 588.844 40.1907 588.906 39.8512 588.906H38.7944V588.438H39.8342C40.0685 588.438 40.2567 588.397 40.3988 588.316C40.5408 588.235 40.6438 588.126 40.7077 587.988C40.7731 587.849 40.8058 587.692 40.8058 587.517C40.8058 587.342 40.7731 587.186 40.7077 587.048C40.6438 586.911 40.5401 586.803 40.3967 586.724C40.2532 586.645 40.0629 586.605 39.8256 586.605H38.8967V590.5H38.3683ZM42.1768 590.5V586.136H44.8104V586.605H42.7053V588.08H44.674V588.548H42.7053V590.031H44.8445V590.5H42.1768ZM49.8366 587.227C49.8111 587.011 49.7074 586.844 49.5256 586.724C49.3438 586.605 49.1207 586.545 48.8565 586.545C48.6634 586.545 48.4943 586.577 48.3494 586.639C48.206 586.702 48.0938 586.788 48.0128 586.897C47.9332 587.006 47.8935 587.131 47.8935 587.27C47.8935 587.386 47.9212 587.487 47.9766 587.57C48.0334 587.653 48.1058 587.722 48.1939 587.777C48.282 587.831 48.3743 587.876 48.4709 587.911C48.5675 587.945 48.6562 587.973 48.7372 587.994L49.1804 588.114C49.294 588.143 49.4205 588.185 49.5597 588.237C49.7003 588.29 49.8345 588.362 49.9624 588.452C50.0916 588.542 50.1982 588.657 50.282 588.798C50.3658 588.938 50.4077 589.111 50.4077 589.315C50.4077 589.551 50.3459 589.764 50.2223 589.955C50.1001 590.145 49.9212 590.296 49.6854 590.408C49.451 590.521 49.1662 590.577 48.831 590.577C48.5185 590.577 48.2479 590.526 48.0192 590.425C47.7919 590.325 47.6129 590.184 47.4822 590.004C47.353 589.823 47.2798 589.614 47.2628 589.375H47.8082C47.8224 589.54 47.8778 589.676 47.9744 589.784C48.0724 589.891 48.196 589.97 48.3452 590.023C48.4957 590.074 48.6577 590.099 48.831 590.099C49.0327 590.099 49.2138 590.067 49.3743 590.001C49.5348 589.935 49.6619 589.842 49.7557 589.724C49.8494 589.605 49.8963 589.466 49.8963 589.307C49.8963 589.162 49.8558 589.044 49.7749 588.953C49.6939 588.862 49.5874 588.788 49.4553 588.732C49.3232 588.675 49.1804 588.625 49.027 588.582L48.4901 588.429C48.1491 588.331 47.8793 588.191 47.6804 588.009C47.4815 587.827 47.3821 587.589 47.3821 587.295C47.3821 587.051 47.4482 586.838 47.5803 586.656C47.7138 586.473 47.8928 586.331 48.1172 586.23C48.343 586.128 48.5952 586.077 48.8736 586.077C49.1548 586.077 49.4048 586.127 49.6236 586.228C49.8423 586.327 50.0156 586.464 50.1435 586.637C50.2727 586.81 50.3409 587.007 50.348 587.227H49.8366ZM50.9015 586.136H51.5066L52.7168 588.173H52.7679L53.9782 586.136H54.5833L53.0066 588.702V590.5H52.4782V588.702L50.9015 586.136ZM57.6531 587.227C57.6275 587.011 57.5238 586.844 57.342 586.724C57.1602 586.605 56.9371 586.545 56.6729 586.545C56.4798 586.545 56.3107 586.577 56.1658 586.639C56.0224 586.702 55.9102 586.788 55.8292 586.897C55.7496 587.006 55.7099 587.131 55.7099 587.27C55.7099 587.386 55.7376 587.487 55.793 587.57C55.8498 587.653 55.9222 587.722 56.0103 587.777C56.0984 587.831 56.1907 587.876 56.2873 587.911C56.3839 587.945 56.4727 587.973 56.5536 587.994L56.9968 588.114C57.1104 588.143 57.2369 588.185 57.3761 588.237C57.5167 588.29 57.6509 588.362 57.7788 588.452C57.908 588.542 58.0146 588.657 58.0984 588.798C58.1822 588.938 58.2241 589.111 58.2241 589.315C58.2241 589.551 58.1623 589.764 58.0387 589.955C57.9165 590.145 57.7376 590.296 57.5018 590.408C57.2674 590.521 56.9826 590.577 56.6474 590.577C56.3349 590.577 56.0643 590.526 55.8356 590.425C55.6083 590.325 55.4293 590.184 55.2987 590.004C55.1694 589.823 55.0962 589.614 55.0792 589.375H55.6246C55.6388 589.54 55.6942 589.676 55.7908 589.784C55.8888 589.891 56.0124 589.97 56.1616 590.023C56.3121 590.074 56.4741 590.099 56.6474 590.099C56.8491 590.099 57.0302 590.067 57.1907 590.001C57.3512 589.935 57.4783 589.842 57.5721 589.724C57.6658 589.605 57.7127 589.466 57.7127 589.307C57.7127 589.162 57.6722 589.044 57.5913 588.953C57.5103 588.862 57.4038 588.788 57.2717 588.732C57.1396 588.675 56.9968 588.625 56.8434 588.582L56.3065 588.429C55.9656 588.331 55.6957 588.191 55.4968 588.009C55.2979 587.827 55.1985 587.589 55.1985 587.295C55.1985 587.051 55.2646 586.838 55.3967 586.656C55.5302 586.473 55.7092 586.331 55.9336 586.23C56.1594 586.128 56.4116 586.077 56.69 586.077C56.9712 586.077 57.2212 586.127 57.44 586.228C57.6587 586.327 57.832 586.464 57.9599 586.637C58.0891 586.81 58.1573 587.007 58.1644 587.227H57.6531ZM58.8542 586.605V586.136H62.127V586.605H60.7548V590.5H60.2264V586.605H58.8542ZM62.9425 590.5V586.136H65.576V586.605H63.4709V588.08H65.4396V588.548H63.4709V590.031H65.6101V590.5H62.9425ZM66.5284 586.136H67.1591L68.642 589.759H68.6932L70.1761 586.136H70.8068V590.5H70.3125V587.185H70.2699L68.9062 590.5H68.429L67.0653 587.185H67.0227V590.5H66.5284V586.136Z" fill="white"/>
</svg>
