<svg width="1304" height="1020" viewBox="0 0 1304 1020" fill="none" xmlns="http://www.w3.org/2000/svg">
<rect width="1304" height="1020" fill="#F3F3F3"/>
<path d="M617.4 441.6H687.6V511.8L757.8 441.6V511.8L828 441.6V582H617.4V441.6ZM617.4 441.6H547.2V582H477V511.8H828" stroke="#1D1D1B" stroke-width="1.09687" stroke-miterlimit="10"/>
<path d="M687.6 581.999V511.799" stroke="#1D1D1B" stroke-width="1.09687" stroke-miterlimit="10"/>
<path d="M757.801 581.999V511.799" stroke="#1D1D1B" stroke-width="1.09687" stroke-miterlimit="10"/>
<path d="M477.225 511.799V581.999" stroke="#1D1D1B" stroke-width="1.09687" stroke-miterlimit="10"/>
<path d="M494.775 511.799V581.999" stroke="#1D1D1B" stroke-width="1.09687" stroke-miterlimit="10"/>
<path d="M512.324 511.799V581.999" stroke="#1D1D1B" stroke-width="1.09687" stroke-miterlimit="10"/>
<path d="M529.875 511.799V581.999" stroke="#1D1D1B" stroke-width="1.09687" stroke-miterlimit="10"/>
<path d="M576.938 472.264L585.976 463.372H588.286V490.672H585.81V467.047L578.663 474.038L576.938 472.264Z" fill="#1D1D1B"/>
<path d="M640.312 484.646V482.345L656.38 463.362H658.535V482.15H664.073V484.646H658.535V490.681H656.039V484.646H640.312ZM643.832 482.15H656.039V467.72L643.832 482.15Z" fill="#1D1D1B"/>
<path d="M643.871 560.881V533.581H646.367V558.394H660.475V560.89L643.871 560.881Z" fill="#1D1D1B"/>
<path d="M708.346 560.881L721.069 533.581H723.673L736.396 560.881H733.637L731.326 555.889H713.435L711.134 560.881H708.346ZM714.556 553.393H730.156L722.356 536.584L714.556 553.393Z" fill="#1D1D1B"/>
<path d="M783.93 560.881V533.581H794.879C795.916 533.572 796.945 533.747 797.921 534.098C798.819 534.414 799.642 534.912 800.339 535.56C801.026 536.211 801.571 536.998 801.938 537.871C802.348 538.845 802.551 539.895 802.533 540.952C802.561 542.316 802.174 543.656 801.421 544.793C800.684 545.893 799.63 546.744 798.399 547.231C799.626 547.725 800.679 548.573 801.421 549.668C802.172 550.81 802.56 552.153 802.533 553.52C802.551 554.574 802.349 555.62 801.938 556.591C801.568 557.468 801.024 558.26 800.339 558.921C799.644 559.572 798.82 560.07 797.921 560.384C796.945 560.731 795.915 560.903 794.879 560.891L783.93 560.881ZM786.416 545.983H795.191C795.835 546.003 796.477 545.889 797.075 545.647C797.672 545.406 798.213 545.042 798.662 544.579C799.12 544.094 799.476 543.522 799.71 542.898C799.945 542.273 800.052 541.609 800.027 540.942C800.059 540.286 799.951 539.63 799.71 539.018C799.47 538.406 799.103 537.853 798.633 537.393C797.604 536.47 796.25 535.993 794.869 536.067H786.406L786.416 545.983ZM786.416 558.385H794.879C796.26 558.459 797.613 557.982 798.642 557.059C799.111 556.599 799.478 556.045 799.718 555.433C799.959 554.822 800.067 554.166 800.037 553.51C800.063 552.844 799.955 552.18 799.718 551.557C799.482 550.933 799.123 550.364 798.662 549.883C798.214 549.421 797.675 549.057 797.079 548.816C796.483 548.574 795.844 548.459 795.201 548.479H786.426L786.416 558.385Z" fill="#1D1D1B"/>
</svg>
