<svg width="1304" height="1020" viewBox="0 0 1304 1020" fill="none" xmlns="http://www.w3.org/2000/svg">
<rect width="1304" height="1020" fill="#F2F6FD"/>
<g clip-path="url(#clip0_10_518)">
<path d="M706.01 552.982C705.998 553.525 705.778 554.042 705.396 554.42C705.015 554.798 704.504 555.007 703.974 555.001H616.047C615.513 555.001 615.001 554.783 614.623 554.396C614.245 554.009 614.033 553.484 614.033 552.936C614.033 527.981 635.279 507.812 660.021 507.812C684.764 507.812 706.01 527.868 706.01 552.823V552.982Z" fill="#F74E4E"/>
<path d="M696.937 503.117C701.936 503.117 705.989 498.963 705.989 493.838C705.989 488.713 701.936 484.559 696.937 484.559C691.938 484.559 687.886 488.713 687.886 493.838C687.886 498.963 691.938 503.117 696.937 503.117Z" fill="#F74E4E"/>
<path d="M571.388 552.914C571.388 553.468 571.173 553.999 570.792 554.39C570.41 554.781 569.892 555.001 569.352 555.001H495.036C494.496 555.001 493.978 554.781 493.596 554.39C493.215 553.999 493 553.468 493 552.914C493.013 552.503 493.136 552.103 493.354 551.757L530.49 485.489C530.687 485.212 530.943 484.985 531.238 484.824C531.533 484.663 531.86 484.572 532.194 484.559C532.527 484.561 532.855 484.647 533.148 484.809C533.441 484.971 533.691 485.205 533.876 485.489L571.034 551.757C571.262 552.098 571.386 552.501 571.388 552.914Z" fill="#FFB71B"/>
<path d="M809.141 484.559C808.772 484.562 808.415 484.69 808.123 484.922L763.861 518.544C763.562 518.774 763.196 518.894 762.821 518.884C762.489 518.891 762.163 518.787 761.892 518.589H761.759L717.873 485.036C717.59 484.823 717.25 484.705 716.9 484.695C716.387 484.725 715.906 484.96 715.562 485.351C715.218 485.742 715.039 486.256 715.063 486.782V552.937C715.051 553.196 715.089 553.455 715.175 553.699C715.261 553.944 715.393 554.168 715.563 554.36C715.734 554.551 715.94 554.707 716.169 554.817C716.398 554.927 716.647 554.99 716.9 555.001H809.141C809.654 554.978 810.137 554.748 810.485 554.361C810.833 553.974 811.018 553.463 811 552.937V486.646C811.019 486.118 810.834 485.604 810.487 485.214C810.139 484.823 809.656 484.588 809.141 484.559V484.559Z" fill="#4FBF5E"/>
<path d="M616.513 484.671H605.868C605.602 484.665 605.349 484.553 605.162 484.358C604.976 484.163 604.872 483.901 604.872 483.628V468.087C604.872 467.811 604.819 467.538 604.715 467.283C604.611 467.029 604.459 466.797 604.268 466.603C604.076 466.409 603.849 466.256 603.6 466.152C603.35 466.049 603.083 465.997 602.814 466H582.476C581.936 466 581.418 466.22 581.036 466.611C580.654 467.003 580.439 467.534 580.439 468.087V552.936C580.445 553.485 580.662 554.01 581.044 554.397C581.425 554.783 581.939 555 582.476 555H602.814C603.35 555 603.865 554.783 604.246 554.397C604.627 554.01 604.844 553.485 604.85 552.936V510.738C604.847 510.602 604.871 510.467 604.919 510.341C604.968 510.214 605.041 510.099 605.134 510.002C605.226 509.905 605.337 509.827 605.46 509.775C605.582 509.722 605.713 509.695 605.846 509.695H616.513C617.053 509.695 617.571 509.475 617.953 509.083C618.334 508.692 618.549 508.161 618.549 507.608V486.758C618.549 486.205 618.334 485.674 617.953 485.283C617.571 484.891 617.053 484.671 616.513 484.671Z" fill="#71C5FF"/>
</g>
<defs>
<clipPath id="clip0_10_518">
<rect width="318" height="89" fill="white" transform="translate(493 466)"/>
</clipPath>
</defs>
</svg>
