<svg width="424" height="233" viewBox="0 0 424 233" fill="none" xmlns="http://www.w3.org/2000/svg">
<rect width="423.164" height="233" fill="#102DA3"/>
<path d="M100 140.138L118.699 69H142.073L160.772 140.138H146.951L143.089 124.487H117.683L113.821 140.138H100ZM120.833 112.089H139.939L131.301 77.4349H129.471L120.833 112.089Z" fill="white"/>
<path d="M185.344 141.561C181.753 141.561 178.535 140.951 175.69 139.731C172.844 138.444 170.574 136.615 168.881 134.244C167.255 131.805 166.442 128.857 166.442 125.402C166.442 121.947 167.255 119.067 168.881 116.764C170.574 114.393 172.878 112.631 175.791 111.479C178.772 110.26 182.16 109.65 185.954 109.65H199.775V106.805C199.775 104.433 199.029 102.503 197.539 101.012C196.048 99.4538 193.677 98.6746 190.425 98.6746C187.241 98.6746 184.87 99.4199 183.311 100.91C181.753 102.333 180.737 104.196 180.263 106.5L168.474 102.536C169.287 99.9619 170.574 97.6245 172.336 95.5242C174.165 93.3562 176.57 91.6286 179.551 90.3413C182.6 88.9863 186.292 88.3088 190.628 88.3088C197.268 88.3088 202.519 89.9687 206.38 93.2885C210.242 96.6082 212.173 101.419 212.173 107.719V126.52C212.173 128.553 213.122 129.569 215.019 129.569H219.084V140.138H210.547C208.04 140.138 205.974 139.528 204.348 138.309C202.722 137.089 201.909 135.463 201.909 133.431V133.329H199.978C199.707 134.142 199.097 135.226 198.149 136.581C197.2 137.868 195.71 139.02 193.677 140.036C191.645 141.052 188.867 141.561 185.344 141.561ZM187.58 131.195C191.17 131.195 194.084 130.212 196.319 128.248C198.623 126.215 199.775 123.539 199.775 120.219V119.203H186.868C184.497 119.203 182.634 119.711 181.279 120.727C179.924 121.744 179.246 123.166 179.246 124.996C179.246 126.825 179.958 128.315 181.381 129.467C182.803 130.619 184.87 131.195 187.58 131.195Z" fill="white"/>
<path d="M106.318 161.133H104.068V154.494H106.363C107.023 154.494 107.589 154.627 108.062 154.892C108.537 155.156 108.903 155.535 109.158 156.03C109.413 156.525 109.54 157.117 109.54 157.807C109.54 158.498 109.412 159.092 109.154 159.59C108.899 160.087 108.531 160.468 108.049 160.734C107.569 161 106.992 161.133 106.318 161.133ZM105.271 160.092H106.26C106.722 160.092 107.108 160.008 107.417 159.839C107.726 159.668 107.958 159.414 108.114 159.077C108.269 158.738 108.347 158.315 108.347 157.807C108.347 157.299 108.269 156.877 108.114 156.542C107.958 156.205 107.728 155.954 107.423 155.787C107.121 155.619 106.745 155.534 106.295 155.534H105.271V160.092Z" fill="white"/>
<path d="M110.631 161.133V156.153H111.804V161.133H110.631ZM111.221 155.447C111.035 155.447 110.875 155.385 110.741 155.262C110.607 155.137 110.54 154.986 110.54 154.811C110.54 154.634 110.607 154.484 110.741 154.361C110.875 154.236 111.035 154.173 111.221 154.173C111.409 154.173 111.569 154.236 111.701 154.361C111.835 154.484 111.902 154.634 111.902 154.811C111.902 154.986 111.835 155.137 111.701 155.262C111.569 155.385 111.409 155.447 111.221 155.447Z" fill="white"/>
<path d="M116.946 157.47L115.877 157.586C115.846 157.478 115.793 157.377 115.718 157.282C115.644 157.186 115.545 157.11 115.42 157.051C115.294 156.993 115.141 156.964 114.959 156.964C114.715 156.964 114.51 157.017 114.343 157.123C114.179 157.229 114.098 157.366 114.1 157.534C114.098 157.679 114.151 157.797 114.259 157.888C114.369 157.978 114.551 158.053 114.804 158.111L115.653 158.293C116.124 158.394 116.474 158.555 116.703 158.776C116.934 158.996 117.051 159.285 117.053 159.641C117.051 159.955 116.959 160.231 116.778 160.471C116.598 160.709 116.349 160.895 116.029 161.029C115.709 161.163 115.342 161.23 114.927 161.23C114.317 161.23 113.827 161.102 113.455 160.847C113.083 160.59 112.862 160.232 112.791 159.774L113.935 159.664C113.987 159.889 114.097 160.058 114.266 160.173C114.434 160.288 114.653 160.345 114.924 160.345C115.202 160.345 115.426 160.288 115.595 160.173C115.765 160.058 115.851 159.917 115.851 159.748C115.851 159.606 115.796 159.488 115.685 159.395C115.577 159.302 115.409 159.231 115.18 159.181L114.33 159.003C113.853 158.903 113.499 158.736 113.27 158.5C113.041 158.263 112.928 157.962 112.93 157.599C112.928 157.292 113.011 157.027 113.18 156.802C113.35 156.575 113.587 156.4 113.89 156.277C114.194 156.151 114.545 156.089 114.943 156.089C115.527 156.089 115.986 156.213 116.321 156.461C116.658 156.71 116.866 157.046 116.946 157.47Z" fill="white"/>
<path d="M118.021 163V156.153H119.175V156.977H119.243C119.304 156.856 119.389 156.727 119.499 156.591C119.609 156.453 119.758 156.335 119.946 156.238C120.134 156.138 120.374 156.089 120.666 156.089C121.051 156.089 121.398 156.187 121.707 156.384C122.018 156.578 122.264 156.867 122.446 157.249C122.629 157.629 122.721 158.096 122.721 158.649C122.721 159.196 122.632 159.661 122.452 160.043C122.273 160.426 122.029 160.718 121.72 160.919C121.411 161.12 121.06 161.22 120.669 161.22C120.384 161.22 120.147 161.173 119.959 161.077C119.771 160.982 119.62 160.868 119.506 160.734C119.393 160.598 119.306 160.469 119.243 160.348H119.194V163H118.021ZM119.172 158.643C119.172 158.965 119.217 159.247 119.308 159.489C119.401 159.731 119.534 159.92 119.707 160.056C119.882 160.19 120.093 160.257 120.342 160.257C120.601 160.257 120.818 160.188 120.993 160.05C121.169 159.909 121.3 159.718 121.389 159.476C121.48 159.232 121.525 158.954 121.525 158.643C121.525 158.334 121.481 158.06 121.392 157.82C121.304 157.58 121.172 157.392 120.997 157.256C120.822 157.119 120.603 157.051 120.342 157.051C120.091 157.051 119.878 157.117 119.703 157.249C119.528 157.381 119.395 157.566 119.305 157.803C119.216 158.041 119.172 158.321 119.172 158.643Z" fill="white"/>
<path d="M124.9 154.494V161.133H123.726V154.494H124.9Z" fill="white"/>
<path d="M127.539 161.233C127.224 161.233 126.939 161.177 126.687 161.064C126.436 160.95 126.237 160.781 126.09 160.559C125.945 160.336 125.873 160.062 125.873 159.735C125.873 159.454 125.925 159.222 126.028 159.038C126.132 158.855 126.274 158.708 126.453 158.598C126.633 158.487 126.835 158.404 127.059 158.348C127.286 158.29 127.521 158.248 127.763 158.222C128.054 158.191 128.291 158.164 128.473 158.141C128.654 158.115 128.786 158.076 128.868 158.024C128.952 157.97 128.995 157.887 128.995 157.774V157.755C128.995 157.511 128.922 157.322 128.777 157.188C128.633 157.054 128.424 156.987 128.152 156.987C127.864 156.987 127.636 157.049 127.468 157.175C127.301 157.3 127.189 157.448 127.131 157.619L126.035 157.463C126.121 157.161 126.264 156.908 126.463 156.705C126.662 156.499 126.905 156.346 127.192 156.244C127.48 156.14 127.797 156.089 128.145 156.089C128.385 156.089 128.624 156.117 128.862 156.173C129.099 156.229 129.317 156.322 129.513 156.452C129.71 156.579 129.868 156.753 129.986 156.974C130.107 157.194 130.168 157.47 130.168 157.8V161.133H129.04V160.449H129.001C128.93 160.587 128.829 160.717 128.7 160.838C128.572 160.956 128.411 161.053 128.217 161.126C128.024 161.197 127.798 161.233 127.539 161.233ZM127.844 160.371C128.079 160.371 128.284 160.324 128.456 160.231C128.629 160.136 128.762 160.011 128.855 159.855C128.95 159.7 128.998 159.53 128.998 159.346V158.76C128.961 158.79 128.898 158.818 128.81 158.844C128.723 158.87 128.626 158.893 128.518 158.912C128.41 158.932 128.303 158.949 128.197 158.964C128.091 158.979 127.999 158.992 127.922 159.003C127.747 159.027 127.59 159.065 127.452 159.12C127.313 159.174 127.204 159.249 127.124 159.346C127.044 159.442 127.004 159.565 127.004 159.716C127.004 159.932 127.083 160.095 127.241 160.205C127.399 160.316 127.6 160.371 127.844 160.371Z" fill="white"/>
<path d="M131.899 163C131.739 163 131.591 162.987 131.455 162.961C131.321 162.937 131.214 162.909 131.134 162.877L131.406 161.962C131.577 162.012 131.729 162.036 131.863 162.034C131.997 162.032 132.115 161.989 132.217 161.907C132.32 161.827 132.408 161.693 132.479 161.505L132.58 161.236L130.774 156.153H132.019L133.166 159.914H133.218L134.369 156.153H135.617L133.624 161.735C133.531 161.999 133.407 162.225 133.254 162.413C133.101 162.603 132.913 162.748 132.69 162.847C132.47 162.949 132.206 163 131.899 163Z" fill="white"/>
<path d="M137.152 161.204C136.955 161.204 136.787 161.135 136.646 160.996C136.506 160.858 136.437 160.69 136.439 160.491C136.437 160.296 136.506 160.13 136.646 159.991C136.787 159.853 136.955 159.784 137.152 159.784C137.342 159.784 137.507 159.853 137.648 159.991C137.791 160.13 137.863 160.296 137.865 160.491C137.863 160.623 137.828 160.742 137.761 160.851C137.697 160.959 137.61 161.045 137.502 161.11C137.396 161.173 137.279 161.204 137.152 161.204ZM137.152 157.651C136.955 157.651 136.787 157.582 136.646 157.444C136.506 157.303 136.437 157.135 136.439 156.938C136.437 156.743 136.506 156.577 136.646 156.439C136.787 156.298 136.955 156.228 137.152 156.228C137.342 156.228 137.507 156.298 137.648 156.439C137.791 156.577 137.863 156.743 137.865 156.938C137.863 157.068 137.828 157.186 137.761 157.294C137.697 157.403 137.61 157.489 137.502 157.554C137.396 157.619 137.279 157.651 137.152 157.651Z" fill="white"/>
<path d="M145.172 156.153C145.134 155.825 144.976 155.57 144.699 155.388C144.423 155.207 144.083 155.116 143.681 155.116C143.387 155.116 143.13 155.164 142.91 155.259C142.692 155.354 142.521 155.485 142.398 155.651C142.277 155.817 142.216 156.007 142.216 156.218C142.216 156.395 142.258 156.548 142.343 156.675C142.429 156.801 142.539 156.906 142.673 156.99C142.807 157.072 142.948 157.14 143.095 157.194C143.242 157.246 143.377 157.288 143.5 157.32L144.174 157.502C144.347 157.547 144.539 157.61 144.751 157.69C144.965 157.77 145.169 157.879 145.364 158.017C145.56 158.154 145.722 158.329 145.85 158.543C145.977 158.756 146.041 159.019 146.041 159.33C146.041 159.689 145.947 160.013 145.759 160.303C145.573 160.592 145.301 160.822 144.942 160.993C144.586 161.164 144.152 161.249 143.642 161.249C143.167 161.249 142.755 161.173 142.407 161.019C142.062 160.866 141.789 160.652 141.591 160.377C141.394 160.103 141.283 159.784 141.257 159.421H142.086C142.108 159.672 142.192 159.879 142.339 160.043C142.488 160.205 142.676 160.326 142.903 160.406C143.132 160.484 143.379 160.523 143.642 160.523C143.949 160.523 144.225 160.473 144.469 160.374C144.713 160.272 144.907 160.132 145.049 159.953C145.192 159.771 145.263 159.559 145.263 159.317C145.263 159.097 145.202 158.917 145.078 158.779C144.955 158.641 144.793 158.528 144.592 158.442C144.391 158.356 144.174 158.28 143.941 158.215L143.124 157.982C142.605 157.833 142.195 157.62 141.892 157.343C141.589 157.067 141.438 156.705 141.438 156.257C141.438 155.885 141.539 155.561 141.74 155.285C141.943 155.006 142.215 154.79 142.557 154.636C142.9 154.481 143.284 154.403 143.707 154.403C144.135 154.403 144.516 154.48 144.848 154.633C145.181 154.784 145.445 154.992 145.639 155.256C145.836 155.519 145.94 155.818 145.95 156.153H145.172Z" fill="white"/>
<path d="M147.259 163V156.153H147.998V156.944H148.089C148.145 156.858 148.223 156.748 148.322 156.614C148.424 156.478 148.569 156.357 148.757 156.251C148.947 156.143 149.204 156.089 149.528 156.089C149.948 156.089 150.317 156.193 150.637 156.403C150.957 156.613 151.206 156.91 151.386 157.294C151.565 157.679 151.655 158.133 151.655 158.656C151.655 159.183 151.565 159.64 151.386 160.027C151.206 160.412 150.958 160.71 150.64 160.922C150.323 161.131 149.956 161.236 149.541 161.236C149.221 161.236 148.965 161.183 148.773 161.077C148.581 160.969 148.433 160.847 148.329 160.711C148.225 160.573 148.145 160.458 148.089 160.368H148.024V163H147.259ZM148.011 158.643C148.011 159.019 148.066 159.351 148.177 159.638C148.287 159.923 148.448 160.147 148.66 160.309C148.871 160.469 149.131 160.549 149.438 160.549C149.757 160.549 150.024 160.465 150.238 160.296C150.454 160.125 150.616 159.896 150.725 159.609C150.835 159.319 150.89 158.997 150.89 158.643C150.89 158.293 150.836 157.977 150.728 157.696C150.622 157.413 150.461 157.19 150.245 157.025C150.031 156.859 149.762 156.776 149.438 156.776C149.126 156.776 148.865 156.855 148.653 157.012C148.441 157.168 148.281 157.386 148.173 157.667C148.065 157.946 148.011 158.271 148.011 158.643Z" fill="white"/>
<path d="M154.287 161.249C153.971 161.249 153.685 161.19 153.428 161.071C153.171 160.95 152.967 160.776 152.815 160.549C152.664 160.32 152.588 160.043 152.588 159.719C152.588 159.434 152.645 159.203 152.757 159.026C152.869 158.846 153.02 158.706 153.208 158.604C153.396 158.503 153.603 158.427 153.83 158.377C154.059 158.325 154.289 158.284 154.52 158.254C154.823 158.215 155.068 158.186 155.256 158.166C155.446 158.145 155.585 158.109 155.671 158.06C155.76 158.01 155.804 157.923 155.804 157.8V157.774C155.804 157.454 155.717 157.206 155.542 157.029C155.369 156.851 155.106 156.763 154.754 156.763C154.389 156.763 154.102 156.843 153.895 157.003C153.687 157.163 153.541 157.333 153.457 157.515L152.731 157.256C152.861 156.953 153.034 156.717 153.25 156.549C153.468 156.378 153.706 156.259 153.963 156.192C154.222 156.123 154.477 156.089 154.728 156.089C154.888 156.089 155.071 156.108 155.279 156.147C155.489 156.184 155.691 156.26 155.885 156.377C156.082 156.494 156.245 156.67 156.375 156.906C156.504 157.141 156.569 157.457 156.569 157.852V161.133H155.804V160.458H155.765C155.713 160.566 155.627 160.682 155.506 160.805C155.385 160.928 155.224 161.033 155.023 161.12C154.822 161.206 154.577 161.249 154.287 161.249ZM154.404 160.562C154.706 160.562 154.961 160.503 155.169 160.384C155.378 160.265 155.536 160.111 155.642 159.923C155.75 159.735 155.804 159.538 155.804 159.33V158.63C155.772 158.669 155.7 158.705 155.59 158.737C155.482 158.767 155.357 158.794 155.214 158.818C155.074 158.84 154.936 158.859 154.802 158.876C154.671 158.892 154.564 158.904 154.482 158.915C154.283 158.941 154.097 158.983 153.924 159.042C153.753 159.098 153.615 159.183 153.509 159.298C153.405 159.41 153.353 159.564 153.353 159.758C153.353 160.024 153.452 160.225 153.648 160.361C153.847 160.495 154.099 160.562 154.404 160.562Z" fill="white"/>
<path d="M159.988 161.236C159.521 161.236 159.119 161.126 158.782 160.906C158.445 160.685 158.186 160.382 158.004 159.995C157.823 159.608 157.732 159.166 157.732 158.669C157.732 158.163 157.825 157.717 158.011 157.33C158.199 156.941 158.46 156.638 158.795 156.419C159.132 156.199 159.526 156.089 159.975 156.089C160.325 156.089 160.641 156.153 160.922 156.283C161.203 156.413 161.433 156.594 161.612 156.828C161.792 157.061 161.903 157.333 161.946 157.645H161.181C161.123 157.418 160.993 157.217 160.792 157.042C160.593 156.864 160.325 156.776 159.988 156.776C159.69 156.776 159.428 156.854 159.204 157.009C158.981 157.163 158.807 157.38 158.682 157.661C158.559 157.94 158.497 158.267 158.497 158.643C158.497 159.028 158.558 159.363 158.679 159.648C158.802 159.933 158.975 160.155 159.197 160.312C159.422 160.47 159.686 160.549 159.988 160.549C160.187 160.549 160.367 160.514 160.529 160.445C160.692 160.376 160.829 160.277 160.941 160.147C161.054 160.017 161.134 159.862 161.181 159.68H161.946C161.903 159.974 161.796 160.239 161.625 160.474C161.457 160.708 161.233 160.894 160.954 161.032C160.678 161.168 160.356 161.236 159.988 161.236Z" fill="white"/>
<path d="M165.152 161.236C164.672 161.236 164.258 161.13 163.91 160.919C163.565 160.705 163.298 160.406 163.11 160.024C162.924 159.639 162.831 159.192 162.831 158.682C162.831 158.172 162.924 157.722 163.11 157.333C163.298 156.942 163.559 156.638 163.894 156.419C164.231 156.199 164.625 156.089 165.074 156.089C165.334 156.089 165.59 156.132 165.842 156.218C166.095 156.305 166.325 156.445 166.533 156.64C166.74 156.832 166.906 157.087 167.029 157.405C167.152 157.722 167.214 158.114 167.214 158.578V158.902H163.376V158.241H166.436C166.436 157.96 166.379 157.709 166.267 157.489C166.157 157.269 165.999 157.095 165.794 156.967C165.591 156.84 165.351 156.776 165.074 156.776C164.769 156.776 164.506 156.851 164.283 157.003C164.063 157.152 163.893 157.346 163.774 157.586C163.655 157.826 163.596 158.083 163.596 158.358V158.799C163.596 159.175 163.661 159.493 163.791 159.755C163.922 160.014 164.105 160.212 164.338 160.348C164.572 160.482 164.843 160.549 165.152 160.549C165.353 160.549 165.535 160.521 165.697 160.465C165.861 160.406 166.002 160.32 166.121 160.205C166.24 160.089 166.332 159.944 166.397 159.771L167.136 159.979C167.058 160.229 166.927 160.45 166.744 160.64C166.56 160.828 166.333 160.975 166.063 161.081C165.793 161.184 165.489 161.236 165.152 161.236Z" fill="white"/>
<path d="M175.587 156.568C175.515 156.35 175.421 156.155 175.305 155.982C175.19 155.807 175.053 155.657 174.893 155.534C174.735 155.411 174.556 155.317 174.355 155.252C174.154 155.187 173.933 155.155 173.694 155.155C173.3 155.155 172.943 155.257 172.621 155.46C172.299 155.663 172.043 155.962 171.852 156.358C171.662 156.753 171.567 157.238 171.567 157.813C171.567 158.388 171.663 158.873 171.856 159.269C172.048 159.664 172.308 159.963 172.637 160.167C172.965 160.37 173.335 160.471 173.745 160.471C174.126 160.471 174.461 160.39 174.75 160.228C175.042 160.064 175.269 159.833 175.431 159.534C175.595 159.234 175.677 158.881 175.677 158.474L175.924 158.526H173.927V157.813H176.455V158.526C176.455 159.073 176.339 159.548 176.105 159.953C175.874 160.357 175.554 160.67 175.146 160.893C174.74 161.113 174.273 161.223 173.745 161.223C173.158 161.223 172.641 161.085 172.196 160.808C171.753 160.532 171.407 160.138 171.159 159.628C170.912 159.118 170.789 158.513 170.789 157.813C170.789 157.288 170.859 156.816 171 156.397C171.142 155.975 171.343 155.616 171.603 155.32C171.862 155.024 172.169 154.797 172.523 154.64C172.878 154.482 173.268 154.403 173.694 154.403C174.044 154.403 174.37 154.456 174.673 154.562C174.977 154.666 175.248 154.814 175.486 155.006C175.726 155.196 175.926 155.424 176.086 155.69C176.246 155.954 176.356 156.246 176.417 156.568H175.587Z" fill="white"/>
<path d="M177.729 161.133V156.153H178.468V156.906H178.519C178.61 156.659 178.774 156.459 179.012 156.306C179.25 156.152 179.518 156.076 179.816 156.076C179.872 156.076 179.943 156.077 180.027 156.079C180.111 156.081 180.175 156.084 180.218 156.089V156.867C180.192 156.86 180.133 156.85 180.04 156.837C179.949 156.822 179.853 156.815 179.751 156.815C179.509 156.815 179.293 156.866 179.103 156.967C178.915 157.067 178.766 157.205 178.656 157.382C178.548 157.557 178.494 157.757 178.494 157.982V161.133H177.729Z" fill="white"/>
<path d="M182.996 161.236C182.547 161.236 182.152 161.129 181.813 160.915C181.476 160.701 181.212 160.402 181.022 160.017C180.834 159.633 180.74 159.183 180.74 158.669C180.74 158.15 180.834 157.698 181.022 157.311C181.212 156.924 181.476 156.623 181.813 156.41C182.152 156.196 182.547 156.089 182.996 156.089C183.446 156.089 183.839 156.196 184.176 156.41C184.515 156.623 184.779 156.924 184.967 157.311C185.157 157.698 185.252 158.15 185.252 158.669C185.252 159.183 185.157 159.633 184.967 160.017C184.779 160.402 184.515 160.701 184.176 160.915C183.839 161.129 183.446 161.236 182.996 161.236ZM182.996 160.549C183.338 160.549 183.619 160.462 183.839 160.286C184.059 160.111 184.223 159.881 184.328 159.596C184.434 159.311 184.487 159.002 184.487 158.669C184.487 158.336 184.434 158.026 184.328 157.739C184.223 157.451 184.059 157.219 183.839 157.042C183.619 156.864 183.338 156.776 182.996 156.776C182.655 156.776 182.374 156.864 182.153 157.042C181.933 157.219 181.77 157.451 181.664 157.739C181.558 158.026 181.505 158.336 181.505 158.669C181.505 159.002 181.558 159.311 181.664 159.596C181.77 159.881 181.933 160.111 182.153 160.286C182.374 160.462 182.655 160.549 182.996 160.549Z" fill="white"/>
<path d="M188.585 156.153V156.802H186.005V156.153H188.585ZM186.757 154.961H187.522V159.706C187.522 159.922 187.554 160.084 187.616 160.192C187.681 160.298 187.763 160.37 187.863 160.406C187.964 160.441 188.071 160.458 188.183 160.458C188.268 160.458 188.337 160.454 188.391 160.445C188.445 160.435 188.488 160.426 188.521 160.419L188.676 161.107C188.624 161.126 188.552 161.146 188.459 161.165C188.366 161.187 188.248 161.197 188.106 161.197C187.89 161.197 187.678 161.151 187.47 161.058C187.265 160.965 187.094 160.824 186.958 160.633C186.824 160.443 186.757 160.203 186.757 159.914V154.961Z" fill="white"/>
<path d="M191.77 161.236C191.291 161.236 190.877 161.13 190.529 160.919C190.183 160.705 189.916 160.406 189.728 160.024C189.542 159.639 189.449 159.192 189.449 158.682C189.449 158.172 189.542 157.722 189.728 157.333C189.916 156.942 190.178 156.638 190.513 156.419C190.85 156.199 191.243 156.089 191.692 156.089C191.952 156.089 192.208 156.132 192.461 156.218C192.714 156.305 192.944 156.445 193.151 156.64C193.359 156.832 193.524 157.087 193.647 157.405C193.77 157.722 193.832 158.114 193.832 158.578V158.902H189.994V158.241H193.054C193.054 157.96 192.998 157.709 192.885 157.489C192.775 157.269 192.617 157.095 192.412 156.967C192.209 156.84 191.969 156.776 191.692 156.776C191.388 156.776 191.124 156.851 190.902 157.003C190.681 157.152 190.511 157.346 190.393 157.586C190.274 157.826 190.214 158.083 190.214 158.358V158.799C190.214 159.175 190.279 159.493 190.409 159.755C190.541 160.014 190.723 160.212 190.957 160.348C191.19 160.482 191.461 160.549 191.77 160.549C191.971 160.549 192.153 160.521 192.315 160.465C192.479 160.406 192.621 160.32 192.74 160.205C192.858 160.089 192.95 159.944 193.015 159.771L193.754 159.979C193.676 160.229 193.546 160.45 193.362 160.64C193.178 160.828 192.951 160.975 192.681 161.081C192.411 161.184 192.107 161.236 191.77 161.236Z" fill="white"/>
<path d="M198.523 157.269L197.835 157.463C197.792 157.349 197.728 157.237 197.644 157.129C197.562 157.019 197.45 156.928 197.307 156.857C197.164 156.786 196.982 156.75 196.759 156.75C196.454 156.75 196.2 156.82 195.997 156.961C195.796 157.099 195.696 157.275 195.696 157.489C195.696 157.679 195.765 157.829 195.903 157.94C196.042 158.05 196.258 158.142 196.552 158.215L197.291 158.397C197.736 158.505 198.068 158.67 198.286 158.893C198.504 159.113 198.613 159.397 198.613 159.745C198.613 160.03 198.531 160.285 198.367 160.51C198.205 160.735 197.978 160.912 197.686 161.042C197.394 161.171 197.055 161.236 196.668 161.236C196.16 161.236 195.74 161.126 195.407 160.906C195.075 160.685 194.864 160.363 194.775 159.94L195.501 159.758C195.57 160.026 195.701 160.227 195.894 160.361C196.088 160.495 196.342 160.562 196.655 160.562C197.012 160.562 197.295 160.486 197.505 160.335C197.716 160.182 197.822 159.998 197.822 159.784C197.822 159.611 197.762 159.466 197.641 159.35C197.52 159.231 197.334 159.142 197.083 159.084L196.253 158.889C195.797 158.781 195.462 158.614 195.249 158.387C195.037 158.158 194.931 157.872 194.931 157.528C194.931 157.247 195.01 156.998 195.167 156.782C195.327 156.566 195.545 156.397 195.819 156.273C196.096 156.15 196.409 156.089 196.759 156.089C197.252 156.089 197.639 156.197 197.92 156.413C198.203 156.629 198.404 156.914 198.523 157.269Z" fill="white"/>
<path d="M203.162 163V160.368H203.097C203.041 160.458 202.961 160.573 202.857 160.711C202.754 160.847 202.606 160.969 202.413 161.077C202.221 161.183 201.965 161.236 201.645 161.236C201.23 161.236 200.864 161.131 200.546 160.922C200.228 160.71 199.98 160.412 199.8 160.027C199.621 159.64 199.531 159.183 199.531 158.656C199.531 158.133 199.621 157.679 199.8 157.294C199.98 156.91 200.229 156.613 200.549 156.403C200.869 156.193 201.239 156.089 201.658 156.089C201.982 156.089 202.238 156.143 202.426 156.251C202.616 156.357 202.761 156.478 202.861 156.614C202.962 156.748 203.041 156.858 203.097 156.944H203.188V156.153H203.927V163H203.162ZM201.749 160.549C202.056 160.549 202.315 160.469 202.527 160.309C202.738 160.147 202.899 159.923 203.01 159.638C203.12 159.351 203.175 159.019 203.175 158.643C203.175 158.271 203.121 157.946 203.013 157.667C202.905 157.386 202.745 157.168 202.533 157.012C202.321 156.855 202.06 156.776 201.749 156.776C201.425 156.776 201.154 156.859 200.938 157.025C200.724 157.19 200.563 157.413 200.455 157.696C200.349 157.977 200.296 158.293 200.296 158.643C200.296 158.997 200.35 159.319 200.459 159.609C200.569 159.896 200.731 160.125 200.945 160.296C201.161 160.465 201.429 160.549 201.749 160.549Z" fill="white"/>
<path d="M208.465 159.097V156.153H209.23V161.133H208.465V160.29H208.413C208.297 160.543 208.115 160.758 207.869 160.935C207.622 161.11 207.311 161.197 206.935 161.197C206.624 161.197 206.347 161.129 206.105 160.993C205.863 160.855 205.673 160.647 205.535 160.371C205.397 160.092 205.327 159.741 205.327 159.317V156.153H206.092V159.265C206.092 159.628 206.194 159.918 206.397 160.134C206.602 160.35 206.864 160.458 207.182 160.458C207.372 160.458 207.565 160.41 207.762 160.312C207.961 160.215 208.127 160.066 208.261 159.865C208.397 159.664 208.465 159.408 208.465 159.097Z" fill="white"/>
<path d="M212.719 161.236C212.239 161.236 211.825 161.13 211.478 160.919C211.132 160.705 210.865 160.406 210.677 160.024C210.491 159.639 210.398 159.192 210.398 158.682C210.398 158.172 210.491 157.722 210.677 157.333C210.865 156.942 211.126 156.638 211.461 156.419C211.798 156.199 212.192 156.089 212.641 156.089C212.901 156.089 213.157 156.132 213.409 156.218C213.662 156.305 213.892 156.445 214.1 156.64C214.307 156.832 214.473 157.087 214.596 157.405C214.719 157.722 214.781 158.114 214.781 158.578V158.902H210.943V158.241H214.003C214.003 157.96 213.947 157.709 213.834 157.489C213.724 157.269 213.566 157.095 213.361 156.967C213.158 156.84 212.918 156.776 212.641 156.776C212.337 156.776 212.073 156.851 211.85 157.003C211.63 157.152 211.46 157.346 211.341 157.586C211.223 157.826 211.163 158.083 211.163 158.358V158.799C211.163 159.175 211.228 159.493 211.358 159.755C211.489 160.014 211.672 160.212 211.905 160.348C212.139 160.482 212.41 160.549 212.719 160.549C212.92 160.549 213.102 160.521 213.264 160.465C213.428 160.406 213.569 160.32 213.688 160.205C213.807 160.089 213.899 159.944 213.964 159.771L214.703 159.979C214.625 160.229 214.494 160.45 214.311 160.64C214.127 160.828 213.9 160.975 213.63 161.081C213.36 161.184 213.056 161.236 212.719 161.236Z" fill="white"/>
<path d="M258.891 144.464H251.824L267.703 100.338H275.395L291.274 144.464H284.207L271.732 108.353H271.388L258.891 144.464ZM260.076 127.184H283.001V132.786H260.076V127.184Z" fill="white"/>
<path d="M306.76 145.196C304.663 145.196 302.767 144.808 301.072 144.033C299.377 143.243 298.034 142.101 297.043 140.607C296.067 139.113 295.578 137.282 295.578 135.113C295.578 133.245 295.937 131.708 296.656 130.502C297.374 129.295 298.343 128.34 299.564 127.636C300.785 126.933 302.15 126.401 303.658 126.042C305.166 125.683 306.703 125.41 308.269 125.223C310.251 124.993 311.86 124.807 313.095 124.663C314.33 124.505 315.228 124.254 315.788 123.909C316.348 123.564 316.628 123.004 316.628 122.228V122.078C316.628 120.196 316.097 118.738 315.034 117.704C313.985 116.67 312.42 116.152 310.337 116.152C308.168 116.152 306.459 116.634 305.209 117.596C303.974 118.544 303.119 119.6 302.645 120.763L296.591 119.384C297.309 117.373 298.358 115.75 299.737 114.515C301.13 113.265 302.731 112.36 304.541 111.8C306.351 111.226 308.254 110.938 310.251 110.938C311.572 110.938 312.973 111.096 314.452 111.412C315.946 111.714 317.339 112.274 318.632 113.093C319.939 113.912 321.009 115.082 321.842 116.605C322.676 118.113 323.092 120.074 323.092 122.487V144.464H316.801V139.939H316.542C316.126 140.772 315.501 141.591 314.668 142.395C313.835 143.2 312.765 143.867 311.457 144.399C310.15 144.93 308.585 145.196 306.76 145.196ZM308.161 140.025C309.942 140.025 311.465 139.673 312.729 138.969C314.007 138.266 314.977 137.346 315.637 136.212C316.312 135.062 316.65 133.834 316.65 132.527V128.261C316.42 128.491 315.975 128.706 315.314 128.908C314.668 129.094 313.928 129.259 313.095 129.403C312.262 129.532 311.45 129.654 310.66 129.769C309.87 129.87 309.209 129.956 308.678 130.028C307.428 130.186 306.286 130.452 305.252 130.825C304.232 131.199 303.414 131.737 302.796 132.441C302.193 133.13 301.891 134.05 301.891 135.199C301.891 136.793 302.48 138 303.658 138.819C304.836 139.623 306.337 140.025 308.161 140.025Z" fill="white"/>
<path d="M253.037 161.475V155.289H257V156.228H254.158V157.908H256.728V158.847H254.158V161.475H253.037Z" fill="white"/>
<path d="M260.639 159.524V156.835H261.733V161.475H260.672V160.65H260.624C260.519 160.91 260.347 161.123 260.108 161.288C259.87 161.453 259.577 161.535 259.229 161.535C258.924 161.535 258.656 161.468 258.422 161.333C258.19 161.196 258.009 160.998 257.878 160.738C257.747 160.476 257.682 160.16 257.682 159.789V156.835H258.775V159.62C258.775 159.914 258.856 160.148 259.017 160.321C259.178 160.494 259.39 160.581 259.651 160.581C259.813 160.581 259.969 160.542 260.12 160.463C260.271 160.384 260.394 160.268 260.491 160.113C260.59 159.956 260.639 159.759 260.639 159.524Z" fill="white"/>
<path d="M263.95 158.756V161.475H262.857V156.835H263.902V157.624H263.956C264.063 157.364 264.233 157.158 264.467 157.004C264.703 156.851 264.994 156.775 265.34 156.775C265.66 156.775 265.939 156.843 266.177 156.98C266.416 157.117 266.601 157.316 266.732 157.575C266.865 157.835 266.931 158.15 266.929 158.521V161.475H265.835V158.69C265.835 158.38 265.755 158.137 265.594 157.962C265.435 157.787 265.214 157.699 264.932 157.699C264.741 157.699 264.571 157.741 264.422 157.826C264.275 157.909 264.159 158.028 264.074 158.186C263.992 158.343 263.95 158.533 263.95 158.756Z" fill="white"/>
<path d="M270.064 161.566C269.601 161.566 269.203 161.464 268.871 161.26C268.541 161.057 268.286 160.776 268.107 160.418C267.93 160.057 267.841 159.642 267.841 159.173C267.841 158.702 267.932 158.286 268.113 157.926C268.294 157.563 268.55 157.281 268.88 157.08C269.212 156.877 269.605 156.775 270.058 156.775C270.435 156.775 270.768 156.844 271.058 156.983C271.35 157.12 271.582 157.315 271.756 157.566C271.929 157.816 272.027 158.108 272.052 158.442H271.006C270.964 158.219 270.864 158.032 270.704 157.883C270.547 157.732 270.337 157.657 270.073 157.657C269.85 157.657 269.653 157.717 269.484 157.838C269.315 157.957 269.183 158.128 269.088 158.352C268.996 158.575 268.949 158.843 268.949 159.155C268.949 159.471 268.996 159.743 269.088 159.971C269.181 160.196 269.311 160.37 269.478 160.493C269.647 160.614 269.846 160.674 270.073 160.674C270.234 160.674 270.378 160.644 270.505 160.584C270.634 160.521 270.742 160.432 270.828 160.315C270.915 160.198 270.974 160.056 271.006 159.889H272.052C272.025 160.217 271.929 160.508 271.762 160.762C271.594 161.014 271.367 161.211 271.079 161.354C270.791 161.495 270.453 161.566 270.064 161.566Z" fill="white"/>
<path d="M275.266 156.835V157.681H272.599V156.835H275.266ZM273.258 155.724H274.351V160.079C274.351 160.226 274.373 160.339 274.417 160.418C274.464 160.494 274.524 160.547 274.599 160.575C274.673 160.603 274.756 160.617 274.846 160.617C274.915 160.617 274.977 160.612 275.034 160.602C275.092 160.592 275.136 160.583 275.167 160.575L275.351 161.43C275.292 161.45 275.209 161.472 275.1 161.496C274.993 161.52 274.862 161.534 274.707 161.538C274.434 161.546 274.187 161.505 273.967 161.415C273.748 161.322 273.574 161.179 273.445 160.986C273.318 160.792 273.256 160.551 273.258 160.261V155.724Z" fill="white"/>
<path d="M276.181 161.475V156.835H277.274V161.475H276.181ZM276.73 156.177C276.557 156.177 276.408 156.119 276.283 156.005C276.159 155.888 276.096 155.748 276.096 155.585C276.096 155.42 276.159 155.28 276.283 155.165C276.408 155.048 276.557 154.99 276.73 154.99C276.906 154.99 277.055 155.048 277.178 155.165C277.302 155.28 277.365 155.42 277.365 155.585C277.365 155.748 277.302 155.888 277.178 156.005C277.055 156.119 276.906 156.177 276.73 156.177Z" fill="white"/>
<path d="M280.422 161.566C279.969 161.566 279.577 161.466 279.244 161.266C278.912 161.067 278.654 160.788 278.471 160.43C278.29 160.071 278.199 159.653 278.199 159.173C278.199 158.694 278.29 158.274 278.471 157.914C278.654 157.553 278.912 157.273 279.244 157.074C279.577 156.875 279.969 156.775 280.422 156.775C280.875 156.775 281.268 156.875 281.6 157.074C281.933 157.273 282.189 157.553 282.371 157.914C282.554 158.274 282.645 158.694 282.645 159.173C282.645 159.653 282.554 160.071 282.371 160.43C282.189 160.788 281.933 161.067 281.6 161.266C281.268 161.466 280.875 161.566 280.422 161.566ZM280.428 160.69C280.674 160.69 280.879 160.622 281.045 160.487C281.21 160.35 281.333 160.167 281.413 159.937C281.496 159.708 281.537 159.452 281.537 159.17C281.537 158.886 281.496 158.63 281.413 158.4C281.333 158.168 281.21 157.984 281.045 157.847C280.879 157.71 280.674 157.642 280.428 157.642C280.177 157.642 279.967 157.71 279.8 157.847C279.635 157.984 279.511 158.168 279.429 158.4C279.348 158.63 279.308 158.886 279.308 159.17C279.308 159.452 279.348 159.708 279.429 159.937C279.511 160.167 279.635 160.35 279.8 160.487C279.967 160.622 280.177 160.69 280.428 160.69Z" fill="white"/>
<path d="M284.667 158.756V161.475H283.574V156.835H284.619V157.624H284.673C284.78 157.364 284.95 157.158 285.184 157.004C285.419 156.851 285.71 156.775 286.056 156.775C286.377 156.775 286.656 156.843 286.893 156.98C287.133 157.117 287.318 157.316 287.449 157.575C287.582 157.835 287.647 158.15 287.645 158.521V161.475H286.552V158.69C286.552 158.38 286.471 158.137 286.31 157.962C286.151 157.787 285.931 157.699 285.649 157.699C285.457 157.699 285.287 157.741 285.138 157.826C284.991 157.909 284.875 158.028 284.791 158.186C284.708 158.343 284.667 158.533 284.667 158.756Z" fill="white"/>
<path d="M290.092 161.569C289.798 161.569 289.533 161.516 289.298 161.411C289.064 161.305 288.879 161.148 288.742 160.94C288.607 160.733 288.539 160.477 288.539 160.173C288.539 159.911 288.588 159.695 288.684 159.524C288.781 159.352 288.913 159.216 289.08 159.113C289.247 159.01 289.435 158.933 289.645 158.88C289.856 158.826 290.075 158.787 290.3 158.762C290.572 158.734 290.793 158.709 290.962 158.687C291.131 158.663 291.254 158.627 291.33 158.578C291.409 158.528 291.448 158.45 291.448 158.346V158.327C291.448 158.1 291.381 157.924 291.246 157.799C291.111 157.674 290.917 157.612 290.663 157.612C290.395 157.612 290.183 157.67 290.026 157.787C289.87 157.904 289.766 158.042 289.711 158.201L288.69 158.056C288.771 157.774 288.904 157.538 289.089 157.349C289.274 157.158 289.501 157.015 289.769 156.92C290.037 156.823 290.333 156.775 290.657 156.775C290.88 156.775 291.103 156.801 291.324 156.853C291.546 156.906 291.748 156.992 291.931 157.113C292.115 157.232 292.262 157.394 292.372 157.6C292.485 157.805 292.542 158.062 292.542 158.37V161.475H291.49V160.838H291.454C291.388 160.966 291.294 161.087 291.173 161.2C291.055 161.311 290.904 161.4 290.723 161.469C290.544 161.535 290.334 161.569 290.092 161.569ZM290.376 160.765C290.595 160.765 290.786 160.722 290.947 160.635C291.108 160.547 291.232 160.43 291.318 160.285C291.407 160.14 291.451 159.982 291.451 159.811V159.264C291.417 159.292 291.359 159.318 291.276 159.342C291.195 159.367 291.105 159.388 291.004 159.406C290.903 159.424 290.804 159.44 290.705 159.454C290.606 159.468 290.521 159.48 290.448 159.49C290.285 159.513 290.139 159.549 290.01 159.599C289.882 159.649 289.78 159.72 289.705 159.811C289.631 159.899 289.594 160.014 289.594 160.155C289.594 160.356 289.667 160.508 289.814 160.611C289.961 160.714 290.148 160.765 290.376 160.765Z" fill="white"/>
<path d="M294.735 155.289V161.475H293.641V155.289H294.735Z" fill="white"/>
<path d="M296.533 161.541C296.349 161.541 296.192 161.477 296.061 161.348C295.93 161.219 295.866 161.062 295.868 160.877C295.866 160.696 295.93 160.541 296.061 160.412C296.192 160.283 296.349 160.218 296.533 160.218C296.71 160.218 296.864 160.283 296.995 160.412C297.128 160.541 297.195 160.696 297.197 160.877C297.195 161 297.163 161.111 297.1 161.212C297.04 161.313 296.959 161.393 296.859 161.454C296.76 161.512 296.651 161.541 296.533 161.541ZM296.533 158.231C296.349 158.231 296.192 158.166 296.061 158.038C295.93 157.907 295.866 157.75 295.868 157.566C295.866 157.385 295.93 157.23 296.061 157.101C296.192 156.97 296.349 156.905 296.533 156.905C296.71 156.905 296.864 156.97 296.995 157.101C297.128 157.23 297.195 157.385 297.197 157.566C297.195 157.687 297.163 157.798 297.1 157.899C297.04 157.999 296.959 158.08 296.859 158.14C296.76 158.201 296.651 158.231 296.533 158.231Z" fill="white"/>
<path d="M303.482 155.289V161.475H302.733V155.289H303.482Z" fill="white"/>
<path d="M305.6 158.684V161.475H304.887V156.835H305.576V157.56H305.637C305.745 157.325 305.91 157.135 306.132 156.992C306.353 156.847 306.639 156.775 306.99 156.775C307.304 156.775 307.579 156.839 307.814 156.968C308.05 157.095 308.233 157.288 308.364 157.548C308.495 157.806 308.56 158.132 308.56 158.527V161.475H307.848V158.575C307.848 158.211 307.753 157.927 307.564 157.723C307.374 157.518 307.115 157.415 306.784 157.415C306.557 157.415 306.353 157.465 306.174 157.563C305.997 157.662 305.857 157.806 305.754 157.995C305.652 158.185 305.6 158.414 305.6 158.684Z" fill="white"/>
<path d="M311.881 156.835V157.439H309.476V156.835H311.881ZM310.177 155.724H310.89V160.146C310.89 160.347 310.919 160.498 310.978 160.599C311.038 160.698 311.115 160.764 311.207 160.798C311.302 160.831 311.402 160.847 311.506 160.847C311.585 160.847 311.649 160.843 311.7 160.835C311.75 160.824 311.79 160.816 311.82 160.81L311.965 161.451C311.917 161.469 311.85 161.487 311.763 161.505C311.676 161.525 311.567 161.535 311.434 161.535C311.232 161.535 311.035 161.492 310.842 161.405C310.65 161.319 310.491 161.187 310.365 161.01C310.24 160.833 310.177 160.609 310.177 160.339V155.724Z" fill="white"/>
<path d="M314.849 161.572C314.402 161.572 314.016 161.473 313.692 161.276C313.369 161.076 313.121 160.798 312.946 160.442C312.772 160.083 312.686 159.667 312.686 159.191C312.686 158.716 312.772 158.297 312.946 157.935C313.121 157.57 313.364 157.286 313.677 157.083C313.991 156.878 314.357 156.775 314.776 156.775C315.018 156.775 315.256 156.815 315.492 156.896C315.728 156.976 315.942 157.107 316.135 157.288C316.329 157.468 316.483 157.705 316.597 158.001C316.712 158.297 316.77 158.662 316.77 159.095V159.397H313.193V158.781H316.045C316.045 158.519 315.992 158.285 315.888 158.08C315.785 157.874 315.638 157.712 315.447 157.593C315.257 157.475 315.034 157.415 314.776 157.415C314.492 157.415 314.246 157.486 314.039 157.627C313.834 157.766 313.676 157.947 313.565 158.17C313.454 158.394 313.399 158.634 313.399 158.889V159.3C313.399 159.65 313.459 159.948 313.58 160.191C313.703 160.433 313.873 160.617 314.09 160.744C314.308 160.869 314.561 160.931 314.849 160.931C315.036 160.931 315.205 160.905 315.356 160.853C315.509 160.798 315.641 160.718 315.752 160.611C315.862 160.502 315.948 160.367 316.008 160.206L316.697 160.4C316.625 160.633 316.503 160.839 316.332 161.016C316.16 161.191 315.949 161.328 315.697 161.427C315.446 161.523 315.163 161.572 314.849 161.572Z" fill="white"/>
<path d="M317.854 161.475V156.835H318.543V157.536H318.591C318.676 157.307 318.829 157.12 319.05 156.977C319.272 156.834 319.521 156.763 319.799 156.763C319.852 156.763 319.917 156.764 319.996 156.766C320.074 156.768 320.134 156.771 320.174 156.775V157.5C320.15 157.494 320.094 157.485 320.008 157.473C319.923 157.459 319.834 157.452 319.739 157.452C319.513 157.452 319.312 157.499 319.135 157.593C318.96 157.686 318.821 157.815 318.718 157.98C318.617 158.143 318.567 158.329 318.567 158.539V161.475H317.854Z" fill="white"/>
</svg>
