<svg width="1304" height="341" viewBox="0 0 1304 341" fill="none" xmlns="http://www.w3.org/2000/svg">
<g clip-path="url(#clip0_31_1850)">
<rect width="1304" height="341" fill="white"/>
<g clip-path="url(#clip1_31_1850)">
<path d="M247.242 208.508C247.235 208.818 247.11 209.112 246.893 209.327C246.676 209.542 246.385 209.661 246.083 209.658H196.037C195.733 209.658 195.441 209.534 195.226 209.313C195.011 209.093 194.891 208.794 194.891 208.483C194.891 194.278 206.983 182.799 221.066 182.799C235.149 182.799 247.242 194.214 247.242 208.418V208.508Z" fill="#F74E4E"/>
<path d="M242.076 180.126C244.921 180.126 247.228 177.762 247.228 174.845C247.228 171.928 244.921 169.563 242.076 169.563C239.23 169.563 236.924 171.928 236.924 174.845C236.924 177.762 239.23 180.126 242.076 180.126Z" fill="#F74E4E"/>
<path d="M170.617 208.47C170.617 208.785 170.495 209.087 170.278 209.31C170.06 209.533 169.765 209.658 169.458 209.658H127.159C126.852 209.658 126.557 209.533 126.339 209.31C126.122 209.087 126 208.785 126 208.47C126.008 208.236 126.077 208.008 126.202 207.811L147.339 170.093C147.451 169.935 147.596 169.806 147.764 169.714C147.932 169.622 148.118 169.571 148.309 169.563C148.498 169.565 148.685 169.614 148.852 169.706C149.018 169.798 149.161 169.931 149.266 170.093L170.415 207.811C170.545 208.005 170.616 208.235 170.617 208.47Z" fill="#FFB71B"/>
<path d="M305.944 169.563C305.734 169.565 305.53 169.638 305.364 169.77L280.171 188.907C280.001 189.038 279.792 189.106 279.579 189.101C279.39 189.104 279.204 189.046 279.05 188.933H278.975L253.996 169.835C253.834 169.714 253.641 169.646 253.441 169.641C253.149 169.658 252.876 169.792 252.68 170.014C252.484 170.237 252.382 170.53 252.396 170.829V208.483C252.389 208.63 252.411 208.778 252.46 208.917C252.508 209.056 252.584 209.184 252.681 209.293C252.778 209.402 252.895 209.49 253.026 209.553C253.156 209.616 253.297 209.651 253.441 209.658H305.944C306.236 209.645 306.51 209.514 306.709 209.294C306.907 209.074 307.012 208.782 307.002 208.483V170.751C307.012 170.451 306.907 170.158 306.709 169.936C306.512 169.714 306.237 169.58 305.944 169.563V169.563Z" fill="#4FBF5E"/>
<path d="M196.302 169.627H190.243C190.091 169.624 189.947 169.56 189.841 169.449C189.735 169.338 189.676 169.189 189.676 169.033V160.188C189.676 160.031 189.646 159.875 189.587 159.73C189.528 159.585 189.441 159.454 189.332 159.343C189.223 159.233 189.094 159.146 188.952 159.087C188.81 159.028 188.658 158.998 188.505 159H176.928C176.621 159 176.326 159.125 176.109 159.348C175.892 159.571 175.77 159.873 175.77 160.188V208.482C175.773 208.795 175.896 209.094 176.113 209.314C176.33 209.534 176.623 209.657 176.928 209.657H188.505C188.81 209.657 189.103 209.534 189.32 209.314C189.537 209.094 189.66 208.795 189.664 208.482V184.464C189.662 184.387 189.675 184.31 189.703 184.238C189.731 184.166 189.772 184.1 189.825 184.045C189.878 183.99 189.941 183.946 190.011 183.916C190.08 183.886 190.155 183.87 190.23 183.87H196.302C196.609 183.87 196.904 183.745 197.121 183.522C197.339 183.3 197.461 182.997 197.461 182.682V170.815C197.461 170.5 197.339 170.198 197.121 169.975C196.904 169.753 196.609 169.627 196.302 169.627Z" fill="#71C5FF"/>
</g>
<rect x="435" width="435" height="341" fill="#1D6FF5"/>
<rect x="870" width="435" height="341" fill="#F2F6FD"/>
<g clip-path="url(#clip2_31_1850)">
<path d="M683.242 208.508C683.235 208.818 683.11 209.112 682.893 209.327C682.676 209.542 682.385 209.661 682.083 209.658H632.037C631.733 209.658 631.441 209.534 631.226 209.313C631.011 209.093 630.891 208.794 630.891 208.483C630.891 194.278 642.983 182.799 657.066 182.799C671.149 182.799 683.242 194.214 683.242 208.418V208.508Z" fill="white"/>
<path d="M678.076 180.126C680.921 180.126 683.228 177.762 683.228 174.845C683.228 171.928 680.921 169.563 678.076 169.563C675.23 169.563 672.924 171.928 672.924 174.845C672.924 177.762 675.23 180.126 678.076 180.126Z" fill="white"/>
<path d="M606.617 208.47C606.617 208.785 606.495 209.087 606.278 209.31C606.06 209.533 605.765 209.658 605.458 209.658H563.159C562.852 209.658 562.557 209.533 562.339 209.31C562.122 209.087 562 208.785 562 208.47C562.008 208.236 562.077 208.008 562.202 207.811L583.339 170.093C583.451 169.935 583.596 169.806 583.764 169.714C583.932 169.622 584.118 169.571 584.309 169.563C584.498 169.565 584.685 169.614 584.852 169.706C585.018 169.798 585.161 169.931 585.266 170.093L606.415 207.811C606.545 208.005 606.616 208.235 606.617 208.47Z" fill="white"/>
<path d="M741.944 169.563C741.734 169.565 741.53 169.638 741.364 169.77L716.171 188.907C716.001 189.038 715.792 189.106 715.579 189.101C715.39 189.104 715.204 189.046 715.05 188.933H714.975L689.996 169.835C689.834 169.714 689.641 169.646 689.441 169.641C689.149 169.658 688.876 169.792 688.68 170.014C688.484 170.237 688.382 170.53 688.396 170.829V208.483C688.389 208.63 688.411 208.778 688.46 208.917C688.508 209.056 688.584 209.184 688.681 209.293C688.778 209.402 688.895 209.49 689.026 209.553C689.156 209.616 689.297 209.651 689.441 209.658H741.944C742.236 209.645 742.51 209.514 742.709 209.294C742.907 209.074 743.012 208.782 743.002 208.483V170.751C743.012 170.451 742.907 170.158 742.709 169.936C742.512 169.714 742.237 169.58 741.944 169.563V169.563Z" fill="white"/>
<path d="M632.302 169.627H626.243C626.091 169.624 625.947 169.56 625.841 169.449C625.735 169.338 625.676 169.189 625.676 169.033V160.188C625.676 160.031 625.646 159.875 625.587 159.73C625.528 159.585 625.441 159.454 625.332 159.343C625.223 159.233 625.094 159.146 624.952 159.087C624.81 159.028 624.658 158.998 624.505 159H612.928C612.621 159 612.326 159.125 612.109 159.348C611.892 159.571 611.77 159.873 611.77 160.188V208.482C611.773 208.795 611.896 209.094 612.113 209.314C612.33 209.534 612.623 209.657 612.928 209.657H624.505C624.81 209.657 625.103 209.534 625.32 209.314C625.537 209.094 625.66 208.795 625.664 208.482V184.464C625.662 184.387 625.675 184.31 625.703 184.238C625.731 184.166 625.772 184.1 625.825 184.045C625.878 183.99 625.941 183.946 626.011 183.916C626.08 183.886 626.155 183.87 626.23 183.87H632.302C632.609 183.87 632.904 183.745 633.121 183.522C633.339 183.3 633.461 182.997 633.461 182.682V170.815C633.461 170.5 633.339 170.198 633.121 169.975C632.904 169.753 632.609 169.627 632.302 169.627Z" fill="white"/>
</g>
<g clip-path="url(#clip3_31_1850)">
<path d="M1118.24 208.508C1118.24 208.818 1118.11 209.112 1117.89 209.327C1117.68 209.542 1117.38 209.661 1117.08 209.658H1067.04C1066.73 209.658 1066.44 209.534 1066.23 209.313C1066.01 209.093 1065.89 208.794 1065.89 208.483C1065.89 194.278 1077.98 182.799 1092.07 182.799C1106.15 182.799 1118.24 194.214 1118.24 208.418V208.508Z" fill="#1D6FF5"/>
<path d="M1113.08 180.126C1115.92 180.126 1118.23 177.762 1118.23 174.845C1118.23 171.928 1115.92 169.563 1113.08 169.563C1110.23 169.563 1107.92 171.928 1107.92 174.845C1107.92 177.762 1110.23 180.126 1113.08 180.126Z" fill="#1D6FF5"/>
<path d="M1041.62 208.47C1041.62 208.785 1041.49 209.087 1041.28 209.31C1041.06 209.533 1040.77 209.658 1040.46 209.658H998.159C997.852 209.658 997.557 209.533 997.339 209.31C997.122 209.087 997 208.785 997 208.47C997.008 208.236 997.077 208.008 997.202 207.811L1018.34 170.093C1018.45 169.935 1018.6 169.806 1018.76 169.714C1018.93 169.622 1019.12 169.571 1019.31 169.563C1019.5 169.565 1019.68 169.614 1019.85 169.706C1020.02 169.798 1020.16 169.931 1020.27 170.093L1041.42 207.811C1041.55 208.005 1041.62 208.235 1041.62 208.47Z" fill="#1D6FF5"/>
<path d="M1176.94 169.563C1176.73 169.565 1176.53 169.638 1176.36 169.77L1151.17 188.907C1151 189.038 1150.79 189.106 1150.58 189.101C1150.39 189.104 1150.2 189.046 1150.05 188.933H1149.97L1125 169.835C1124.83 169.714 1124.64 169.646 1124.44 169.641C1124.15 169.658 1123.88 169.792 1123.68 170.014C1123.48 170.237 1123.38 170.53 1123.4 170.829V208.483C1123.39 208.63 1123.41 208.778 1123.46 208.917C1123.51 209.056 1123.58 209.184 1123.68 209.293C1123.78 209.402 1123.9 209.49 1124.03 209.553C1124.16 209.616 1124.3 209.651 1124.44 209.658H1176.94C1177.24 209.645 1177.51 209.514 1177.71 209.294C1177.91 209.074 1178.01 208.782 1178 208.483V170.751C1178.01 170.451 1177.91 170.158 1177.71 169.936C1177.51 169.714 1177.24 169.58 1176.94 169.563V169.563Z" fill="#1D6FF5"/>
<path d="M1067.3 169.627H1061.24C1061.09 169.624 1060.95 169.56 1060.84 169.449C1060.74 169.338 1060.68 169.189 1060.68 169.033V160.188C1060.68 160.031 1060.65 159.875 1060.59 159.73C1060.53 159.585 1060.44 159.454 1060.33 159.343C1060.22 159.233 1060.09 159.146 1059.95 159.087C1059.81 159.028 1059.66 158.998 1059.5 159H1047.93C1047.62 159 1047.33 159.125 1047.11 159.348C1046.89 159.571 1046.77 159.873 1046.77 160.188V208.482C1046.77 208.795 1046.9 209.094 1047.11 209.314C1047.33 209.534 1047.62 209.657 1047.93 209.657H1059.5C1059.81 209.657 1060.1 209.534 1060.32 209.314C1060.54 209.094 1060.66 208.795 1060.66 208.482V184.464C1060.66 184.387 1060.68 184.31 1060.7 184.238C1060.73 184.166 1060.77 184.1 1060.83 184.045C1060.88 183.99 1060.94 183.946 1061.01 183.916C1061.08 183.886 1061.15 183.87 1061.23 183.87H1067.3C1067.61 183.87 1067.9 183.745 1068.12 183.522C1068.34 183.3 1068.46 182.997 1068.46 182.682V170.815C1068.46 170.5 1068.34 170.198 1068.12 169.975C1067.9 169.753 1067.61 169.627 1067.3 169.627Z" fill="#1D6FF5"/>
</g>
</g>
<defs>
<clipPath id="clip0_31_1850">
<rect width="1304" height="341" fill="white"/>
</clipPath>
<clipPath id="clip1_31_1850">
<rect width="181" height="50.6572" fill="white" transform="translate(126 159)"/>
</clipPath>
<clipPath id="clip2_31_1850">
<rect width="181" height="50.6572" fill="white" transform="translate(562 159)"/>
</clipPath>
<clipPath id="clip3_31_1850">
<rect width="181" height="50.6572" fill="white" transform="translate(997 159)"/>
</clipPath>
</defs>
</svg>
