<svg width="1304" height="295" viewBox="0 0 1304 295" fill="none" xmlns="http://www.w3.org/2000/svg">
<g clip-path="url(#clip0_44_2906)">
<rect width="1304" height="295" fill="white"/>
<rect x="434" width="435" height="485" fill="#1D6FF5"/>
<rect x="869" width="435" height="485" fill="#F2F6FD"/>
<g clip-path="url(#clip1_44_2906)">
<path d="M241.242 176.508C241.235 176.818 241.11 177.112 240.893 177.327C240.676 177.542 240.385 177.661 240.083 177.658H190.037C189.733 177.658 189.441 177.534 189.226 177.313C189.011 177.093 188.891 176.794 188.891 176.483C188.891 162.278 200.983 150.799 215.066 150.799C229.149 150.799 241.242 162.214 241.242 176.418V176.508Z" fill="#F74E4E"/>
<path d="M236.076 148.126C238.921 148.126 241.228 145.762 241.228 142.845C241.228 139.928 238.921 137.563 236.076 137.563C233.23 137.563 230.924 139.928 230.924 142.845C230.924 145.762 233.23 148.126 236.076 148.126Z" fill="#F74E4E"/>
<path d="M164.617 176.47C164.617 176.785 164.495 177.087 164.278 177.31C164.06 177.533 163.765 177.658 163.458 177.658H121.159C120.852 177.658 120.557 177.533 120.339 177.31C120.122 177.087 120 176.785 120 176.47C120.008 176.236 120.077 176.008 120.202 175.811L141.339 138.093C141.451 137.935 141.596 137.806 141.764 137.714C141.932 137.622 142.118 137.571 142.309 137.563C142.498 137.565 142.685 137.614 142.852 137.706C143.018 137.798 143.161 137.931 143.266 138.093L164.415 175.811C164.545 176.005 164.616 176.235 164.617 176.47Z" fill="#FFB71B"/>
<path d="M299.944 137.563C299.734 137.565 299.53 137.638 299.364 137.77L274.171 156.907C274.001 157.038 273.792 157.106 273.579 157.101C273.39 157.104 273.204 157.046 273.05 156.933H272.975L247.996 137.835C247.834 137.714 247.641 137.646 247.441 137.641C247.149 137.658 246.876 137.792 246.68 138.014C246.484 138.237 246.382 138.53 246.396 138.829V176.483C246.389 176.63 246.411 176.778 246.46 176.917C246.508 177.056 246.584 177.184 246.681 177.293C246.778 177.402 246.895 177.49 247.026 177.553C247.156 177.616 247.297 177.651 247.441 177.658H299.944C300.236 177.645 300.51 177.514 300.709 177.294C300.907 177.074 301.012 176.782 301.002 176.483V138.751C301.012 138.451 300.907 138.158 300.709 137.936C300.512 137.714 300.237 137.58 299.944 137.563V137.563Z" fill="#4FBF5E"/>
<path d="M190.302 137.627H184.243C184.091 137.624 183.947 137.56 183.841 137.449C183.735 137.338 183.676 137.189 183.676 137.033V128.188C183.676 128.031 183.646 127.875 183.587 127.73C183.528 127.585 183.441 127.454 183.332 127.343C183.223 127.233 183.094 127.146 182.952 127.087C182.81 127.028 182.658 126.998 182.505 127H170.928C170.621 127 170.326 127.125 170.109 127.348C169.892 127.571 169.77 127.873 169.77 128.188V176.482C169.773 176.795 169.896 177.094 170.113 177.314C170.33 177.534 170.623 177.657 170.928 177.657H182.505C182.81 177.657 183.103 177.534 183.32 177.314C183.537 177.094 183.66 176.795 183.664 176.482V152.464C183.662 152.387 183.675 152.31 183.703 152.238C183.731 152.166 183.772 152.1 183.825 152.045C183.878 151.99 183.941 151.946 184.011 151.916C184.08 151.886 184.155 151.87 184.23 151.87H190.302C190.609 151.87 190.904 151.745 191.121 151.522C191.339 151.3 191.461 150.997 191.461 150.682V138.815C191.461 138.5 191.339 138.198 191.121 137.975C190.904 137.753 190.609 137.627 190.302 137.627Z" fill="#71C5FF"/>
</g>
<g clip-path="url(#clip2_44_2906)">
<path d="M682.242 176.508C682.235 176.818 682.11 177.112 681.893 177.327C681.676 177.542 681.385 177.661 681.083 177.658H631.037C630.733 177.658 630.441 177.534 630.226 177.313C630.011 177.093 629.891 176.794 629.891 176.483C629.891 162.278 641.983 150.799 656.066 150.799C670.149 150.799 682.242 162.214 682.242 176.418V176.508Z" fill="white"/>
<path d="M677.076 148.126C679.921 148.126 682.228 145.762 682.228 142.845C682.228 139.928 679.921 137.563 677.076 137.563C674.23 137.563 671.924 139.928 671.924 142.845C671.924 145.762 674.23 148.126 677.076 148.126Z" fill="white"/>
<path d="M605.617 176.47C605.617 176.785 605.495 177.087 605.278 177.31C605.06 177.533 604.765 177.658 604.458 177.658H562.159C561.852 177.658 561.557 177.533 561.339 177.31C561.122 177.087 561 176.785 561 176.47C561.008 176.236 561.077 176.008 561.202 175.811L582.339 138.093C582.451 137.935 582.596 137.806 582.764 137.714C582.932 137.622 583.118 137.571 583.309 137.563C583.498 137.565 583.685 137.614 583.852 137.706C584.018 137.798 584.161 137.931 584.266 138.093L605.415 175.811C605.545 176.005 605.616 176.235 605.617 176.47Z" fill="white"/>
<path d="M740.944 137.563C740.734 137.565 740.53 137.638 740.364 137.77L715.171 156.907C715.001 157.038 714.792 157.106 714.579 157.101C714.39 157.104 714.204 157.046 714.05 156.933H713.975L688.996 137.835C688.834 137.714 688.641 137.646 688.441 137.641C688.149 137.658 687.876 137.792 687.68 138.014C687.484 138.237 687.382 138.53 687.396 138.829V176.483C687.389 176.63 687.411 176.778 687.46 176.917C687.508 177.056 687.584 177.184 687.681 177.293C687.778 177.402 687.895 177.49 688.026 177.553C688.156 177.616 688.297 177.651 688.441 177.658H740.944C741.236 177.645 741.51 177.514 741.709 177.294C741.907 177.074 742.012 176.782 742.002 176.483V138.751C742.012 138.451 741.907 138.158 741.709 137.936C741.512 137.714 741.237 137.58 740.944 137.563V137.563Z" fill="white"/>
<path d="M631.302 137.627H625.243C625.091 137.624 624.947 137.56 624.841 137.449C624.735 137.338 624.676 137.189 624.676 137.033V128.188C624.676 128.031 624.646 127.875 624.587 127.73C624.528 127.585 624.441 127.454 624.332 127.343C624.223 127.233 624.094 127.146 623.952 127.087C623.81 127.028 623.658 126.998 623.505 127H611.928C611.621 127 611.326 127.125 611.109 127.348C610.892 127.571 610.77 127.873 610.77 128.188V176.482C610.773 176.795 610.896 177.094 611.113 177.314C611.33 177.534 611.623 177.657 611.928 177.657H623.505C623.81 177.657 624.103 177.534 624.32 177.314C624.537 177.094 624.66 176.795 624.664 176.482V152.464C624.662 152.387 624.675 152.31 624.703 152.238C624.731 152.166 624.772 152.1 624.825 152.045C624.878 151.99 624.941 151.946 625.011 151.916C625.08 151.886 625.155 151.87 625.23 151.87H631.302C631.609 151.87 631.904 151.745 632.121 151.522C632.339 151.3 632.461 150.997 632.461 150.682V138.815C632.461 138.5 632.339 138.198 632.121 137.975C631.904 137.753 631.609 137.627 631.302 137.627Z" fill="white"/>
</g>
<g clip-path="url(#clip3_44_2906)">
<path d="M1117.24 176.508C1117.24 176.818 1117.11 177.112 1116.89 177.327C1116.68 177.542 1116.38 177.661 1116.08 177.658H1066.04C1065.73 177.658 1065.44 177.534 1065.23 177.313C1065.01 177.093 1064.89 176.794 1064.89 176.483C1064.89 162.278 1076.98 150.799 1091.07 150.799C1105.15 150.799 1117.24 162.214 1117.24 176.418V176.508Z" fill="#1D6FF5"/>
<path d="M1112.08 148.126C1114.92 148.126 1117.23 145.762 1117.23 142.845C1117.23 139.928 1114.92 137.563 1112.08 137.563C1109.23 137.563 1106.92 139.928 1106.92 142.845C1106.92 145.762 1109.23 148.126 1112.08 148.126Z" fill="#1D6FF5"/>
<path d="M1040.62 176.47C1040.62 176.785 1040.49 177.087 1040.28 177.31C1040.06 177.533 1039.77 177.658 1039.46 177.658H997.159C996.852 177.658 996.557 177.533 996.339 177.31C996.122 177.087 996 176.785 996 176.47C996.008 176.236 996.077 176.008 996.202 175.811L1017.34 138.093C1017.45 137.935 1017.6 137.806 1017.76 137.714C1017.93 137.622 1018.12 137.571 1018.31 137.563C1018.5 137.565 1018.68 137.614 1018.85 137.706C1019.02 137.798 1019.16 137.931 1019.27 138.093L1040.42 175.811C1040.55 176.005 1040.62 176.235 1040.62 176.47Z" fill="#1D6FF5"/>
<path d="M1175.94 137.563C1175.73 137.565 1175.53 137.638 1175.36 137.77L1150.17 156.907C1150 157.038 1149.79 157.106 1149.58 157.101C1149.39 157.104 1149.2 157.046 1149.05 156.933H1148.97L1124 137.835C1123.83 137.714 1123.64 137.646 1123.44 137.641C1123.15 137.658 1122.88 137.792 1122.68 138.014C1122.48 138.237 1122.38 138.53 1122.4 138.829V176.483C1122.39 176.63 1122.41 176.778 1122.46 176.917C1122.51 177.056 1122.58 177.184 1122.68 177.293C1122.78 177.402 1122.9 177.49 1123.03 177.553C1123.16 177.616 1123.3 177.651 1123.44 177.658H1175.94C1176.24 177.645 1176.51 177.514 1176.71 177.294C1176.91 177.074 1177.01 176.782 1177 176.483V138.751C1177.01 138.451 1176.91 138.158 1176.71 137.936C1176.51 137.714 1176.24 137.58 1175.94 137.563V137.563Z" fill="#1D6FF5"/>
<path d="M1066.3 137.627H1060.24C1060.09 137.624 1059.95 137.56 1059.84 137.449C1059.74 137.338 1059.68 137.189 1059.68 137.033V128.188C1059.68 128.031 1059.65 127.875 1059.59 127.73C1059.53 127.585 1059.44 127.454 1059.33 127.343C1059.22 127.233 1059.09 127.146 1058.95 127.087C1058.81 127.028 1058.66 126.998 1058.5 127H1046.93C1046.62 127 1046.33 127.125 1046.11 127.348C1045.89 127.571 1045.77 127.873 1045.77 128.188V176.482C1045.77 176.795 1045.9 177.094 1046.11 177.314C1046.33 177.534 1046.62 177.657 1046.93 177.657H1058.5C1058.81 177.657 1059.1 177.534 1059.32 177.314C1059.54 177.094 1059.66 176.795 1059.66 176.482V152.464C1059.66 152.387 1059.68 152.31 1059.7 152.238C1059.73 152.166 1059.77 152.1 1059.83 152.045C1059.88 151.99 1059.94 151.946 1060.01 151.916C1060.08 151.886 1060.15 151.87 1060.23 151.87H1066.3C1066.61 151.87 1066.9 151.745 1067.12 151.522C1067.34 151.3 1067.46 150.997 1067.46 150.682V138.815C1067.46 138.5 1067.34 138.198 1067.12 137.975C1066.9 137.753 1066.61 137.627 1066.3 137.627Z" fill="#1D6FF5"/>
</g>
</g>
<defs>
<clipPath id="clip0_44_2906">
<rect width="1304" height="295" fill="white"/>
</clipPath>
<clipPath id="clip1_44_2906">
<rect width="181" height="50.6572" fill="white" transform="translate(120 127)"/>
</clipPath>
<clipPath id="clip2_44_2906">
<rect width="181" height="50.6572" fill="white" transform="translate(561 127)"/>
</clipPath>
<clipPath id="clip3_44_2906">
<rect width="181" height="50.6572" fill="white" transform="translate(996 127)"/>
</clipPath>
</defs>
</svg>
