<svg width="1304" height="720" viewBox="0 0 1304 720" fill="none" xmlns="http://www.w3.org/2000/svg">
<g clip-path="url(#clip0_44_3045)">
<rect width="1304" height="720" fill="#EEEEEE"/>
<rect width="651.299" height="358.951" transform="matrix(-1 0 0 1 651.299 361.445)" fill="#F9F9F9"/>
<rect width="326" height="720" transform="matrix(-1 0 0 1 977 0)" fill="#F2F6FD"/>
<rect width="327" height="361" transform="matrix(-1 0 0 1 1304 0)" fill="#FFB71B"/>
<path d="M984.261 354.424V347.795H985.462V350.602H988.533V347.795H989.737V354.424H988.533V351.608H985.462V354.424H984.261ZM990.991 354.424V349.453H992.163V354.424H990.991ZM991.581 348.747C991.395 348.747 991.235 348.686 991.102 348.563C990.968 348.437 990.901 348.287 990.901 348.113C990.901 347.936 990.968 347.786 991.102 347.663C991.235 347.538 991.395 347.475 991.581 347.475C991.768 347.475 991.928 347.538 992.06 347.663C992.193 347.786 992.26 347.936 992.26 348.113C992.26 348.287 992.193 348.437 992.06 348.563C991.928 348.686 991.768 348.747 991.581 348.747ZM993.368 354.424V349.453H994.504V350.281H994.556C994.646 349.994 994.802 349.773 995.022 349.618C995.244 349.46 995.498 349.381 995.782 349.381C995.847 349.381 995.919 349.385 995.999 349.391C996.081 349.395 996.149 349.403 996.203 349.414V350.491C996.153 350.474 996.075 350.459 995.967 350.446C995.861 350.431 995.759 350.424 995.659 350.424C995.446 350.424 995.254 350.47 995.083 350.563C994.915 350.653 994.782 350.78 994.685 350.941C994.588 351.103 994.54 351.29 994.54 351.501V354.424H993.368ZM996.981 354.424V349.453H998.153V354.424H996.981ZM997.57 348.747C997.385 348.747 997.225 348.686 997.091 348.563C996.958 348.437 996.891 348.287 996.891 348.113C996.891 347.936 996.958 347.786 997.091 347.663C997.225 347.538 997.385 347.475 997.57 347.475C997.758 347.475 997.918 347.538 998.049 347.663C998.183 347.786 998.25 347.936 998.25 348.113C998.25 348.287 998.183 348.437 998.049 348.563C997.918 348.686 997.758 348.747 997.57 348.747ZM1000.53 351.511V354.424H999.358V349.453H1000.48V350.297H1000.54C1000.65 350.019 1000.83 349.798 1001.08 349.634C1001.34 349.47 1001.65 349.388 1002.02 349.388C1002.36 349.388 1002.66 349.461 1002.91 349.608C1003.17 349.755 1003.37 349.967 1003.51 350.246C1003.65 350.524 1003.72 350.862 1003.72 351.259V354.424H1002.55V351.44C1002.55 351.107 1002.46 350.847 1002.29 350.66C1002.12 350.472 1001.88 350.378 1001.58 350.378C1001.38 350.378 1001.19 350.424 1001.03 350.514C1000.88 350.603 1000.75 350.731 1000.66 350.899C1000.57 351.068 1000.53 351.271 1000.53 351.511ZM1007.07 356.392C1006.65 356.392 1006.29 356.334 1005.99 356.22C1005.69 356.108 1005.44 355.957 1005.26 355.767C1005.08 355.577 1004.95 355.367 1004.88 355.136L1005.93 354.88C1005.98 354.977 1006.05 355.073 1006.14 355.168C1006.23 355.265 1006.35 355.345 1006.51 355.408C1006.66 355.472 1006.86 355.505 1007.09 355.505C1007.43 355.505 1007.7 355.424 1007.92 355.262C1008.14 355.102 1008.25 354.839 1008.25 354.472V353.531H1008.19C1008.13 353.651 1008.04 353.775 1007.92 353.903C1007.81 354.03 1007.66 354.137 1007.47 354.223C1007.28 354.309 1007.04 354.353 1006.76 354.353C1006.37 354.353 1006.03 354.263 1005.72 354.084C1005.41 353.903 1005.16 353.633 1004.98 353.275C1004.8 352.915 1004.71 352.464 1004.71 351.922C1004.71 351.376 1004.8 350.915 1004.98 350.54C1005.16 350.162 1005.41 349.877 1005.72 349.682C1006.03 349.486 1006.38 349.388 1006.76 349.388C1007.05 349.388 1007.29 349.437 1007.48 349.537C1007.67 349.634 1007.82 349.751 1007.93 349.889C1008.04 350.025 1008.13 350.154 1008.19 350.275H1008.25V349.453H1009.41V354.505C1009.41 354.93 1009.31 355.282 1009.1 355.56C1008.9 355.838 1008.62 356.046 1008.27 356.184C1007.92 356.323 1007.52 356.392 1007.07 356.392ZM1007.08 353.433C1007.33 353.433 1007.54 353.373 1007.72 353.252C1007.89 353.131 1008.03 352.958 1008.12 352.731C1008.21 352.505 1008.25 352.233 1008.25 351.916C1008.25 351.603 1008.21 351.329 1008.12 351.093C1008.03 350.858 1007.9 350.676 1007.72 350.547C1007.55 350.415 1007.34 350.349 1007.08 350.349C1006.82 350.349 1006.6 350.417 1006.43 350.553C1006.25 350.689 1006.12 350.876 1006.03 351.113C1005.95 351.348 1005.9 351.616 1005.9 351.916C1005.9 352.22 1005.95 352.486 1006.03 352.715C1006.13 352.942 1006.26 353.118 1006.43 353.246C1006.61 353.371 1006.83 353.433 1007.08 353.433ZM1012.92 354.424V347.795H1015.41C1015.92 347.795 1016.34 347.89 1016.69 348.08C1017.04 348.27 1017.3 348.531 1017.47 348.864C1017.65 349.194 1017.74 349.569 1017.74 349.99C1017.74 350.415 1017.65 350.792 1017.47 351.123C1017.3 351.453 1017.03 351.713 1016.68 351.903C1016.33 352.09 1015.9 352.184 1015.39 352.184H1013.74V351.197H1015.23C1015.53 351.197 1015.77 351.145 1015.96 351.042C1016.15 350.938 1016.29 350.796 1016.38 350.614C1016.47 350.433 1016.52 350.225 1016.52 349.99C1016.52 349.755 1016.47 349.548 1016.38 349.368C1016.29 349.189 1016.15 349.05 1015.96 348.951C1015.77 348.849 1015.52 348.799 1015.22 348.799H1014.12V354.424H1012.92ZM1018.73 354.424V349.453H1019.91V354.424H1018.73ZM1019.32 348.747C1019.14 348.747 1018.98 348.686 1018.84 348.563C1018.71 348.437 1018.64 348.287 1018.64 348.113C1018.64 347.936 1018.71 347.786 1018.84 347.663C1018.98 347.538 1019.14 347.475 1019.32 347.475C1019.51 347.475 1019.67 347.538 1019.8 347.663C1019.94 347.786 1020 347.936 1020 348.113C1020 348.287 1019.94 348.437 1019.8 348.563C1019.67 348.686 1019.51 348.747 1019.32 348.747ZM1023.31 354.521C1022.81 354.521 1022.38 354.417 1022.02 354.21C1021.66 354.001 1021.38 353.705 1021.19 353.323C1020.99 352.939 1020.9 352.487 1020.9 351.967C1020.9 351.456 1020.99 351.007 1021.19 350.621C1021.38 350.233 1021.66 349.93 1022.01 349.715C1022.36 349.497 1022.77 349.388 1023.25 349.388C1023.56 349.388 1023.85 349.437 1024.12 349.537C1024.39 349.634 1024.63 349.785 1024.84 349.99C1025.05 350.195 1025.22 350.456 1025.34 350.773C1025.46 351.088 1025.52 351.464 1025.52 351.899V352.259H1021.45V351.469H1024.4C1024.4 351.245 1024.35 351.045 1024.25 350.87C1024.16 350.693 1024.03 350.554 1023.85 350.453C1023.69 350.351 1023.49 350.301 1023.27 350.301C1023.03 350.301 1022.82 350.359 1022.63 350.475C1022.45 350.59 1022.31 350.741 1022.21 350.928C1022.11 351.114 1022.06 351.318 1022.06 351.54V352.229C1022.06 352.519 1022.11 352.767 1022.22 352.974C1022.32 353.179 1022.47 353.336 1022.66 353.446C1022.85 353.554 1023.07 353.608 1023.33 353.608C1023.5 353.608 1023.65 353.584 1023.79 353.537C1023.93 353.487 1024.05 353.415 1024.15 353.32C1024.25 353.225 1024.33 353.108 1024.38 352.967L1025.47 353.09C1025.4 353.38 1025.27 353.632 1025.08 353.848C1024.89 354.061 1024.64 354.227 1024.34 354.346C1024.04 354.463 1023.7 354.521 1023.31 354.521ZM1028.68 354.521C1028.19 354.521 1027.76 354.412 1027.4 354.194C1027.05 353.976 1026.78 353.675 1026.58 353.291C1026.39 352.905 1026.3 352.46 1026.3 351.958C1026.3 351.453 1026.4 351.007 1026.59 350.621C1026.78 350.233 1027.06 349.93 1027.41 349.715C1027.77 349.497 1028.19 349.388 1028.67 349.388C1029.08 349.388 1029.44 349.462 1029.75 349.611C1030.06 349.758 1030.31 349.966 1030.49 350.236C1030.68 350.503 1030.79 350.816 1030.81 351.174H1029.69C1029.65 350.935 1029.54 350.735 1029.37 350.576C1029.2 350.414 1028.97 350.333 1028.69 350.333C1028.45 350.333 1028.24 350.398 1028.06 350.527C1027.88 350.654 1027.74 350.838 1027.64 351.077C1027.54 351.317 1027.49 351.604 1027.49 351.938C1027.49 352.277 1027.54 352.568 1027.64 352.812C1027.74 353.054 1027.87 353.24 1028.05 353.372C1028.23 353.501 1028.45 353.566 1028.69 353.566C1028.86 353.566 1029.02 353.534 1029.15 353.469C1029.29 353.402 1029.41 353.306 1029.5 353.181C1029.59 353.056 1029.66 352.904 1029.69 352.725H1030.81C1030.78 353.076 1030.68 353.388 1030.5 353.66C1030.32 353.93 1030.08 354.141 1029.77 354.294C1029.46 354.445 1029.1 354.521 1028.68 354.521ZM1033.97 354.521C1033.48 354.521 1033.04 354.417 1032.68 354.21C1032.32 354.001 1032.04 353.705 1031.85 353.323C1031.66 352.939 1031.56 352.487 1031.56 351.967C1031.56 351.456 1031.66 351.007 1031.85 350.621C1032.05 350.233 1032.32 349.93 1032.67 349.715C1033.02 349.497 1033.44 349.388 1033.91 349.388C1034.22 349.388 1034.51 349.437 1034.78 349.537C1035.05 349.634 1035.3 349.785 1035.5 349.99C1035.72 350.195 1035.88 350.456 1036 350.773C1036.12 351.088 1036.18 351.464 1036.18 351.899V352.259H1032.11V351.469H1035.06C1035.06 351.245 1035.01 351.045 1034.92 350.87C1034.82 350.693 1034.69 350.554 1034.52 350.453C1034.35 350.351 1034.15 350.301 1033.93 350.301C1033.69 350.301 1033.48 350.359 1033.3 350.475C1033.12 350.59 1032.97 350.741 1032.87 350.928C1032.77 351.114 1032.72 351.318 1032.72 351.54V352.229C1032.72 352.519 1032.77 352.767 1032.88 352.974C1032.99 353.179 1033.13 353.336 1033.32 353.446C1033.51 353.554 1033.74 353.608 1033.99 353.608C1034.16 353.608 1034.31 353.584 1034.45 353.537C1034.59 353.487 1034.71 353.415 1034.81 353.32C1034.91 353.225 1034.99 353.108 1035.04 352.967L1036.14 353.09C1036.07 353.38 1035.94 353.632 1035.74 353.848C1035.55 354.061 1035.3 354.227 1035 354.346C1034.7 354.463 1034.36 354.521 1033.97 354.521Z" fill="#F9F9F9"/>
<path d="M1237.49 233.786H1187.77C1187.15 233.786 1186.64 233.277 1186.64 232.655V182.928C1186.64 182.306 1187.15 181.797 1187.77 181.797H1237.49C1238.12 181.797 1238.63 182.306 1238.63 182.928V232.655C1238.63 233.282 1238.12 233.786 1237.49 233.786Z" fill="white"/>
<path d="M1228.45 207.887L1224.24 210.51L1223.41 209.165L1221.52 210.895C1221.53 210.98 1221.53 211.07 1221.52 211.161C1221.47 211.946 1220.79 212.54 1220 212.484C1220.07 212.744 1220.06 213.021 1219.99 213.281C1219.75 214.061 1218.94 214.507 1218.16 214.27C1218.2 214.604 1218.13 214.943 1217.96 215.225C1217.53 215.921 1216.63 216.141 1215.93 215.717C1215.94 216.017 1215.85 216.305 1215.67 216.548C1215.23 217.159 1214.38 217.3 1213.76 216.859L1212.4 215.881V215.887L1211.38 216.729C1211.12 216.944 1210.79 217.063 1210.46 217.068C1209.65 217.074 1208.98 216.424 1208.97 215.61C1208.7 215.813 1208.35 215.921 1208.01 215.898C1207.19 215.853 1206.58 215.158 1206.62 214.343C1206.36 214.445 1206.07 214.462 1205.79 214.406C1204.99 214.236 1204.49 213.45 1204.65 212.659C1204.28 212.704 1203.9 212.614 1203.6 212.387C1202.95 211.901 1202.8 210.985 1203.29 210.33L1202.53 209.781L1201.79 211.008L1197.56 208.436L1203.26 199.034L1207.5 201.606L1206.73 202.867C1207.77 202.884 1208.8 202.845 1209.84 202.754C1210.93 202.426 1212.09 202.392 1213.2 202.647C1213.8 202.324 1214.5 202.274 1215.14 202.505L1217.63 203.399L1219.39 202.754L1218.79 201.793L1222.99 199.164L1228.45 207.887Z" fill="#636363"/>
<path d="M1227.7 207.333L1223.5 209.956L1222.66 208.611L1220.77 210.341C1220.78 210.426 1220.79 210.516 1220.78 210.606C1220.73 211.392 1220.04 211.986 1219.26 211.929C1219.32 212.189 1219.32 212.466 1219.24 212.726C1219.01 213.507 1218.19 213.953 1217.41 213.716C1217.46 214.049 1217.39 214.389 1217.21 214.671C1216.79 215.367 1215.88 215.587 1215.19 215.163C1215.19 215.463 1215.1 215.751 1214.93 215.994C1214.48 216.605 1213.63 216.746 1213.02 216.305L1211.66 215.327V215.333L1210.63 216.175C1210.37 216.39 1210.05 216.509 1209.71 216.514C1208.9 216.52 1208.23 215.87 1208.23 215.056C1207.95 215.259 1207.6 215.367 1207.26 215.344C1206.45 215.299 1205.83 214.603 1205.87 213.789C1205.61 213.891 1205.33 213.908 1205.04 213.851C1204.25 213.682 1203.74 212.896 1203.91 212.105C1203.53 212.15 1203.16 212.059 1202.86 211.833C1202.2 211.347 1202.06 210.431 1202.54 209.775L1201.79 209.227L1201.05 210.454L1196.81 207.882L1202.52 198.48L1206.75 201.052L1205.98 202.313C1207.02 202.33 1208.06 202.29 1209.09 202.2C1210.18 201.872 1211.34 201.838 1212.45 202.092C1213.05 201.77 1213.75 201.719 1214.39 201.951L1216.89 202.844L1218.64 202.2L1218.04 201.239L1222.25 198.61L1227.7 207.333Z" fill="white"/>
<path d="M1222.25 198.593L1218.04 201.222L1218.64 202.183L1216.89 202.827L1214.39 201.934C1213.76 201.702 1213.05 201.759 1212.45 202.075C1211.34 201.815 1210.18 201.849 1209.09 202.183C1208.06 202.273 1207.02 202.313 1205.98 202.296L1206.75 201.035L1202.52 198.463L1196.81 207.864L1201.05 210.437L1201.79 209.21L1202.54 209.758C1202.05 210.414 1202.2 211.336 1202.86 211.816C1203.16 212.042 1203.53 212.138 1203.91 212.087C1203.74 212.885 1204.25 213.665 1205.04 213.834C1205.32 213.891 1205.61 213.874 1205.87 213.772C1205.83 214.586 1206.45 215.282 1207.26 215.327C1207.6 215.349 1207.95 215.248 1208.23 215.039C1208.24 215.853 1208.9 216.503 1209.71 216.497C1210.05 216.491 1210.37 216.373 1210.63 216.158L1211.66 215.316V215.31L1213.02 216.288C1213.63 216.729 1214.48 216.588 1214.93 215.977C1215.1 215.734 1215.19 215.44 1215.19 215.146C1215.88 215.57 1216.79 215.349 1217.21 214.654C1217.38 214.366 1217.45 214.032 1217.41 213.699C1218.19 213.93 1219.01 213.49 1219.24 212.709C1219.32 212.449 1219.32 212.172 1219.26 211.912C1220.04 211.969 1220.73 211.375 1220.78 210.589C1220.79 210.505 1220.78 210.414 1220.77 210.324L1222.66 208.594L1223.5 209.939L1227.7 207.316L1222.25 198.593ZM1200.85 209.69L1197.55 207.684L1202.7 199.22L1205.99 201.227L1200.85 209.69ZM1203 211.183C1202.7 210.799 1202.76 210.244 1203.12 209.922L1204.21 209.023C1204.37 208.899 1204.55 208.825 1204.75 208.82C1204.78 208.814 1204.81 208.814 1204.84 208.82C1205.35 208.837 1205.74 209.272 1205.73 209.781C1205.71 210.041 1205.59 210.284 1205.4 210.454L1204.3 211.353C1203.9 211.663 1203.31 211.59 1203 211.183ZM1205.93 213.116C1205.54 213.439 1204.95 213.382 1204.63 212.981C1204.31 212.591 1204.37 212.014 1204.76 211.686L1206.73 210.058C1206.88 209.928 1207.07 209.854 1207.28 209.849C1207.79 209.82 1208.22 210.216 1208.25 210.725C1208.26 211.019 1208.14 211.302 1207.91 211.488L1205.93 213.116ZM1207.92 214.586C1207.53 214.914 1206.94 214.852 1206.62 214.462C1206.29 214.066 1206.35 213.478 1206.75 213.156L1208.29 211.884C1208.44 211.76 1208.63 211.686 1208.83 211.68C1209.34 211.652 1209.78 212.042 1209.8 212.551C1209.82 212.845 1209.7 213.128 1209.47 213.314L1207.92 214.586ZM1211.3 214.909L1210.28 215.751C1209.88 216.073 1209.3 216.011 1208.98 215.61C1208.66 215.219 1208.71 214.648 1209.1 214.321L1210.12 213.478C1210.27 213.354 1210.45 213.28 1210.65 213.275H1210.74C1211.25 213.292 1211.65 213.727 1211.63 214.236C1211.62 214.496 1211.5 214.745 1211.3 214.909ZM1220.02 211.053C1219.73 211.398 1219.22 211.471 1218.85 211.211L1214.36 207.989C1214.24 207.898 1214.06 207.932 1213.98 208.057C1213.89 208.175 1213.92 208.345 1214.04 208.435L1218.37 211.545C1218.78 211.856 1218.85 212.438 1218.54 212.839C1218.24 213.229 1217.7 213.326 1217.29 213.043L1213.2 210.109C1213.08 210.018 1212.91 210.047 1212.82 210.171C1212.73 210.295 1212.76 210.465 1212.88 210.555L1216.49 213.145C1216.92 213.433 1217.02 214.004 1216.73 214.434C1216.45 214.858 1215.88 214.965 1215.45 214.677C1215.43 214.665 1215.42 214.66 1215.41 214.648L1212.01 212.212C1211.88 212.133 1211.71 212.167 1211.64 212.291C1211.56 212.41 1211.58 212.568 1211.69 212.653L1214.29 214.513C1214.65 214.79 1214.71 215.31 1214.43 215.666C1214.17 216.005 1213.69 216.09 1213.33 215.847L1212 214.892C1212.39 214.179 1212.12 213.28 1211.41 212.896C1211.08 212.715 1210.7 212.664 1210.33 212.76C1210.43 211.952 1209.84 211.217 1209.04 211.126C1208.94 211.109 1208.83 211.109 1208.74 211.121C1208.93 210.329 1208.45 209.532 1207.66 209.334C1207.2 209.221 1206.72 209.329 1206.36 209.628L1206.26 209.707C1206.25 208.893 1205.59 208.243 1204.77 208.255C1204.44 208.26 1204.11 208.379 1203.85 208.588L1202.91 209.368L1202.05 208.735L1205.64 202.827C1206.81 202.856 1207.99 202.816 1209.18 202.714C1209.74 202.539 1210.34 202.448 1210.93 202.448C1211.21 202.448 1211.48 202.465 1211.76 202.499C1211.08 202.929 1210.35 203.28 1209.59 203.551C1209.1 203.721 1208.85 204.252 1209.04 204.738C1209.14 205.015 1209.36 205.23 1209.65 205.315C1211.06 205.716 1212.57 205.58 1213.9 204.942L1219.89 209.804C1220.29 210.131 1220.33 210.68 1220.02 211.053ZM1220.58 209.77C1220.5 209.628 1220.38 209.498 1220.25 209.391L1213.98 204.297C1212.72 205.015 1211.22 205.196 1209.82 204.8C1209.61 204.744 1209.5 204.535 1209.55 204.337C1209.58 204.218 1209.67 204.128 1209.78 204.082C1210.75 203.732 1211.68 203.257 1212.53 202.669C1212.86 202.443 1213.26 202.33 1213.66 202.341C1213.85 202.352 1214.03 202.386 1214.21 202.448L1216.89 203.404L1218.93 202.652L1222.35 208.13L1220.58 209.77ZM1218.79 201.391L1222.07 199.345L1226.94 207.146L1223.67 209.193L1218.79 201.391Z" fill="#636363"/>
<path d="M1178.21 209.911H1073.28C1072.65 209.911 1072.14 209.402 1072.14 208.78V159.087C1072.14 158.465 1072.65 157.957 1073.28 157.957H1178.21C1178.83 157.957 1179.34 158.465 1179.34 159.087V208.78C1179.34 209.402 1178.83 209.911 1178.21 209.911Z" fill="white"/>
<path d="M1159.47 209.91L1150.66 201.1L1141.85 209.91L1150.66 218.721L1159.47 209.91Z" fill="white"/>
<path d="M1246.46 210.16L1238.52 205.937L1230.53 210.092L1230.63 187.841L1246.56 187.909L1246.46 210.16Z" fill="#F74E4E"/>
<path d="M1224.47 181.837L1226.59 180.576L1224.79 178.897L1227.13 178.106L1225.72 176.082L1228.17 175.799L1227.21 173.532L1229.67 173.764L1229.2 171.344L1231.55 172.079L1231.6 169.614L1233.75 170.819L1234.3 168.422L1236.15 170.05L1237.2 167.822L1238.67 169.801L1240.16 167.834L1241.19 170.072L1243.05 168.455L1243.59 170.864L1245.75 169.677L1245.77 172.136L1248.13 171.423L1247.65 173.843L1250.1 173.628L1249.13 175.89L1251.57 176.195L1250.14 178.207L1252.47 179.016L1250.66 180.684L1252.77 181.956L1250.65 183.216L1252.45 184.895L1250.11 185.687L1251.52 187.705L1249.08 187.988L1250.03 190.26L1247.58 190.029L1248.04 192.448L1245.69 191.713L1245.64 194.178L1243.5 192.974L1242.94 195.371L1241.09 193.743L1240.04 195.97L1238.57 193.992L1237.08 195.959L1236.05 193.72L1234.19 195.332L1233.65 192.929L1231.49 194.116L1231.47 191.651L1229.11 192.369L1229.59 189.95L1227.14 190.164L1228.11 187.897L1225.67 187.598L1227.1 185.585L1224.77 184.777L1226.58 183.109L1224.47 181.837Z" fill="#71C5FF"/>
<path d="M1238.79 176.087L1240.1 180.565L1244.77 180.701L1240.91 183.335L1242.22 187.812L1238.53 184.963L1234.68 187.592L1236.25 183.199L1232.56 180.35L1237.22 180.486L1238.79 176.087Z" fill="white"/>
<path d="M1084.51 174.731L1083.47 167.218H1084.75L1085.56 173.844H1085.74L1086.79 167.218H1089.04L1090.09 173.844H1090.27L1091.07 167.218H1092.36L1091.31 174.731H1089.07L1088 167.981H1087.82L1086.75 174.731H1084.51Z" fill="#71C5FF"/>
<path d="M1095.83 174.878C1095.3 174.878 1094.83 174.765 1094.43 174.539C1094.02 174.313 1093.71 173.996 1093.48 173.584C1093.26 173.171 1093.14 172.691 1093.14 172.142V172.012C1093.14 171.452 1093.26 170.972 1093.48 170.565C1093.7 170.158 1094.01 169.841 1094.41 169.615C1094.81 169.389 1095.27 169.276 1095.79 169.276C1096.31 169.276 1096.76 169.389 1097.15 169.615C1097.53 169.841 1097.83 170.158 1098.04 170.565C1098.26 170.972 1098.37 171.447 1098.37 171.995V172.436H1094.38C1094.4 172.854 1094.54 173.182 1094.82 173.437C1095.1 173.691 1095.44 173.81 1095.85 173.81C1096.25 173.81 1096.55 173.725 1096.74 173.544C1096.94 173.369 1097.08 173.171 1097.18 172.951L1098.2 173.476C1098.1 173.669 1097.96 173.878 1097.77 174.093C1097.57 174.313 1097.33 174.5 1097.01 174.652C1096.7 174.805 1096.31 174.878 1095.83 174.878ZM1094.4 171.498H1097.11C1097.08 171.147 1096.95 170.87 1096.71 170.661C1096.47 170.452 1096.16 170.35 1095.78 170.35C1095.39 170.35 1095.08 170.452 1094.84 170.661C1094.6 170.87 1094.45 171.147 1094.4 171.498Z" fill="#71C5FF"/>
<path d="M1103.7 174.877C1103.33 174.877 1102.99 174.809 1102.69 174.679C1102.39 174.549 1102.16 174.357 1101.98 174.103C1101.81 173.854 1101.71 173.543 1101.71 173.181C1101.71 172.825 1101.8 172.52 1101.98 172.277C1102.16 172.034 1102.4 171.847 1102.7 171.723C1103.01 171.598 1103.36 171.536 1103.76 171.536H1105.29V171.214C1105.29 170.937 1105.21 170.705 1105.03 170.53C1104.86 170.354 1104.59 170.264 1104.23 170.264C1103.87 170.264 1103.6 170.349 1103.42 170.518C1103.24 170.688 1103.12 170.903 1103.06 171.169L1101.92 170.795C1102.01 170.518 1102.14 170.264 1102.34 170.032C1102.53 169.806 1102.78 169.62 1103.09 169.478C1103.41 169.337 1103.8 169.269 1104.25 169.269C1104.95 169.269 1105.49 169.444 1105.89 169.789C1106.29 170.134 1106.49 170.637 1106.49 171.299V173.379C1106.49 173.594 1106.59 173.701 1106.79 173.701H1107.24V174.719H1106.36C1106.1 174.719 1105.89 174.657 1105.73 174.527C1105.56 174.397 1105.48 174.221 1105.48 174.001V173.978H1105.3C1105.25 174.08 1105.18 174.199 1105.07 174.346C1104.97 174.487 1104.8 174.611 1104.59 174.719C1104.37 174.826 1104.07 174.877 1103.7 174.877ZM1103.9 173.871C1104.31 173.871 1104.64 173.752 1104.9 173.52C1105.16 173.289 1105.29 172.972 1105.29 172.582V172.474H1103.83C1103.56 172.474 1103.35 172.531 1103.18 172.644C1103.02 172.757 1102.94 172.927 1102.94 173.147C1102.94 173.362 1103.02 173.537 1103.2 173.667C1103.37 173.803 1103.6 173.871 1103.9 173.871Z" fill="#71C5FF"/>
<path d="M1108.25 174.73V169.427H1109.47V170.037H1109.65C1109.73 169.817 1109.86 169.653 1110.04 169.557C1110.23 169.455 1110.45 169.404 1110.71 169.404H1111.35V170.501H1110.69C1110.33 170.501 1110.04 170.597 1109.82 170.784C1109.6 170.97 1109.48 171.264 1109.48 171.66V174.73H1108.25Z" fill="#71C5FF"/>
<path d="M1114.68 174.877C1114.15 174.877 1113.69 174.764 1113.28 174.538C1112.87 174.312 1112.56 173.995 1112.34 173.583C1112.11 173.17 1112 172.69 1112 172.141V172.011C1112 171.451 1112.11 170.971 1112.33 170.564C1112.55 170.157 1112.86 169.84 1113.26 169.614C1113.67 169.388 1114.13 169.275 1114.65 169.275C1115.16 169.275 1115.62 169.388 1116 169.614C1116.39 169.84 1116.69 170.157 1116.9 170.564C1117.11 170.971 1117.22 171.446 1117.22 171.994V172.435H1113.24C1113.25 172.853 1113.4 173.181 1113.68 173.436C1113.95 173.685 1114.3 173.809 1114.71 173.809C1115.11 173.809 1115.4 173.724 1115.6 173.543C1115.79 173.368 1115.94 173.17 1116.04 172.95L1117.06 173.475C1116.96 173.668 1116.81 173.877 1116.62 174.092C1116.43 174.312 1116.18 174.499 1115.86 174.651C1115.56 174.804 1115.16 174.877 1114.68 174.877ZM1113.25 171.497H1115.97C1115.94 171.146 1115.8 170.869 1115.57 170.66C1115.33 170.451 1115.02 170.349 1114.64 170.349C1114.24 170.349 1113.93 170.451 1113.69 170.66C1113.46 170.869 1113.31 171.146 1113.25 171.497Z" fill="#71C5FF"/>
<path d="M1083.6 198.826V179.079H1086.84V186.722H1087.32C1087.48 186.405 1087.72 186.083 1088.06 185.767C1088.4 185.444 1088.84 185.184 1089.4 184.975C1089.95 184.766 1090.65 184.664 1091.5 184.664C1092.58 184.664 1093.52 184.907 1094.35 185.388C1095.18 185.868 1095.82 186.541 1096.28 187.406C1096.74 188.271 1096.97 189.3 1096.97 190.481V198.831H1093.73V190.736C1093.73 189.611 1093.45 188.768 1092.9 188.214C1092.34 187.66 1091.56 187.383 1090.54 187.383C1089.39 187.383 1088.49 187.762 1087.83 188.525C1087.18 189.289 1086.84 190.374 1086.84 191.782V198.831H1083.6V198.826Z" fill="#4E8EF7"/>
<path d="M1102.55 183.115C1101.97 183.115 1101.47 182.923 1101.05 182.538C1100.62 182.154 1100.41 181.639 1100.41 181.001C1100.41 180.362 1100.62 179.847 1101.05 179.463C1101.47 179.078 1101.97 178.886 1102.55 178.886C1103.18 178.886 1103.69 179.078 1104.09 179.463C1104.49 179.847 1104.7 180.362 1104.7 181.001C1104.7 181.639 1104.49 182.154 1104.09 182.538C1103.69 182.923 1103.18 183.115 1102.55 183.115ZM1100.95 198.826V184.89H1104.19V198.826H1100.95Z" fill="#4E8EF7"/>
<path d="M1108.31 198.825V184.89H1111.5V186.495H1111.98C1112.18 185.913 1112.53 185.489 1113.02 185.223C1113.51 184.963 1114.1 184.828 1114.77 184.828H1116.46V187.705H1114.71C1113.77 187.705 1113.01 187.954 1112.43 188.451C1111.85 188.949 1111.55 189.718 1111.55 190.752V198.82H1108.31V198.825Z" fill="#4E8EF7"/>
<path d="M1120.94 183.115C1120.36 183.115 1119.86 182.923 1119.43 182.538C1119.01 182.154 1118.8 181.639 1118.8 181.001C1118.8 180.362 1119.01 179.847 1119.43 179.463C1119.86 179.078 1120.36 178.886 1120.94 178.886C1121.56 178.886 1122.07 179.078 1122.48 179.463C1122.88 179.847 1123.08 180.362 1123.08 181.001C1123.08 181.639 1122.88 182.154 1122.48 182.538C1122.08 182.923 1121.56 183.115 1120.94 183.115ZM1119.34 198.826V184.89H1122.58V198.826H1119.34Z" fill="#4E8EF7"/>
<path d="M1126.7 198.826V184.89H1129.89V186.835H1130.37C1130.61 186.309 1131.05 185.806 1131.7 185.337C1132.34 184.868 1133.3 184.63 1134.6 184.63C1135.68 184.63 1136.63 184.873 1137.45 185.365C1138.28 185.851 1138.92 186.53 1139.39 187.395C1139.84 188.26 1140.08 189.289 1140.08 190.47V198.82H1136.83V190.725C1136.83 189.6 1136.55 188.757 1136 188.203C1135.44 187.649 1134.66 187.372 1133.64 187.372C1132.49 187.372 1131.59 187.751 1130.93 188.514C1130.28 189.277 1129.94 190.363 1129.94 191.771V198.82H1126.7V198.826Z" fill="#4E8EF7"/>
<path d="M1143.37 191.911V191.487C1143.37 190.023 1143.67 188.762 1144.25 187.722C1144.83 186.676 1145.61 185.879 1146.59 185.325C1147.57 184.771 1148.63 184.494 1149.8 184.494C1151.12 184.494 1152.12 184.726 1152.81 185.201C1153.49 185.67 1153.99 186.179 1154.32 186.722H1154.8V184.89H1157.96V201.477C1157.96 202.398 1157.69 203.128 1157.17 203.665C1156.64 204.202 1155.93 204.473 1155.02 204.473H1145.66V201.652H1153.92C1154.46 201.652 1154.74 201.369 1154.74 200.804V196.773H1154.26C1154.05 197.09 1153.77 197.418 1153.41 197.746C1153.06 198.073 1152.59 198.351 1152 198.577C1151.42 198.803 1150.68 198.916 1149.8 198.916C1148.63 198.916 1147.56 198.639 1146.58 198.085C1145.6 197.531 1144.82 196.734 1144.24 195.688C1143.67 194.636 1143.37 193.381 1143.37 191.911ZM1150.7 196.061C1151.87 196.061 1152.83 195.688 1153.61 194.947C1154.38 194.207 1154.77 193.166 1154.77 191.832V191.55C1154.77 190.193 1154.39 189.153 1153.63 188.418C1152.86 187.683 1151.89 187.315 1150.7 187.315C1149.54 187.315 1148.57 187.683 1147.78 188.418C1147 189.153 1146.61 190.193 1146.61 191.55V191.832C1146.61 193.166 1147 194.207 1147.78 194.947C1148.57 195.688 1149.54 196.061 1150.7 196.061Z" fill="#4E8EF7"/>
<path d="M1100.07 128.678L1112.32 150.104L1083 162.581L1081.81 163.09L1073.4 148.391L1074.44 147.622L1100.07 128.678Z" fill="#71C5FF"/>
<path d="M1048.93 168.217L1041.79 172.3L1045.16 178.194L1052.3 174.112L1048.93 168.217Z" fill="#102DA3"/>
<path d="M1074.44 147.623L1083 162.581L1081.8 163.09L1081.13 161.914L1077.11 163.627L1070.55 152.168L1074.07 149.567L1073.4 148.391L1074.44 147.623Z" fill="#1D6FF5"/>
<path d="M1074.07 149.567L1081.13 161.914L1077.11 163.627L1058.74 171.44L1052.34 174.165L1048.91 168.166L1054.51 164.028L1070.55 152.167L1074.07 149.567Z" fill="#71C5FF"/>
<path d="M1110.28 149.402C1117.09 149.402 1122.62 143.877 1122.62 137.061C1122.62 130.245 1117.09 124.72 1110.28 124.72C1103.46 124.72 1097.94 130.245 1097.94 137.061C1097.94 143.877 1103.46 149.402 1110.28 149.402Z" fill="white"/>
<path d="M1112.86 142.986C1115.76 142.986 1118.12 140.632 1118.12 137.728C1118.12 134.825 1115.76 132.471 1112.86 132.471C1109.96 132.471 1107.6 134.825 1107.6 137.728C1107.6 140.632 1109.96 142.986 1112.86 142.986Z" fill="#636363"/>
<path d="M1116.97 148.771C1110.51 152.462 1102.26 150.212 1098.57 143.756C1094.87 137.3 1097.12 129.046 1103.58 125.354C1110.04 121.663 1118.29 123.913 1121.98 130.369C1125.67 136.825 1123.42 145.079 1116.97 148.771ZM1104.72 127.339C1099.36 130.403 1097.49 137.26 1100.55 142.62C1103.61 147.979 1110.47 149.85 1115.83 146.786C1121.19 143.722 1123.06 136.865 1120 131.505C1116.93 126.14 1110.08 124.275 1104.72 127.339Z" fill="#F74E4E"/>
<path d="M1097.33 115.081L1096.14 115.763L1100.18 122.83L1101.37 122.148L1097.33 115.081Z" fill="#636363"/>
<path d="M1114.52 112.562L1112.38 120.417L1113.71 120.778L1115.85 112.923L1114.52 112.562Z" fill="#636363"/>
<path d="M1129.78 123.298L1122.71 127.338L1123.39 128.531L1130.46 124.491L1129.78 123.298Z" fill="#636363"/>
<path d="M1162.23 228.528V225.922H1165.21L1167.93 226.374L1168.12 225.922L1165.89 224.334L1163.78 222.18L1165.59 220.365L1167.75 222.485L1169.3 224.712L1169.79 224.526L1169.33 221.84V218.816H1171.94V221.84L1171.49 224.526L1171.98 224.712L1173.53 222.485L1175.68 220.365L1177.54 222.18L1175.38 224.334L1173.16 225.922L1173.34 226.374L1176.06 225.922H1179.05V228.528H1176.06L1173.34 228.076L1173.16 228.568L1175.38 230.117L1177.54 232.271L1175.68 234.125L1173.53 232.011L1171.98 229.783L1171.49 229.97L1171.94 232.655V235.68H1169.33V232.655L1169.79 229.97L1169.3 229.783L1167.75 232.011L1165.59 234.125L1163.78 232.271L1165.89 230.117L1168.12 228.568L1167.93 228.076L1165.21 228.528H1162.23Z" fill="#71C5FF"/>
<path d="M1066.8 204.19H1043.06V209.861H1066.8V204.19Z" fill="#1D6FF5"/>
<path d="M1066.8 212.998H1036.26V218.668H1066.8V212.998Z" fill="#1D6FF5"/>
<path d="M1193.76 165.006C1198.76 165.006 1202.81 160.957 1202.81 155.961C1202.81 150.965 1198.76 146.916 1193.76 146.916C1188.77 146.916 1184.72 150.965 1184.72 155.961C1184.72 160.957 1188.77 165.006 1193.76 165.006Z" fill="#F2F2F2"/>
<path d="M1193.76 160.484C1196.26 160.484 1198.29 158.459 1198.29 155.961C1198.29 153.463 1196.26 151.438 1193.76 151.438C1191.27 151.438 1189.24 153.463 1189.24 155.961C1189.24 158.459 1191.27 160.484 1193.76 160.484Z" fill="#F74E4E"/>
<path d="M1193.76 174.323L1190.01 167.821L1186.26 161.32H1193.76H1201.27L1197.52 167.821L1193.76 174.323Z" fill="#F2F2F2"/>
<path d="M164.448 488.359H161.239L156 493.402L161.239 498.51L156 503.618L161.239 508.727L156 513.769L161.239 518.877L156 523.986L161.239 529.094L156 534.202L161.239 539.245L156 544.353L161.239 549.461L156 554.569L161.239 559.612L156 564.72L161.239 569.828L156 574.937L161.239 580.045L156 585.087L161.239 590.196L156 595.304L161.239 600.412L156 605.52L161.239 610.563L156 615.671L161.239 620.779H164.448" fill="#71C5FF"/>
<path d="M325.289 488.359H161.172V620.779H325.289V488.359Z" fill="#71C5FF"/>
<path d="M442.649 488.359H322.41V581.485H442.649V488.359Z" fill="#F74E4E"/>
<path d="M462.36 551.36H374.932V620.976H462.36V551.36Z" fill="#FFB71B"/>
<path d="M495.171 449H368.121V581.485H495.171V449Z" fill="#4FBF5E"/>
<path d="M355.967 553.493C358.366 538.712 348.328 524.785 333.547 522.387C318.767 519.988 304.84 530.025 302.441 544.806C300.042 559.587 310.08 573.513 324.861 575.912C339.641 578.311 353.568 568.274 355.967 553.493Z" fill="#FF8D6B"/>
<path d="M358.557 544.483H342.775L342.513 536.756L299.879 544.483C300.141 528.308 313.435 515.341 329.611 515.603C345.525 515.799 358.296 528.635 358.557 544.483Z" fill="#3D3D3D"/>
<path d="M426.928 574.412H410.229V578.669H426.928V574.412Z" fill="#102DA3"/>
<path d="M435.049 568.125H410.229V572.382H435.049V568.125Z" fill="#102DA3"/>
<path d="M259.669 549.133H402.698C403.419 549.133 404.008 549.723 404.008 550.443V619.862C404.008 620.582 403.419 621.172 402.698 621.172H259.669C258.949 621.172 258.359 620.582 258.359 619.862V550.443C258.359 549.723 258.949 549.133 259.669 549.133Z" fill="white"/>
<path d="M393.073 540.424H414.881C415.274 540.424 415.536 540.686 415.536 541.079V559.481C415.536 559.874 415.274 560.136 414.881 560.136H393.073C392.68 560.136 392.418 559.874 392.418 559.481V541.079C392.418 540.686 392.745 540.424 393.073 540.424Z" fill="#1D6FF5"/>
<path d="M402.962 552.997C403.093 552.997 403.289 553.128 403.289 553.259C403.289 553.39 403.355 553.455 403.42 553.586H404.01V552.997H402.962ZM407.153 552.997C406.695 552.735 406.433 552.211 406.498 551.622V549.591C406.498 548.151 405.385 546.972 403.944 546.841H403.748C402.438 546.841 401.259 547.758 401.063 549.067C400.997 549.264 400.997 549.395 400.997 549.591V551.622C401.063 552.145 400.801 552.669 400.342 552.997C400.211 553.062 400.146 553.193 400.211 553.324C400.211 553.455 400.342 553.586 400.539 553.586H407.088C407.284 553.586 407.415 553.455 407.415 553.259C407.35 553.193 407.284 553.128 407.153 552.997ZM401.259 552.997C401.521 552.604 401.587 552.145 401.587 551.687V549.657C401.587 549.46 401.587 549.329 401.652 549.133C401.848 548.151 402.765 547.496 403.748 547.496C403.813 547.496 403.944 547.496 404.01 547.496C405.057 547.627 405.909 548.544 405.909 549.591V551.622C405.909 552.08 406.04 552.538 406.236 552.931L401.259 552.997Z" fill="white"/>
<path d="M403.813 554.438C403.223 554.438 402.699 553.914 402.699 553.325C402.699 553.128 402.896 553.063 403.027 553.063C403.158 553.063 403.289 553.194 403.289 553.325C403.289 553.586 403.485 553.848 403.813 553.848C404.074 553.848 404.336 553.652 404.336 553.325C404.336 553.128 404.467 552.997 404.664 552.997C404.795 552.997 404.991 553.128 404.991 553.259C404.926 553.914 404.402 554.438 403.813 554.438Z" fill="white"/>
<path d="M407.348 550.247C409.192 550.247 410.688 548.751 410.688 546.907C410.688 545.062 409.192 543.567 407.348 543.567C405.503 543.567 404.008 545.062 404.008 546.907C404.008 548.751 405.503 550.247 407.348 550.247Z" fill="#F74E4E"/>
<path d="M268.578 612.266H223.652V620.976H268.578V612.266Z" fill="#1D6FF5"/>
<path d="M229.478 612.266H228.299V620.976H229.478V612.266Z" fill="#102DA3"/>
<path d="M231.442 612.266H230.264V620.976H231.442V612.266Z" fill="#102DA3"/>
<path d="M266.023 603.621H221.098V612.331H266.023V603.621Z" fill="#FFB71B"/>
<path d="M268.578 586.266H223.652V594.976H268.578V586.266Z" fill="#F74E4E"/>
<path d="M228.301 609.58C229.386 609.58 230.265 608.701 230.265 607.616C230.265 606.53 229.386 605.651 228.301 605.651C227.216 605.651 226.336 606.53 226.336 607.616C226.336 608.701 227.216 609.58 228.301 609.58Z" fill="#FF8C00"/>
<path d="M266.023 594.911H221.098V603.621H266.023V594.911Z" fill="white"/>
<path d="M221.098 594.911H266.023" stroke="#717171" stroke-width="0.350538" stroke-miterlimit="10"/>
<path d="M221.098 599.233H266.023" stroke="#717171" stroke-width="0.350538" stroke-miterlimit="10"/>
<path d="M221.098 603.621H266.023" stroke="#717171" stroke-width="0.350538" stroke-miterlimit="10"/>
<path d="M228.824 590.916H262.813" stroke="#FF8D6B" stroke-width="0.701075" stroke-miterlimit="10"/>
<path d="M161.172 620.975H496.02" stroke="#1D6FF5" stroke-width="0.701075" stroke-miterlimit="10"/>
<path d="M409.316 598.644V608.14H408.792C408.726 608.14 408.726 608.14 408.661 608.14C408.268 608.14 407.94 608.074 407.613 608.009H407.482L407.023 607.878V598.709L409.316 598.644Z" fill="#4FBF5E"/>
<path d="M409.316 600.87H407.023V601.197H409.316V600.87Z" fill="#557D6B"/>
<path d="M409.316 600.346H407.023V600.674H409.316V600.346Z" fill="#557D6B"/>
<path d="M409.116 598.644H407.217L408.003 595.369H408.33L409.116 598.644Z" fill="#4FBF5E"/>
<path d="M408.46 602.835C408.394 602.573 408.263 602.442 408.132 602.442C408.002 602.442 407.871 602.573 407.805 602.835C407.543 604.079 407.412 605.389 407.412 606.699C407.412 607.092 407.412 607.485 407.412 607.943H407.543C407.543 607.55 407.543 607.092 407.543 606.633C407.478 605.323 407.609 604.014 407.936 602.769C408.002 602.573 408.067 602.507 408.132 602.507C408.198 602.507 408.263 602.573 408.329 602.769C408.656 604.014 408.787 605.323 408.722 606.633C408.722 607.157 408.722 607.616 408.656 608.074C408.722 608.074 408.722 608.074 408.787 608.074C408.787 607.55 408.853 607.092 408.853 606.633C408.853 605.323 408.722 604.079 408.46 602.835Z" fill="#557D6B"/>
<path d="M404.207 595.369V606.764C404.469 606.895 404.731 607.026 404.993 607.157C405.058 607.157 405.058 607.223 405.124 607.223L405.451 607.354C405.517 607.354 405.517 607.354 405.582 607.419C405.844 607.55 406.172 607.616 406.499 607.681V595.369H404.207V595.369Z" fill="#FFB71B"/>
<path d="M406.499 597.596H404.207V597.923H406.499V597.596Z" fill="#FF8C00"/>
<path d="M406.499 597.006H404.207V597.334H406.499V597.006Z" fill="#FF8C00"/>
<path d="M406.3 595.369H404.4L405.186 592.095H405.514L406.3 595.369Z" fill="#FFB71B"/>
<path d="M406.038 602.834C406.038 601.328 405.842 599.495 405.449 599.167C405.449 599.167 405.384 599.102 405.318 599.102C405.253 599.102 405.122 599.167 405.056 599.298C404.729 599.887 404.598 601.459 404.598 602.769C404.598 602.965 404.598 603.162 404.598 603.358C404.598 604.603 404.663 605.912 404.925 607.157C404.991 607.157 404.991 607.222 405.056 607.222C404.729 605.978 404.598 604.668 404.663 603.358C404.663 603.162 404.663 602.965 404.663 602.769C404.729 600.542 404.991 599.233 405.253 599.233C405.515 599.233 405.776 600.542 405.842 602.769C405.842 602.965 405.842 603.162 405.842 603.358C405.907 604.668 405.776 606.043 405.384 607.353C405.449 607.353 405.449 607.353 405.515 607.419C405.842 606.764 405.973 604.799 405.973 603.424C406.038 603.227 406.038 603.031 406.038 602.834Z" fill="#FF8C00"/>
<path d="M412.13 595.762V608.074C411.475 608.14 410.82 608.205 410.165 608.205H409.838V595.762H412.13Z" fill="#F74E4E"/>
<path d="M412.196 597.989H409.904V598.316H412.196V597.989Z" fill="#C32410"/>
<path d="M412.196 597.399H409.904V597.727H412.196V597.399Z" fill="#C32410"/>
<path d="M411.931 595.762H410.098L410.884 592.488H411.211L411.931 595.762Z" fill="#F74E4E"/>
<path d="M411.671 602.835C411.606 601.263 411.409 599.495 411.016 599.495C410.623 599.495 410.361 601.263 410.361 602.835C410.361 603.162 410.361 603.489 410.361 603.751C410.361 605.454 410.558 608.008 411.082 608.008C411.606 608.008 411.802 605.454 411.802 603.751C411.737 603.489 411.737 603.162 411.671 602.835ZM411.016 607.877C410.754 607.877 410.427 606.306 410.427 603.751C410.427 603.424 410.427 603.097 410.427 602.835C410.492 600.804 410.754 599.626 411.016 599.626C411.278 599.626 411.54 600.804 411.606 602.835C411.606 603.162 411.606 603.424 411.606 603.751C411.606 606.306 411.278 607.877 411.016 607.877Z" fill="#C32410"/>
<path d="M415.534 594.583V607.092C414.814 607.419 414.028 607.681 413.242 607.878V594.583H415.534V594.583Z" fill="#102DA3"/>
<path d="M415.601 596.81H413.309V597.138H415.601V596.81Z" fill="#041F63"/>
<path d="M415.601 596.221H413.309V596.548H415.601V596.221Z" fill="#041F63"/>
<path d="M415.338 594.583H413.504L414.224 591.309H414.552L415.338 594.583Z" fill="#102DA3"/>
<path d="M414.815 599.168C414.684 598.644 414.553 598.316 414.422 598.316C414.291 598.316 414.16 598.513 414.029 598.906C413.767 600.15 413.701 601.329 413.701 602.573V602.835C413.701 604.538 413.898 606.83 414.422 606.83C414.945 606.83 415.076 604.472 415.142 602.835V602.573C415.142 601.46 415.011 600.281 414.815 599.168ZM414.422 606.699C414.16 606.699 413.832 605.193 413.832 602.835C413.832 602.77 413.832 602.704 413.832 602.573C413.832 601.329 413.898 600.15 414.16 598.906C414.225 598.578 414.356 598.382 414.422 598.382C414.487 598.382 414.618 598.644 414.749 599.037C414.945 600.15 415.076 601.329 415.011 602.508C415.011 602.573 415.011 602.639 415.011 602.77C414.945 605.258 414.618 606.699 414.422 606.699Z" fill="#041F63"/>
<path d="M419.267 602.834H400.537V620.779H419.267V602.834Z" fill="#71C5FF"/>
<path d="M353.648 520.056C357.591 520.056 360.786 516.86 360.786 512.918C360.786 508.975 357.591 505.779 353.648 505.779C349.706 505.779 346.51 508.975 346.51 512.918C346.51 516.86 349.706 520.056 353.648 520.056Z" fill="#3D3D3D"/>
<path d="M177.283 508.792V522.021H229.544V508.792H177.283ZM218.411 511.15V514.031C218.345 514.752 218.935 515.406 219.655 515.472C220.375 515.537 221.03 514.948 221.096 514.228C221.096 514.162 221.096 514.097 221.096 514.031V511.15C222.798 511.87 223.584 513.9 222.798 515.537C222.078 517.24 220.048 518.026 218.411 517.24C216.708 516.52 215.922 514.49 216.708 512.852C217.035 512.066 217.625 511.477 218.411 511.15ZM185.338 511.15V514.031C185.273 514.752 185.862 515.406 186.583 515.472C187.303 515.537 187.958 514.948 188.023 514.228C188.023 514.162 188.023 514.097 188.023 514.031V511.15C189.726 511.87 190.512 513.9 189.726 515.603C189.006 517.306 186.976 518.092 185.273 517.306C183.57 516.585 182.784 514.555 183.57 512.852C183.963 512.066 184.553 511.477 185.338 511.15Z" fill="#F74E4E"/>
<path d="M229.544 521.497V549.723L223.846 555.42H177.283V521.497H229.544Z" fill="white"/>
<path d="M196.735 530.666L194.443 535.708H196.605L198.111 532.172H198.373V541.864H200.403V530.666H196.735V530.666Z" fill="#585858"/>
<path d="M210.226 536.298C209.898 535.774 209.44 535.381 208.916 535.054C208.327 534.792 207.737 534.661 207.082 534.661C206.493 534.661 205.969 534.726 205.445 534.923C205.118 535.054 204.856 535.25 204.594 535.512H204.332V534.333C204.332 533.744 204.528 533.22 204.921 532.761C205.379 532.369 205.969 532.172 206.558 532.172C207.148 532.107 207.672 532.303 208.13 532.696C208.457 533.023 208.588 533.416 208.588 533.875H210.684C210.684 533.22 210.553 532.565 210.16 531.976C209.833 531.452 209.309 530.993 208.719 530.797C208.065 530.469 207.279 530.338 206.558 530.338C205.772 530.338 205.052 530.469 204.332 530.797C203.677 531.059 203.153 531.517 202.825 532.172C202.432 532.892 202.236 533.678 202.301 534.464V538.263C202.301 538.983 202.432 539.638 202.825 540.227C203.153 540.817 203.677 541.275 204.266 541.537C204.987 541.865 205.707 542.061 206.493 541.996C207.279 541.996 208.065 541.865 208.719 541.537C209.964 540.948 210.75 539.638 210.75 538.263V538.066C210.75 537.477 210.619 536.822 210.226 536.298ZM208.719 538.328C208.719 538.852 208.523 539.376 208.13 539.769C207.213 540.489 205.903 540.489 204.921 539.769C204.528 539.376 204.332 538.918 204.332 538.328V538.197C204.332 537.87 204.397 537.477 204.594 537.149C204.79 536.887 205.052 536.625 205.379 536.494C205.772 536.298 206.165 536.232 206.558 536.232C206.951 536.232 207.344 536.298 207.737 536.494C208.065 536.625 208.327 536.887 208.523 537.149C208.719 537.477 208.785 537.804 208.785 538.197V538.328H208.719Z" fill="#585858"/>
<path d="M188.023 511.15V514.031C188.088 514.752 187.499 515.406 186.779 515.472C186.058 515.537 185.403 514.948 185.338 514.228C185.338 514.162 185.338 514.097 185.338 514.031V511.15C186.189 510.757 187.172 510.757 188.023 511.15Z" fill="#4FBF5E"/>
<path d="M188.023 505.517V514.031C188.088 514.751 187.499 515.406 186.779 515.472C186.058 515.537 185.403 514.948 185.338 514.227C185.338 514.162 185.338 514.096 185.338 514.031V505.517C185.403 504.797 186.058 504.208 186.779 504.273C187.499 504.273 188.023 504.862 188.023 505.517Z" fill="#F1F1F1"/>
<path d="M221.097 505.518V514.031C221.097 514.752 220.508 515.407 219.787 515.407C219.067 515.407 218.412 514.817 218.412 514.097V505.583C218.412 504.863 218.936 504.273 219.656 504.208C219.656 504.208 219.656 504.208 219.722 504.208C220.442 504.208 221.032 504.732 221.097 505.452V505.518Z" fill="#F1F1F1"/>
<path d="M229.545 549.723L223.848 555.42V549.723H229.545Z" fill="#E7E7E7"/>
<path d="M228.627 566.423C234.234 566.423 238.778 561.878 238.778 556.272C238.778 550.666 234.234 546.121 228.627 546.121C223.021 546.121 218.477 550.666 218.477 556.272C218.477 561.878 223.021 566.423 228.627 566.423Z" fill="#4FBF5E"/>
<path d="M224.109 557.713L226.925 560.529L233.147 554.242" stroke="white" stroke-width="1.40215" stroke-linecap="round"/>
<path d="M495.171 522.283H368.121" stroke="white" stroke-width="2.8043" stroke-miterlimit="10"/>
<path d="M442.582 581.485V449" stroke="white" stroke-width="2.8043" stroke-miterlimit="10"/>
<path d="M210.226 459.806H338.454C339.175 459.806 339.764 460.395 339.764 461.115V490.389C339.764 491.11 339.175 491.699 338.454 491.699H210.226C209.505 491.699 208.916 491.11 208.916 490.389V461.115C208.916 460.395 209.505 459.806 210.226 459.806Z" fill="#102DA3"/>
<path d="M323.064 491.699V504.273L310.49 491.699H323.064Z" fill="#102DA3"/>
<path d="M331.382 475.458H219.395V476.112H331.382V475.458Z" fill="white"/>
<path d="M338.65 589.409C338.65 589.474 338.65 589.54 338.585 589.54C338.519 589.605 338.519 589.605 338.454 589.605H329.482C329.351 589.605 329.285 589.54 329.285 589.409C329.416 586.855 331.643 584.825 334.197 584.956C336.62 585.087 338.519 586.986 338.65 589.409Z" fill="#F74E4E"/>
<path d="M337.735 584.432C338.259 584.432 338.652 584.039 338.652 583.515C338.652 582.992 338.259 582.599 337.735 582.599C337.211 582.599 336.818 582.992 336.818 583.515C336.818 584.039 337.211 584.432 337.735 584.432Z" fill="#F74E4E"/>
<path d="M324.965 589.409C324.965 589.54 324.9 589.606 324.769 589.606H317.237C317.107 589.606 317.041 589.54 317.041 589.409C317.041 589.344 317.041 589.344 317.107 589.278L320.905 582.73L320.97 582.664H321.036H321.101L321.167 582.73L324.965 589.278C324.965 589.278 324.965 589.344 324.965 589.409Z" fill="#FFB71B"/>
<path d="M349.128 582.599C349.062 582.599 349.062 582.599 348.997 582.664L344.478 586.004C344.413 586.004 344.413 586.004 344.347 586.07H344.282L339.828 582.73C339.828 582.73 339.763 582.73 339.763 582.664C339.697 582.664 339.632 582.664 339.632 582.73C339.566 582.795 339.566 582.795 339.566 582.861V589.41V589.475C339.566 589.475 339.566 589.541 339.632 589.541L339.697 589.606H339.763H349.128C349.193 589.606 349.259 589.606 349.259 589.541C349.324 589.475 349.324 589.475 349.324 589.41V582.861C349.324 582.795 349.324 582.73 349.259 582.73C349.259 582.599 349.193 582.599 349.128 582.599Z" fill="#4FBF5E"/>
<path d="M329.546 582.599H328.433C328.433 582.599 328.368 582.599 328.368 582.533V582.468V580.896V580.831C328.368 580.831 328.368 580.765 328.302 580.765L328.237 580.7H328.171H326.075C326.01 580.7 325.944 580.7 325.944 580.765C325.879 580.831 325.879 580.831 325.879 580.896V589.344C325.879 589.41 325.879 589.475 325.944 589.475C326.01 589.541 326.01 589.541 326.075 589.541H328.171C328.237 589.541 328.302 589.541 328.302 589.475C328.368 589.41 328.368 589.41 328.368 589.344V585.218C328.368 585.218 328.368 585.218 328.368 585.153H329.481C329.546 585.153 329.612 585.153 329.612 585.088C329.677 585.022 329.677 585.022 329.677 584.957V582.861C329.743 582.795 329.677 582.664 329.612 582.599C329.612 582.599 329.612 582.599 329.546 582.599Z" fill="#71C5FF"/>
<g clip-path="url(#clip1_44_3045)">
<path d="M799.54 167.632C798.689 168.569 798.181 169.723 798.173 170.979C798.157 173.642 800.367 175.888 803.396 176.575C802.922 177.34 802.651 178.199 802.643 179.107C802.623 182.298 805.812 184.9 809.758 184.933C811.76 184.945 813.577 184.287 814.883 183.227C816.16 184.221 817.888 184.839 819.8 184.855C823.754 184.88 826.972 182.319 826.996 179.128C827 178.22 826.738 177.361 826.28 176.587C829.317 175.937 831.561 173.72 831.577 171.064C831.585 170.168 831.332 169.326 830.885 168.565C832.805 167.546 834.082 165.791 834.095 163.786C834.111 161.573 832.576 159.642 830.316 158.656C831.168 157.711 831.68 156.553 831.688 155.297C831.704 152.642 829.494 150.392 826.464 149.697C826.935 148.936 827.209 148.077 827.213 147.169C827.234 143.978 824.053 141.372 820.099 141.347C818.093 141.331 816.283 141.985 814.973 143.049C813.696 142.055 811.969 141.437 810.057 141.425C806.102 141.396 802.885 143.961 802.864 147.148C802.856 148.056 803.118 148.92 803.581 149.685C800.551 150.339 798.304 152.552 798.283 155.216C798.275 156.112 798.533 156.954 798.979 157.711C797.055 158.73 795.782 160.489 795.77 162.49C795.741 164.711 797.276 166.646 799.54 167.632Z" fill="#FF8D6B"/>
<path d="M820.227 179.047L819.81 178.634C820.489 177.942 820.858 177.034 820.845 176.073C820.833 175.111 820.444 174.215 819.744 173.544C818.934 172.763 818.479 171.716 818.467 170.599C818.455 169.482 818.881 168.426 819.671 167.625L820.088 168.038C819.409 168.725 819.04 169.629 819.052 170.591C819.065 171.552 819.454 172.448 820.15 173.119C820.96 173.9 821.414 174.943 821.431 176.064C821.447 177.185 821.017 178.245 820.227 179.047Z" fill="white"/>
<path d="M824.149 162.694L823.732 162.281C824.411 161.594 824.78 160.685 824.767 159.728C824.755 158.767 824.366 157.871 823.666 157.2C822.856 156.418 822.401 155.375 822.389 154.254C822.377 153.133 822.802 152.078 823.597 151.276L824.014 151.689C823.335 152.376 822.966 153.285 822.978 154.246C822.991 155.207 823.38 156.103 824.076 156.774C824.886 157.556 825.34 158.603 825.357 159.72C825.369 160.837 824.939 161.892 824.149 162.694Z" fill="white"/>
<path d="M825.526 173.773L825.108 173.36C825.788 172.672 826.156 171.764 826.144 170.807C826.132 169.845 825.739 168.949 825.043 168.278L825.452 167.853C826.263 168.634 826.717 169.682 826.734 170.799C826.746 171.915 826.316 172.975 825.526 173.773Z" fill="white"/>
<path d="M819.638 152.585C819.167 151.579 819.122 150.45 819.507 149.407C819.9 148.347 820.686 147.504 821.726 147.034L821.967 147.57C821.075 147.975 820.395 148.699 820.059 149.611C819.728 150.507 819.769 151.472 820.17 152.336L819.638 152.585Z" fill="white"/>
<path d="M817.77 163.611C817.299 162.601 817.258 161.467 817.643 160.424C818.036 159.369 818.822 158.53 819.858 158.06L820.099 158.595C819.207 159.001 818.532 159.721 818.192 160.629C817.86 161.525 817.897 162.494 818.298 163.366L817.77 163.611Z" fill="white"/>
<path d="M827.329 166.077L827.088 165.542C827.98 165.141 828.656 164.416 828.991 163.508C829.323 162.612 829.286 161.639 828.881 160.775L829.413 160.526C829.884 161.536 829.929 162.67 829.54 163.713C829.147 164.768 828.361 165.607 827.329 166.077Z" fill="white"/>
<path d="M809.838 179.21C809.06 178.4 808.647 177.337 808.675 176.22C808.704 175.103 809.175 174.06 809.993 173.29C810.702 172.628 811.103 171.736 811.127 170.774C811.152 169.817 810.796 168.905 810.128 168.209L810.554 167.8C811.336 168.61 811.75 169.67 811.721 170.787C811.692 171.904 811.226 172.947 810.403 173.716C809.699 174.379 809.293 175.271 809.269 176.232C809.244 177.193 809.596 178.106 810.268 178.801L809.838 179.21Z" fill="white"/>
<path d="M806.141 162.809C805.359 161.994 804.946 160.931 804.978 159.814C805.007 158.697 805.478 157.658 806.297 156.885C807.001 156.226 807.406 155.334 807.43 154.373C807.455 153.411 807.099 152.499 806.428 151.804L806.853 151.395C807.635 152.205 808.049 153.268 808.02 154.385C807.991 155.502 807.521 156.541 806.702 157.31C805.998 157.973 805.592 158.865 805.568 159.826C805.543 160.784 805.899 161.7 806.567 162.399L806.141 162.809Z" fill="white"/>
<path d="M810.783 152.765L810.251 152.512C810.665 151.652 810.718 150.683 810.399 149.783C810.075 148.871 809.408 148.134 808.52 147.717L808.769 147.185C809.797 147.672 810.575 148.523 810.951 149.587C811.328 150.63 811.27 151.759 810.783 152.765Z" fill="white"/>
<path d="M812.502 163.811L811.97 163.557C812.387 162.694 812.436 161.72 812.117 160.82C811.794 159.908 811.126 159.18 810.242 158.767L810.492 158.235C811.519 158.714 812.293 159.564 812.674 160.624C813.046 161.671 812.985 162.805 812.502 163.811Z" fill="white"/>
<path d="M814.656 157.229L814.742 144.362L815.332 144.366L815.242 157.233L814.656 157.229Z" fill="white"/>
<path d="M814.591 171.985L814.521 181.91L815.111 181.914L815.18 171.989L814.591 171.985Z" fill="white"/>
<path d="M806.494 166.315C807.877 166.315 808.999 165.194 808.999 163.811C808.999 162.428 807.877 161.307 806.494 161.307C805.11 161.307 803.988 162.428 803.988 163.811C803.988 165.194 805.11 166.315 806.494 166.315Z" fill="#F74E4E"/>
<path d="M793.255 150.797C794.639 150.797 795.761 149.677 795.761 148.294C795.761 146.911 794.639 145.79 793.255 145.79C791.872 145.79 790.75 146.911 790.75 148.294C790.75 149.677 791.872 150.797 793.255 150.797Z" fill="#FFB71B"/>
<path d="M826.73 140.406C828.114 140.406 829.235 139.285 829.235 137.903C829.235 136.52 828.114 135.399 826.73 135.399C825.346 135.399 824.225 136.52 824.225 137.903C824.225 139.285 825.346 140.406 826.73 140.406Z" fill="#4E8EF7"/>
<path d="M804.453 137.902C805.836 137.902 806.958 136.782 806.958 135.399C806.958 134.016 805.836 132.895 804.453 132.895C803.069 132.895 801.947 134.016 801.947 135.399C801.947 136.782 803.069 137.902 804.453 137.902Z" fill="#4FBF5E"/>
<path d="M835.302 151.276C836.686 151.276 837.808 150.155 837.808 148.772C837.808 147.39 836.686 146.269 835.302 146.269C833.919 146.269 832.797 147.39 832.797 148.772C832.797 150.155 833.919 151.276 835.302 151.276Z" fill="#7F5EDD"/>
<path d="M801.02 177.961L802.232 174.803L803.444 171.645L800.177 172.524L796.906 173.4L798.45 175.11L794.09 179.041L795.117 180.183L799.477 176.251L801.02 177.961Z" fill="#585858"/>
<path d="M800.878 177.164L802.09 174.005L803.301 170.847L800.031 171.727L796.764 172.602L798.307 174.312L793.943 178.244L794.975 179.385L799.335 175.454L800.878 177.164Z" fill="white" stroke="#585858" stroke-width="0.505941" stroke-miterlimit="10"/>
</g>
<g clip-path="url(#clip2_44_3045)">
<path d="M838.13 219.771H796.273V267.112H838.13V219.771Z" fill="white"/>
<path d="M832.819 272.913H796.272C793.042 272.913 790.432 270.3 790.432 267.112C790.432 263.879 793.042 261.266 796.272 261.266H832.819V272.913Z" fill="#102DA3"/>
<path d="M832.286 272.958C835.511 272.958 838.126 270.34 838.126 267.112C838.126 263.883 835.511 261.266 832.286 261.266C829.06 261.266 826.445 263.883 826.445 267.112C826.445 270.34 829.06 272.958 832.286 272.958Z" fill="white"/>
<path d="M838.126 267.112H826.445C826.445 263.879 829.056 261.266 832.286 261.266C835.516 261.266 838.126 263.879 838.126 267.112Z" fill="#E9E9E9"/>
<path d="M829.946 233.364C828.265 233.364 826.938 231.991 826.938 230.352C826.938 228.714 828.309 227.341 829.946 227.341C830.787 227.341 831.539 227.651 832.114 228.271L831.893 228.492C831.362 227.961 830.698 227.651 829.946 227.651C828.442 227.651 827.203 228.891 827.203 230.397C827.203 231.902 828.442 233.142 829.946 233.142C831.451 233.142 832.689 231.902 832.689 230.397C832.689 230.219 832.689 230.042 832.645 229.865L832.911 229.821C832.955 229.998 832.955 230.219 832.955 230.441C832.999 231.991 831.628 233.364 829.946 233.364Z" fill="#56C766"/>
<path d="M829.99 231.326C829.902 231.326 829.813 231.282 829.769 231.194L828.441 229.909L828.663 229.688L830.034 231.016L834.238 227.031L834.415 227.252L830.211 231.238C830.123 231.282 830.079 231.326 829.99 231.326Z" fill="#56C766"/>
<path d="M815.699 237.793H801.01V238.236H815.699V237.793Z" fill="#A9A9A9"/>
<path d="M815.699 239.741H801.01V240.184H815.699V239.741Z" fill="#A9A9A9"/>
<path d="M815.699 241.734H801.01V242.177H815.699V241.734Z" fill="#A9A9A9"/>
<path d="M815.699 243.684H801.01V244.126H815.699V243.684Z" fill="#A9A9A9"/>
<path d="M815.699 245.631H801.01V246.074H815.699V245.631Z" fill="#A9A9A9"/>
<path d="M815.699 247.58H801.01V248.023H815.699V247.58Z" fill="#A9A9A9"/>
<path d="M815.699 249.574H801.01V250.017H815.699V249.574Z" fill="#A9A9A9"/>
<path d="M815.699 251.521H801.01V251.964H815.699V251.521Z" fill="#A9A9A9"/>
<path d="M815.699 253.471H801.01V253.914H815.699V253.471Z" fill="#A9A9A9"/>
<path d="M815.699 255.418H801.01V255.861H815.699V255.418Z" fill="#A9A9A9"/>
<path d="M833.299 237.793H818.609V238.236H833.299V237.793Z" fill="#A9A9A9"/>
<path d="M833.299 239.741H818.609V240.184H833.299V239.741Z" fill="#A9A9A9"/>
<path d="M833.299 241.734H818.609V242.177H833.299V241.734Z" fill="#A9A9A9"/>
<path d="M833.299 243.684H818.609V244.126H833.299V243.684Z" fill="#A9A9A9"/>
<path d="M833.299 245.631H818.609V246.074H833.299V245.631Z" fill="#A9A9A9"/>
<path d="M833.299 247.58H818.609V248.023H833.299V247.58Z" fill="#A9A9A9"/>
<path d="M833.299 249.574H818.609V250.017H833.299V249.574Z" fill="#A9A9A9"/>
<path d="M833.299 251.521H818.609V251.964H833.299V251.521Z" fill="#A9A9A9"/>
<path d="M833.299 253.47H818.609V253.913H833.299V253.47Z" fill="#A9A9A9"/>
<path d="M833.299 255.418H818.609V255.861H833.299V255.418Z" fill="#A9A9A9"/>
<path d="M807.6 231.105C807.6 231.15 807.556 231.15 807.6 231.105C807.556 231.15 807.556 231.15 807.556 231.15H804.857H804.812V231.105C804.812 230.353 805.476 229.777 806.228 229.777C806.936 229.777 807.6 230.353 807.6 231.105Z" fill="#FA5453"/>
<path d="M807.291 229.644C807.424 229.644 807.556 229.511 807.556 229.379C807.556 229.246 807.424 229.113 807.291 229.113C807.158 229.113 807.025 229.246 807.025 229.379C807.025 229.511 807.158 229.644 807.291 229.644Z" fill="#FA5453"/>
<path d="M803.488 231.106C803.488 231.15 803.488 231.15 803.488 231.106C803.443 231.15 803.443 231.15 803.443 231.15H801.187H801.143V231.106V231.061L802.293 229.068C802.293 229.068 802.293 229.068 802.337 229.068C802.337 229.068 802.337 229.068 802.381 229.068C802.381 229.068 802.381 229.068 802.426 229.068C802.426 229.068 802.426 229.068 802.47 229.068L803.488 231.106Z" fill="#FFBE00"/>
<path d="M810.743 229.068C810.699 229.068 810.699 229.068 810.743 229.068L809.372 230.087C809.372 230.087 809.372 230.087 809.327 230.087C809.327 230.087 809.327 230.087 809.283 230.087L807.956 229.068C807.956 229.068 807.956 229.068 807.911 229.068H807.867V229.113V231.061C807.867 231.061 807.867 231.061 807.867 231.106C807.867 231.106 807.867 231.106 807.911 231.106H810.743H810.787V231.061V229.068C810.787 229.113 810.787 229.113 810.743 229.068Z" fill="#56C766"/>
<path d="M804.858 229.069H804.548V228.626C804.548 228.626 804.548 228.626 804.548 228.582C804.548 228.582 804.548 228.582 804.504 228.582H803.884H803.84V228.626V231.15V231.194H803.884H804.504H804.548V231.15V229.91H804.858H804.902V229.866V229.246C804.902 229.113 804.902 229.113 804.858 229.069C804.858 229.069 804.902 229.069 804.858 229.069Z" fill="#7ACCFF"/>
</g>
<g clip-path="url(#clip3_44_3045)">
<path d="M833.952 317.334L791.99 328.883L799.656 356.571L841.618 345.022L833.952 317.334Z" fill="#F9F9F9"/>
<path d="M822.299 339.99C826.05 339.99 829.091 336.958 829.091 333.218C829.091 329.478 826.05 326.447 822.299 326.447C818.548 326.447 815.508 329.478 815.508 333.218C815.508 336.958 818.548 339.99 822.299 339.99Z" fill="#FFB71B"/>
<path d="M835.289 365.758H787.794C787.293 365.758 786.883 365.349 786.883 364.849V334.128C786.883 333.628 787.293 333.219 787.794 333.219H835.289C835.79 333.219 836.2 333.628 836.2 334.128V364.849C836.2 365.349 835.79 365.758 835.289 365.758Z" fill="#71C5FF"/>
<path d="M836.198 353.215H822.661C820.61 353.215 818.969 351.579 818.969 349.534C818.969 347.489 820.61 345.853 822.661 345.853H836.198V353.215Z" fill="#1D6FF5"/>
<path d="M823.028 351.988C824.413 351.988 825.535 350.869 825.535 349.488C825.535 348.108 824.413 346.989 823.028 346.989C821.644 346.989 820.521 348.108 820.521 349.488C820.521 350.869 821.644 351.988 823.028 351.988Z" fill="white"/>
<path d="M804.25 330.128C808.001 330.128 811.042 327.096 811.042 323.356C811.042 319.617 808.001 316.585 804.25 316.585C800.5 316.585 797.459 319.617 797.459 323.356C797.459 327.096 800.5 330.128 804.25 330.128Z" fill="#FFB71B"/>
<path d="M821.479 322.175C824.047 322.175 826.128 320.1 826.128 317.54C826.128 314.98 824.047 312.904 821.479 312.904C818.912 312.904 816.83 314.98 816.83 317.54C816.83 320.1 818.912 322.175 821.479 322.175Z" fill="#FFB71B"/>
</g>
<path d="M821.651 410.524C821.221 410.276 821.221 409.656 821.651 409.407L831.151 403.925L840.704 398.393C841.134 398.145 841.671 398.455 841.671 398.951V409.966V420.98C841.671 421.477 841.134 421.787 840.704 421.538L831.151 416.006L821.651 410.524Z" fill="#F74E4E"/>
<path d="M826.495 395.438H787.527C787.171 395.438 786.883 395.726 786.883 396.082V423.901C786.883 424.257 787.171 424.546 787.527 424.546H826.495C826.851 424.546 827.14 424.257 827.14 423.901V396.082C827.14 395.726 826.851 395.438 826.495 395.438Z" fill="#F74E4E"/>
<path d="M812.558 410.704L807.038 413.881L801.518 417.057V410.704V404.352L807.038 407.528L812.558 410.704Z" fill="white" stroke="white" stroke-width="0.644555" stroke-miterlimit="10"/>
<path d="M798.49 464.954L791.48 471.963L829.771 510.254L836.78 503.245L798.49 464.954Z" fill="#102DA3"/>
<path d="M796.729 466.713L793.238 470.204L831.529 508.494L835.019 505.004L796.729 466.713Z" fill="#71C5FF"/>
<path d="M838.1 508.086L836.777 503.244L831.935 501.921L828.445 505.412L829.768 510.253L834.61 511.577L838.1 508.086Z" fill="#F3EDE1"/>
<path d="M834.418 508.092C834.957 507.553 834.959 506.647 834.421 506.109C833.884 505.572 833.006 505.545 832.438 506.113C831.899 506.652 831.898 507.558 832.435 508.096C832.972 508.633 833.851 508.66 834.418 508.092Z" fill="#F74E4E"/>
<path d="M798.486 464.955L789.396 463.016L791.477 471.964L798.486 464.955Z" fill="#F3EDE1"/>
<path d="M789.819 464.969L791.351 463.437L789.34 462.958L789.819 464.969Z" fill="#F74E4E"/>
<path d="M834.973 473.771L829.656 468.454L790.841 507.269L796.158 512.585L834.973 473.771Z" fill="#4FBF5E"/>
<path d="M800.766 507.979L795.449 502.662L794.672 503.44L799.988 508.756L800.766 507.979Z" fill="#006853"/>
<path d="M802.119 506.621L796.803 501.304L796.025 502.082L801.342 507.398L802.119 506.621Z" fill="#006853"/>
<path d="M829.74 478.998L824.424 473.682L823.646 474.459L828.963 479.776L829.74 478.998Z" fill="#006853"/>
<path d="M831.098 477.642L825.781 472.326L825.004 473.103L830.32 478.42L831.098 477.642Z" fill="#006853"/>
<path d="M834.492 473.288L830.123 468.919L839.595 463.044L840.363 463.812L834.492 473.288Z" fill="#4FBF5E"/>
<path d="M803.617 499.783C802.422 498.588 807.942 492.202 811.942 488.202C815.941 484.203 822.327 478.682 823.523 479.878C824.718 481.073 819.197 487.459 815.198 491.458C811.198 495.458 804.813 500.979 803.617 499.783ZM823.241 480.159C822.677 479.596 818.216 482.492 812.224 488.484C806.232 494.476 803.335 498.937 803.899 499.501C804.463 500.065 808.924 497.168 814.916 491.176C820.913 485.189 823.804 480.723 823.241 480.159Z" fill="#006853"/>
<path d="M822.982 558.231L830.629 571.605L812.326 579.393L811.581 579.71L806.338 570.536L806.987 570.056L822.982 558.231Z" fill="#FFB71B"/>
<path d="M791.062 582.911L786.605 585.459L788.709 589.138L793.166 586.59L791.062 582.911Z" fill="#FFA230"/>
<path d="M806.984 570.056L812.323 579.392L811.579 579.71L811.159 578.976L808.646 580.045L804.557 572.893L806.751 571.27L806.335 570.536L806.984 570.056Z" fill="#FFA230"/>
<path d="M806.753 571.27L811.16 578.977L808.648 580.046L797.183 584.922L793.189 586.623L791.047 582.879L794.54 580.296L804.558 572.893L806.753 571.27Z" fill="#FFB71B"/>
<path d="M829.349 571.168C833.604 571.168 837.052 567.719 837.052 563.465C837.052 559.21 833.604 555.762 829.349 555.762C825.095 555.762 821.646 559.21 821.646 563.465C821.646 567.719 825.095 571.168 829.349 571.168Z" fill="white"/>
<path d="M830.961 567.163C832.774 567.163 834.243 565.694 834.243 563.882C834.243 562.069 832.774 560.6 830.961 560.6C829.149 560.6 827.68 562.069 827.68 563.882C827.68 565.694 829.149 567.163 830.961 567.163Z" fill="#636363"/>
<path d="M833.528 570.772C829.498 573.076 824.346 571.672 822.042 567.642C819.738 563.612 821.142 558.461 825.172 556.156C829.202 553.852 834.354 555.257 836.658 559.286C838.962 563.316 837.558 568.468 833.528 570.772ZM825.881 557.395C822.536 559.308 821.368 563.588 823.281 566.933C825.193 570.278 829.474 571.446 832.819 569.534C836.164 567.621 837.332 563.341 835.419 559.996C833.507 556.647 829.227 555.483 825.881 557.395Z" fill="#F74E4E"/>
<path d="M821.27 549.745L820.525 550.17L823.047 554.581L823.792 554.156L821.27 549.745Z" fill="#636363"/>
<path d="M832 548.173L830.664 553.075L831.491 553.301L832.827 548.398L832 548.173Z" fill="#636363"/>
<path d="M841.522 554.874L837.111 557.396L837.537 558.14L841.948 555.618L841.522 554.874Z" fill="#636363"/>
</g>
<defs>
<clipPath id="clip0_44_3045">
<rect width="1304" height="720" fill="white"/>
</clipPath>
<clipPath id="clip1_44_3045">
<rect width="47.0525" height="52.0382" fill="white" transform="translate(790.75 132.895)"/>
</clipPath>
<clipPath id="clip2_44_3045">
<rect width="47.6971" height="53.1428" fill="white" transform="translate(790.428 219.769)"/>
</clipPath>
<clipPath id="clip3_44_3045">
<rect width="54.7872" height="52.8535" fill="white" transform="translate(786.883 307.748)"/>
</clipPath>
</defs>
</svg>
