<svg width="424" height="233" viewBox="0 0 424 233" fill="none" xmlns="http://www.w3.org/2000/svg">
<rect width="423.164" height="233" fill="#1D6FF5"/>
<rect x="276.273" y="109.742" width="14.5545" height="14.5545" transform="rotate(-90 276.273 109.742)" fill="#102DA3"/>
<rect x="261.719" y="109.742" width="14.5545" height="14.5545" transform="rotate(-90 261.719 109.742)" fill="white"/>
<rect x="242.938" y="129.617" width="14.5545" height="14.5545" fill="#F74E4E"/>
<rect x="242.938" y="115.062" width="14.5545" height="14.5545" fill="white"/>
<circle cx="255.905" cy="116.747" r="0.298095" transform="rotate(-180 255.905 116.747)" fill="black"/>
<rect x="210.543" y="80.4761" width="14.5545" height="14.5545" transform="rotate(90 210.543 80.4761)" fill="#7F5EDD"/>
<rect x="225.098" y="80.4761" width="14.5545" height="14.5545" transform="rotate(90 225.098 80.4761)" fill="white"/>
<rect x="173.982" y="124.848" width="14.5545" height="14.5545" transform="rotate(90 173.982 124.848)" fill="#FFA230"/>
<rect x="188.537" y="124.848" width="14.5545" height="14.5545" transform="rotate(90 188.537 124.848)" fill="white"/>
<circle cx="186.749" cy="137.316" r="0.298095" transform="rotate(-180 186.749 137.316)" fill="black"/>
<circle cx="186.749" cy="135.528" r="0.298095" transform="rotate(-180 186.749 135.528)" fill="black"/>
<rect x="308.345" y="109.417" width="13.9055" height="13.9055" transform="rotate(-180 308.345 109.417)" fill="#1D6FF5" stroke="white" stroke-width="0.649025"/>
<rect x="308.67" y="124.296" width="14.5545" height="14.5545" transform="rotate(-180 308.67 124.296)" fill="white"/>
<circle cx="306.882" cy="122.41" r="0.298095" transform="rotate(-180 306.882 122.41)" fill="black"/>
<circle cx="263.356" cy="142.681" r="0.298095" transform="rotate(-180 263.356 142.681)" fill="black"/>
<rect x="276.271" y="144.172" width="14.5545" height="14.5545" transform="rotate(-90 276.271 144.172)" fill="#71C5FF"/>
<rect x="261.719" y="144.172" width="14.5545" height="14.5545" transform="rotate(-90 261.719 144.172)" fill="white"/>
<circle cx="263.356" cy="142.681" r="0.298095" transform="rotate(-180 263.356 142.681)" fill="black"/>
<circle cx="295.805" cy="142.681" r="0.298095" transform="rotate(-180 295.805 142.681)" fill="black"/>
<rect x="308.721" y="144.172" width="14.5545" height="14.5545" transform="rotate(-90 308.721 144.172)" fill="#F2F6FD"/>
<rect x="294.168" y="144.172" width="14.5545" height="14.5545" transform="rotate(-90 294.168 144.172)" fill="white"/>
<circle cx="295.805" cy="142.681" r="0.298095" transform="rotate(-180 295.805 142.681)" fill="black"/>
<rect x="225.1" y="129.617" width="14.5545" height="14.5545" fill="#4FBF5E"/>
<rect x="225.1" y="115.062" width="14.5545" height="14.5545" fill="white"/>
<circle cx="237.427" cy="116.747" r="0.298095" transform="rotate(-180 237.427 116.747)" fill="black"/>
<rect x="242.938" y="80.5547" width="14.5545" height="14.5545" fill="#FFB71B"/>
<rect x="242.938" y="66" width="14.5545" height="14.5545" fill="white"/>
<circle cx="255.905" cy="67.5613" r="0.298095" transform="rotate(-180 255.905 67.5613)" fill="black"/>
<rect x="203.195" y="151.975" width="14.5545" height="14.5545" transform="rotate(90 203.195 151.975)" fill="#FF8D6B"/>
<circle cx="215.962" cy="165.039" r="0.298095" transform="rotate(-180 215.962 165.039)" fill="black"/>
<circle cx="215.962" cy="163.25" r="0.298095" transform="rotate(-180 215.962 163.25)" fill="black"/>
<rect x="217.75" y="151.975" width="14.5545" height="14.5545" transform="rotate(90 217.75 151.975)" fill="white"/>
<circle cx="216.259" cy="164.74" r="0.298095" transform="rotate(-180 216.259 164.74)" fill="black"/>
<circle cx="216.259" cy="162.952" r="0.298095" transform="rotate(-180 216.259 162.952)" fill="black"/>
<rect x="144.771" y="80.7295" width="14.5545" height="14.5545" transform="rotate(90 144.771 80.7295)" fill="#006853"/>
<rect x="159.326" y="80.7295" width="14.5545" height="14.5545" transform="rotate(90 159.326 80.7295)" fill="white"/>
<circle cx="157.241" cy="93.197" r="0.298095" transform="rotate(-180 157.241 93.197)" fill="black"/>
<circle cx="157.241" cy="91.4084" r="0.298095" transform="rotate(-180 157.241 91.4084)" fill="black"/>
<circle cx="263.954" cy="107.506" r="0.298095" transform="rotate(-180 263.954 107.506)" fill="black"/>
<circle cx="263.954" cy="105.718" r="0.298095" transform="rotate(-180 263.954 105.718)" fill="black"/>
<circle cx="223.116" cy="92.8997" r="0.298095" transform="rotate(-180 223.116 92.8997)" fill="black"/>
<rect x="115.555" y="110.241" width="14.5545" height="14.5545" transform="rotate(90 115.555 110.241)" fill="#3206AE"/>
<rect x="130.109" y="110.241" width="14.5545" height="14.5545" transform="rotate(90 130.109 110.241)" fill="white"/>
<circle cx="127.427" cy="122.41" r="0.298095" transform="rotate(-180 127.427 122.41)" fill="black"/>
<circle cx="127.427" cy="120.622" r="0.298095" transform="rotate(-180 127.427 120.622)" fill="black"/>
</svg>
