<svg width="1304" height="1020" viewBox="0 0 1304 1020" fill="none" xmlns="http://www.w3.org/2000/svg">
<rect width="1304" height="1020" fill="white"/>
<g clip-path="url(#clip0_22_1249)">
<path d="M452.984 399.111C451.072 399.179 449.181 398.693 447.537 397.712C445.933 396.679 444.01 394.566 444.01 390.299C444.01 389.674 444.258 389.074 444.699 388.632C445.14 388.19 445.739 387.942 446.363 387.942C446.987 387.942 447.585 388.19 448.027 388.632C448.468 389.074 448.716 389.674 448.716 390.299C448.716 392.867 449.739 393.529 450.076 393.744C452.096 395.043 456.886 394.351 461.988 392.024C473.257 386.871 483.145 371.84 483.145 359.852C483.133 353.385 481.423 347.034 478.188 341.437C474.953 335.84 470.305 331.194 464.712 327.963C464.171 327.651 463.776 327.136 463.614 326.532C463.452 325.928 463.537 325.284 463.849 324.742C464.161 324.2 464.675 323.805 465.278 323.643C465.881 323.481 466.524 323.565 467.065 323.878C473.374 327.523 478.615 332.765 482.264 339.079C485.912 345.393 487.839 352.557 487.851 359.852C487.851 373.695 476.907 390.392 463.929 396.312C461.702 397.315 457.194 399.111 452.984 399.111Z" fill="#CCCCCC"/>
<path d="M449.515 389.966H442.911C442.414 389.966 441.93 389.808 441.528 389.516C441.125 389.224 440.826 388.811 440.671 388.338L436.748 376.275C436.544 375.684 436.583 375.036 436.856 374.474C437.13 373.912 437.614 373.481 438.205 373.277C438.795 373.073 439.441 373.112 440.003 373.386C440.564 373.659 440.994 374.145 441.197 374.736L441.223 374.816L444.616 385.256H447.789L451.182 374.816C451.382 374.23 451.804 373.746 452.357 373.469C452.91 373.192 453.55 373.144 454.138 373.336C454.726 373.527 455.215 373.943 455.499 374.493C455.784 375.043 455.84 375.684 455.657 376.275L451.721 388.338C451.569 388.806 451.274 389.214 450.878 389.506C450.483 389.798 450.006 389.959 449.515 389.966V389.966Z" fill="#0047AD"/>
<path d="M456.083 340.891C455.459 340.89 454.861 340.641 454.42 340.199C453.979 339.758 453.731 339.159 453.729 338.534V322.056C453.729 321.431 453.977 320.832 454.419 320.39C454.86 319.948 455.458 319.699 456.083 319.699C456.707 319.699 457.305 319.948 457.746 320.39C458.188 320.832 458.436 321.431 458.436 322.056V338.534C458.436 339.159 458.188 339.759 457.746 340.201C457.305 340.643 456.707 340.891 456.083 340.891V340.891Z" fill="#FFCD38"/>
<path d="M451.485 377.903H441.264C436.792 377.903 432.503 376.123 429.34 372.955C426.178 369.788 424.401 365.492 424.401 361.012V350.209C424.401 349.584 424.649 348.985 425.091 348.543C425.532 348.101 426.13 347.852 426.754 347.852C427.379 347.852 427.977 348.101 428.418 348.543C428.86 348.985 429.108 349.584 429.108 350.209V361.012C429.108 364.241 430.388 367.339 432.668 369.622C434.948 371.906 438.04 373.189 441.264 373.189H451.485C454.704 373.181 457.789 371.895 460.064 369.612C462.338 367.329 463.615 364.237 463.617 361.012V350.209C463.617 349.584 463.865 348.985 464.306 348.543C464.747 348.101 465.346 347.852 465.97 347.852C466.594 347.852 467.192 348.101 467.634 348.543C468.075 348.985 468.323 349.584 468.323 350.209V361.012C468.322 365.487 466.548 369.779 463.391 372.945C460.235 376.112 455.953 377.895 451.485 377.903V377.903Z" fill="#2F80F6"/>
<path d="M436.474 340.891C435.85 340.891 435.252 340.643 434.81 340.201C434.369 339.759 434.121 339.159 434.121 338.534V322.056C434.121 321.431 434.369 320.832 434.81 320.39C435.252 319.948 435.85 319.699 436.474 319.699C437.098 319.699 437.697 319.948 438.138 320.39C438.579 320.832 438.827 321.431 438.827 322.056V338.534C438.827 339.159 438.579 339.759 438.138 340.201C437.697 340.643 437.098 340.891 436.474 340.891V340.891Z" fill="#FFCD38"/>
<path d="M467.507 352.566H424.932C423.32 352.564 421.775 351.922 420.635 350.781C419.495 349.64 418.853 348.092 418.85 346.478V343.927C418.851 342.311 419.492 340.762 420.632 339.62C421.773 338.478 423.319 337.835 424.932 337.834H467.511C468.311 337.832 469.103 337.989 469.843 338.294C470.583 338.6 471.255 339.048 471.822 339.614C472.388 340.18 472.838 340.852 473.145 341.592C473.452 342.332 473.61 343.125 473.61 343.927V346.478C473.609 347.279 473.449 348.072 473.142 348.812C472.834 349.551 472.384 350.223 471.817 350.788C471.251 351.354 470.578 351.802 469.839 352.107C469.099 352.412 468.307 352.568 467.507 352.566V352.566ZM424.932 342.548C424.568 342.549 424.218 342.695 423.96 342.953C423.702 343.211 423.557 343.562 423.556 343.927V346.478C423.558 346.843 423.704 347.192 423.961 347.45C424.219 347.708 424.568 347.854 424.932 347.857H467.511C467.876 347.855 468.225 347.71 468.483 347.451C468.741 347.193 468.886 346.843 468.887 346.478V343.927C468.887 343.561 468.742 343.21 468.484 342.952C468.226 342.693 467.876 342.548 467.511 342.548H424.932Z" fill="#00C98A"/>
<path d="M446.22 366.286C445.278 366.286 444.356 366.007 443.573 365.482C442.789 364.958 442.178 364.212 441.818 363.34C441.457 362.468 441.363 361.508 441.547 360.582C441.731 359.656 442.184 358.806 442.851 358.138C443.517 357.471 444.366 357.016 445.291 356.832C446.215 356.648 447.173 356.743 448.044 357.104C448.914 357.465 449.659 358.077 450.182 358.862C450.706 359.647 450.985 360.569 450.985 361.513C450.985 362.779 450.483 363.993 449.59 364.888C448.696 365.784 447.484 366.286 446.22 366.286V366.286ZM446.22 361.454C446.205 361.454 446.19 361.461 446.179 361.472C446.167 361.483 446.161 361.498 446.161 361.513C446.161 361.577 446.279 361.577 446.279 361.513C446.279 361.498 446.273 361.483 446.262 361.472C446.251 361.461 446.236 361.454 446.22 361.454Z" fill="#CCCCCC"/>
<path d="M436.475 400.233C436.22 400.232 435.967 400.191 435.725 400.111C418.618 394.364 411.176 383.709 407.943 375.778C404.626 367.64 404.963 360.742 405.034 359.755C405.067 352.545 406.967 345.467 410.549 339.213C414.132 332.959 419.273 327.743 425.471 324.076C426 323.743 426.64 323.634 427.249 323.773C427.859 323.912 428.388 324.288 428.721 324.818C429.054 325.348 429.162 325.989 429.023 326.599C428.884 327.21 428.509 327.74 427.98 328.073L427.862 328.14C422.36 331.399 417.798 336.035 414.624 341.593C411.451 347.152 409.775 353.441 409.761 359.844V360.05C409.622 364.899 410.525 369.72 412.409 374.188C416.593 384.307 424.958 391.505 437.245 395.637C437.774 395.815 438.224 396.176 438.512 396.655C438.8 397.134 438.909 397.7 438.819 398.252C438.729 398.804 438.446 399.306 438.02 399.668C437.595 400.03 437.054 400.229 436.496 400.229L436.475 400.233Z" fill="#CCCCCC"/>
<path d="M602.975 396.379H587.593C586.531 396.378 585.512 395.955 584.761 395.202C584.01 394.45 583.587 393.429 583.586 392.365V389.329C583.587 388.265 584.01 387.245 584.761 386.492C585.512 385.74 586.531 385.316 587.593 385.315H602.975C604.038 385.316 605.057 385.74 605.809 386.492C606.561 387.244 606.984 388.265 606.986 389.329V392.365C606.984 393.43 606.561 394.45 605.809 395.203C605.057 395.955 604.038 396.378 602.975 396.379V396.379ZM588.292 391.665H602.28V390.055H588.292V391.665Z" fill="#0047AD"/>
<path d="M607.121 389.683H544.262C541.846 389.682 539.53 388.721 537.822 387.01C536.114 385.299 535.153 382.979 535.152 380.559V368.175C535.153 365.756 536.114 363.436 537.822 361.725C539.53 360.014 541.846 359.052 544.262 359.051H607.121C609.537 359.052 611.853 360.014 613.561 361.725C615.269 363.436 616.229 365.756 616.231 368.175V380.559C616.229 382.979 615.269 385.299 613.561 387.01C611.853 388.721 609.537 389.682 607.121 389.683V389.683ZM544.262 363.761C543.095 363.763 541.976 364.229 541.151 365.055C540.325 365.882 539.861 367.002 539.859 368.171V380.555C539.86 381.725 540.324 382.846 541.149 383.674C541.974 384.501 543.094 384.967 544.262 384.969H607.121C608.289 384.967 609.408 384.501 610.234 383.674C611.059 382.846 611.523 381.725 611.524 380.555V368.171C611.522 367.002 611.058 365.882 610.232 365.055C609.407 364.229 608.288 363.763 607.121 363.761H544.262Z" fill="#2F80F6"/>
<path d="M580.008 381.71C579.176 381.71 578.362 381.463 577.67 381C576.977 380.536 576.438 379.878 576.119 379.107C575.801 378.337 575.717 377.489 575.88 376.671C576.042 375.853 576.443 375.102 577.032 374.512C577.62 373.923 578.37 373.521 579.187 373.358C580.004 373.196 580.85 373.279 581.619 373.598C582.388 373.917 583.046 374.458 583.508 375.151C583.971 375.845 584.218 376.66 584.218 377.494C584.218 378.612 583.774 379.685 582.985 380.475C582.195 381.266 581.125 381.71 580.008 381.71ZM580.008 376.996C579.906 376.995 579.806 377.025 579.721 377.081C579.636 377.137 579.57 377.218 579.53 377.312C579.491 377.406 579.481 377.51 579.5 377.61C579.52 377.71 579.569 377.802 579.641 377.874C579.713 377.947 579.805 377.996 579.905 378.015C580.005 378.035 580.109 378.025 580.203 377.985C580.297 377.946 580.377 377.879 580.433 377.794C580.489 377.709 580.518 377.609 580.518 377.506C580.519 377.438 580.507 377.371 580.483 377.307C580.458 377.244 580.42 377.186 580.373 377.137C580.326 377.089 580.269 377.05 580.206 377.024C580.144 376.997 580.076 376.984 580.008 376.984V376.996Z" fill="#00C98A"/>
<path d="M591.774 381.71C590.941 381.71 590.127 381.463 589.435 381C588.743 380.536 588.203 379.878 587.885 379.107C587.566 378.337 587.483 377.489 587.645 376.671C587.808 375.853 588.209 375.102 588.797 374.512C589.386 373.923 590.136 373.521 590.953 373.358C591.769 373.196 592.616 373.279 593.385 373.598C594.154 373.917 594.811 374.458 595.274 375.151C595.736 375.845 595.983 376.66 595.983 377.494V377.494C595.983 378.612 595.54 379.685 594.75 380.475C593.961 381.266 592.89 381.71 591.774 381.71V381.71ZM591.774 376.996C591.672 376.995 591.572 377.025 591.487 377.081C591.402 377.137 591.335 377.218 591.296 377.312C591.257 377.406 591.246 377.51 591.266 377.61C591.285 377.71 591.334 377.802 591.407 377.874C591.479 377.947 591.571 377.996 591.671 378.015C591.771 378.035 591.874 378.025 591.968 377.985C592.062 377.946 592.142 377.879 592.198 377.794C592.255 377.709 592.284 377.609 592.283 377.506C592.284 377.37 592.231 377.238 592.136 377.14C592.041 377.042 591.91 376.986 591.774 376.984V376.996Z" fill="#00C98A"/>
<path d="M603.54 381.71C602.707 381.71 601.893 381.463 601.201 381C600.509 380.536 599.969 379.878 599.651 379.107C599.332 378.337 599.249 377.489 599.411 376.671C599.573 375.853 599.974 375.102 600.563 374.512C601.152 373.923 601.902 373.521 602.718 373.358C603.535 373.196 604.381 373.279 605.15 373.598C605.92 373.917 606.577 374.458 607.04 375.151C607.502 375.845 607.749 376.66 607.749 377.494C607.749 378.612 607.305 379.685 606.516 380.475C605.727 381.266 604.656 381.71 603.54 381.71V381.71ZM603.54 376.996C603.438 376.995 603.338 377.025 603.253 377.081C603.168 377.137 603.101 377.218 603.062 377.312C603.022 377.406 603.012 377.51 603.031 377.61C603.051 377.71 603.1 377.802 603.172 377.874C603.244 377.947 603.336 377.996 603.436 378.015C603.536 378.035 603.64 378.025 603.734 377.985C603.828 377.946 603.908 377.879 603.964 377.794C604.02 377.709 604.05 377.609 604.049 377.506C604.05 377.37 603.997 377.238 603.902 377.14C603.806 377.042 603.676 376.986 603.54 376.984V376.996Z" fill="#00C98A"/>
<path d="M595.301 363.761C594.678 363.76 594.08 363.511 593.639 363.069C593.198 362.628 592.949 362.029 592.948 361.404V340.191C592.948 339.566 593.196 338.966 593.637 338.524C594.079 338.082 594.677 337.834 595.301 337.834C595.925 337.834 596.524 338.082 596.965 338.524C597.407 338.966 597.654 339.566 597.654 340.191V361.404C597.654 362.029 597.407 362.629 596.965 363.071C596.524 363.513 595.925 363.761 595.301 363.761Z" fill="#FFCD38"/>
<path d="M585.497 363.761C584.873 363.761 584.274 363.513 583.833 363.071C583.391 362.629 583.144 362.029 583.144 361.404V349.893C583.144 349.268 583.391 348.668 583.833 348.226C584.274 347.784 584.873 347.536 585.497 347.536C586.121 347.536 586.719 347.784 587.161 348.226C587.602 348.668 587.85 349.268 587.85 349.893V361.404C587.85 362.029 587.602 362.629 587.161 363.071C586.719 363.513 586.121 363.761 585.497 363.761Z" fill="#FFCD38"/>
<path d="M576.148 334.398C575.743 334.401 575.344 334.3 574.99 334.103C574.635 333.906 574.338 333.621 574.126 333.275C573.914 332.93 573.795 332.535 573.781 332.129C573.766 331.724 573.857 331.321 574.043 330.961C576.055 327.056 579.101 323.78 582.848 321.494C586.594 319.207 590.897 317.997 595.284 317.997C599.672 317.997 603.974 319.207 607.721 321.494C611.467 323.78 614.513 327.056 616.525 330.961C616.794 331.515 616.836 332.151 616.643 332.735C616.449 333.32 616.035 333.805 615.489 334.087C614.944 334.37 614.309 334.427 613.722 334.247C613.134 334.067 612.64 333.664 612.345 333.124C610.731 329.987 608.285 327.355 605.276 325.517C602.267 323.68 598.81 322.708 595.286 322.708C591.762 322.708 588.306 323.68 585.297 325.517C582.288 327.355 579.842 329.987 578.227 333.124C578.031 333.507 577.733 333.828 577.366 334.053C576.999 334.278 576.578 334.397 576.148 334.398Z" fill="#FFCD38"/>
<path d="M583.19 336.637C582.746 336.635 582.312 336.507 581.937 336.269C581.562 336.03 581.262 335.69 581.072 335.288C580.881 334.886 580.808 334.439 580.86 333.997C580.913 333.555 581.089 333.137 581.368 332.791C583.049 330.731 585.165 329.069 587.564 327.926C589.963 326.782 592.585 326.185 595.242 326.177C597.899 326.17 600.524 326.752 602.93 327.881C605.335 329.011 607.461 330.661 609.154 332.711C609.356 332.946 609.51 333.218 609.607 333.512C609.704 333.806 609.743 334.116 609.72 334.425C609.697 334.734 609.614 335.036 609.475 335.312C609.336 335.589 609.144 335.836 608.91 336.038C608.676 336.24 608.404 336.395 608.111 336.492C607.817 336.589 607.507 336.627 607.199 336.605C606.891 336.582 606.59 336.499 606.313 336.36C606.037 336.22 605.791 336.028 605.589 335.793L605.526 335.713C604.278 334.194 602.709 332.971 600.932 332.134C599.155 331.296 597.214 330.864 595.25 330.869C593.286 330.875 591.348 331.317 589.575 332.164C587.803 333.011 586.24 334.242 585 335.768C584.781 336.037 584.504 336.254 584.192 336.404C583.879 336.554 583.537 336.633 583.19 336.637V336.637Z" fill="#2F80F6"/>
<path d="M595.217 344.306C594.385 344.306 593.571 344.059 592.879 343.596C592.186 343.132 591.647 342.474 591.328 341.703C591.01 340.933 590.926 340.085 591.089 339.267C591.251 338.449 591.652 337.698 592.241 337.109C592.829 336.519 593.579 336.117 594.396 335.955C595.213 335.792 596.059 335.875 596.828 336.195C597.597 336.514 598.255 337.054 598.717 337.747C599.18 338.441 599.427 339.256 599.427 340.09C599.427 341.208 598.983 342.281 598.194 343.071C597.404 343.862 596.334 344.306 595.217 344.306ZM595.217 339.592C595.115 339.592 595.015 339.621 594.93 339.677C594.845 339.734 594.779 339.814 594.739 339.908C594.7 340.002 594.69 340.106 594.709 340.206C594.729 340.306 594.778 340.398 594.85 340.471C594.922 340.543 595.014 340.592 595.114 340.612C595.214 340.631 595.318 340.621 595.412 340.581C595.506 340.542 595.586 340.475 595.642 340.39C595.698 340.305 595.727 340.205 595.727 340.103C595.727 339.967 595.673 339.838 595.577 339.742C595.482 339.646 595.352 339.592 595.217 339.592V339.592Z" fill="#00C98A"/>
<path d="M563.503 396.379H548.118C547.055 396.378 546.037 395.955 545.285 395.202C544.534 394.45 544.111 393.429 544.11 392.365V389.329C544.111 388.265 544.534 387.245 545.285 386.492C546.037 385.74 547.055 385.316 548.118 385.315H563.503C564.565 385.318 565.583 385.741 566.334 386.493C567.086 387.246 567.508 388.265 567.511 389.329V392.365C567.508 393.429 567.086 394.449 566.334 395.201C565.583 395.953 564.565 396.377 563.503 396.379ZM548.817 391.665H562.805V390.055H548.795L548.817 391.665Z" fill="#0047AD"/>
<path d="M556.086 377.903C555.461 377.903 554.863 377.655 554.422 377.213C553.98 376.771 553.732 376.171 553.732 375.546V332.058C553.732 331.433 553.98 330.833 554.422 330.391C554.863 329.949 555.461 329.701 556.086 329.701C556.71 329.701 557.308 329.949 557.749 330.391C558.191 330.833 558.439 331.433 558.439 332.058V375.546C558.439 376.171 558.191 376.771 557.749 377.213C557.308 377.655 556.71 377.903 556.086 377.903V377.903Z" fill="#CCCCCC"/>
<path d="M556.086 334.094C555.254 334.094 554.44 333.847 553.748 333.384C553.056 332.92 552.516 332.262 552.197 331.491C551.879 330.721 551.795 329.873 551.958 329.055C552.12 328.237 552.521 327.486 553.11 326.896C553.699 326.307 554.449 325.905 555.265 325.742C556.082 325.58 556.928 325.663 557.697 325.982C558.466 326.301 559.124 326.842 559.586 327.535C560.049 328.229 560.296 329.044 560.296 329.878C560.296 330.996 559.852 332.069 559.063 332.859C558.274 333.65 557.203 334.094 556.086 334.094V334.094ZM556.086 329.38C555.986 329.38 555.887 329.41 555.803 329.466C555.72 329.522 555.654 329.602 555.616 329.695C555.577 329.788 555.567 329.891 555.587 329.99C555.607 330.089 555.655 330.18 555.726 330.251C555.797 330.323 555.888 330.371 555.987 330.391C556.086 330.41 556.188 330.4 556.281 330.362C556.374 330.323 556.454 330.258 556.51 330.174C556.566 330.09 556.596 329.991 556.596 329.89C556.596 329.755 556.542 329.625 556.447 329.53C556.351 329.434 556.221 329.38 556.086 329.38V329.38Z" fill="#CCCCCC"/>
<path d="M689.917 400.494C689.062 400.513 688.212 400.361 687.417 400.047C686.622 399.732 685.898 399.263 685.286 398.665L664.298 377.616C661.549 374.867 661.945 369.972 665.194 366.717L709.507 322.33C710.518 321.318 712.601 320.18 724.703 319.379C730.386 319.004 735.888 318.881 736.667 318.864C737.662 318.734 738.674 318.834 739.624 319.159C740.574 319.483 741.436 320.022 742.145 320.733C742.854 321.445 743.389 322.311 743.71 323.264C744.031 324.216 744.129 325.23 743.995 326.226C743.995 327.011 743.844 332.509 743.461 338.18C742.653 350.273 741.503 352.364 740.514 353.359L696.184 397.766C694.535 399.467 692.283 400.447 689.917 400.494V400.494ZM712.707 325.763L668.507 370.035C666.996 371.549 666.824 373.48 667.611 374.251L688.62 395.296C689.407 396.084 691.339 395.911 692.851 394.397L737.05 350.125C738.148 348.089 739.053 336.105 739.26 326.028V325.83C739.335 325.517 739.329 325.19 739.243 324.88C739.156 324.57 738.992 324.287 738.765 324.059C738.538 323.83 738.257 323.664 737.948 323.576C737.639 323.487 737.312 323.479 736.999 323.553H736.806C726.758 323.781 714.769 324.662 712.707 325.763Z" fill="#2F80F6"/>
<path d="M700.032 392.93C699.408 392.929 698.81 392.681 698.369 392.239L670.705 364.545C670.29 364.098 670.065 363.508 670.077 362.898C670.088 362.288 670.335 361.706 670.765 361.275C671.196 360.844 671.777 360.596 672.386 360.585C672.994 360.574 673.584 360.799 674.03 361.214L701.695 388.929C702.025 389.26 702.249 389.681 702.339 390.14C702.429 390.599 702.38 391.074 702.2 391.506C702.019 391.937 701.715 392.305 701.325 392.562C700.935 392.819 700.478 392.955 700.011 392.951L700.032 392.93Z" fill="#0047AD"/>
<path d="M730.9 362.011C730.588 362.014 730.278 361.954 729.989 361.835C729.7 361.716 729.437 361.541 729.216 361.32L701.552 333.605C701.105 333.167 700.851 332.57 700.844 331.944C700.837 331.318 701.079 330.715 701.516 330.268C701.953 329.82 702.55 329.565 703.175 329.559C703.799 329.552 704.401 329.794 704.848 330.232L704.877 330.261L732.542 357.972C732.87 358.301 733.094 358.721 733.185 359.178C733.275 359.635 733.229 360.108 733.051 360.539C732.873 360.969 732.572 361.337 732.185 361.596C731.799 361.855 731.344 361.994 730.879 361.994L730.9 362.011Z" fill="#0047AD"/>
<path d="M727.204 343.02C725.748 343.021 724.325 342.589 723.114 341.779C721.903 340.969 720.959 339.818 720.402 338.47C719.845 337.123 719.699 335.64 719.984 334.21C720.268 332.78 720.97 331.466 722 330.435C723.03 329.405 724.342 328.703 725.771 328.42C727.199 328.137 728.679 328.284 730.024 328.844C731.368 329.404 732.517 330.35 733.324 331.564C734.131 332.778 734.561 334.204 734.558 335.663C734.554 337.614 733.777 339.484 732.399 340.863C731.02 342.242 729.152 343.018 727.204 343.02ZM727.204 332.989C726.68 332.989 726.167 333.145 725.731 333.437C725.295 333.729 724.955 334.144 724.754 334.629C724.553 335.115 724.501 335.649 724.603 336.164C724.705 336.679 724.958 337.153 725.329 337.524C725.7 337.896 726.172 338.149 726.687 338.251C727.201 338.354 727.734 338.301 728.219 338.1C728.704 337.899 729.118 337.558 729.409 337.122C729.701 336.685 729.856 336.171 729.856 335.646C729.856 334.941 729.577 334.266 729.079 333.767C728.582 333.269 727.907 332.989 727.204 332.989V332.989Z" fill="#CCCCCC"/>
<path d="M703.122 371.667C702.498 371.667 701.899 371.418 701.458 370.976C701.016 370.534 700.769 369.935 700.769 369.31V349.113C700.769 348.488 701.016 347.888 701.458 347.446C701.899 347.004 702.498 346.756 703.122 346.756C703.746 346.756 704.344 347.004 704.786 347.446C705.227 347.888 705.475 348.488 705.475 349.113V369.31C705.475 369.935 705.227 370.534 704.786 370.976C704.344 371.418 703.746 371.667 703.122 371.667Z" fill="#FFCD38"/>
<path d="M693.372 365.034C692.345 365.034 691.341 364.729 690.486 364.157C689.632 363.586 688.966 362.773 688.573 361.822C688.18 360.872 688.077 359.825 688.278 358.816C688.478 357.807 688.973 356.88 689.699 356.152C690.426 355.424 691.351 354.929 692.359 354.728C693.366 354.527 694.411 354.63 695.36 355.024C696.309 355.418 697.12 356.085 697.691 356.941C698.262 357.796 698.567 358.802 698.567 359.831V359.831C698.564 361.21 698.016 362.533 697.043 363.508C696.069 364.483 694.749 365.032 693.372 365.034V365.034ZM693.372 359.346C693.275 359.346 693.181 359.375 693.1 359.429C693.02 359.483 692.958 359.56 692.921 359.649C692.884 359.739 692.874 359.837 692.894 359.932C692.913 360.027 692.96 360.115 693.028 360.183C693.097 360.251 693.185 360.297 693.28 360.316C693.375 360.334 693.473 360.324 693.562 360.286C693.651 360.248 693.727 360.185 693.78 360.104C693.833 360.023 693.861 359.928 693.861 359.831V359.831C693.861 359.767 693.848 359.704 693.823 359.645C693.799 359.586 693.763 359.532 693.717 359.487C693.672 359.442 693.618 359.406 693.559 359.382C693.5 359.358 693.436 359.346 693.372 359.346Z" fill="#00C98A"/>
<path d="M712.984 364.874C711.956 364.874 710.951 364.568 710.096 363.995C709.241 363.423 708.575 362.608 708.183 361.656C707.791 360.704 707.689 359.657 707.892 358.647C708.094 357.637 708.591 356.71 709.32 355.983C710.049 355.256 710.977 354.763 711.987 354.565C712.996 354.367 714.041 354.474 714.99 354.871C715.939 355.269 716.748 355.94 717.316 356.799C717.883 357.658 718.184 358.666 718.179 359.696C718.171 361.071 717.621 362.388 716.647 363.358C715.674 364.328 714.357 364.873 712.984 364.874V364.874ZM712.984 359.186C712.888 359.185 712.793 359.213 712.712 359.266C712.631 359.32 712.568 359.396 712.53 359.485C712.493 359.574 712.482 359.673 712.501 359.768C712.519 359.863 712.565 359.951 712.633 360.019C712.702 360.088 712.789 360.135 712.883 360.155C712.978 360.174 713.077 360.164 713.166 360.127C713.256 360.091 713.332 360.028 713.386 359.947C713.44 359.867 713.468 359.772 713.469 359.675V359.675C713.469 359.546 713.418 359.422 713.327 359.331C713.236 359.239 713.113 359.187 712.984 359.186Z" fill="#00C98A"/>
<path d="M839.912 396.379H827.755C827.131 396.379 826.533 396.131 826.092 395.689C825.65 395.247 825.402 394.647 825.402 394.022V376.798C825.402 376.173 825.65 375.574 826.092 375.132C826.533 374.69 827.131 374.441 827.755 374.441H839.912C840.536 374.441 841.135 374.69 841.576 375.132C842.018 375.574 842.265 376.173 842.265 376.798V394.022C842.265 394.647 842.018 395.247 841.576 395.689C841.135 396.131 840.536 396.379 839.912 396.379V396.379ZM830.109 391.665H837.559V379.155H830.109V391.665Z" fill="#0047AD"/>
<path d="M860.117 396.379H810.761C810.137 396.379 809.539 396.131 809.097 395.689C808.656 395.247 808.408 394.647 808.408 394.022V348.611C808.408 347.986 808.656 347.387 809.097 346.945C809.539 346.503 810.137 346.254 810.761 346.254H856.893C857.517 346.254 858.115 346.503 858.557 346.945C858.998 347.387 859.246 347.986 859.246 348.611V356.888C859.245 357.513 858.996 358.112 858.555 358.553C858.114 358.995 857.516 359.244 856.893 359.245H830.617C829.993 359.245 829.395 358.997 828.953 358.555C828.512 358.113 828.264 357.513 828.264 356.888C828.264 356.263 828.512 355.664 828.953 355.221C829.395 354.779 829.993 354.531 830.617 354.531H854.54V350.968H813.114V391.665H860.105C860.729 391.665 861.327 391.913 861.768 392.356C862.21 392.798 862.458 393.397 862.458 394.022C862.458 394.647 862.21 395.247 861.768 395.689C861.327 396.131 860.729 396.379 860.105 396.379H860.117Z" fill="#2F80F6"/>
<path d="M866.448 350.951H801.202C800.71 350.954 800.23 350.803 799.829 350.519C799.428 350.235 799.125 349.832 798.964 349.367C798.803 348.902 798.791 348.398 798.931 347.926C799.07 347.454 799.353 347.037 799.741 346.735L832.36 320.846C832.776 320.516 833.291 320.337 833.821 320.337C834.351 320.337 834.866 320.516 835.282 320.846L867.905 346.735C868.293 347.038 868.576 347.455 868.716 347.927C868.855 348.4 868.843 348.904 868.681 349.369C868.52 349.834 868.216 350.237 867.814 350.521C867.412 350.805 866.932 350.955 866.44 350.951H866.448ZM807.971 346.237H859.692L833.833 325.716L807.971 346.237Z" fill="#FFCD38"/>
<path d="M852.882 340.162C852.258 340.162 851.659 339.913 851.218 339.471C850.777 339.029 850.529 338.43 850.529 337.805V325.067H848.479V332.29C848.479 332.915 848.231 333.514 847.789 333.956C847.348 334.398 846.75 334.646 846.126 334.646C845.501 334.646 844.903 334.398 844.462 333.956C844.02 333.514 843.772 332.915 843.772 332.29V322.71C843.772 322.085 844.02 321.485 844.462 321.043C844.903 320.601 845.501 320.353 846.126 320.353H852.861C853.485 320.353 854.083 320.601 854.525 321.043C854.966 321.485 855.214 322.085 855.214 322.71V337.809C855.213 338.43 854.967 339.025 854.531 339.465C854.094 339.906 853.501 340.156 852.882 340.162V340.162Z" fill="#CCCCCC"/>
<path d="M869.585 396.754H869.341C868.809 396.755 868.293 396.576 867.876 396.244C856.898 387.499 850.731 367.779 850.478 366.944C850.329 366.46 850.34 365.94 850.509 365.463C850.678 364.985 850.997 364.574 851.417 364.292L868.019 353.152C868.452 352.894 868.946 352.757 869.45 352.757C869.954 352.757 870.449 352.894 870.882 353.152L887.496 364.288C887.917 364.569 888.235 364.979 888.405 365.456C888.575 365.933 888.587 366.452 888.439 366.936C888.178 367.779 882.02 387.495 871.037 396.236C870.626 396.568 870.114 396.751 869.585 396.754V396.754ZM855.53 367.206C857.125 371.747 862.08 384.535 869.467 391.395C876.851 384.535 881.805 371.755 883.405 367.206L869.467 357.866L855.53 367.206Z" fill="#0047AD"/>
<path d="M867.792 379.417C867.607 379.417 867.424 379.38 867.254 379.307C867.084 379.235 866.93 379.129 866.802 378.995L864.024 376.119C863.748 375.881 863.578 375.543 863.552 375.179C863.525 374.815 863.643 374.456 863.881 374.18C864.119 373.904 864.456 373.733 864.82 373.706C865.183 373.679 865.542 373.798 865.817 374.036C865.88 374.088 865.936 374.146 865.986 374.209L867.602 375.896C873.445 367.463 873.495 367.463 873.98 367.286C874.268 367.192 874.579 367.196 874.865 367.297C875.151 367.398 875.395 367.592 875.56 367.846C875.725 368.101 875.802 368.403 875.778 368.706C875.754 369.009 875.631 369.295 875.428 369.521C874.96 370.132 871.218 375.516 868.903 378.835C868.788 379.001 868.637 379.141 868.461 379.242C868.286 379.343 868.09 379.404 867.888 379.421L867.792 379.417Z" fill="#00C98A"/>
<path d="M463.561 512.221C448.309 512.173 433.69 506.104 422.876 495.33L421.971 494.424C421.475 493.93 421.029 493.492 420.624 493.074C420.188 492.627 419.948 492.025 419.955 491.4C419.963 490.775 420.218 490.178 420.664 489.741C421.111 489.305 421.712 489.064 422.336 489.071C422.961 489.079 423.556 489.334 423.992 489.781V489.781L425.284 491.084L426.202 491.999C436.134 501.888 449.557 507.457 463.561 507.499C467.446 507.499 470.393 506.424 472.312 504.294C474.531 501.84 475.032 498.459 475.12 496.469L463.582 493.85C462.968 493.728 462.428 493.366 462.08 492.845C461.732 492.323 461.605 491.685 461.728 491.07C461.85 490.454 462.211 489.913 462.732 489.565C463.252 489.217 463.89 489.09 464.504 489.212L464.617 489.237L477.953 492.265C478.432 492.374 478.864 492.63 479.19 492.997C479.516 493.365 479.719 493.825 479.771 494.314C479.805 494.635 480.533 502.169 475.819 507.385C472.977 510.611 468.848 512.221 463.561 512.221Z" fill="#0047AD"/>
<path d="M449.708 496.646C449.452 496.646 449.197 496.603 448.955 496.519C442.736 494.348 437.077 490.819 432.386 486.189L432.231 486.041L432.201 486.008C427.462 481.201 423.845 475.402 421.61 469.028C421.423 468.437 421.475 467.796 421.757 467.243C422.038 466.691 422.525 466.272 423.113 466.077L426.704 464.879L421.998 443.106C419.994 443.106 416.525 443.464 414 445.661C411.832 447.554 410.733 450.556 410.733 454.578C410.733 465.183 412.8 473.042 417.653 480.813C417.984 481.344 418.09 481.984 417.949 482.593C417.809 483.203 417.432 483.731 416.902 484.062C416.372 484.393 415.733 484.499 415.125 484.358C414.516 484.217 413.989 483.84 413.659 483.309C408.292 474.72 406.006 466.131 406.006 454.566C406.006 449.084 407.66 444.893 410.922 442.068C416.281 437.43 423.93 438.459 424.254 438.505C424.729 438.575 425.172 438.788 425.522 439.117C425.873 439.445 426.115 439.873 426.215 440.344L431.73 465.937C431.856 466.509 431.765 467.107 431.474 467.616C431.184 468.124 430.716 468.506 430.16 468.687L426.885 469.791C428.925 474.578 431.834 478.944 435.464 482.668L435.619 482.82C439.259 486.406 443.544 489.267 448.248 491.253L449.426 487.968C449.621 487.425 450.008 486.972 450.514 486.695C451.02 486.418 451.609 486.337 452.171 486.467L464.572 489.28C464.873 489.348 465.159 489.475 465.411 489.654C465.664 489.833 465.878 490.06 466.043 490.321C466.208 490.583 466.32 490.875 466.372 491.181C466.425 491.486 466.417 491.798 466.348 492.1C466.28 492.402 466.153 492.688 465.975 492.941C465.796 493.194 465.57 493.409 465.308 493.574C465.047 493.739 464.755 493.851 464.451 493.904C464.146 493.956 463.834 493.948 463.532 493.88L453.16 491.523L451.897 495.098C451.732 495.548 451.435 495.937 451.044 496.214C450.653 496.49 450.187 496.641 449.708 496.646V496.646Z" fill="#2F80F6"/>
<path d="M463.145 483.237C462.708 483.237 462.288 483.063 461.979 482.753C461.669 482.443 461.495 482.023 461.495 481.585C461.497 481.341 461.55 481.101 461.651 480.881C463.155 477.644 463.656 474.03 463.089 470.506C462.522 466.982 460.914 463.708 458.472 461.109C456.029 458.509 452.865 456.702 449.388 455.921C445.91 455.141 442.279 455.422 438.962 456.729C438.557 456.876 438.111 456.858 437.719 456.681C437.326 456.503 437.018 456.179 436.86 455.778C436.702 455.377 436.707 454.929 436.873 454.531C437.039 454.133 437.354 453.816 437.75 453.647V453.647C441.682 452.095 445.989 451.759 450.114 452.684C454.238 453.609 457.991 455.752 460.887 458.836C463.784 461.919 465.69 465.802 466.36 469.982C467.031 474.162 466.434 478.448 464.648 482.285C464.515 482.571 464.303 482.813 464.036 482.982C463.77 483.151 463.461 483.24 463.145 483.237V483.237Z" fill="#00C98A"/>
<path d="M471.354 486.476C471.045 486.476 470.738 486.415 470.453 486.296C470.167 486.177 469.908 486.003 469.69 485.784C469.472 485.564 469.299 485.304 469.181 485.017C469.064 484.731 469.004 484.424 469.005 484.114C469.006 483.771 469.08 483.431 469.224 483.119C471.366 478.51 472.08 473.362 471.273 468.342C470.466 463.322 468.176 458.659 464.697 454.956C461.218 451.253 456.711 448.679 451.758 447.567C446.804 446.455 441.632 446.856 436.908 448.718C436.621 448.833 436.315 448.891 436.006 448.888C435.697 448.885 435.391 448.822 435.107 448.7C434.822 448.579 434.565 448.403 434.348 448.182C434.132 447.961 433.961 447.7 433.845 447.413C433.73 447.126 433.672 446.818 433.675 446.509C433.678 446.199 433.742 445.893 433.863 445.609C433.984 445.324 434.159 445.066 434.38 444.849C434.601 444.632 434.862 444.461 435.148 444.345H435.178C440.778 442.139 446.91 441.665 452.781 442.984C458.653 444.303 463.996 447.355 468.119 451.745C472.242 456.135 474.957 461.663 475.914 467.614C476.87 473.565 476.024 479.666 473.484 485.131C473.291 485.533 472.989 485.873 472.612 486.111C472.235 486.348 471.799 486.475 471.354 486.476Z" fill="#FFCD38"/>
<path d="M617.712 443.894V443.679C617.692 443.572 617.665 443.467 617.632 443.363C617.593 443.238 617.544 443.117 617.485 443C617.456 442.945 617.422 442.895 617.388 442.84C617.355 442.785 617.318 442.731 617.279 442.68C617.223 442.603 617.161 442.531 617.094 442.465C617.034 442.4 616.97 442.338 616.904 442.279C616.844 442.229 616.781 442.182 616.715 442.14L616.597 442.068L616.454 441.988L616.407 441.967C616.336 441.93 616.261 441.899 616.184 441.874C616.118 441.85 616.051 441.828 615.982 441.811H615.89C615.817 441.795 615.744 441.784 615.671 441.777H615.65C615.563 441.769 615.476 441.769 615.389 441.777H536.962C536.876 441.769 536.788 441.769 536.702 441.777H536.638C536.565 441.784 536.492 441.795 536.419 441.811C536.386 441.816 536.354 441.824 536.323 441.836C536.265 441.849 536.209 441.866 536.154 441.887H536.104C536.045 441.905 535.989 441.929 535.935 441.959L535.843 442.001C535.806 442.018 535.771 442.038 535.738 442.06L535.607 442.14C535.503 442.209 535.406 442.288 535.317 442.376C535.272 442.413 535.231 442.454 535.195 442.498C535.146 442.549 535.101 442.603 535.06 442.659H535.039C534.989 442.725 534.942 442.794 534.9 442.865C534.879 442.907 534.854 442.941 534.833 442.983C534.775 443.099 534.726 443.219 534.685 443.342C534.664 443.401 534.648 443.462 534.635 443.523C534.635 443.565 534.614 443.607 534.605 443.65V443.789C534.599 443.883 534.599 443.977 534.605 444.071C534.606 444.437 534.691 444.798 534.854 445.126C535.016 445.454 535.253 445.739 535.544 445.96L539.332 448.785V446.428H613.019V448.785L616.786 445.96C617.079 445.742 617.317 445.457 617.48 445.13C617.643 444.802 617.727 444.441 617.725 444.075C617.724 444.015 617.72 443.954 617.712 443.894V443.894Z" fill="#FFCD38"/>
<path d="M617.716 444.088V503.008C617.716 503.633 617.468 504.233 617.027 504.675C616.585 505.117 615.987 505.365 615.363 505.365H536.932C536.308 505.365 535.71 505.117 535.268 504.675C534.827 504.233 534.579 503.633 534.579 503.008V444.088C534.58 444.453 534.665 444.814 534.827 445.141C534.99 445.468 535.227 445.753 535.518 445.973L539.285 448.802V500.664H613.014V448.802L616.777 445.973C617.071 445.755 617.309 445.471 617.472 445.143C617.635 444.816 617.719 444.454 617.716 444.088V444.088Z" fill="#0047AD"/>
<path d="M617.716 444.088C617.718 444.453 617.634 444.814 617.471 445.14C617.308 445.467 617.07 445.751 616.778 445.969L613.014 448.798L577.583 475.429C577.176 475.734 576.68 475.899 576.171 475.899C575.662 475.899 575.167 475.734 574.759 475.429L539.277 448.798L535.51 445.969C535.219 445.748 534.983 445.464 534.82 445.137C534.657 444.81 534.572 444.449 534.571 444.084C534.572 443.989 534.579 443.895 534.592 443.801V443.658C534.597 443.615 534.605 443.573 534.618 443.531C534.63 443.47 534.647 443.409 534.668 443.35C534.71 443.227 534.761 443.107 534.82 442.992C534.838 442.953 534.859 442.914 534.883 442.878C534.924 442.805 534.971 442.734 535.022 442.667V442.667C535.064 442.612 535.11 442.558 535.156 442.507C535.193 442.463 535.234 442.424 535.278 442.389C535.367 442.3 535.464 442.221 535.569 442.153C535.61 442.121 535.653 442.092 535.699 442.068C535.733 442.046 535.768 442.027 535.805 442.009L535.897 441.967C535.951 441.938 536.007 441.914 536.066 441.896H536.12C536.175 441.874 536.231 441.857 536.289 441.845C536.318 441.832 536.349 441.824 536.381 441.82L536.6 441.786H536.882C537.392 441.786 537.889 441.951 538.297 442.258L543.942 446.5L576.102 470.66L608.258 446.5L613.903 442.258C614.31 441.951 614.807 441.786 615.317 441.786H615.599L615.818 441.82H615.902L616.104 441.883C616.181 441.908 616.256 441.939 616.327 441.976L616.374 441.997L616.517 442.077L616.635 442.153C616.7 442.194 616.763 442.239 616.824 442.288C616.89 442.346 616.953 442.408 617.013 442.473C617.081 442.54 617.143 442.612 617.199 442.688C617.238 442.74 617.274 442.793 617.308 442.848C617.342 442.901 617.373 442.956 617.401 443.013C617.463 443.127 617.514 443.247 617.552 443.371C617.585 443.475 617.611 443.581 617.632 443.688V443.903C617.664 443.963 617.692 444.025 617.716 444.088V444.088Z" fill="#2F80F6"/>
<path d="M687.121 467.932C686.812 467.932 686.506 467.871 686.22 467.753C685.935 467.634 685.675 467.46 685.457 467.242C685.238 467.023 685.065 466.763 684.947 466.477C684.829 466.191 684.768 465.884 684.768 465.575V449.595C684.73 447.088 685.191 444.598 686.123 442.272C687.055 439.945 688.439 437.827 690.196 436.041C691.953 434.255 694.046 432.836 696.355 431.868C698.664 430.9 701.142 430.402 703.645 430.402C706.148 430.402 708.626 430.9 710.935 431.868C713.244 432.836 715.337 434.255 717.094 436.041C718.851 437.827 720.235 439.945 721.167 442.272C722.099 444.598 722.56 447.088 722.522 449.595V465.356C722.522 465.981 722.274 466.58 721.833 467.022C721.392 467.464 720.793 467.713 720.169 467.713C719.545 467.713 718.947 467.464 718.505 467.022C718.064 466.58 717.816 465.981 717.816 465.356V449.595C717.849 447.71 717.506 445.838 716.808 444.087C716.111 442.337 715.072 440.743 713.753 439.398C712.434 438.054 710.861 436.986 709.125 436.257C707.39 435.529 705.527 435.153 703.645 435.153C701.763 435.153 699.9 435.529 698.165 436.257C696.429 436.986 694.856 438.054 693.537 439.398C692.218 440.743 691.179 442.337 690.482 444.087C689.784 445.838 689.441 447.71 689.474 449.595V449.595V465.575C689.473 466.2 689.225 466.799 688.783 467.24C688.342 467.682 687.745 467.931 687.121 467.932V467.932Z" fill="#FFCD38"/>
<path d="M706.446 498.72H700.717C700.34 498.72 699.969 498.63 699.635 498.456C699.3 498.283 699.012 498.031 698.794 497.723C698.577 497.415 698.437 497.059 698.385 496.685C698.334 496.311 698.373 495.93 698.499 495.575L701.34 487.496C701.503 487.038 701.804 486.642 702.201 486.362C702.597 486.082 703.071 485.931 703.556 485.931C704.042 485.931 704.516 486.082 704.912 486.362C705.309 486.642 705.61 487.038 705.773 487.496L708.635 495.562C708.739 495.854 708.784 496.163 708.768 496.472C708.752 496.781 708.675 497.083 708.542 497.363C708.409 497.642 708.223 497.892 707.993 498.099C707.763 498.306 707.495 498.465 707.204 498.568C706.952 498.657 706.688 498.703 706.421 498.703L706.446 498.72Z" fill="#00C98A"/>
<path d="M726.235 513.701H680.89C678.925 513.699 677.041 512.916 675.651 511.524C674.261 510.132 673.48 508.245 673.478 506.276V471.01C673.48 469.041 674.261 467.154 675.651 465.762C677.041 464.37 678.925 463.587 680.89 463.585H726.235C728.2 463.587 730.083 464.37 731.472 465.762C732.861 467.154 733.642 469.042 733.643 471.01V506.28C733.64 508.247 732.858 510.133 731.47 511.524C730.081 512.915 728.198 513.698 726.235 513.701V513.701ZM680.89 468.29C680.172 468.292 679.484 468.58 678.977 469.09C678.471 469.6 678.187 470.29 678.188 471.01V506.28C678.189 506.999 678.475 507.688 678.982 508.196C679.489 508.704 680.177 508.99 680.895 508.991H726.235C726.952 508.99 727.639 508.704 728.146 508.196C728.652 507.687 728.937 506.999 728.937 506.28V471.01C728.936 470.292 728.651 469.604 728.145 469.095C727.638 468.587 726.951 468.301 726.235 468.299L680.89 468.29Z" fill="#0047AD"/>
<path d="M703.63 490.684H703.495C702.26 490.682 701.076 490.189 700.202 489.314C699.329 488.439 698.837 487.253 698.835 486.016V485.881C698.837 484.644 699.329 483.458 700.202 482.583C701.076 481.708 702.26 481.216 703.495 481.214H703.63C704.864 481.216 706.048 481.708 706.921 482.583C707.793 483.458 708.284 484.644 708.285 485.881V486.016C708.284 487.253 707.793 488.439 706.921 489.314C706.048 490.189 704.864 490.681 703.63 490.684V490.684ZM703.537 485.97H703.583V485.923H703.537V485.97Z" fill="#2F80F6"/>
<path d="M850.184 513.701C849.87 513.7 849.559 513.636 849.27 513.513C848.981 513.39 848.719 513.21 848.5 512.984L830.821 494.685H814.715C814.091 494.685 813.493 494.437 813.052 493.995C812.61 493.553 812.362 492.953 812.362 492.328C812.362 491.703 812.61 491.103 813.052 490.661C813.493 490.219 814.091 489.971 814.715 489.971H831.835C832.149 489.973 832.46 490.038 832.749 490.161C833.038 490.284 833.299 490.463 833.519 490.688L848.159 505.846L848.947 492.189C848.981 491.588 849.244 491.023 849.682 490.61C850.12 490.198 850.699 489.969 851.3 489.971H866.416C869.304 489.969 872.074 488.818 874.117 486.773C876.159 484.727 877.308 481.952 877.31 479.059V455.097C877.308 452.204 876.159 449.429 874.117 447.383C872.074 445.338 869.304 444.187 866.416 444.185H825.942C825.318 444.185 824.719 443.937 824.278 443.495C823.837 443.053 823.589 442.453 823.589 441.828C823.589 441.203 823.837 440.603 824.278 440.161C824.719 439.719 825.318 439.471 825.942 439.471H866.391C870.527 439.475 874.492 441.123 877.417 444.053C880.341 446.982 881.986 450.954 881.991 455.097V479.059C881.986 483.202 880.341 487.174 877.417 490.103C874.492 493.033 870.527 494.681 866.391 494.685H853.493L852.516 511.483C852.481 512.084 852.217 512.648 851.78 513.061C851.342 513.473 850.764 513.702 850.163 513.701H850.184Z" fill="#2F80F6"/>
<path d="M814.711 494.685C810.574 494.681 806.609 493.033 803.684 490.103C800.76 487.174 799.115 483.202 799.11 479.059V455.097C799.115 450.954 800.76 446.982 803.684 444.053C806.609 441.123 810.574 439.475 814.711 439.471H825.941C826.565 439.471 827.164 439.719 827.605 440.161C828.047 440.603 828.294 441.203 828.294 441.828C828.294 442.453 828.047 443.053 827.605 443.495C827.164 443.937 826.565 444.185 825.941 444.185H814.711C811.822 444.187 809.052 445.338 807.01 447.383C804.967 449.429 803.819 452.204 803.817 455.097V479.059C803.817 481.954 804.964 484.731 807.007 486.779C809.049 488.828 811.82 489.98 814.711 489.984C815.335 489.984 815.933 490.232 816.374 490.674C816.816 491.116 817.064 491.716 817.064 492.341C817.064 492.966 816.816 493.565 816.374 494.007C815.933 494.449 815.335 494.698 814.711 494.698V494.685Z" fill="#0047AD"/>
<path d="M861.612 459.887H819.096C818.472 459.887 817.874 459.639 817.432 459.196C816.991 458.754 816.743 458.155 816.743 457.53C816.743 456.905 816.991 456.305 817.432 455.863C817.874 455.421 818.472 455.173 819.096 455.173H861.612C862.236 455.173 862.834 455.421 863.276 455.863C863.717 456.305 863.965 456.905 863.965 457.53C863.965 458.155 863.717 458.754 863.276 459.196C862.834 459.639 862.236 459.887 861.612 459.887V459.887Z" fill="#FFCD38"/>
<path d="M861.566 469.589H819.05C818.426 469.589 817.828 469.341 817.386 468.898C816.945 468.456 816.697 467.857 816.697 467.232C816.697 466.607 816.945 466.007 817.386 465.565C817.828 465.123 818.426 464.875 819.05 464.875H861.566C862.19 464.875 862.788 465.123 863.23 465.565C863.671 466.007 863.919 466.607 863.919 467.232C863.919 467.857 863.671 468.456 863.23 468.898C862.788 469.341 862.19 469.589 861.566 469.589V469.589Z" fill="#00C98A"/>
<path d="M861.524 479.295H819.008C818.384 479.295 817.786 479.047 817.344 478.605C816.903 478.163 816.655 477.563 816.655 476.938C816.655 476.313 816.903 475.714 817.344 475.272C817.786 474.83 818.384 474.581 819.008 474.581H861.524C862.148 474.581 862.746 474.83 863.188 475.272C863.629 475.714 863.877 476.313 863.877 476.938C863.877 477.563 863.629 478.163 863.188 478.605C862.746 479.047 862.148 479.295 861.524 479.295V479.295Z" fill="#CCCCCC"/>
<path d="M446.247 606.522C445.761 606.523 445.287 606.376 444.887 606.1L425.246 592.152C424.985 591.977 424.762 591.751 424.589 591.488C424.416 591.225 424.298 590.93 424.241 590.621C424.184 590.311 424.19 589.993 424.257 589.686C424.325 589.379 424.453 589.088 424.635 588.831C424.817 588.574 425.048 588.356 425.315 588.19C425.582 588.025 425.879 587.914 426.19 587.865C426.5 587.816 426.817 587.83 427.122 587.906C427.427 587.982 427.714 588.118 427.965 588.306L447.623 602.263C448.029 602.553 448.333 602.965 448.49 603.439C448.647 603.913 448.65 604.425 448.497 604.901C448.345 605.376 448.046 605.791 447.643 606.086C447.24 606.38 446.754 606.539 446.255 606.538L446.247 606.522Z" fill="#FFCD38"/>
<path d="M438.519 607.871C433.888 607.871 427.89 606.661 421.681 602.103C408.741 592.603 409.916 579.558 409.987 579.001C410.03 578.585 410.183 578.188 410.431 577.851C410.678 577.514 411.01 577.249 411.393 577.082C411.902 576.863 423.971 571.812 436.906 581.299C449.842 590.786 448.693 603.848 448.6 604.401C448.557 604.818 448.403 605.216 448.156 605.554C447.908 605.891 447.574 606.157 447.19 606.323C444.424 607.384 441.481 607.91 438.519 607.871V607.871ZM414.676 580.957C414.803 584.204 416.036 592.093 424.48 598.304C432.924 604.515 440.834 603.317 443.957 602.465C443.835 599.236 442.606 591.334 434.154 585.115C425.701 578.896 417.77 580.118 414.676 580.957Z" fill="#00C98A"/>
<path d="M446.218 581.354C445.71 581.36 445.214 581.202 444.803 580.902C444.393 580.602 444.091 580.177 443.942 579.691C443.793 579.205 443.806 578.683 443.978 578.204C444.15 577.726 444.472 577.316 444.896 577.036L460.315 566.584C460.571 566.41 460.859 566.289 461.162 566.226C461.464 566.164 461.776 566.162 462.08 566.221C462.383 566.279 462.672 566.397 462.93 566.567C463.189 566.738 463.411 566.958 463.584 567.214C463.757 567.47 463.878 567.758 463.941 568.062C464.003 568.365 464.005 568.677 463.946 568.981C463.888 569.285 463.77 569.575 463.6 569.833C463.43 570.092 463.21 570.314 462.955 570.488L447.535 580.94C447.148 581.208 446.688 581.352 446.218 581.354V581.354Z" fill="#FFCD38"/>
<path d="M453.723 583.167C450.836 583.21 447.967 582.715 445.262 581.708C444.876 581.545 444.541 581.282 444.291 580.946C444.041 580.611 443.885 580.214 443.839 579.798C443.776 579.25 442.479 566.208 455.326 556.608C468.174 547.007 480.288 551.94 480.819 552.155C481.204 552.318 481.539 552.581 481.789 552.917C482.039 553.252 482.195 553.649 482.242 554.065C482.305 554.613 483.605 567.655 470.754 577.255C464.478 581.923 458.374 583.167 453.723 583.167ZM448.49 577.812C451.626 578.655 459.511 579.773 467.917 573.49C476.323 567.208 477.464 559.277 477.573 556.047C474.433 555.203 466.549 554.086 458.142 560.369C449.736 566.651 448.6 574.582 448.494 577.812H448.49Z" fill="#2F80F6"/>
<path d="M446.218 629.493C445.595 629.492 444.997 629.243 444.556 628.801C444.115 628.359 443.866 627.76 443.865 627.136V578.997C443.865 578.372 444.113 577.772 444.554 577.33C444.996 576.888 445.594 576.64 446.218 576.64C446.842 576.64 447.441 576.888 447.882 577.33C448.323 577.772 448.571 578.372 448.571 578.997V627.136C448.571 627.761 448.323 628.36 447.882 628.802C447.441 629.244 446.842 629.493 446.218 629.493Z" fill="#0047AD"/>
<path d="M546.362 569.333C545.738 569.331 545.14 569.083 544.699 568.641C544.258 568.199 544.01 567.6 544.009 566.976V559.555C544.009 558.93 544.257 558.33 544.698 557.888C545.139 557.446 545.738 557.198 546.362 557.198C546.986 557.198 547.584 557.446 548.026 557.888C548.467 558.33 548.715 558.93 548.715 559.555V566.971C548.716 567.281 548.655 567.588 548.537 567.875C548.419 568.161 548.246 568.421 548.027 568.641C547.809 568.86 547.549 569.034 547.263 569.153C546.978 569.272 546.671 569.333 546.362 569.333Z" fill="#FFCD38"/>
<path d="M556.537 568.544C555.919 568.544 555.326 568.301 554.886 567.867C554.446 567.434 554.194 566.844 554.184 566.225V558.918C554.184 558.293 554.432 557.693 554.873 557.251C555.314 556.809 555.913 556.561 556.537 556.561C557.161 556.561 557.759 556.809 558.201 557.251C558.642 557.693 558.89 558.293 558.89 558.918V566.225C558.88 566.844 558.627 567.434 558.187 567.867C557.747 568.301 557.154 568.544 556.537 568.544V568.544Z" fill="#FFCD38"/>
<path d="M566.723 570.197C566.411 570.194 566.102 570.129 565.815 570.006C565.528 569.883 565.267 569.705 565.049 569.481C564.83 569.258 564.658 568.993 564.542 568.703C564.425 568.413 564.367 568.102 564.37 567.789V560.2C564.37 559.575 564.618 558.975 565.059 558.533C565.501 558.091 566.099 557.843 566.723 557.843C567.347 557.843 567.946 558.091 568.387 558.533C568.829 558.975 569.076 559.575 569.076 560.2V567.789C569.082 568.421 568.838 569.029 568.397 569.48C567.955 569.932 567.354 570.189 566.723 570.197V570.197Z" fill="#FFCD38"/>
<path d="M576.902 573.094C576.585 573.087 576.273 573.017 575.983 572.889C575.694 572.761 575.432 572.577 575.213 572.347C574.995 572.118 574.824 571.847 574.71 571.551C574.595 571.256 574.541 570.94 574.549 570.623V562.844C574.549 562.218 574.796 561.619 575.238 561.177C575.679 560.735 576.278 560.487 576.902 560.487C577.526 560.487 578.124 560.735 578.566 561.177C579.007 561.619 579.255 562.218 579.255 562.844V570.623C579.263 570.94 579.209 571.256 579.095 571.553C578.981 571.849 578.81 572.12 578.591 572.35C578.373 572.58 578.111 572.764 577.821 572.893C577.531 573.021 577.219 573.091 576.902 573.098V573.094Z" fill="#FFCD38"/>
<path d="M587.085 575.902C586.46 575.902 585.862 575.654 585.421 575.212C584.979 574.77 584.731 574.17 584.731 573.545V566.128C584.731 565.503 584.979 564.904 585.421 564.462C585.862 564.02 586.46 563.771 587.085 563.771C587.709 563.771 588.307 564.02 588.748 564.462C589.19 564.904 589.438 565.503 589.438 566.128V573.545C589.438 574.17 589.19 574.77 588.748 575.212C588.307 575.654 587.709 575.902 587.085 575.902V575.902Z" fill="#FFCD38"/>
<path d="M597.263 577.449C596.96 577.455 596.659 577.402 596.377 577.291C596.095 577.181 595.837 577.016 595.618 576.805C595.4 576.595 595.225 576.344 595.103 576.066C594.982 575.788 594.916 575.488 594.91 575.185V568.017C594.91 567.392 595.158 566.793 595.599 566.351C596.041 565.909 596.639 565.66 597.263 565.66C597.887 565.66 598.486 565.909 598.927 566.351C599.368 566.793 599.616 567.392 599.616 568.017V575.156C599.614 575.459 599.551 575.76 599.432 576.039C599.314 576.319 599.141 576.572 598.924 576.785C598.708 576.997 598.451 577.165 598.17 577.278C597.889 577.392 597.588 577.448 597.284 577.445L597.263 577.449Z" fill="#FFCD38"/>
<path d="M607.446 576.395C606.822 576.395 606.223 576.147 605.782 575.705C605.341 575.263 605.093 574.663 605.093 574.038V566.685C605.093 566.06 605.341 565.46 605.782 565.018C606.223 564.576 606.822 564.328 607.446 564.328C608.07 564.328 608.668 564.576 609.11 565.018C609.551 565.46 609.799 566.06 609.799 566.685V574.038C609.799 574.663 609.551 575.263 609.11 575.705C608.668 576.147 608.07 576.395 607.446 576.395V576.395Z" fill="#FFCD38"/>
<path d="M546.362 616.055C545.731 616.046 545.13 615.787 544.689 615.335C544.248 614.883 544.003 614.275 544.009 613.643V613.643V606.054C544.009 605.428 544.257 604.829 544.698 604.387C545.139 603.945 545.738 603.697 546.362 603.697C546.986 603.697 547.585 603.945 548.026 604.387C548.467 604.829 548.715 605.428 548.715 606.054V613.643C548.719 613.956 548.661 614.266 548.545 614.557C548.429 614.848 548.257 615.112 548.039 615.336C547.821 615.56 547.561 615.739 547.274 615.862C546.987 615.986 546.679 616.051 546.366 616.055H546.362Z" fill="#FFCD38"/>
<path d="M556.536 615.439C556.224 615.437 555.915 615.372 555.628 615.25C555.341 615.128 555.08 614.95 554.862 614.726C554.643 614.503 554.471 614.239 554.354 613.949C554.238 613.659 554.179 613.349 554.183 613.036V613.036V605.467C554.183 604.842 554.431 604.243 554.872 603.801C555.313 603.359 555.912 603.11 556.536 603.11C557.16 603.11 557.758 603.359 558.2 603.801C558.641 604.243 558.889 604.842 558.889 605.467V613.036C558.893 613.349 558.835 613.659 558.719 613.949C558.603 614.24 558.431 614.504 558.213 614.728C557.995 614.951 557.735 615.13 557.448 615.252C557.161 615.375 556.852 615.44 556.54 615.444L556.536 615.439Z" fill="#FFCD38"/>
<path d="M566.723 616.54C566.418 616.544 566.115 616.488 565.832 616.375C565.549 616.263 565.29 616.095 565.072 615.882C564.853 615.669 564.679 615.415 564.558 615.134C564.438 614.853 564.374 614.551 564.37 614.246V614.246V607.032C564.37 606.407 564.618 605.807 565.059 605.365C565.501 604.923 566.099 604.675 566.723 604.675C567.347 604.675 567.946 604.923 568.387 605.365C568.828 605.807 569.076 606.407 569.076 607.032V614.246C569.067 614.863 568.815 615.45 568.373 615.881C567.932 616.311 567.339 616.548 566.723 616.54V616.54Z" fill="#FFCD38"/>
<path d="M576.902 619.289C576.29 619.3 575.698 619.068 575.257 618.642C574.816 618.217 574.561 617.634 574.549 617.02V609.852C574.549 609.227 574.797 608.628 575.238 608.186C575.679 607.744 576.278 607.495 576.902 607.495C577.526 607.495 578.125 607.744 578.566 608.186C579.007 608.628 579.255 609.227 579.255 609.852V617.02C579.243 617.634 578.988 618.217 578.547 618.642C578.106 619.068 577.514 619.3 576.902 619.289Z" fill="#FFCD38"/>
<path d="M587.085 622.826C586.46 622.826 585.862 622.578 585.421 622.136C584.979 621.694 584.731 621.095 584.731 620.469V613.053C584.731 612.428 584.979 611.828 585.421 611.386C585.862 610.944 586.46 610.696 587.085 610.696C587.709 610.696 588.307 610.944 588.748 611.386C589.19 611.828 589.438 612.428 589.438 613.053V620.469C589.436 621.094 589.188 621.693 588.747 622.135C588.306 622.577 587.708 622.825 587.085 622.826V622.826Z" fill="#FFCD38"/>
<path d="M597.263 624.64C596.626 624.625 596.02 624.358 595.579 623.898C595.138 623.437 594.897 622.82 594.91 622.181V622.181V614.448C594.91 613.823 595.158 613.224 595.599 612.782C596.04 612.34 596.639 612.091 597.263 612.091C597.887 612.091 598.485 612.34 598.927 612.782C599.368 613.224 599.616 613.823 599.616 614.448V622.181C599.623 622.498 599.567 622.812 599.452 623.107C599.338 623.401 599.166 623.67 598.948 623.899C598.729 624.127 598.468 624.31 598.179 624.437C597.89 624.564 597.578 624.633 597.263 624.64V624.64Z" fill="#FFCD38"/>
<path d="M607.446 623.193C606.822 623.193 606.223 622.945 605.782 622.503C605.341 622.061 605.093 621.461 605.093 620.836V613.407C605.093 612.782 605.341 612.182 605.782 611.74C606.223 611.298 606.822 611.05 607.446 611.05C608.07 611.05 608.668 611.298 609.11 611.74C609.551 612.182 609.799 612.782 609.799 613.407V620.836C609.799 621.461 609.551 622.061 609.11 622.503C608.668 622.945 608.07 623.193 607.446 623.193V623.193Z" fill="#FFCD38"/>
<path d="M599.052 616.734C591.155 616.734 583.363 614.377 575.71 612.096C562.766 608.208 550.559 604.536 538.377 611.86C538.02 612.075 537.613 612.191 537.196 612.197C536.78 612.203 536.369 612.097 536.007 611.892C535.645 611.686 535.343 611.388 535.134 611.027C534.925 610.667 534.815 610.257 534.815 609.84V570.555C534.816 570.149 534.921 569.75 535.121 569.397C535.321 569.044 535.609 568.749 535.956 568.54C549.915 560.145 563.713 564.294 577.057 568.304H577.141C590.031 572.179 602.209 575.834 614.395 568.519C614.752 568.304 615.159 568.188 615.575 568.182C615.991 568.177 616.401 568.281 616.764 568.486C617.126 568.691 617.428 568.989 617.638 569.349C617.848 569.708 617.96 570.118 617.961 570.534V609.819C617.96 610.225 617.855 610.625 617.655 610.979C617.456 611.333 617.168 611.629 616.82 611.838C611.468 615.096 605.314 616.791 599.052 616.734V616.734ZM553.716 602.933C561.609 602.933 569.4 605.29 577.057 607.571C589.589 611.337 601.443 614.9 613.259 608.465V574.451C600.521 580.257 587.972 576.488 575.794 572.832L575.714 572.807C563.183 569.046 551.329 565.483 539.513 571.917V605.935C543.972 603.921 548.816 602.904 553.707 602.954L553.716 602.933Z" fill="#2F80F6"/>
<path d="M598.302 624.64C592.279 624.64 585.998 622.675 575.491 618.88C562.488 614.887 553.055 615.039 547.423 615.874C541.353 616.767 538.297 618.623 538.267 618.644C537.74 618.979 537.101 619.091 536.491 618.955C535.881 618.818 535.35 618.445 535.015 617.917C534.681 617.388 534.569 616.748 534.705 616.137C534.841 615.526 535.214 614.995 535.742 614.659C536.306 614.301 549.767 606.037 576.923 614.394L577.028 614.432C597.284 621.726 600.601 621.38 614.458 615.608C615.035 615.368 615.683 615.366 616.261 615.605C616.838 615.843 617.297 616.302 617.538 616.879C617.778 617.457 617.779 618.106 617.541 618.685C617.303 619.263 616.845 619.723 616.268 619.964C608.687 623.117 603.594 624.64 598.302 624.64Z" fill="#0047AD"/>
<path d="M598.413 570.518C592.389 570.518 586.113 568.553 575.602 564.758C562.599 560.765 553.165 560.917 547.533 561.752C541.463 562.645 538.407 564.501 538.377 564.522C537.851 564.84 537.222 564.94 536.623 564.799C536.025 564.659 535.505 564.289 535.175 563.77C534.845 563.25 534.732 562.622 534.858 562.02C534.984 561.417 535.341 560.888 535.852 560.546C536.412 560.192 549.873 551.923 577.029 560.284L577.134 560.318C597.39 567.612 600.707 567.267 614.564 561.499C615.14 561.258 615.788 561.257 616.365 561.495C616.942 561.733 617.401 562.191 617.641 562.768C617.881 563.345 617.883 563.994 617.645 564.572C617.407 565.15 616.95 565.61 616.374 565.85C608.797 569.004 603.683 570.518 598.413 570.518Z" fill="#0047AD"/>
<path d="M569.244 599.337C568.62 599.337 568.022 599.088 567.581 598.646C567.139 598.204 566.891 597.605 566.891 596.98V583.23C566.885 583.122 566.885 583.014 566.891 582.905C566.848 582.599 566.865 582.286 566.943 581.986C567.02 581.686 567.156 581.404 567.342 581.157C567.528 580.909 567.761 580.701 568.027 580.544C568.294 580.387 568.589 580.284 568.895 580.241C569.335 580.177 569.783 580.241 570.187 580.426L586.979 587.961C587.396 588.151 587.749 588.459 587.993 588.847C588.238 589.235 588.365 589.686 588.357 590.145C588.349 590.604 588.208 591.051 587.951 591.431C587.693 591.81 587.331 592.107 586.907 592.283L570.116 599.164C569.839 599.277 569.543 599.336 569.244 599.337V599.337ZM571.598 586.194V593.468L580.063 589.993L571.598 586.194Z" fill="#00C98A"/>
<path d="M663.974 587.687C663.557 587.686 663.148 587.574 662.788 587.363C662.428 587.152 662.131 586.849 661.927 586.484C661.722 586.12 661.618 585.708 661.625 585.29C661.632 584.873 661.75 584.464 661.966 584.107C666.177 577.149 672.106 571.396 679.183 567.401C686.259 563.407 694.244 561.306 702.366 561.302C710.489 561.299 718.476 563.391 725.556 567.379C732.636 571.367 738.571 577.115 742.788 584.069C743.113 584.603 743.213 585.244 743.065 585.852C742.918 586.46 742.536 586.984 742.003 587.309C741.47 587.635 740.829 587.735 740.223 587.587C739.616 587.44 739.093 587.057 738.768 586.523C734.971 580.26 729.628 575.083 723.252 571.49C716.877 567.898 709.685 566.011 702.37 566.013C695.055 566.015 687.864 567.905 681.491 571.5C675.117 575.095 669.776 580.275 665.982 586.54C665.774 586.888 665.48 587.176 665.129 587.377C664.777 587.578 664.379 587.685 663.974 587.687V587.687Z" fill="#FFCD38"/>
<path d="M676.505 595.297C675.881 595.296 675.282 595.047 674.841 594.604C674.4 594.162 674.152 593.562 674.152 592.936C674.156 592.505 674.275 592.083 674.498 591.713C677.404 586.911 681.497 582.94 686.381 580.183C691.265 577.425 696.776 575.975 702.383 575.971C707.989 575.967 713.502 577.41 718.39 580.161C723.278 582.912 727.376 586.877 730.29 591.676C730.456 591.94 730.569 592.235 730.62 592.544C730.672 592.852 730.662 593.168 730.59 593.472C730.519 593.777 730.388 594.064 730.205 594.317C730.021 594.57 729.789 594.785 729.523 594.947C729.256 595.11 728.959 595.217 728.651 595.264C728.342 595.311 728.027 595.295 727.724 595.219C727.421 595.142 727.137 595.006 726.887 594.819C726.637 594.631 726.427 594.395 726.27 594.125C723.776 590.018 720.269 586.624 716.085 584.269C711.901 581.915 707.182 580.68 702.383 580.684C697.584 580.688 692.867 581.93 688.687 584.291C684.507 586.652 681.004 590.052 678.518 594.163C678.308 594.509 678.012 594.796 677.66 594.994C677.307 595.193 676.91 595.298 676.505 595.297V595.297Z" fill="#00C98A"/>
<path d="M702.381 618.585C700.814 618.586 699.275 618.176 697.916 617.395C696.557 616.615 695.426 615.491 694.637 614.136C693.847 612.78 693.426 611.242 693.415 609.673C693.405 608.103 693.805 606.559 694.577 605.193C694.896 604.673 695.404 604.297 695.995 604.144C696.585 603.992 697.212 604.075 697.742 604.376C698.273 604.678 698.666 605.173 698.838 605.759C699.011 606.345 698.95 606.975 698.668 607.517C698.302 608.167 698.113 608.902 698.12 609.648C698.126 610.395 698.328 611.126 698.705 611.77C699.083 612.414 699.622 612.948 700.269 613.317C700.916 613.687 701.649 613.881 702.394 613.878C703.139 613.876 703.871 613.677 704.516 613.303C705.16 612.929 705.696 612.392 706.069 611.745C706.441 611.099 706.638 610.366 706.64 609.619C706.641 608.873 706.447 608.139 706.077 607.491C705.786 606.95 705.717 606.317 705.884 605.726C706.052 605.135 706.443 604.632 706.975 604.325C707.507 604.018 708.137 603.931 708.731 604.082C709.326 604.233 709.839 604.611 710.16 605.134C710.942 606.5 711.352 608.048 711.349 609.622C711.346 611.197 710.929 612.743 710.141 614.106C709.353 615.468 708.222 616.599 706.86 617.385C705.497 618.171 703.953 618.585 702.381 618.585Z" fill="#2F80F6"/>
<path d="M687.976 602.284C687.559 602.283 687.15 602.172 686.79 601.96C686.43 601.749 686.133 601.446 685.929 601.082C685.724 600.717 685.62 600.305 685.627 599.887C685.634 599.47 685.752 599.061 685.968 598.704C687.677 595.88 690.082 593.544 692.953 591.922C695.824 590.299 699.064 589.445 702.361 589.44C705.657 589.436 708.899 590.282 711.775 591.898C714.65 593.513 717.061 595.842 718.777 598.662C719.08 599.195 719.164 599.825 719.011 600.418C718.859 601.012 718.481 601.523 717.958 601.842C717.436 602.161 716.81 602.264 716.213 602.128C715.616 601.993 715.095 601.63 714.761 601.116C713.465 598.988 711.645 597.23 709.474 596.011C707.303 594.792 704.856 594.154 702.367 594.157C699.879 594.16 697.433 594.805 695.266 596.03C693.098 597.255 691.282 599.018 689.993 601.15C689.782 601.496 689.485 601.782 689.132 601.98C688.779 602.179 688.381 602.284 687.976 602.284V602.284Z" fill="#0047AD"/>
<path d="M840.477 611.109C838.209 611.11 835.991 610.437 834.105 609.175C832.219 607.914 830.748 606.12 829.88 604.022C829.011 601.923 828.784 599.614 829.226 597.385C829.668 595.157 830.759 593.11 832.363 591.503C833.966 589.897 836.009 588.802 838.234 588.359C840.458 587.915 842.764 588.143 844.86 589.012C846.955 589.881 848.746 591.353 850.006 593.242C851.266 595.131 851.939 597.352 851.939 599.624V599.624C851.937 602.668 850.729 605.588 848.58 607.741C846.431 609.894 843.516 611.106 840.477 611.109V611.109ZM840.477 593.316C839.228 593.316 838.007 593.687 836.969 594.382C835.93 595.077 835.121 596.064 834.643 597.22C834.165 598.376 834.04 599.647 834.284 600.874C834.527 602.101 835.129 603.228 836.012 604.113C836.895 604.997 838.02 605.599 839.245 605.843C840.47 606.087 841.739 605.962 842.893 605.484C844.047 605.005 845.033 604.194 845.727 603.154C846.421 602.114 846.791 600.891 846.791 599.64C846.791 597.963 846.126 596.354 844.941 595.168C843.757 593.982 842.151 593.316 840.477 593.316Z" fill="#00C98A"/>
<path d="M818.532 600.454H803.841C803.157 600.454 802.5 600.182 802.017 599.697C801.533 599.212 801.261 598.555 801.261 597.869C801.261 574.582 816.642 562.844 831.034 559.622C831.704 559.473 832.406 559.596 832.985 559.965C833.564 560.334 833.973 560.918 834.122 561.589C834.271 562.26 834.148 562.963 833.779 563.543C833.411 564.123 832.828 564.533 832.158 564.682C824.846 566.318 818.591 569.978 814.087 575.286C809.494 580.675 806.931 587.4 806.51 595.319H816.078C816.701 588.151 819.955 582.092 825.394 578.111C831.821 573.397 840.729 572.065 848.638 574.595C848.961 574.698 849.26 574.864 849.519 575.083C849.778 575.302 849.991 575.57 850.146 575.872C850.302 576.174 850.396 576.503 850.425 576.841C850.453 577.18 850.414 577.52 850.311 577.844C850.208 578.167 850.043 578.467 849.824 578.726C849.605 578.985 849.337 579.199 849.036 579.354C848.735 579.51 848.406 579.605 848.069 579.633C847.731 579.661 847.391 579.623 847.068 579.52C840.699 577.483 833.564 578.541 828.441 582.269C825.107 584.71 821.134 589.394 821.134 597.869C821.132 598.21 821.064 598.548 820.933 598.862C820.801 599.177 820.61 599.462 820.368 599.702C820.126 599.942 819.84 600.132 819.525 600.261C819.21 600.39 818.872 600.456 818.532 600.454Z" fill="#2F80F6"/>
<path d="M877.112 600.454H862.421C861.737 600.453 861.081 600.18 860.597 599.696C860.113 599.211 859.841 598.555 859.84 597.869V597.869C859.84 584.976 850.895 580.717 847.048 579.486C846.396 579.277 845.853 578.818 845.539 578.209C845.225 577.599 845.166 576.89 845.374 576.237C845.583 575.584 846.041 575.041 846.649 574.726C847.258 574.412 847.966 574.353 848.618 574.561C858.081 577.593 864.024 585.241 864.891 595.281H874.46C873.874 585.233 869.854 576.964 862.74 571.247C854.549 564.669 843.133 562.211 832.15 564.665C831.819 564.739 831.476 564.747 831.141 564.688C830.806 564.629 830.487 564.505 830.2 564.322C829.621 563.953 829.212 563.369 829.063 562.698C828.914 562.027 829.037 561.324 829.405 560.744C829.773 560.164 830.357 559.755 831.026 559.605C843.495 556.818 856.557 559.66 865.965 567.195C872.237 572.221 879.688 581.615 879.688 597.836C879.693 598.178 879.63 598.517 879.503 598.835C879.375 599.152 879.186 599.441 878.947 599.685C878.707 599.929 878.421 600.122 878.106 600.254C877.791 600.386 877.453 600.454 877.112 600.454V600.454Z" fill="#0047AD"/>
<path d="M840.564 602.874C840.053 602.874 839.554 602.723 839.13 602.439C838.705 602.154 838.374 601.75 838.179 601.278C837.984 600.805 837.933 600.285 838.033 599.783C838.134 599.282 838.38 598.821 838.741 598.46L860.597 576.568C860.832 576.31 861.116 576.102 861.434 575.957C861.751 575.811 862.094 575.732 862.443 575.724C862.792 575.715 863.139 575.778 863.463 575.908C863.787 576.037 864.081 576.231 864.328 576.478C864.575 576.725 864.769 577.019 864.899 577.343C865.03 577.668 865.093 578.015 865.085 578.364C865.077 578.713 864.999 579.058 864.855 579.376C864.711 579.694 864.504 579.98 864.247 580.215L842.391 602.107C842.152 602.349 841.868 602.542 841.554 602.674C841.241 602.805 840.904 602.874 840.564 602.874Z" fill="#FFCD38"/>
<path d="M649.43 750.409C643.519 750.409 637.741 748.653 632.826 745.364C627.911 742.074 624.08 737.399 621.818 731.929C619.556 726.459 618.964 720.439 620.117 714.632C621.27 708.825 624.117 703.491 628.297 699.304C632.477 695.117 637.802 692.266 643.599 691.111C649.397 689.956 655.406 690.549 660.867 692.815C666.329 695.081 670.996 698.918 674.28 703.841C677.564 708.764 679.317 714.552 679.317 720.473C679.309 728.41 676.158 736.02 670.555 741.632C664.952 747.245 657.354 750.401 649.43 750.409ZM649.43 695.262C644.452 695.263 639.585 696.743 635.446 699.514C631.307 702.285 628.081 706.223 626.177 710.831C624.272 715.438 623.774 720.508 624.746 725.398C625.718 730.289 628.116 734.781 631.636 738.307C635.157 741.833 639.642 744.234 644.525 745.207C649.408 746.179 654.469 745.68 659.068 743.771C663.668 741.863 667.599 738.631 670.365 734.485C673.131 730.338 674.607 725.463 674.607 720.477C674.597 713.792 671.941 707.384 667.221 702.657C662.502 697.931 656.104 695.271 649.43 695.262V695.262Z" fill="#2F80F6"/>
<path d="M640.027 739.122C637.9 739.127 635.851 738.324 634.293 736.874V736.874L633.658 736.284C632.016 734.756 631.046 732.638 630.961 730.395C630.876 728.152 631.682 725.967 633.203 724.318L651.426 704.619C652.951 702.975 655.064 702.003 657.303 701.918C659.542 701.833 661.723 702.64 663.368 704.163L664.004 704.754C665.645 706.28 666.616 708.397 666.703 710.639C666.789 712.881 665.985 715.066 664.467 716.716L646.248 736.423C645.494 737.243 644.585 737.904 643.573 738.368C642.561 738.832 641.467 739.09 640.355 739.126L640.027 739.122ZM657.631 706.622C657.115 706.622 656.604 706.73 656.132 706.936C655.659 707.143 655.233 707.445 654.882 707.823L636.655 727.522C635.981 728.253 635.624 729.221 635.663 730.215C635.702 731.209 636.133 732.147 636.861 732.822L637.497 733.413C638.227 734.086 639.193 734.443 640.184 734.405C641.176 734.367 642.112 733.938 642.788 733.21L661.011 713.511C661.681 712.779 662.036 711.812 661.998 710.82C661.96 709.827 661.533 708.89 660.809 708.211L660.173 707.621C659.483 706.977 658.574 706.62 657.631 706.622V706.622Z" fill="#0047AD"/>
<path d="M656.658 715.337C655.879 715.337 655.124 715.067 654.522 714.572C653.919 714.078 653.507 713.389 653.354 712.624C653.202 711.859 653.319 711.064 653.686 710.376C654.052 709.687 654.646 709.148 655.365 708.848C656.085 708.549 656.886 708.509 657.631 708.735C658.377 708.961 659.021 709.439 659.455 710.087C659.888 710.735 660.084 711.514 660.008 712.291C659.933 713.067 659.591 713.794 659.041 714.346C658.728 714.66 658.357 714.909 657.948 715.079C657.539 715.249 657.101 715.337 656.658 715.337ZM656.658 710.623C656.394 710.621 656.135 710.698 655.915 710.844C655.694 710.99 655.522 711.198 655.419 711.442C655.317 711.686 655.289 711.955 655.34 712.215C655.391 712.475 655.517 712.714 655.703 712.902C655.889 713.089 656.127 713.218 656.386 713.27C656.645 713.322 656.914 713.296 657.158 713.195C657.403 713.094 657.612 712.923 657.759 712.703C657.906 712.483 657.984 712.224 657.984 711.96C657.985 711.784 657.952 711.61 657.885 711.448C657.819 711.286 657.721 711.139 657.597 711.015C657.348 710.765 657.01 710.624 656.658 710.623Z" fill="#FFCD38"/>
<path d="M619.791 677.212C619.791 680.231 617.939 682.183 615.127 682.183C612.315 682.183 610.459 680.218 610.459 677.212C610.459 674.206 612.315 672.245 615.127 672.245C617.939 672.245 619.791 674.193 619.791 677.212ZM612.778 677.212C612.778 678.722 613.46 680.164 615.131 680.164C616.803 680.164 617.485 678.705 617.485 677.212C617.485 675.719 616.807 674.261 615.131 674.261C613.456 674.261 612.791 675.715 612.791 677.212H612.778Z" fill="#CCCCCC"/>
<path d="M620.604 673.54C620.599 673.402 620.621 673.266 620.668 673.137C620.716 673.008 620.789 672.891 620.883 672.79C620.976 672.69 621.089 672.609 621.213 672.553C621.338 672.496 621.473 672.465 621.61 672.46H624.977C625.231 672.43 625.485 672.502 625.686 672.661C625.886 672.819 626.016 673.05 626.046 673.303C626.05 673.353 626.05 673.402 626.046 673.451C626.059 673.705 625.971 673.954 625.802 674.143C625.632 674.333 625.395 674.448 625.141 674.463C625.084 674.467 625.026 674.467 624.969 674.463H622.738V676.15H624.699C624.833 676.134 624.968 676.146 625.097 676.184C625.225 676.222 625.345 676.285 625.449 676.37C625.553 676.455 625.639 676.56 625.702 676.679C625.765 676.798 625.803 676.928 625.815 677.062C625.827 677.196 625.812 677.331 625.771 677.459C625.73 677.587 625.663 677.706 625.576 677.808C625.488 677.91 625.381 677.993 625.261 678.053C625.141 678.113 625.01 678.148 624.876 678.157H622.738V680.906C622.75 681.19 622.651 681.468 622.461 681.679C622.271 681.89 622.006 682.018 621.722 682.036C621.439 682.053 621.16 681.958 620.946 681.771C620.732 681.584 620.6 681.32 620.578 681.036C620.574 680.993 620.574 680.949 620.578 680.906L620.604 673.54Z" fill="#CCCCCC"/>
<path d="M626.527 673.54C626.522 673.402 626.544 673.266 626.591 673.137C626.639 673.008 626.712 672.891 626.806 672.79C626.899 672.69 627.011 672.609 627.136 672.553C627.261 672.496 627.396 672.465 627.533 672.46H630.9C631.026 672.445 631.154 672.455 631.276 672.489C631.398 672.523 631.512 672.581 631.611 672.659C631.711 672.737 631.794 672.834 631.857 672.945C631.919 673.056 631.959 673.177 631.974 673.303C631.978 673.353 631.978 673.402 631.974 673.451C631.986 673.705 631.898 673.954 631.729 674.143C631.559 674.333 631.322 674.448 631.069 674.463C631.01 674.467 630.951 674.467 630.892 674.463H628.686V676.15H630.648C630.781 676.134 630.916 676.146 631.045 676.184C631.174 676.222 631.294 676.285 631.398 676.37C631.502 676.455 631.588 676.56 631.65 676.679C631.713 676.798 631.752 676.928 631.763 677.062C631.775 677.196 631.76 677.331 631.719 677.459C631.678 677.587 631.612 677.706 631.524 677.808C631.437 677.91 631.33 677.993 631.21 678.053C631.089 678.113 630.958 678.148 630.824 678.157H628.686V680.906C628.699 681.19 628.599 681.468 628.409 681.679C628.219 681.89 627.954 682.018 627.671 682.036C627.387 682.053 627.108 681.958 626.894 681.771C626.68 681.584 626.548 681.32 626.527 681.036C626.522 680.993 626.522 680.949 626.527 680.906V673.54Z" fill="#CCCCCC"/>
<path d="M679.402 677.212C679.402 680.231 677.545 682.183 674.733 682.183C671.921 682.183 670.069 680.218 670.069 677.212C670.069 674.206 671.921 672.245 674.733 672.245C677.545 672.245 679.402 674.193 679.402 677.212ZM672.389 677.212C672.389 678.722 673.066 680.164 674.742 680.164C676.417 680.164 677.095 678.705 677.095 677.212C677.095 675.719 676.417 674.261 674.742 674.261C673.066 674.261 672.401 675.715 672.401 677.212H672.389Z" fill="#2F80F6"/>
<path d="M680.214 673.523C680.198 673.389 680.209 673.253 680.246 673.123C680.283 672.993 680.345 672.872 680.428 672.766C680.512 672.66 680.616 672.572 680.734 672.506C680.851 672.441 680.981 672.399 681.115 672.384C681.174 672.38 681.233 672.38 681.292 672.384C681.864 672.384 682.075 672.641 682.786 673.565L686.368 678.064H686.398V673.552C686.387 673.409 686.405 673.265 686.45 673.128C686.495 672.992 686.567 672.866 686.661 672.758C686.755 672.649 686.87 672.561 686.999 672.497C687.128 672.434 687.268 672.397 687.411 672.388C687.554 672.379 687.698 672.399 687.833 672.447C687.969 672.494 688.094 672.568 688.2 672.664C688.307 672.761 688.393 672.877 688.455 673.007C688.516 673.137 688.551 673.278 688.557 673.421C688.561 673.465 688.561 673.509 688.557 673.552V680.927C688.573 681.061 688.562 681.197 688.526 681.326C688.489 681.456 688.427 681.578 688.343 681.683C688.259 681.789 688.156 681.877 688.038 681.943C687.92 682.008 687.79 682.05 687.656 682.065C687.598 682.071 687.538 682.071 687.48 682.065C686.907 682.065 686.697 681.808 685.985 680.885L682.403 676.386H682.374V680.897C682.386 681.181 682.287 681.459 682.097 681.67C681.907 681.882 681.641 682.01 681.358 682.027C681.075 682.044 680.796 681.949 680.582 681.762C680.368 681.575 680.236 681.311 680.214 681.028C680.21 680.984 680.21 680.941 680.214 680.897V673.523Z" fill="#2F80F6"/>
<path d="M620.385 700.837C619.946 700.834 619.517 700.71 619.146 700.476C618.774 700.243 618.475 699.911 618.281 699.516C618.088 699.122 618.008 698.682 618.051 698.245C618.094 697.807 618.258 697.391 618.524 697.042C618.739 696.768 618.945 696.494 619.177 696.224C619.578 695.758 620.145 695.468 620.757 695.415C621.368 695.362 621.977 695.551 622.451 695.941C622.926 696.331 623.23 696.892 623.297 697.503C623.365 698.115 623.192 698.728 622.814 699.213C622.624 699.449 622.431 699.69 622.241 699.934C622.021 700.217 621.739 700.445 621.417 700.601C621.096 700.757 620.742 700.838 620.385 700.837V700.837Z" fill="#00C98A"/>
<path d="M627.634 693.77C627.138 693.77 626.655 693.612 626.253 693.321C625.852 693.029 625.553 692.617 625.399 692.145C625.245 691.673 625.243 691.164 625.395 690.691C625.547 690.218 625.845 689.805 626.245 689.511C626.767 689.119 627.302 688.752 627.845 688.394C628.365 688.086 628.983 687.991 629.571 688.127C630.159 688.263 630.673 688.62 631.006 689.125C631.338 689.63 631.464 690.244 631.358 690.839C631.251 691.434 630.92 691.966 630.433 692.324C629.954 692.64 629.482 692.969 629.023 693.306C628.621 693.605 628.135 693.767 627.634 693.77V693.77ZM670.482 693.686C669.984 693.687 669.499 693.529 669.097 693.234C668.638 692.901 668.163 692.577 667.683 692.26C667.153 691.95 666.766 691.444 666.603 690.85C666.441 690.257 666.516 689.624 666.813 689.086C667.11 688.548 667.606 688.147 668.194 687.97C668.782 687.793 669.416 687.852 669.96 688.137C670.065 688.194 670.165 688.26 670.259 688.335C670.806 688.689 671.345 689.064 671.863 689.444C672.265 689.737 672.563 690.149 672.717 690.623C672.87 691.096 672.87 691.606 672.716 692.079C672.562 692.552 672.263 692.965 671.861 693.257C671.459 693.549 670.975 693.707 670.478 693.707L670.482 693.686ZM637.341 688.685C636.784 688.685 636.244 688.487 635.819 688.127C635.394 687.766 635.11 687.265 635.019 686.715C634.927 686.164 635.034 685.599 635.32 685.119C635.605 684.64 636.052 684.278 636.579 684.097C637.194 683.887 637.842 683.705 638.444 683.511C639.045 683.34 639.689 683.414 640.235 683.718C640.781 684.022 641.183 684.531 641.355 685.133C641.526 685.734 641.452 686.379 641.148 686.926C640.845 687.473 640.337 687.877 639.736 688.048C639.193 688.204 638.646 688.377 638.103 688.563C637.859 688.647 637.603 688.689 637.345 688.689L637.341 688.685ZM660.75 688.643C660.493 688.643 660.239 688.6 659.996 688.516C659.466 688.339 658.915 688.166 658.363 688.01C657.786 687.823 657.303 687.419 657.015 686.883C656.728 686.347 656.659 685.721 656.822 685.135C656.985 684.549 657.368 684.049 657.89 683.74C658.413 683.43 659.035 683.335 659.626 683.473C660.257 683.651 660.889 683.849 661.495 684.051C662.025 684.229 662.474 684.59 662.763 685.07C663.051 685.549 663.16 686.116 663.069 686.668C662.978 687.22 662.694 687.722 662.268 688.084C661.841 688.446 661.3 688.644 660.741 688.643H660.75ZM648.122 686.75C647.497 686.758 646.896 686.518 646.448 686.082C646.001 685.646 645.745 685.049 645.737 684.424C645.729 683.799 645.968 683.196 646.404 682.748C646.839 682.3 647.434 682.044 648.058 682.036H650.02C650.644 682.043 651.24 682.298 651.676 682.745C652.112 683.193 652.353 683.795 652.346 684.42C652.338 685.045 652.084 685.642 651.637 686.079C651.191 686.516 650.589 686.757 649.965 686.75H648.122V686.75Z" fill="#00C98A"/>
<path d="M677.764 700.735C677.407 700.735 677.055 700.653 676.734 700.496C676.413 700.339 676.132 700.111 675.912 699.829C675.723 699.584 675.533 699.348 675.34 699.112C675.143 698.873 674.995 698.598 674.904 698.302C674.814 698.006 674.782 697.696 674.811 697.387C674.871 696.765 675.174 696.192 675.655 695.794C676.137 695.396 676.756 695.205 677.377 695.265C677.998 695.324 678.571 695.628 678.968 696.11C679.187 696.371 679.389 696.645 679.621 696.928C679.888 697.276 680.053 697.692 680.097 698.129C680.141 698.566 680.063 699.006 679.87 699.401C679.677 699.796 679.379 700.128 679.007 700.362C678.636 700.595 678.207 700.72 677.768 700.723L677.764 700.735Z" fill="#00C98A"/>
</g>
<defs>
<clipPath id="clip0_22_1249">
<rect width="494" height="459" fill="white" transform="translate(405 318)"/>
</clipPath>
</defs>
</svg>
