<svg width="1304" height="341" viewBox="0 0 1304 341" fill="none" xmlns="http://www.w3.org/2000/svg">
<g clip-path="url(#clip0_39_4884)">
<rect width="1304" height="341" fill="white"/>
<g clip-path="url(#clip1_39_4884)">
<path d="M279.387 127.516H360.287C371.757 127.516 382.758 132.085 390.868 140.218C398.979 148.352 403.536 159.383 403.536 170.885V241H279.387V127.516Z" fill="#19FFC1"/>
<path d="M300.027 150.646V191.125H290.656V174.524H272.323V191.125H262.977V150.646H272.323V166.597H290.656V150.646H300.027Z" fill="black"/>
<path d="M317.806 189.197C314.522 187.43 311.777 184.802 309.863 181.595C307.95 178.387 306.939 174.72 306.939 170.982C306.939 167.244 307.95 163.577 309.863 160.369C311.777 157.161 314.522 154.534 317.806 152.767C321.301 150.926 325.199 149.99 329.147 150.044C333.079 149.987 336.963 150.923 340.44 152.767C343.731 154.529 346.482 157.154 348.401 160.362C350.32 163.57 351.333 167.241 351.333 170.982C351.333 174.723 350.32 178.394 348.401 181.602C346.482 184.81 343.731 187.435 340.44 189.197C336.963 191.041 333.079 191.977 329.147 191.92C325.199 191.974 321.301 191.038 317.806 189.197ZM335.61 182.282C337.516 181.203 339.081 179.608 340.127 177.68C341.256 175.632 341.828 173.322 341.785 170.982C341.825 168.635 341.254 166.318 340.127 164.26C339.08 162.339 337.515 160.752 335.61 159.682C333.629 158.591 331.406 158.02 329.147 158.02C326.887 158.02 324.664 158.591 322.683 159.682C320.779 160.752 319.214 162.339 318.166 164.26C317.04 166.318 316.469 168.635 316.508 170.982C316.466 173.322 317.038 175.632 318.166 177.68C319.212 179.608 320.777 181.203 322.683 182.282C324.669 183.358 326.89 183.921 329.147 183.921C331.403 183.921 333.625 183.358 335.61 182.282V182.282Z" fill="black"/>
<path d="M267.829 230.399C266.148 228.561 264.856 226.4 264.03 224.048C263.205 221.696 262.862 219.201 263.023 216.713V194.016H272.37V216.327C272.37 223.572 275.365 227.194 281.356 227.194C282.597 227.279 283.842 227.088 285.001 226.634C286.16 226.18 287.205 225.474 288.06 224.568C289.822 222.2 290.675 219.275 290.462 216.327V194.016H299.689V216.689C299.566 220.323 298.415 223.846 296.37 226.848C294.325 229.85 291.47 232.207 288.138 233.642C284.807 235.077 281.138 235.532 277.558 234.953C273.979 234.375 270.637 232.787 267.925 230.374L267.829 230.399Z" fill="black"/>
<path d="M315.38 233.916C312.788 233.241 310.344 232.089 308.172 230.519L311.343 223.459C313.224 224.812 315.309 225.853 317.518 226.543C319.845 227.307 322.278 227.698 324.727 227.7C326.761 227.833 328.794 227.417 330.613 226.495C331.183 226.194 331.66 225.744 331.994 225.192C332.329 224.641 332.507 224.009 332.512 223.363C332.518 222.902 332.42 222.445 332.224 222.028C332.029 221.61 331.741 221.243 331.382 220.954C330.528 220.26 329.549 219.736 328.499 219.412C327.322 219.026 325.736 218.616 323.693 218.159C321.136 217.575 318.616 216.835 316.149 215.942C314.191 215.228 312.453 214.016 311.103 212.424C309.62 210.602 308.866 208.292 308.989 205.943C308.963 203.671 309.625 201.445 310.887 199.558C312.324 197.523 314.319 195.949 316.629 195.028C319.602 193.819 322.794 193.245 326 193.342C328.542 193.342 331.076 193.649 333.545 194.257C335.825 194.806 338.006 195.708 340.008 196.932L337.125 204.16C333.743 202.136 329.89 201.039 325.952 200.979C323.932 200.839 321.914 201.282 320.137 202.256C319.56 202.602 319.084 203.093 318.755 203.68C318.426 204.268 318.257 204.932 318.263 205.606C318.26 206.281 318.466 206.941 318.853 207.494C319.241 208.046 319.791 208.464 320.426 208.69C322.554 209.582 324.768 210.252 327.033 210.689C329.594 211.282 332.121 212.014 334.602 212.882C336.535 213.619 338.265 214.809 339.648 216.352C341.117 218.161 341.862 220.454 341.738 222.785C341.749 225.043 341.079 227.252 339.816 229.122C338.36 231.158 336.349 232.731 334.025 233.651C331.03 234.841 327.827 235.415 324.607 235.338C321.479 235.304 318.373 234.825 315.38 233.916V233.916Z" fill="black"/>
<path d="M380.085 227.001V234.519H348.85V194.016H379.34V201.534H358.124V210.328H376.865V217.556H358.124V226.929L380.085 227.001Z" fill="black"/>
<path d="M387.75 232.905C387.22 232.376 386.804 231.744 386.527 231.048C386.25 230.351 386.119 229.606 386.14 228.857C386.107 228.11 386.234 227.364 386.511 226.67C386.789 225.977 387.211 225.35 387.75 224.833C388.838 223.841 390.256 223.291 391.726 223.291C393.197 223.291 394.615 223.841 395.703 224.833C396.241 225.35 396.663 225.977 396.941 226.67C397.219 227.364 397.345 228.11 397.313 228.857C397.327 229.98 397.007 231.082 396.394 232.021C395.78 232.96 394.9 233.695 393.868 234.129C392.835 234.564 391.697 234.68 390.598 234.462C389.499 234.244 388.491 233.701 387.702 232.905H387.75Z" fill="black"/>
<path d="M263 107.277H281.333C285.343 107.168 289.323 107.992 292.962 109.686C296.194 111.249 298.912 113.707 300.795 116.77C302.636 120.011 303.604 123.677 303.604 127.407C303.604 131.138 302.636 134.804 300.795 138.045C298.926 141.119 296.204 143.581 292.962 145.129C289.337 146.875 285.353 147.742 281.333 147.659H263V107.277ZM280.876 140.069C284.399 140.236 287.848 139.017 290.487 136.672C292.801 134.183 294.088 130.907 294.088 127.504C294.088 124.101 292.801 120.825 290.487 118.336C287.839 116.008 284.394 114.799 280.876 114.963H272.347V140.069H280.876Z" fill="black"/>
<path d="M336.643 139.105H317.902L314.322 147.779H304.711L322.707 107.301H331.934L349.978 147.779H340.175L336.643 139.105ZM333.712 131.997L327.297 116.481L320.905 131.997H333.712Z" fill="black"/>
<path d="M357.932 114.505L418 100.048V195.582L357.932 181.005V114.505Z" fill="#E5E5E5"/>
</g>
<rect x="652" width="652" height="341" fill="#19FFC1"/>
<g clip-path="url(#clip2_39_4884)">
<path d="M916.387 127.516H997.287C1008.76 127.516 1019.76 132.085 1027.87 140.218C1035.98 148.352 1040.54 159.383 1040.54 170.885V241H916.387V127.516Z" fill="#19FFC1"/>
<path d="M937.027 150.646V191.125H927.656V174.524H909.323V191.125H899.977V150.646H909.323V166.597H927.656V150.646H937.027Z" fill="white"/>
<path d="M954.806 189.197C951.522 187.43 948.777 184.802 946.863 181.595C944.95 178.387 943.939 174.72 943.939 170.982C943.939 167.244 944.95 163.577 946.863 160.369C948.777 157.161 951.522 154.534 954.806 152.767C958.301 150.926 962.199 149.99 966.147 150.044C970.079 149.987 973.963 150.923 977.44 152.767C980.731 154.529 983.482 157.154 985.401 160.362C987.32 163.57 988.333 167.241 988.333 170.982C988.333 174.723 987.32 178.394 985.401 181.602C983.482 184.81 980.731 187.435 977.44 189.197C973.963 191.041 970.079 191.977 966.147 191.92C962.199 191.974 958.301 191.038 954.806 189.197ZM972.61 182.282C974.516 181.203 976.081 179.608 977.127 177.68C978.256 175.632 978.828 173.322 978.785 170.982C978.825 168.635 978.254 166.318 977.127 164.26C976.08 162.339 974.515 160.752 972.61 159.682C970.629 158.591 968.406 158.02 966.147 158.02C963.887 158.02 961.664 158.591 959.683 159.682C957.779 160.752 956.214 162.339 955.166 164.26C954.04 166.318 953.469 168.635 953.508 170.982C953.466 173.322 954.038 175.632 955.166 177.68C956.212 179.608 957.777 181.203 959.683 182.282C961.669 183.358 963.89 183.921 966.147 183.921C968.403 183.921 970.625 183.358 972.61 182.282V182.282Z" fill="white"/>
<path d="M904.829 230.399C903.148 228.561 901.856 226.4 901.03 224.048C900.205 221.696 899.862 219.201 900.023 216.713V194.016H909.37V216.327C909.37 223.572 912.365 227.194 918.356 227.194C919.597 227.279 920.842 227.088 922.001 226.634C923.16 226.18 924.205 225.474 925.06 224.568C926.822 222.2 927.675 219.275 927.462 216.327V194.016H936.689V216.689C936.566 220.323 935.415 223.846 933.37 226.848C931.325 229.85 928.47 232.207 925.138 233.642C921.807 235.077 918.138 235.532 914.558 234.953C910.979 234.375 907.637 232.787 904.925 230.374L904.829 230.399Z" fill="white"/>
<path d="M952.38 233.916C949.788 233.241 947.344 232.089 945.172 230.519L948.343 223.459C950.224 224.812 952.309 225.853 954.518 226.543C956.845 227.307 959.278 227.698 961.727 227.7C963.761 227.833 965.794 227.417 967.613 226.495C968.183 226.194 968.66 225.744 968.994 225.192C969.329 224.641 969.507 224.009 969.512 223.363C969.518 222.902 969.42 222.445 969.224 222.028C969.029 221.61 968.741 221.243 968.382 220.954C967.528 220.26 966.549 219.736 965.499 219.412C964.322 219.026 962.736 218.616 960.693 218.159C958.136 217.575 955.616 216.835 953.149 215.942C951.191 215.228 949.453 214.016 948.103 212.424C946.62 210.602 945.866 208.292 945.989 205.943C945.963 203.671 946.625 201.445 947.887 199.558C949.324 197.523 951.319 195.949 953.629 195.028C956.602 193.819 959.794 193.245 963 193.342C965.542 193.342 968.076 193.649 970.545 194.257C972.825 194.806 975.006 195.708 977.008 196.932L974.125 204.16C970.743 202.136 966.89 201.039 962.952 200.979C960.932 200.839 958.914 201.282 957.137 202.256C956.56 202.602 956.084 203.093 955.755 203.68C955.426 204.268 955.257 204.932 955.263 205.606C955.26 206.281 955.466 206.941 955.853 207.494C956.241 208.046 956.791 208.464 957.426 208.69C959.554 209.582 961.768 210.252 964.033 210.689C966.594 211.282 969.121 212.014 971.602 212.882C973.535 213.619 975.265 214.809 976.648 216.352C978.117 218.161 978.862 220.454 978.738 222.785C978.749 225.043 978.079 227.252 976.816 229.122C975.36 231.158 973.349 232.731 971.025 233.651C968.03 234.841 964.827 235.415 961.607 235.338C958.479 235.304 955.373 234.825 952.38 233.916V233.916Z" fill="white"/>
<path d="M1017.09 227.001V234.519H985.85V194.016H1016.34V201.534H995.124V210.328H1013.87V217.556H995.124V226.929L1017.09 227.001Z" fill="white"/>
<path d="M1024.75 232.905C1024.22 232.376 1023.8 231.744 1023.53 231.048C1023.25 230.351 1023.12 229.606 1023.14 228.857C1023.11 228.11 1023.23 227.364 1023.51 226.67C1023.79 225.977 1024.21 225.35 1024.75 224.833C1025.84 223.841 1027.26 223.291 1028.73 223.291C1030.2 223.291 1031.61 223.841 1032.7 224.833C1033.24 225.35 1033.66 225.977 1033.94 226.67C1034.22 227.364 1034.35 228.11 1034.31 228.857C1034.33 229.98 1034.01 231.082 1033.39 232.021C1032.78 232.96 1031.9 233.695 1030.87 234.129C1029.84 234.564 1028.7 234.68 1027.6 234.462C1026.5 234.244 1025.49 233.701 1024.7 232.905H1024.75Z" fill="white"/>
<path d="M900 107.277H918.333C922.343 107.168 926.323 107.992 929.962 109.686C933.194 111.249 935.912 113.707 937.795 116.77C939.636 120.011 940.604 123.677 940.604 127.407C940.604 131.138 939.636 134.804 937.795 138.045C935.926 141.119 933.204 143.581 929.962 145.129C926.337 146.875 922.353 147.742 918.333 147.659H900V107.277ZM917.876 140.069C921.399 140.236 924.848 139.017 927.487 136.672C929.801 134.183 931.088 130.907 931.088 127.504C931.088 124.101 929.801 120.825 927.487 118.336C924.839 116.008 921.394 114.799 917.876 114.963H909.347V140.069H917.876Z" fill="white"/>
<path d="M973.643 139.105H954.902L951.322 147.779H941.711L959.707 107.301H968.934L986.978 147.779H977.175L973.643 139.105ZM970.712 131.997L964.297 116.481L957.905 131.997H970.712Z" fill="white"/>
<path d="M994.932 114.505L1055 100.048V195.582L994.932 181.005V114.505Z" fill="white"/>
</g>
</g>
<defs>
<clipPath id="clip0_39_4884">
<rect width="1304" height="341" fill="white"/>
</clipPath>
<clipPath id="clip1_39_4884">
<rect width="155" height="141" fill="white" transform="translate(263 100)"/>
</clipPath>
<clipPath id="clip2_39_4884">
<rect width="155" height="141" fill="white" transform="translate(900 100)"/>
</clipPath>
</defs>
</svg>
