<svg width="294" height="294" viewBox="0 0 294 294" fill="none" xmlns="http://www.w3.org/2000/svg">
<rect width="294" height="294" fill="white"/>
<g clip-path="url(#clip0_39_5169)">
<path d="M110.621 122.197H158.117C164.851 122.197 171.31 124.887 176.072 129.675C180.833 134.463 183.509 140.956 183.509 147.727V189H110.621V122.197Z" fill="#19FFC1"/>
<path d="M122.738 135.813V159.641H117.237V149.869H106.474V159.641H100.986V135.813H106.474V145.202H117.237V135.813H122.738Z" fill="black"/>
<path d="M133.177 158.506C131.248 157.466 129.637 155.919 128.514 154.031C127.39 152.143 126.797 149.984 126.797 147.784C126.797 145.584 127.39 143.424 128.514 141.536C129.637 139.648 131.248 138.102 133.177 137.061C135.228 135.978 137.517 135.427 139.835 135.458C142.144 135.425 144.424 135.976 146.465 137.061C148.397 138.098 150.012 139.644 151.139 141.532C152.265 143.421 152.86 145.582 152.86 147.784C152.86 149.986 152.265 152.147 151.139 154.035C150.012 155.924 148.397 157.469 146.465 158.506C144.424 159.591 142.144 160.143 139.835 160.109C137.517 160.141 135.228 159.59 133.177 158.506ZM143.629 154.436C144.748 153.8 145.667 152.862 146.281 151.727C146.944 150.521 147.28 149.161 147.255 147.784C147.278 146.402 146.943 145.038 146.281 143.827C145.666 142.696 144.747 141.762 143.629 141.132C142.466 140.49 141.161 140.153 139.835 140.153C138.508 140.153 137.203 140.49 136.04 141.132C134.922 141.762 134.003 142.696 133.388 143.827C132.727 145.038 132.391 146.402 132.415 147.784C132.39 149.161 132.726 150.521 133.388 151.727C134.002 152.862 134.921 153.8 136.04 154.436C137.206 155.069 138.51 155.4 139.835 155.4C141.16 155.4 142.464 155.069 143.629 154.436V154.436Z" fill="black"/>
<path d="M103.836 182.759C102.85 181.677 102.091 180.406 101.606 179.021C101.121 177.637 100.92 176.168 101.015 174.703V161.343H106.502V174.476C106.502 178.741 108.261 180.873 111.778 180.873C112.507 180.923 113.238 180.811 113.918 180.543C114.599 180.276 115.212 179.861 115.714 179.327C116.749 177.933 117.25 176.211 117.124 174.476V161.343H122.541V174.689C122.469 176.828 121.794 178.902 120.593 180.67C119.392 182.437 117.716 183.824 115.76 184.669C113.804 185.513 111.65 185.781 109.548 185.441C107.447 185.1 105.485 184.165 103.893 182.745L103.836 182.759Z" fill="black"/>
<path d="M131.751 184.83C130.23 184.433 128.795 183.755 127.52 182.83L129.382 178.675C130.486 179.471 131.71 180.084 133.007 180.49C134.373 180.94 135.801 181.17 137.239 181.171C138.433 181.249 139.627 181.004 140.695 180.462C141.029 180.285 141.309 180.019 141.506 179.695C141.702 179.37 141.807 178.998 141.809 178.618C141.813 178.346 141.756 178.077 141.641 177.832C141.526 177.586 141.357 177.37 141.146 177.2C140.645 176.791 140.07 176.483 139.453 176.292C138.762 176.065 137.831 175.824 136.632 175.554C135.131 175.211 133.651 174.775 132.203 174.249C131.054 173.829 130.033 173.116 129.241 172.179C128.37 171.106 127.927 169.746 127.999 168.363C127.984 167.026 128.372 165.715 129.114 164.605C129.957 163.407 131.128 162.481 132.485 161.938C134.23 161.227 136.104 160.889 137.986 160.946C139.479 160.946 140.966 161.127 142.416 161.485C143.755 161.807 145.035 162.339 146.21 163.059L144.518 167.314C142.532 166.122 140.27 165.477 137.958 165.442C136.772 165.359 135.588 165.62 134.544 166.193C134.206 166.397 133.926 166.686 133.733 167.032C133.54 167.377 133.44 167.768 133.444 168.165C133.442 168.563 133.563 168.951 133.791 169.276C134.018 169.602 134.341 169.848 134.714 169.98C135.963 170.505 137.263 170.9 138.593 171.158C140.096 171.506 141.58 171.937 143.037 172.448C144.172 172.882 145.187 173.582 145.999 174.491C146.861 175.556 147.299 176.906 147.226 178.277C147.232 179.607 146.839 180.907 146.098 182.008C145.243 183.207 144.062 184.132 142.698 184.674C140.94 185.374 139.059 185.712 137.168 185.667C135.332 185.647 133.509 185.365 131.751 184.83V184.83Z" fill="black"/>
<path d="M169.741 180.76V185.185H151.402V161.343H169.303V165.768H156.847V170.945H167.85V175.2H156.847V180.717L169.741 180.76Z" fill="black"/>
<path d="M174.239 184.234C173.928 183.923 173.684 183.551 173.521 183.141C173.359 182.731 173.282 182.292 173.294 181.851C173.275 181.412 173.349 180.973 173.512 180.565C173.675 180.156 173.923 179.787 174.239 179.483C174.878 178.899 175.71 178.575 176.574 178.575C177.437 178.575 178.27 178.899 178.908 179.483C179.224 179.787 179.472 180.156 179.635 180.565C179.798 180.973 179.873 181.412 179.853 181.851C179.862 182.512 179.674 183.161 179.314 183.714C178.954 184.267 178.437 184.699 177.831 184.955C177.225 185.211 176.556 185.279 175.911 185.151C175.266 185.022 174.674 184.703 174.211 184.234H174.239Z" fill="black"/>
<path d="M101 110.283H111.763C114.117 110.219 116.454 110.705 118.591 111.702C120.488 112.622 122.084 114.069 123.189 115.872C124.27 117.78 124.839 119.938 124.839 122.134C124.839 124.329 124.27 126.487 123.189 128.395C122.092 130.205 120.494 131.654 118.591 132.565C116.462 133.593 114.124 134.103 111.763 134.054H101V110.283ZM111.495 129.587C113.563 129.685 115.588 128.968 117.138 127.587C118.496 126.122 119.252 124.193 119.252 122.19C119.252 120.187 118.496 118.259 117.138 116.794C115.583 115.423 113.561 114.712 111.495 114.808H106.487V129.587H111.495Z" fill="black"/>
<path d="M144.236 129.019H133.233L131.131 134.125H125.488L136.054 110.297H141.471L152.065 134.125H146.309L144.236 129.019ZM142.515 124.835L138.748 115.701L134.996 124.835H142.515Z" fill="black"/>
<path d="M156.734 114.538L192 106.028V162.265L156.734 153.684V114.538Z" fill="#E5E5E5"/>
</g>
<defs>
<clipPath id="clip0_39_5169">
<rect width="91" height="83" fill="white" transform="translate(101 106)"/>
</clipPath>
</defs>
</svg>
