<svg width="294" height="294" viewBox="0 0 294 294" fill="none" xmlns="http://www.w3.org/2000/svg">
<rect width="294" height="294" fill="#19FFC1"/>
<g clip-path="url(#clip0_39_5231)">
<path d="M110.727 122.393H158.745C165.553 122.393 172.082 125.115 176.896 129.96C181.71 134.806 184.415 141.377 184.415 148.23V190H110.727V122.393Z" fill="#19FFC1"/>
<path d="M122.977 136.172V160.287H117.415V150.397H106.534V160.287H100.986V136.172H106.534V145.675H117.415V136.172H122.977Z" fill="white"/>
<path d="M133.53 159.139C131.581 158.086 129.951 156.521 128.816 154.61C127.68 152.699 127.08 150.514 127.08 148.287C127.08 146.06 127.68 143.875 128.816 141.965C129.951 140.054 131.581 138.489 133.53 137.436C135.604 136.339 137.918 135.781 140.261 135.813C142.595 135.779 144.9 136.337 146.964 137.436C148.917 138.485 150.551 140.049 151.689 141.96C152.828 143.872 153.43 146.059 153.43 148.287C153.43 150.516 152.828 152.703 151.689 154.614C150.551 156.525 148.917 158.089 146.964 159.139C144.9 160.237 142.595 160.795 140.261 160.761C137.918 160.793 135.604 160.236 133.53 159.139ZM144.098 155.019C145.229 154.376 146.158 153.426 146.779 152.278C147.449 151.057 147.788 149.681 147.763 148.287C147.786 146.889 147.447 145.508 146.779 144.282C146.157 143.138 145.228 142.193 144.098 141.555C142.922 140.906 141.602 140.565 140.261 140.565C138.92 140.565 137.601 140.906 136.425 141.555C135.295 142.193 134.365 143.138 133.744 144.282C133.075 145.508 132.736 146.889 132.76 148.287C132.735 149.681 133.074 151.057 133.744 152.278C134.365 153.426 135.294 154.376 136.425 155.019C137.603 155.66 138.922 155.995 140.261 155.995C141.601 155.995 142.919 155.66 144.098 155.019V155.019Z" fill="white"/>
<path d="M103.867 183.684C102.87 182.589 102.103 181.303 101.613 179.901C101.123 178.5 100.92 177.014 101.015 175.531V162.01H106.563V175.302C106.563 179.617 108.341 181.775 111.897 181.775C112.633 181.826 113.372 181.712 114.06 181.442C114.748 181.171 115.368 180.751 115.876 180.211C116.922 178.8 117.428 177.057 117.302 175.302V162.01H122.778V175.517C122.705 177.682 122.022 179.781 120.808 181.569C119.594 183.358 117.9 184.762 115.922 185.617C113.945 186.472 111.767 186.743 109.642 186.398C107.518 186.053 105.535 185.107 103.925 183.67L103.867 183.684Z" fill="white"/>
<path d="M132.089 185.78C130.551 185.378 129.1 184.692 127.811 183.756L129.693 179.55C130.809 180.356 132.047 180.977 133.358 181.388C134.739 181.843 136.183 182.075 137.637 182.077C138.844 182.156 140.051 181.908 141.131 181.359C141.469 181.18 141.752 180.911 141.95 180.583C142.149 180.254 142.255 179.877 142.257 179.493C142.261 179.218 142.203 178.946 142.087 178.697C141.971 178.449 141.8 178.23 141.587 178.058C141.08 177.644 140.499 177.332 139.876 177.139C139.177 176.909 138.236 176.665 137.023 176.392C135.505 176.045 134.01 175.604 132.545 175.072C131.383 174.646 130.351 173.924 129.55 172.976C128.67 171.891 128.223 170.514 128.295 169.115C128.28 167.762 128.673 166.435 129.422 165.311C130.275 164.099 131.459 163.161 132.831 162.613C134.595 161.892 136.489 161.55 138.392 161.608C139.901 161.608 141.405 161.791 142.871 162.153C144.224 162.48 145.518 163.018 146.707 163.747L144.995 168.053C142.988 166.847 140.701 166.194 138.364 166.158C137.165 166.075 135.967 166.339 134.913 166.919C134.57 167.125 134.287 167.417 134.092 167.767C133.897 168.117 133.796 168.513 133.8 168.914C133.798 169.316 133.921 169.71 134.151 170.039C134.381 170.368 134.707 170.617 135.084 170.751C136.347 171.283 137.661 171.682 139.006 171.943C140.526 172.296 142.025 172.732 143.498 173.249C144.646 173.688 145.672 174.397 146.493 175.316C147.365 176.394 147.807 177.76 147.734 179.148C147.74 180.494 147.342 181.81 146.593 182.924C145.729 184.137 144.535 185.074 143.156 185.622C141.378 186.331 139.477 186.673 137.565 186.627C135.709 186.607 133.865 186.321 132.089 185.78V185.78Z" fill="white"/>
<path d="M170.495 181.66V186.139H151.955V162.01H170.053V166.488H157.46V171.727H168.584V176.034H157.46V181.617L170.495 181.66Z" fill="white"/>
<path d="M175.044 185.177C174.73 184.862 174.483 184.485 174.319 184.071C174.155 183.656 174.076 183.212 174.089 182.765C174.07 182.32 174.145 181.876 174.31 181.463C174.474 181.05 174.725 180.676 175.044 180.368C175.69 179.777 176.532 179.45 177.405 179.45C178.278 179.45 179.119 179.777 179.765 180.368C180.085 180.676 180.335 181.05 180.5 181.463C180.665 181.876 180.74 182.32 180.72 182.765C180.729 183.434 180.539 184.091 180.175 184.651C179.811 185.21 179.289 185.648 178.676 185.907C178.063 186.166 177.387 186.235 176.735 186.105C176.083 185.975 175.484 185.652 175.016 185.177H175.044Z" fill="white"/>
<path d="M101 110.335H111.881C114.262 110.27 116.624 110.761 118.784 111.77C120.702 112.701 122.316 114.166 123.433 115.99C124.526 117.921 125.101 120.105 125.101 122.328C125.101 124.55 124.526 126.734 123.433 128.665C122.324 130.496 120.708 131.963 118.784 132.885C116.632 133.925 114.268 134.442 111.881 134.392H101V110.335ZM111.61 129.871C113.701 129.97 115.748 129.244 117.315 127.847C118.688 126.364 119.452 124.412 119.452 122.385C119.452 120.358 118.688 118.406 117.315 116.923C115.743 115.537 113.699 114.816 111.61 114.914H106.548V129.871H111.61Z" fill="white"/>
<path d="M144.711 129.296H133.587L131.462 134.464H125.758L136.44 110.349H141.916L152.626 134.464H146.808L144.711 129.296ZM142.971 125.062L139.163 115.818L135.37 125.062H142.971Z" fill="white"/>
<path d="M157.346 114.641L192.999 106.029V162.943L157.346 154.258V114.641Z" fill="white"/>
</g>
<defs>
<clipPath id="clip0_39_5231">
<rect width="92" height="84" fill="white" transform="translate(101 106)"/>
</clipPath>
</defs>
</svg>
