<svg width="294" height="294" viewBox="0 0 294 294" fill="none" xmlns="http://www.w3.org/2000/svg">
<rect width="294" height="294" fill="#19FFC1"/>
<path d="M143.174 172.424H155.384L132.902 122H121.41L99 172.424H110.923L115.377 161.619H138.72L143.174 172.424ZM119.112 152.758L127.084 133.453L135.057 152.758H119.112Z" fill="black"/>
<path d="M175.397 133.093C169.22 133.093 162.971 134.75 158.733 137.775L162.755 145.627C165.557 143.394 169.794 142.025 173.888 142.025C179.922 142.025 182.795 144.835 182.795 149.661H173.888C162.109 149.661 157.296 154.415 157.296 161.258C157.296 167.958 162.683 173 171.734 173C177.408 173 181.43 171.127 183.513 167.597V172.424H194V150.309C194 138.568 187.176 133.093 175.397 133.093ZM174.535 165.436C170.584 165.436 168.214 163.564 168.214 160.754C168.214 158.161 169.866 156.216 175.11 156.216H182.795V160.178C181.502 163.708 178.27 165.436 174.535 165.436Z" fill="black"/>
</svg>
