<svg width="1304" height="1020" viewBox="0 0 1304 1020" fill="none" xmlns="http://www.w3.org/2000/svg">
<rect width="1304" height="1020" fill="#A8C5AF"/>
<g clip-path="url(#clip0_17_987)">
<path d="M461.985 489.84H466.263V507.507H486.302V489.84H490.579V529.16H486.302V511.314H466.277V529.16H461.985V489.84Z" fill="white"/>
<path d="M510.944 501.425C516.265 501.425 520.076 504.154 521.304 507.091H521.408C521.356 506.303 521.304 505.566 521.304 504.206V502.265H525.219V529.16H521.304V526.691C521.304 525.486 521.356 524.602 521.408 523.761H521.304C520.002 527.271 516.035 529.948 510.87 530C502.368 530 496.943 523.865 496.943 515.686C496.943 507.507 502.686 501.425 510.944 501.425ZM521.186 515.686C521.186 509.604 517.012 505.15 511.114 505.15C505.431 505.15 501.154 509.611 501.154 515.686C501.154 521.761 505.431 526.223 511.114 526.223C516.998 526.223 521.186 521.717 521.186 515.686Z" fill="white"/>
<path d="M532.863 494.502C532.862 494.153 532.93 493.808 533.065 493.486C533.199 493.164 533.396 492.872 533.644 492.628C533.893 492.384 534.187 492.193 534.511 492.065C534.834 491.937 535.18 491.876 535.527 491.885C536.056 491.885 536.574 492.044 537.013 492.341C537.452 492.638 537.794 493.059 537.993 493.552C538.193 494.044 538.242 494.586 538.135 495.106C538.027 495.627 537.767 496.104 537.389 496.476C537.01 496.848 536.53 497.098 536.009 497.194C535.489 497.291 534.951 497.229 534.466 497.018C533.98 496.806 533.568 496.453 533.283 496.005C532.997 495.558 532.851 495.034 532.863 494.502V494.502ZM533.44 529.16V502.265H537.614V529.16H533.44Z" fill="white"/>
<path d="M546.849 505.939H543.771V502.265H546.849V495.083H551.023V502.265H559.266V505.939H551.023V525.435H558.482V529.153H546.849V505.939Z" fill="white"/>
<path d="M576.124 530C567.984 530 561.982 523.865 561.982 515.686C561.982 507.507 567.984 501.425 576.043 501.425C583.864 501.425 589.237 507.559 589.237 515.686C589.237 516.207 589.185 517.099 589.133 517.523H566.363C567.103 522.728 570.907 526.223 576.176 526.223C577.817 526.252 579.442 525.892 580.92 525.173C582.397 524.453 583.685 523.394 584.678 522.081L587.128 524.602C585.863 526.327 584.202 527.719 582.286 528.659C580.369 529.599 578.255 530.059 576.124 530V530ZM566.363 513.961H585.093C584.782 508.875 581.186 505.157 576.02 505.157C570.855 505.157 567.066 508.712 566.363 513.961Z" fill="white"/>
<path d="M607.271 502.265V505.983H599.449V529.16H595.275V502.265H607.271Z" fill="white"/>
<path d="M635.554 516.259C635.66 516.747 635.714 517.246 635.716 517.746C635.716 524.557 631.432 530.015 622.877 530.015C614.789 530.015 610.408 524.981 610.408 518.534C610.427 516.368 611.115 514.26 612.377 512.504C613.639 510.747 615.413 509.427 617.453 508.726C615.744 507.902 614.31 506.595 613.327 504.966C612.344 503.337 611.855 501.455 611.918 499.551C611.918 493.469 616.617 489.015 623.343 489.015C630.914 489.015 634.251 494.101 634.251 498.874C634.258 499.621 634.206 500.367 634.096 501.105H630.129C630.181 500.629 630.233 499.848 630.233 499.32C630.233 496.071 628.198 492.77 623.299 492.77C618.807 492.77 616.047 495.543 616.047 499.685C616.047 503.358 618.393 507.083 623.921 507.083H637.759C641.829 507.083 643.028 505.507 643.235 502.518L646.735 503.306C646.683 507.552 643.864 510.742 638.595 510.742H623.055C617.579 510.742 614.656 514.459 614.656 518.341C614.656 522.854 617.941 526.208 623.158 526.208C628.849 526.208 631.402 522.542 631.402 517.768C631.403 517.268 631.351 516.77 631.247 516.281L635.554 516.259Z" fill="white"/>
<path d="M622.914 506.972C627.961 506.592 630.24 503.938 630.24 499.432C630.243 498.932 630.188 498.433 630.077 497.945H634.214C634.725 504.198 630.766 510.11 623.262 510.742" fill="white"/>
<path d="M642.347 509.5C642.347 497.759 650.753 489 662.231 489C673.708 489 682.107 497.759 682.107 509.5C682.107 521.241 673.627 530 662.231 530C650.642 530 642.347 521.241 642.347 509.5ZM677.726 509.5C677.726 499.96 671.251 492.881 662.231 492.881C653.21 492.881 646.735 499.96 646.735 509.5C646.735 519.04 653.203 526.067 662.231 526.067C671.259 526.067 677.726 519.04 677.726 509.5Z" fill="white"/>
<path d="M688.22 489.84H692.393V525.435H700.112V529.152H688.22V489.84Z" fill="white"/>
<path d="M704.137 494.502C704.135 494.154 704.203 493.808 704.336 493.486C704.47 493.164 704.666 492.873 704.914 492.628C705.162 492.384 705.456 492.193 705.779 492.065C706.102 491.937 706.447 491.876 706.794 491.885C707.324 491.884 707.842 492.041 708.282 492.337C708.722 492.633 709.065 493.054 709.266 493.547C709.467 494.039 709.517 494.581 709.41 495.102C709.303 495.623 709.044 496.101 708.666 496.473C708.288 496.846 707.807 497.097 707.287 497.194C706.766 497.291 706.228 497.23 705.742 497.018C705.256 496.807 704.844 496.454 704.558 496.006C704.272 495.558 704.126 495.035 704.137 494.502V494.502ZM704.707 529.16V502.265H708.881V529.16H704.707Z" fill="white"/>
<path d="M724.117 529.16L713.994 502.265H718.641L726.73 525.435H726.907L735.047 502.265H739.591L729.519 529.16H724.117Z" fill="white"/>
<path d="M756.108 501.425C761.429 501.425 765.24 504.154 766.468 507.091H766.572C766.52 506.303 766.468 505.566 766.468 504.206V502.265H770.383V529.16H766.468V526.691C766.468 525.486 766.52 524.602 766.572 523.761H766.468C765.166 527.271 761.199 529.948 756.034 530C747.524 530 742.1 523.865 742.1 515.686C742.1 507.507 747.812 501.425 756.108 501.425ZM766.335 515.686C766.335 509.604 762.161 505.15 756.263 505.15C750.573 505.15 746.295 509.611 746.295 515.686C746.295 521.761 750.573 526.223 756.263 526.223C762.161 526.223 766.335 521.717 766.335 515.686V515.686Z" fill="white"/>
<path d="M790.599 502.265V505.983H782.769V529.16H778.596V502.265H790.599Z" fill="white"/>
<path d="M806.827 530C798.687 530 792.686 523.865 792.686 515.686C792.686 507.507 798.687 501.425 806.746 501.425C814.575 501.425 819.947 507.559 819.947 515.686C819.947 516.207 819.896 517.099 819.844 517.523H797.066C797.806 522.728 801.61 526.223 806.879 526.223C808.52 526.253 810.146 525.893 811.623 525.173C813.1 524.454 814.388 523.394 815.381 522.081L817.838 524.602C816.572 526.327 814.909 527.719 812.992 528.659C811.075 529.599 808.96 530.059 806.827 530V530ZM797.066 513.961H815.803C815.485 508.875 811.889 505.157 806.723 505.157C801.558 505.157 797.747 508.712 797.066 513.961Z" fill="white"/>
<path d="M832.662 513.062L836.207 514.705C839.655 516.274 842.001 518.371 842.001 522.304C842.001 526.818 838.449 530.015 832.869 530.015C827.497 530.015 824.315 526.766 823.479 522.988L826.764 521.204C827.058 522.673 827.857 523.993 829.02 524.932C830.183 525.87 831.637 526.37 833.128 526.342C835.896 526.342 837.827 524.929 837.827 522.304C837.827 520.423 836.525 519.159 833.757 517.902L830.472 516.415C827.023 514.839 824.626 512.846 824.626 508.809C824.626 504.615 828.126 501.47 832.973 501.47C837.82 501.47 840.75 504.147 842.001 507.552L838.871 509.285C838.489 508.044 837.719 506.96 836.675 506.195C835.631 505.43 834.369 505.024 833.076 505.039C830.472 505.039 828.696 506.608 828.696 508.757C828.696 510.705 829.946 511.805 832.662 513.062Z" fill="white"/>
</g>
<defs>
<clipPath id="clip0_17_987">
<rect width="380" height="41" fill="white" transform="translate(462 489)"/>
</clipPath>
</defs>
</svg>
