<svg width="294" height="294" viewBox="0 0 294 294" fill="none" xmlns="http://www.w3.org/2000/svg">
<rect width="294" height="294" fill="#A8C5AF"/>
<rect width="294" height="147" fill="#2D6655"/>
<g clip-path="url(#clip0_41_104)">
<path d="M81.9961 66.2837H83.4594V72.243H90.3149V66.2837H91.7782V79.5466H90.3149V73.5271H83.4644V79.5466H81.9961V66.2837Z" fill="white"/>
<path d="M98.7449 70.1914C100.565 70.1914 101.869 71.1119 102.289 72.1026H102.325C102.307 71.8367 102.289 71.5884 102.289 71.1294V70.4748H103.628V79.5467H102.289V78.714C102.289 78.3077 102.307 78.0092 102.325 77.7258H102.289C101.844 78.9096 100.487 79.8126 98.7195 79.8301C95.8107 79.8301 93.9551 77.7609 93.9551 75.002C93.9551 72.243 95.9196 70.1914 98.7449 70.1914ZM102.249 75.002C102.249 72.9503 100.821 71.448 98.8031 71.448C96.8588 71.448 95.3956 72.9528 95.3956 75.002C95.3956 77.0511 96.8588 78.556 98.8031 78.556C100.816 78.556 102.249 77.0361 102.249 75.002Z" fill="white"/>
<path d="M106.242 67.8563C106.242 67.7385 106.265 67.6219 106.311 67.5133C106.357 67.4047 106.425 67.3064 106.51 67.224C106.595 67.1417 106.696 67.0771 106.806 67.0341C106.917 66.991 107.035 66.9704 107.154 66.9734C107.335 66.9735 107.512 67.027 107.662 67.1271C107.812 67.2272 107.929 67.3695 107.998 67.5356C108.066 67.7018 108.083 67.8843 108.046 68.06C108.009 68.2357 107.92 68.3965 107.791 68.522C107.661 68.6474 107.497 68.7318 107.319 68.7643C107.141 68.7968 106.957 68.7761 106.791 68.7047C106.625 68.6332 106.484 68.5144 106.386 68.3633C106.288 68.2122 106.238 68.0357 106.242 67.8563V67.8563ZM106.44 79.5467V70.4748H107.868V79.5467H106.44Z" fill="white"/>
<path d="M111.028 71.7136H109.975V70.4746H111.028V68.0518H112.456V70.4746H115.276V71.7136H112.456V78.2899H115.007V79.544H111.028V71.7136Z" fill="white"/>
<path d="M121.043 79.8301C118.258 79.8301 116.205 77.7609 116.205 75.002C116.205 72.243 118.258 70.1914 121.015 70.1914C123.691 70.1914 125.529 72.2606 125.529 75.002C125.529 75.1776 125.511 75.4785 125.494 75.6215H117.704C117.957 77.3772 119.258 78.556 121.061 78.556C121.622 78.5659 122.178 78.4446 122.684 78.2018C123.189 77.9591 123.629 77.6018 123.969 77.159L124.807 78.0092C124.375 78.5911 123.806 79.0606 123.151 79.3777C122.495 79.6947 121.772 79.85 121.043 79.8301V79.8301ZM117.704 74.4201H124.111C124.005 72.7045 122.775 71.4505 121.008 71.4505C119.24 71.4505 117.944 72.6494 117.704 74.4201Z" fill="white"/>
<path d="M131.697 70.4746V71.7287H129.022V79.5465H127.594V70.4746H131.697Z" fill="white"/>
<path d="M141.374 75.1951C141.41 75.3599 141.429 75.5281 141.43 75.6968C141.43 77.9942 139.964 79.8352 137.037 79.8352C134.27 79.8352 132.771 78.1372 132.771 75.9626C132.778 75.2318 133.013 74.5211 133.445 73.9285C133.877 73.3359 134.484 72.8907 135.182 72.6544C134.597 72.3763 134.106 71.9355 133.77 71.3859C133.434 70.8364 133.266 70.2017 133.288 69.5594C133.288 67.5077 134.895 66.0054 137.197 66.0054C139.787 66.0054 140.928 67.7209 140.928 69.3311C140.931 69.5829 140.913 69.8345 140.875 70.0836H139.518C139.536 69.9231 139.554 69.6597 139.554 69.4816C139.554 68.3856 138.857 67.272 137.182 67.272C135.645 67.272 134.701 68.2075 134.701 69.6045C134.701 70.8435 135.503 72.1001 137.394 72.1001H142.128C143.521 72.1001 143.931 71.5684 144.002 70.5601L145.199 70.826C145.181 72.2581 144.217 73.3341 142.414 73.3341H137.098C135.225 73.3341 134.225 74.5882 134.225 75.8974C134.225 77.4198 135.349 78.551 137.133 78.551C139.08 78.551 139.954 77.3145 139.954 75.7043C139.954 75.5357 139.936 75.3675 139.9 75.2027L141.374 75.1951Z" fill="white"/>
<path d="M137.049 72.0624C138.775 71.9345 139.555 71.0391 139.555 69.5192C139.556 69.3504 139.537 69.1821 139.499 69.0176H140.915C141.089 71.1269 139.735 73.1209 137.168 73.3341" fill="white"/>
<path d="M143.697 72.9149C143.697 68.9546 146.573 66 150.5 66C154.426 66 157.3 68.9546 157.3 72.9149C157.3 76.8752 154.398 79.8298 150.5 79.8298C146.535 79.8298 143.697 76.8752 143.697 72.9149ZM155.801 72.9149C155.801 69.697 153.586 67.3092 150.5 67.3092C147.414 67.3092 145.199 69.697 145.199 72.9149C145.199 76.1328 147.411 78.503 150.5 78.503C153.588 78.503 155.801 76.1328 155.801 72.9149Z" fill="white"/>
<path d="M159.391 66.2837H160.818V78.2901H163.459V79.5441H159.391V66.2837Z" fill="white"/>
<path d="M164.836 67.8563C164.835 67.7387 164.859 67.6221 164.904 67.5135C164.95 67.4049 165.017 67.3065 165.102 67.2242C165.187 67.1418 165.287 67.0772 165.398 67.0341C165.508 66.991 165.626 66.9704 165.745 66.9734C165.926 66.973 166.103 67.0261 166.254 67.1259C166.405 67.2257 166.522 67.3678 166.591 67.5339C166.659 67.7 166.677 67.8826 166.64 68.0585C166.603 68.2343 166.515 68.3954 166.385 68.5211C166.256 68.6468 166.092 68.7314 165.914 68.7641C165.735 68.7969 165.551 68.7763 165.385 68.7049C165.219 68.6335 165.078 68.5147 164.98 68.3635C164.882 68.2124 164.832 68.0358 164.836 67.8563V67.8563ZM165.031 79.5467V70.4748H166.459V79.5467H165.031Z" fill="white"/>
<path d="M171.672 79.5465L168.209 70.4746H169.799L172.566 78.2899H172.627L175.411 70.4746H176.966L173.52 79.5465H171.672Z" fill="white"/>
<path d="M182.617 70.1914C184.437 70.1914 185.741 71.1119 186.161 72.1026H186.196C186.178 71.8367 186.161 71.5884 186.161 71.1294V70.4748H187.5V79.5467H186.161V78.714C186.161 78.3077 186.178 78.0092 186.196 77.7258H186.161C185.715 78.9096 184.358 79.8126 182.591 79.8301C179.68 79.8301 177.824 77.7609 177.824 75.002C177.824 72.243 179.779 70.1914 182.617 70.1914ZM186.115 75.002C186.115 72.9503 184.687 71.448 182.67 71.448C180.723 71.448 179.26 72.9528 179.26 75.002C179.26 77.0511 180.723 78.556 182.67 78.556C184.687 78.556 186.115 77.0361 186.115 75.002V75.002Z" fill="white"/>
<path d="M194.415 70.4746V71.7287H191.736V79.5465H190.309V70.4746H194.415Z" fill="white"/>
<path d="M199.967 79.8301C197.182 79.8301 195.129 77.7609 195.129 75.002C195.129 72.243 197.182 70.1914 199.939 70.1914C202.617 70.1914 204.455 72.2606 204.455 75.002C204.455 75.1776 204.438 75.4785 204.42 75.6215H196.628C196.881 77.3772 198.182 78.556 199.985 78.556C200.546 78.5661 201.102 78.4449 201.608 78.2021C202.113 77.9594 202.553 77.602 202.893 77.159L203.734 78.0092C203.301 78.5911 202.732 79.0606 202.076 79.3777C201.42 79.6947 200.696 79.85 199.967 79.8301V79.8301ZM196.628 74.4201H203.038C202.929 72.7045 201.698 71.4505 199.931 71.4505C198.164 71.4505 196.861 72.6494 196.628 74.4201Z" fill="white"/>
<path d="M208.806 74.1167L210.018 74.671C211.198 75.2002 212.001 75.9075 212.001 77.2343C212.001 78.7567 210.785 79.8352 208.877 79.8352C207.039 79.8352 205.95 78.7392 205.664 77.465L206.788 76.8631C206.889 77.3588 207.162 77.8038 207.56 78.1205C207.958 78.4372 208.455 78.6056 208.965 78.5962C209.912 78.5962 210.573 78.1197 210.573 77.2343C210.573 76.5997 210.127 76.1734 209.18 75.7495L208.056 75.2479C206.877 74.7161 206.056 74.044 206.056 72.6821C206.056 71.2675 207.254 70.2065 208.912 70.2065C210.57 70.2065 211.573 71.1095 212.001 72.2582L210.93 72.8426C210.799 72.4241 210.536 72.0585 210.179 71.8004C209.821 71.5423 209.39 71.4055 208.948 71.4104C208.056 71.4104 207.449 71.9397 207.449 72.6645C207.449 73.3216 207.877 73.6928 208.806 74.1167Z" fill="white"/>
</g>
<g clip-path="url(#clip1_41_104)">
<path d="M81.9961 215.284H83.4594V221.243H90.3149V215.284H91.7782V228.547H90.3149V222.527H83.4644V228.547H81.9961V215.284Z" fill="#2D6655"/>
<path d="M98.7449 219.191C100.565 219.191 101.869 220.112 102.289 221.103H102.325C102.307 220.837 102.289 220.588 102.289 220.129V219.475H103.628V228.547H102.289V227.714C102.289 227.308 102.307 227.009 102.325 226.726H102.289C101.844 227.91 100.487 228.813 98.7195 228.83C95.8107 228.83 93.9551 226.761 93.9551 224.002C93.9551 221.243 95.9196 219.191 98.7449 219.191ZM102.249 224.002C102.249 221.95 100.821 220.448 98.8031 220.448C96.8588 220.448 95.3956 221.953 95.3956 224.002C95.3956 226.051 96.8588 227.556 98.8031 227.556C100.816 227.556 102.249 226.036 102.249 224.002Z" fill="#2D6655"/>
<path d="M106.242 216.856C106.242 216.739 106.265 216.622 106.311 216.513C106.357 216.405 106.425 216.306 106.51 216.224C106.595 216.142 106.696 216.077 106.806 216.034C106.917 215.991 107.035 215.97 107.154 215.973C107.335 215.973 107.512 216.027 107.662 216.127C107.812 216.227 107.929 216.369 107.998 216.536C108.066 216.702 108.083 216.884 108.046 217.06C108.009 217.236 107.92 217.397 107.791 217.522C107.661 217.647 107.497 217.732 107.319 217.764C107.141 217.797 106.957 217.776 106.791 217.705C106.625 217.633 106.484 217.514 106.386 217.363C106.288 217.212 106.238 217.036 106.242 216.856V216.856ZM106.44 228.547V219.475H107.868V228.547H106.44Z" fill="#2D6655"/>
<path d="M111.028 220.714H109.975V219.475H111.028V217.052H112.456V219.475H115.276V220.714H112.456V227.29H115.007V228.544H111.028V220.714Z" fill="#2D6655"/>
<path d="M121.043 228.83C118.258 228.83 116.205 226.761 116.205 224.002C116.205 221.243 118.258 219.191 121.015 219.191C123.691 219.191 125.529 221.261 125.529 224.002C125.529 224.178 125.511 224.479 125.494 224.621H117.704C117.957 226.377 119.258 227.556 121.061 227.556C121.622 227.566 122.178 227.445 122.684 227.202C123.189 226.959 123.629 226.602 123.969 226.159L124.807 227.009C124.375 227.591 123.806 228.061 123.151 228.378C122.495 228.695 121.772 228.85 121.043 228.83V228.83ZM117.704 223.42H124.111C124.005 221.705 122.775 220.45 121.008 220.45C119.24 220.45 117.944 221.649 117.704 223.42Z" fill="#2D6655"/>
<path d="M131.697 219.475V220.729H129.022V228.546H127.594V219.475H131.697Z" fill="#2D6655"/>
<path d="M141.374 224.195C141.41 224.36 141.429 224.528 141.43 224.697C141.43 226.994 139.964 228.835 137.037 228.835C134.27 228.835 132.771 227.137 132.771 224.963C132.778 224.232 133.013 223.521 133.445 222.928C133.877 222.336 134.484 221.891 135.182 221.654C134.597 221.376 134.106 220.936 133.77 220.386C133.434 219.836 133.266 219.202 133.288 218.559C133.288 216.508 134.895 215.005 137.197 215.005C139.787 215.005 140.928 216.721 140.928 218.331C140.931 218.583 140.913 218.835 140.875 219.084H139.518C139.536 218.923 139.554 218.66 139.554 218.482C139.554 217.386 138.857 216.272 137.182 216.272C135.645 216.272 134.701 217.207 134.701 218.605C134.701 219.844 135.503 221.1 137.394 221.1H142.128C143.521 221.1 143.931 220.568 144.002 219.56L145.199 219.826C145.181 221.258 144.217 222.334 142.414 222.334H137.098C135.225 222.334 134.225 223.588 134.225 224.897C134.225 226.42 135.349 227.551 137.133 227.551C139.08 227.551 139.954 226.314 139.954 224.704C139.954 224.536 139.936 224.368 139.9 224.203L141.374 224.195Z" fill="#2D6655"/>
<path d="M137.049 221.062C138.775 220.935 139.555 220.039 139.555 218.519C139.556 218.35 139.537 218.182 139.499 218.018H140.915C141.089 220.127 139.735 222.121 137.168 222.334" fill="#2D6655"/>
<path d="M143.697 221.915C143.697 217.955 146.573 215 150.5 215C154.426 215 157.3 217.955 157.3 221.915C157.3 225.875 154.398 228.83 150.5 228.83C146.535 228.83 143.697 225.875 143.697 221.915ZM155.801 221.915C155.801 218.697 153.586 216.309 150.5 216.309C147.414 216.309 145.199 218.697 145.199 221.915C145.199 225.133 147.411 227.503 150.5 227.503C153.588 227.503 155.801 225.133 155.801 221.915Z" fill="#2D6655"/>
<path d="M159.391 215.284H160.818V227.29H163.459V228.544H159.391V215.284Z" fill="#2D6655"/>
<path d="M164.836 216.856C164.835 216.739 164.859 216.622 164.904 216.514C164.95 216.405 165.017 216.307 165.102 216.224C165.187 216.142 165.287 216.077 165.398 216.034C165.508 215.991 165.626 215.97 165.745 215.973C165.926 215.973 166.103 216.026 166.254 216.126C166.405 216.226 166.522 216.368 166.591 216.534C166.659 216.7 166.677 216.883 166.64 217.058C166.603 217.234 166.515 217.395 166.385 217.521C166.256 217.647 166.092 217.731 165.914 217.764C165.735 217.797 165.551 217.776 165.385 217.705C165.219 217.634 165.078 217.515 164.98 217.364C164.882 217.212 164.832 217.036 164.836 216.856V216.856ZM165.031 228.547V219.475H166.459V228.547H165.031Z" fill="#2D6655"/>
<path d="M171.672 228.546L168.209 219.475H169.799L172.566 227.29H172.627L175.411 219.475H176.966L173.52 228.546H171.672Z" fill="#2D6655"/>
<path d="M182.617 219.191C184.437 219.191 185.741 220.112 186.161 221.103H186.196C186.178 220.837 186.161 220.588 186.161 220.129V219.475H187.5V228.547H186.161V227.714C186.161 227.308 186.178 227.009 186.196 226.726H186.161C185.715 227.91 184.358 228.813 182.591 228.83C179.68 228.83 177.824 226.761 177.824 224.002C177.824 221.243 179.779 219.191 182.617 219.191ZM186.115 224.002C186.115 221.95 184.687 220.448 182.67 220.448C180.723 220.448 179.26 221.953 179.26 224.002C179.26 226.051 180.723 227.556 182.67 227.556C184.687 227.556 186.115 226.036 186.115 224.002V224.002Z" fill="#2D6655"/>
<path d="M194.415 219.475V220.729H191.736V228.546H190.309V219.475H194.415Z" fill="#2D6655"/>
<path d="M199.967 228.83C197.182 228.83 195.129 226.761 195.129 224.002C195.129 221.243 197.182 219.191 199.939 219.191C202.617 219.191 204.455 221.261 204.455 224.002C204.455 224.178 204.438 224.479 204.42 224.621H196.628C196.881 226.377 198.182 227.556 199.985 227.556C200.546 227.566 201.102 227.445 201.608 227.202C202.113 226.959 202.553 226.602 202.893 226.159L203.734 227.009C203.301 227.591 202.732 228.061 202.076 228.378C201.42 228.695 200.696 228.85 199.967 228.83V228.83ZM196.628 223.42H203.038C202.929 221.705 201.698 220.45 199.931 220.45C198.164 220.45 196.861 221.649 196.628 223.42Z" fill="#2D6655"/>
<path d="M208.806 223.117L210.018 223.671C211.198 224.2 212.001 224.908 212.001 226.234C212.001 227.757 210.785 228.835 208.877 228.835C207.039 228.835 205.95 227.739 205.664 226.465L206.788 225.863C206.889 226.359 207.162 226.804 207.56 227.121C207.958 227.437 208.455 227.606 208.965 227.596C209.912 227.596 210.573 227.12 210.573 226.234C210.573 225.6 210.127 225.173 209.18 224.749L208.056 224.248C206.877 223.716 206.056 223.044 206.056 221.682C206.056 220.267 207.254 219.207 208.912 219.207C210.57 219.207 211.573 220.109 212.001 221.258L210.93 221.843C210.799 221.424 210.536 221.059 210.179 220.8C209.821 220.542 209.39 220.406 208.948 220.41C208.056 220.41 207.449 220.94 207.449 221.664C207.449 222.322 207.877 222.693 208.806 223.117Z" fill="#2D6655"/>
</g>
<defs>
<clipPath id="clip0_41_104">
<rect width="130" height="13.8298" fill="white" transform="translate(82 66)"/>
</clipPath>
<clipPath id="clip1_41_104">
<rect width="130" height="13.8298" fill="white" transform="translate(82 215)"/>
</clipPath>
</defs>
</svg>
