<svg width="1304" height="341" viewBox="0 0 1304 341" fill="none" xmlns="http://www.w3.org/2000/svg">
<g clip-path="url(#clip0_40_5265)">
<rect width="1304" height="341" fill="white"/>
<rect width="1304" height="170" fill="#2D6856"/>
<rect y="170" width="1304" height="170" fill="#A8C5AF"/>
<g clip-path="url(#clip1_40_5265)">
<path d="M463.986 65.8198H468.219V83.056H488.047V65.8198H492.279V104.18H488.047V86.7701H468.233V104.18H463.986V65.8198Z" fill="white"/>
<path d="M512.43 77.1221C517.694 77.1221 521.465 79.7844 522.681 82.6498H522.783C522.732 81.8809 522.681 81.1627 522.681 79.8352V77.9418H526.554V104.18H522.681V101.772C522.681 100.597 522.732 99.7336 522.783 98.9139H522.681C521.392 102.338 517.467 104.949 512.356 105C503.943 105 498.576 99.0154 498.576 91.0357C498.576 83.056 504.258 77.1221 512.43 77.1221ZM522.564 91.0357C522.564 85.1018 518.434 80.7564 512.598 80.7564C506.975 80.7564 502.742 85.109 502.742 91.0357C502.742 96.9625 506.975 101.315 512.598 101.315C518.419 101.315 522.564 96.9189 522.564 91.0357Z" fill="white"/>
<path d="M534.118 70.3683C534.117 70.0277 534.185 69.6905 534.317 69.3763C534.45 69.0622 534.645 68.7777 534.891 68.5396C535.137 68.3015 535.428 68.1147 535.748 67.9902C536.068 67.8657 536.41 67.8061 536.754 67.8148C537.278 67.8149 537.79 67.9697 538.224 68.2593C538.659 68.5489 538.997 68.9602 539.194 69.4408C539.392 69.9214 539.441 70.4494 539.334 70.9575C539.227 71.4657 538.971 71.9308 538.596 72.2936C538.221 72.6564 537.746 72.9004 537.231 72.9946C536.716 73.0887 536.184 73.0286 535.704 72.822C535.223 72.6154 534.816 72.2717 534.533 71.8347C534.251 71.3976 534.106 70.8871 534.118 70.3683V70.3683ZM534.689 104.18V77.9417H538.819V104.18H534.689Z" fill="white"/>
<path d="M547.956 81.5253H544.91V77.9417H547.956V70.9341H552.086V77.9417H560.243V81.5253H552.086V100.546H559.467V104.173H547.956V81.5253Z" fill="white"/>
<path d="M576.922 105C568.868 105 562.93 99.0154 562.93 91.0357C562.93 83.056 568.868 77.1221 576.842 77.1221C584.581 77.1221 589.897 83.1068 589.897 91.0357C589.897 91.5435 589.846 92.414 589.795 92.8275H567.264C567.997 97.9055 571.76 101.315 576.974 101.315C578.598 101.344 580.206 100.993 581.668 100.291C583.129 99.5887 584.403 98.5553 585.387 97.2744L587.81 99.7336C586.559 101.417 584.915 102.774 583.019 103.692C581.123 104.609 579.031 105.058 576.922 105V105ZM567.264 89.3527H585.797C585.489 84.3908 581.931 80.7637 576.82 80.7637C571.709 80.7637 567.96 84.2312 567.264 89.3527Z" fill="white"/>
<path d="M607.74 77.9414V81.5685H600.001V104.18H595.871V77.9414H607.74Z" fill="white"/>
<path d="M635.726 91.5943C635.832 92.0709 635.886 92.5572 635.887 93.0451C635.887 99.69 631.648 105.015 623.184 105.015C615.18 105.015 610.846 100.103 610.846 93.8141C610.865 91.7004 611.545 89.6447 612.794 87.9307C614.043 86.2168 615.797 84.9291 617.816 84.2457C616.125 83.4412 614.706 82.1665 613.734 80.5769C612.761 78.9873 612.277 77.1517 612.339 75.2939C612.339 69.3599 616.989 65.0146 623.645 65.0146C631.135 65.0146 634.438 69.9765 634.438 74.6338C634.444 75.3621 634.393 76.0898 634.284 76.8101H630.359C630.41 76.3458 630.462 75.5841 630.462 75.069C630.462 71.8989 628.448 68.678 623.601 68.678C619.156 68.678 616.425 71.3839 616.425 75.4245C616.425 79.0081 618.746 82.6425 624.216 82.6425H637.908C641.936 82.6425 643.122 81.1046 643.327 78.1884L646.79 78.9573C646.739 83.0995 643.949 86.2116 638.736 86.2116H623.359C617.941 86.2116 615.049 89.8387 615.049 93.6255C615.049 98.0288 618.3 101.3 623.462 101.3C629.092 101.3 631.619 97.7241 631.619 93.0669C631.619 92.5792 631.568 92.0929 631.465 91.616L635.726 91.5943Z" fill="white"/>
<path d="M623.221 82.5337C628.214 82.1638 630.47 79.574 630.47 75.1779C630.472 74.6898 630.418 74.203 630.309 73.7271H634.402C634.907 79.8279 630.99 85.595 623.565 86.2117" fill="white"/>
<path d="M642.447 85C642.447 73.5455 650.765 65 662.122 65C673.479 65 681.789 73.5455 681.789 85C681.789 96.4545 673.398 105 662.122 105C650.655 105 642.447 96.4545 642.447 85ZM677.455 85C677.455 75.6928 671.048 68.7867 662.122 68.7867C653.196 68.7867 646.789 75.6928 646.789 85C646.789 94.3072 653.189 101.162 662.122 101.162C671.055 101.162 677.455 94.3072 677.455 85Z" fill="white"/>
<path d="M687.838 65.8198H691.968V100.546H699.605V104.173H687.838V65.8198Z" fill="white"/>
<path d="M703.589 70.3683C703.586 70.0281 703.653 69.691 703.785 69.3769C703.917 69.0628 704.112 68.7782 704.357 68.54C704.602 68.3018 704.893 68.1149 705.213 67.9903C705.532 67.8657 705.874 67.8061 706.217 67.8148C706.741 67.8135 707.254 67.967 707.69 68.2557C708.125 68.5445 708.464 68.9553 708.663 69.4358C708.862 69.9162 708.911 70.4445 708.806 70.9531C708.7 71.4617 708.444 71.9275 708.069 72.291C707.695 72.6546 707.22 72.8994 706.705 72.9941C706.189 73.0888 705.657 73.0291 705.176 72.8227C704.695 72.6164 704.287 72.2726 704.005 71.8354C703.722 71.3982 703.577 70.8874 703.589 70.3683V70.3683ZM704.152 104.18V77.9417H708.282V104.18H704.152Z" fill="white"/>
<path d="M723.358 104.18L713.342 77.9414H717.94L725.943 100.546H726.119L734.173 77.9414H738.669L728.704 104.18H723.358Z" fill="white"/>
<path d="M755.011 77.1221C760.276 77.1221 764.047 79.7844 765.262 82.6498H765.365C765.313 81.8809 765.262 81.1627 765.262 79.8352V77.9418H769.136V104.18H765.262V101.772C765.262 100.597 765.313 99.7336 765.365 98.9139H765.262C763.974 102.338 760.049 104.949 754.938 105C746.517 105 741.15 99.0154 741.15 91.0357C741.15 83.056 746.803 77.1221 755.011 77.1221ZM765.13 91.0357C765.13 85.1018 761.001 80.7564 755.165 80.7564C749.534 80.7564 745.302 85.109 745.302 91.0357C745.302 96.9625 749.534 101.315 755.165 101.315C761.001 101.315 765.13 96.9189 765.13 91.0357V91.0357Z" fill="white"/>
<path d="M789.14 77.9414V81.5685H781.393V104.18H777.264V77.9414H789.14Z" fill="white"/>
<path d="M805.198 105C797.143 105 791.205 99.0154 791.205 91.0357C791.205 83.0561 797.143 77.1221 805.117 77.1221C812.864 77.1221 818.18 83.1068 818.18 91.0357C818.18 91.5435 818.129 92.4141 818.077 92.8275H795.54C796.272 97.9055 800.036 101.315 805.249 101.315C806.873 101.344 808.482 100.994 809.943 100.292C811.405 99.5895 812.679 98.5558 813.662 97.2744L816.093 99.7336C814.84 101.417 813.195 102.775 811.298 103.692C809.401 104.609 807.308 105.058 805.198 105V105ZM795.54 89.3527H814.079C813.765 84.3908 810.206 80.7637 805.095 80.7637C799.984 80.7637 796.213 84.2312 795.54 89.3527Z" fill="white"/>
<path d="M830.759 88.4749L834.266 90.0781C837.678 91.6088 839.999 93.6545 839.999 97.492C839.999 101.895 836.485 105.015 830.964 105.015C825.648 105.015 822.499 101.845 821.672 98.1594L824.923 96.4183C825.214 97.8521 826.004 99.1391 827.155 100.055C828.305 100.971 829.744 101.458 831.22 101.431C833.958 101.431 835.87 100.053 835.87 97.492C835.87 95.6566 834.581 94.4234 831.842 93.1974L828.591 91.7466C825.179 90.2087 822.807 88.2645 822.807 84.3255C822.807 80.2341 826.27 77.1655 831.066 77.1655C835.862 77.1655 838.762 79.7771 839.999 83.0995L836.902 84.7897C836.525 83.5793 835.763 82.522 834.73 81.7755C833.696 81.0291 832.447 80.6334 831.169 80.6476C828.591 80.6476 826.834 82.1782 826.834 84.2747C826.834 86.1753 828.071 87.2489 830.759 88.4749Z" fill="white"/>
</g>
<g clip-path="url(#clip2_40_5265)">
<path d="M463.986 235.82H468.219V253.056H488.047V235.82H492.279V274.18H488.047V256.77H468.233V274.18H463.986V235.82Z" fill="#2D6856"/>
<path d="M512.43 247.122C517.694 247.122 521.465 249.784 522.681 252.65H522.783C522.732 251.881 522.681 251.163 522.681 249.835V247.942H526.554V274.18H522.681V271.772C522.681 270.597 522.732 269.734 522.783 268.914H522.681C521.392 272.338 517.467 274.949 512.356 275C503.943 275 498.576 269.015 498.576 261.036C498.576 253.056 504.258 247.122 512.43 247.122ZM522.564 261.036C522.564 255.102 518.434 250.756 512.598 250.756C506.975 250.756 502.742 255.109 502.742 261.036C502.742 266.962 506.975 271.315 512.598 271.315C518.419 271.315 522.564 266.919 522.564 261.036Z" fill="#2D6856"/>
<path d="M534.118 240.368C534.117 240.028 534.185 239.69 534.317 239.376C534.45 239.062 534.645 238.778 534.891 238.54C535.137 238.302 535.428 238.115 535.748 237.99C536.068 237.866 536.41 237.806 536.754 237.815C537.278 237.815 537.79 237.97 538.224 238.259C538.659 238.549 538.997 238.96 539.194 239.441C539.392 239.921 539.441 240.449 539.334 240.958C539.227 241.466 538.971 241.931 538.596 242.294C538.221 242.656 537.746 242.9 537.231 242.995C536.716 243.089 536.184 243.029 535.704 242.822C535.223 242.615 534.816 242.272 534.533 241.835C534.251 241.398 534.106 240.887 534.118 240.368V240.368ZM534.689 274.18V247.942H538.819V274.18H534.689Z" fill="#2D6856"/>
<path d="M547.956 251.525H544.91V247.942H547.956V240.934H552.086V247.942H560.243V251.525H552.086V270.546H559.467V274.173H547.956V251.525Z" fill="#2D6856"/>
<path d="M576.922 275C568.868 275 562.93 269.015 562.93 261.036C562.93 253.056 568.868 247.122 576.842 247.122C584.581 247.122 589.897 253.107 589.897 261.036C589.897 261.544 589.846 262.414 589.795 262.828H567.264C567.997 267.906 571.76 271.315 576.974 271.315C578.598 271.344 580.206 270.993 581.668 270.291C583.129 269.589 584.403 268.555 585.387 267.274L587.81 269.734C586.559 271.417 584.915 272.774 583.019 273.692C581.123 274.609 579.031 275.058 576.922 275V275ZM567.264 259.353H585.797C585.489 254.391 581.931 250.764 576.82 250.764C571.709 250.764 567.96 254.231 567.264 259.353Z" fill="#2D6856"/>
<path d="M607.74 247.941V251.569H600.001V274.18H595.871V247.941H607.74Z" fill="#2D6856"/>
<path d="M635.726 261.594C635.832 262.071 635.886 262.557 635.887 263.045C635.887 269.69 631.648 275.015 623.184 275.015C615.18 275.015 610.846 270.103 610.846 263.814C610.865 261.7 611.545 259.645 612.794 257.931C614.043 256.217 615.797 254.929 617.816 254.246C616.125 253.441 614.706 252.166 613.734 250.577C612.761 248.987 612.277 247.152 612.339 245.294C612.339 239.36 616.989 235.015 623.645 235.015C631.135 235.015 634.438 239.977 634.438 244.634C634.444 245.362 634.393 246.09 634.284 246.81H630.359C630.41 246.346 630.462 245.584 630.462 245.069C630.462 241.899 628.448 238.678 623.601 238.678C619.156 238.678 616.425 241.384 616.425 245.424C616.425 249.008 618.746 252.642 624.216 252.642H637.908C641.936 252.642 643.122 251.105 643.327 248.188L646.79 248.957C646.739 253.1 643.949 256.212 638.736 256.212H623.359C617.941 256.212 615.049 259.839 615.049 263.625C615.049 268.029 618.3 271.3 623.462 271.3C629.092 271.3 631.619 267.724 631.619 263.067C631.619 262.579 631.568 262.093 631.465 261.616L635.726 261.594Z" fill="#2D6856"/>
<path d="M623.221 252.534C628.214 252.164 630.47 249.574 630.47 245.178C630.472 244.69 630.418 244.203 630.309 243.727H634.402C634.907 249.828 630.99 255.595 623.565 256.212" fill="#2D6856"/>
<path d="M642.447 255C642.447 243.546 650.765 235 662.122 235C673.479 235 681.789 243.546 681.789 255C681.789 266.454 673.398 275 662.122 275C650.655 275 642.447 266.454 642.447 255ZM677.455 255C677.455 245.693 671.048 238.787 662.122 238.787C653.196 238.787 646.789 245.693 646.789 255C646.789 264.307 653.189 271.162 662.122 271.162C671.055 271.162 677.455 264.307 677.455 255Z" fill="#2D6856"/>
<path d="M687.838 235.82H691.968V270.546H699.605V274.173H687.838V235.82Z" fill="#2D6856"/>
<path d="M703.589 240.368C703.586 240.028 703.653 239.691 703.785 239.377C703.917 239.063 704.112 238.778 704.357 238.54C704.602 238.302 704.893 238.115 705.213 237.99C705.532 237.866 705.874 237.806 706.217 237.815C706.741 237.813 707.254 237.967 707.69 238.256C708.125 238.544 708.464 238.955 708.663 239.436C708.862 239.916 708.911 240.445 708.806 240.953C708.7 241.462 708.444 241.928 708.069 242.291C707.695 242.655 707.22 242.899 706.705 242.994C706.189 243.089 705.657 243.029 705.176 242.823C704.695 242.616 704.287 242.273 704.005 241.835C703.722 241.398 703.577 240.887 703.589 240.368V240.368ZM704.152 274.18V247.942H708.282V274.18H704.152Z" fill="#2D6856"/>
<path d="M723.358 274.18L713.342 247.941H717.94L725.943 270.546H726.119L734.173 247.941H738.669L728.704 274.18H723.358Z" fill="#2D6856"/>
<path d="M755.011 247.122C760.276 247.122 764.047 249.784 765.262 252.65H765.365C765.313 251.881 765.262 251.163 765.262 249.835V247.942H769.136V274.18H765.262V271.772C765.262 270.597 765.313 269.734 765.365 268.914H765.262C763.974 272.338 760.049 274.949 754.938 275C746.517 275 741.15 269.015 741.15 261.036C741.15 253.056 746.803 247.122 755.011 247.122ZM765.13 261.036C765.13 255.102 761.001 250.756 755.165 250.756C749.534 250.756 745.302 255.109 745.302 261.036C745.302 266.962 749.534 271.315 755.165 271.315C761.001 271.315 765.13 266.919 765.13 261.036V261.036Z" fill="#2D6856"/>
<path d="M789.14 247.941V251.569H781.393V274.18H777.264V247.941H789.14Z" fill="#2D6856"/>
<path d="M805.198 275C797.143 275 791.205 269.015 791.205 261.036C791.205 253.056 797.143 247.122 805.117 247.122C812.864 247.122 818.18 253.107 818.18 261.036C818.18 261.544 818.129 262.414 818.077 262.828H795.54C796.272 267.906 800.036 271.315 805.249 271.315C806.873 271.344 808.482 270.994 809.943 270.292C811.405 269.589 812.679 268.556 813.662 267.274L816.093 269.734C814.84 271.417 813.195 272.775 811.298 273.692C809.401 274.609 807.308 275.058 805.198 275V275ZM795.54 259.353H814.079C813.765 254.391 810.206 250.764 805.095 250.764C799.984 250.764 796.213 254.231 795.54 259.353Z" fill="#2D6856"/>
<path d="M830.759 258.475L834.266 260.078C837.678 261.609 839.999 263.654 839.999 267.492C839.999 271.895 836.485 275.015 830.964 275.015C825.648 275.015 822.499 271.845 821.672 268.159L824.923 266.418C825.214 267.852 826.004 269.139 827.155 270.055C828.305 270.971 829.744 271.458 831.22 271.431C833.958 271.431 835.87 270.053 835.87 267.492C835.87 265.657 834.581 264.423 831.842 263.197L828.591 261.747C825.179 260.209 822.807 258.265 822.807 254.325C822.807 250.234 826.27 247.166 831.066 247.166C835.862 247.166 838.762 249.777 839.999 253.1L836.902 254.79C836.525 253.579 835.763 252.522 834.73 251.776C833.696 251.029 832.447 250.633 831.169 250.648C828.591 250.648 826.834 252.178 826.834 254.275C826.834 256.175 828.071 257.249 830.759 258.475Z" fill="#2D6856"/>
</g>
</g>
<defs>
<clipPath id="clip0_40_5265">
<rect width="1304" height="341" fill="white"/>
</clipPath>
<clipPath id="clip1_40_5265">
<rect width="376" height="40" fill="white" transform="translate(464 65)"/>
</clipPath>
<clipPath id="clip2_40_5265">
<rect width="376" height="40" fill="white" transform="translate(464 235)"/>
</clipPath>
</defs>
</svg>
