<svg width="280" height="91" viewBox="0 0 280 91" fill="none" xmlns="http://www.w3.org/2000/svg">
<rect width="280" height="91" fill="white"/>
<path d="M99.1206 32.8789H98.3151L97 34.1447L98.3151 35.427L97 36.7092L98.3151 37.9915L97 39.2573L98.3151 40.5395L97 41.8218L98.3151 43.104L97 44.3862L98.3151 45.6521L97 46.9343L98.3151 48.2165L97 49.4988L98.3151 50.7646L97 52.0468L98.3151 53.3291L97 54.6113L98.3151 55.8936L97 57.1594L98.3151 58.4416L97 59.7239L98.3151 61.0061L97 62.2884L98.3151 63.5542L97 64.8364L98.3151 66.1187H99.1206" fill="#71C5FF"/>
<path d="M139.495 32.8789H98.2987V66.1187H139.495V32.8789Z" fill="#71C5FF"/>
<path d="M168.954 32.8789H138.772V56.2552H168.954V32.8789Z" fill="#F74E4E"/>
<path d="M173.902 48.6943H151.956V66.169H173.902V48.6943Z" fill="#FFB71B"/>
<path d="M182.138 23H150.246V56.2562H182.138V23Z" fill="#4FBF5E"/>
<path d="M147.195 49.2302C147.798 45.5199 145.278 42.0241 141.568 41.4219C137.857 40.8198 134.362 43.3394 133.759 47.0496C133.157 50.7598 135.677 54.2557 139.387 54.8579C143.097 55.46 146.593 52.9404 147.195 49.2302Z" fill="#FF8D6B"/>
<path d="M147.846 46.9684H143.884L143.818 45.0286L133.117 46.9684C133.182 42.9079 136.519 39.653 140.58 39.7188C144.575 39.7681 147.78 42.9901 147.846 46.9684Z" fill="#3D3D3D"/>
<path d="M165.008 54.4805H160.816V55.549H165.008V54.4805Z" fill="#102DA3"/>
<path d="M167.047 52.9023H160.816V53.9709H167.047V52.9023Z" fill="#102DA3"/>
<path d="M123.023 48.1348H158.926C159.107 48.1348 159.255 48.2827 159.255 48.4635V65.8889C159.255 66.0698 159.107 66.2177 158.926 66.2177H123.023C122.842 66.2177 122.694 66.0698 122.694 65.8889V48.4635C122.694 48.2827 122.842 48.1348 123.023 48.1348Z" fill="white"/>
<path d="M156.509 45.9492H161.984C162.082 45.9492 162.148 46.015 162.148 46.1136V50.733C162.148 50.8316 162.082 50.8974 161.984 50.8974H156.509C156.411 50.8974 156.345 50.8316 156.345 50.733V46.1136C156.345 46.015 156.427 45.9492 156.509 45.9492Z" fill="#1D6FF5"/>
<path d="M158.992 49.1048C159.025 49.1048 159.074 49.1377 159.074 49.1706C159.074 49.2035 159.09 49.2199 159.107 49.2528H159.255V49.1048H158.992ZM160.044 49.1048C159.929 49.0391 159.863 48.9076 159.879 48.7596V48.25C159.879 47.8884 159.6 47.5924 159.238 47.5596H159.189C158.86 47.5596 158.564 47.7897 158.515 48.1185C158.499 48.1678 158.499 48.2007 158.499 48.25V48.7596C158.515 48.8911 158.449 49.0226 158.334 49.1048C158.301 49.1213 158.285 49.1542 158.301 49.187C158.301 49.2199 158.334 49.2528 158.383 49.2528H160.027C160.077 49.2528 160.11 49.2199 160.11 49.1706C160.093 49.1542 160.077 49.1377 160.044 49.1048ZM158.564 49.1048C158.63 49.0062 158.646 48.8911 158.646 48.7761V48.2664C158.646 48.2171 158.646 48.1843 158.663 48.1349C158.712 47.8884 158.942 47.724 159.189 47.724C159.205 47.724 159.238 47.724 159.255 47.724C159.518 47.7568 159.731 47.987 159.731 48.25V48.7596C159.731 48.8747 159.764 48.9898 159.814 49.0884L158.564 49.1048Z" fill="white"/>
<path d="M159.205 49.4671C159.057 49.4671 158.926 49.3356 158.926 49.1877C158.926 49.1383 158.975 49.1219 159.008 49.1219C159.041 49.1219 159.074 49.1548 159.074 49.1877C159.074 49.2534 159.123 49.3192 159.205 49.3192C159.271 49.3192 159.337 49.2699 159.337 49.1877C159.337 49.1383 159.37 49.1055 159.419 49.1055C159.452 49.1055 159.501 49.1383 159.501 49.1712C159.485 49.3356 159.353 49.4671 159.205 49.4671Z" fill="white"/>
<path d="M160.093 48.4151C160.556 48.4151 160.931 48.0397 160.931 47.5767C160.931 47.1136 160.556 46.7383 160.093 46.7383C159.63 46.7383 159.255 47.1136 159.255 47.5767C159.255 48.0397 159.63 48.4151 160.093 48.4151Z" fill="#F74E4E"/>
<path d="M125.259 63.9824H113.982V66.1688H125.259V63.9824Z" fill="#1D6FF5"/>
<path d="M115.445 63.9824H115.149V66.1688H115.445V63.9824Z" fill="#102DA3"/>
<path d="M115.938 63.9824H115.642V66.1688H115.938V63.9824Z" fill="#102DA3"/>
<path d="M124.618 61.8125H113.34V63.9989H124.618V61.8125Z" fill="#FFB71B"/>
<path d="M125.259 57.4561H113.982V59.6424H125.259V57.4561Z" fill="#F74E4E"/>
<path d="M115.149 63.3086C115.421 63.3086 115.642 63.0878 115.642 62.8154C115.642 62.5431 115.421 62.3223 115.149 62.3223C114.876 62.3223 114.656 62.5431 114.656 62.8154C114.656 63.0878 114.876 63.3086 115.149 63.3086Z" fill="#FF8C00"/>
<path d="M124.618 59.626H113.34V61.8124H124.618V59.626Z" fill="white"/>
<path d="M113.34 59.626H124.618" stroke="#717171" stroke-width="0.161856" stroke-miterlimit="10"/>
<path d="M113.34 60.7119H124.618" stroke="#717171" stroke-width="0.161856" stroke-miterlimit="10"/>
<path d="M113.34 61.8125H124.618" stroke="#717171" stroke-width="0.161856" stroke-miterlimit="10"/>
<path d="M115.28 58.623H123.812" stroke="#FF8D6B" stroke-width="0.323711" stroke-miterlimit="10"/>
<path d="M98.2987 66.1689H182.352" stroke="#1D6FF5" stroke-width="0.323711" stroke-miterlimit="10"/>
<path d="M160.586 60.5635V62.9471H160.455C160.438 62.9471 160.438 62.9471 160.422 62.9471C160.323 62.9471 160.241 62.9307 160.159 62.9143H160.126L160.011 62.8814V60.5799L160.586 60.5635Z" fill="#4FBF5E"/>
<path d="M160.586 61.1221H160.011V61.2043H160.586V61.1221Z" fill="#557D6B"/>
<path d="M160.586 60.9902H160.011V61.0724H160.586V60.9902Z" fill="#557D6B"/>
<path d="M160.537 60.5632H160.06L160.257 59.7412H160.34L160.537 60.5632Z" fill="#4FBF5E"/>
<path d="M160.373 61.6152C160.356 61.5495 160.323 61.5166 160.29 61.5166C160.257 61.5166 160.225 61.5495 160.208 61.6152C160.142 61.9276 160.109 62.2564 160.109 62.5851C160.109 62.6838 160.109 62.7824 160.109 62.8975H160.142C160.142 62.7988 160.142 62.6838 160.142 62.5687C160.126 62.2399 160.159 61.9111 160.241 61.5988C160.257 61.5495 160.274 61.533 160.29 61.533C160.307 61.533 160.323 61.5495 160.34 61.5988C160.422 61.9111 160.455 62.2399 160.438 62.5687C160.438 62.7002 160.438 62.8153 160.422 62.9304C160.438 62.9304 160.438 62.9304 160.455 62.9304C160.455 62.7988 160.471 62.6838 160.471 62.5687C160.471 62.2399 160.438 61.9276 160.373 61.6152Z" fill="#557D6B"/>
<path d="M159.304 59.7412V62.6016C159.37 62.6345 159.435 62.6674 159.501 62.7002C159.518 62.7002 159.518 62.7167 159.534 62.7167L159.616 62.7496C159.633 62.7496 159.633 62.7496 159.649 62.766C159.715 62.7989 159.797 62.8153 159.879 62.8318V59.7412H159.304V59.7412Z" fill="#FFB71B"/>
<path d="M159.879 60.2998H159.304V60.382H159.879V60.2998Z" fill="#FF8C00"/>
<path d="M159.879 60.1523H159.304V60.2345H159.879V60.1523Z" fill="#FF8C00"/>
<path d="M159.83 59.7419H159.353L159.551 58.9199H159.633L159.83 59.7419Z" fill="#FFB71B"/>
<path d="M159.764 61.6157C159.764 61.2376 159.715 60.7773 159.616 60.6952C159.616 60.6952 159.6 60.6787 159.583 60.6787C159.567 60.6787 159.534 60.6952 159.518 60.728C159.435 60.876 159.403 61.2705 159.403 61.5993C159.403 61.6486 159.403 61.6979 159.403 61.7472C159.403 62.0596 159.419 62.3884 159.485 62.7007C159.501 62.7007 159.501 62.7172 159.518 62.7172C159.435 62.4048 159.403 62.076 159.419 61.7472C159.419 61.6979 159.419 61.6486 159.419 61.5993C159.435 61.0404 159.501 60.7116 159.567 60.7116C159.633 60.7116 159.698 61.0404 159.715 61.5993C159.715 61.6486 159.715 61.6979 159.715 61.7472C159.731 62.076 159.698 62.4213 159.6 62.75C159.616 62.75 159.616 62.75 159.633 62.7665C159.715 62.6021 159.748 62.1089 159.748 61.7637C159.764 61.7144 159.764 61.6651 159.764 61.6157Z" fill="#FF8C00"/>
<path d="M161.293 59.8408V62.9314C161.129 62.9478 160.964 62.9642 160.8 62.9642H160.718V59.8408H161.293Z" fill="#F74E4E"/>
<path d="M161.309 60.3984H160.734V60.4806H161.309V60.3984Z" fill="#C32410"/>
<path d="M161.309 60.251H160.734V60.3332H161.309V60.251Z" fill="#C32410"/>
<path d="M161.244 59.8395H160.784L160.981 59.0176H161.063L161.244 59.8395Z" fill="#F74E4E"/>
<path d="M161.178 61.6157C161.162 61.2212 161.112 60.7773 161.014 60.7773C160.915 60.7773 160.849 61.2212 160.849 61.6157C160.849 61.6979 160.849 61.7801 160.849 61.8459C160.849 62.2733 160.899 62.9144 161.03 62.9144C161.162 62.9144 161.211 62.2733 161.211 61.8459C161.194 61.7801 161.194 61.6979 161.178 61.6157ZM161.014 62.8815C160.948 62.8815 160.866 62.487 160.866 61.8459C160.866 61.7637 160.866 61.6815 160.866 61.6157C160.882 61.1061 160.948 60.8102 161.014 60.8102C161.079 60.8102 161.145 61.1061 161.162 61.6157C161.162 61.6979 161.162 61.7637 161.162 61.8459C161.162 62.487 161.079 62.8815 161.014 62.8815Z" fill="#C32410"/>
<path d="M162.148 59.5439V62.6838C161.967 62.766 161.77 62.8318 161.573 62.8811V59.5439H162.148V59.5439Z" fill="#102DA3"/>
<path d="M162.164 60.1025H161.589V60.1847H162.164V60.1025Z" fill="#041F63"/>
<path d="M162.164 59.9551H161.589V60.0373H162.164V59.9551Z" fill="#041F63"/>
<path d="M162.099 59.5446H161.638L161.819 58.7227H161.901L162.099 59.5446Z" fill="#102DA3"/>
<path d="M161.967 60.6952C161.934 60.5636 161.901 60.4814 161.868 60.4814C161.836 60.4814 161.803 60.5308 161.77 60.6294C161.704 60.9417 161.688 61.2376 161.688 61.55V61.6157C161.688 62.0432 161.737 62.6185 161.868 62.6185C162 62.6185 162.033 62.0267 162.049 61.6157V61.55C162.049 61.2705 162.016 60.9746 161.967 60.6952ZM161.868 62.5856C161.803 62.5856 161.721 62.2075 161.721 61.6157C161.721 61.5993 161.721 61.5829 161.721 61.55C161.721 61.2376 161.737 60.9417 161.803 60.6294C161.819 60.5472 161.852 60.4979 161.868 60.4979C161.885 60.4979 161.918 60.5636 161.951 60.6623C162 60.9417 162.033 61.2376 162.016 61.5335C162.016 61.55 162.016 61.5664 162.016 61.5993C162 62.224 161.918 62.5856 161.868 62.5856Z" fill="#041F63"/>
<path d="M163.085 61.6152H158.383V66.1195H163.085V61.6152Z" fill="#71C5FF"/>
<path d="M146.613 40.8357C147.603 40.8357 148.405 40.0334 148.405 39.0438C148.405 38.0542 147.603 37.252 146.613 37.252C145.623 37.252 144.821 38.0542 144.821 39.0438C144.821 40.0334 145.623 40.8357 146.613 40.8357Z" fill="#3D3D3D"/>
<path d="M102.343 38.0088V41.3295H115.461V38.0088H102.343ZM112.666 38.6006V39.3239C112.65 39.5047 112.798 39.6691 112.979 39.6856C113.16 39.702 113.324 39.5541 113.34 39.3732C113.34 39.3568 113.34 39.3404 113.34 39.3239V38.6006C113.768 38.7814 113.965 39.291 113.768 39.702C113.587 40.1294 113.077 40.3267 112.666 40.1294C112.239 39.9486 112.042 39.439 112.239 39.028C112.321 38.8307 112.469 38.6828 112.666 38.6006ZM104.365 38.6006V39.3239C104.348 39.5047 104.496 39.6691 104.677 39.6856C104.858 39.702 105.022 39.5541 105.039 39.3732C105.039 39.3568 105.039 39.3404 105.039 39.3239V38.6006C105.466 38.7814 105.663 39.291 105.466 39.7184C105.285 40.1459 104.776 40.3431 104.348 40.1459C103.921 39.965 103.724 39.4554 103.921 39.028C104.019 38.8307 104.167 38.6828 104.365 38.6006Z" fill="#F74E4E"/>
<path d="M115.461 41.1982V48.2835L114.031 49.7137H102.343V41.1982H115.461Z" fill="white"/>
<path d="M107.225 43.5L106.65 44.7658H107.192L107.57 43.8781H107.636V46.3111H108.146V43.5H107.225V43.5Z" fill="#585858"/>
<path d="M110.612 44.9129C110.529 44.7814 110.414 44.6828 110.283 44.6006C110.135 44.5348 109.987 44.502 109.822 44.502C109.674 44.502 109.543 44.5184 109.411 44.5677C109.329 44.6006 109.264 44.6499 109.198 44.7157H109.132V44.4198C109.132 44.2718 109.181 44.1403 109.28 44.0252C109.395 43.9266 109.543 43.8773 109.691 43.8773C109.839 43.8608 109.97 43.9102 110.085 44.0088C110.168 44.091 110.201 44.1896 110.201 44.3047H110.727C110.727 44.1403 110.694 43.9759 110.595 43.828C110.513 43.6965 110.381 43.5814 110.233 43.5321C110.069 43.4499 109.872 43.417 109.691 43.417C109.494 43.417 109.313 43.4499 109.132 43.5321C108.968 43.5978 108.836 43.7129 108.754 43.8773C108.655 44.0581 108.606 44.2554 108.622 44.4527V45.4061C108.622 45.5869 108.655 45.7513 108.754 45.8993C108.836 46.0472 108.968 46.1623 109.116 46.2281C109.296 46.3103 109.477 46.3596 109.674 46.3431C109.872 46.3431 110.069 46.3103 110.233 46.2281C110.546 46.0801 110.743 45.7513 110.743 45.4061V45.3568C110.743 45.2088 110.71 45.0445 110.612 44.9129ZM110.233 45.4226C110.233 45.5541 110.184 45.6856 110.085 45.7842C109.855 45.965 109.527 45.965 109.28 45.7842C109.181 45.6856 109.132 45.5705 109.132 45.4226V45.3897C109.132 45.3075 109.148 45.2089 109.198 45.1267C109.247 45.0609 109.313 44.9951 109.395 44.9623C109.494 44.9129 109.592 44.8965 109.691 44.8965C109.79 44.8965 109.888 44.9129 109.987 44.9623C110.069 44.9951 110.135 45.0609 110.184 45.1267C110.233 45.2089 110.25 45.291 110.25 45.3897V45.4226H110.233Z" fill="#585858"/>
<path d="M105.039 38.6003V39.3237C105.055 39.5045 104.907 39.6689 104.726 39.6853C104.546 39.7018 104.381 39.5538 104.365 39.373C104.365 39.3565 104.365 39.3401 104.365 39.3237V38.6003C104.578 38.5017 104.825 38.5017 105.039 38.6003Z" fill="#4FBF5E"/>
<path d="M105.039 37.1866V39.3237C105.055 39.5045 104.907 39.6689 104.726 39.6854C104.546 39.7018 104.381 39.5539 104.365 39.373C104.365 39.3566 104.365 39.3402 104.365 39.3237V37.1866C104.381 37.0058 104.546 36.8579 104.726 36.8743C104.907 36.8743 105.039 37.0222 105.039 37.1866Z" fill="#F1F1F1"/>
<path d="M113.34 37.1872V39.3243C113.34 39.5051 113.192 39.6695 113.012 39.6695C112.831 39.6695 112.666 39.5215 112.666 39.3407V37.2036C112.666 37.0228 112.798 36.8748 112.979 36.8584C112.979 36.8584 112.979 36.8584 112.995 36.8584C113.176 36.8584 113.324 36.9899 113.34 37.1707V37.1872Z" fill="#F1F1F1"/>
<path d="M115.461 48.2842L114.031 49.7144V48.2842H115.461Z" fill="#E7E7E7"/>
<path d="M115.231 52.475C116.638 52.475 117.779 51.3342 117.779 49.927C117.779 48.5197 116.638 47.3789 115.231 47.3789C113.824 47.3789 112.683 48.5197 112.683 49.927C112.683 51.3342 113.824 52.475 115.231 52.475Z" fill="#4FBF5E"/>
<path d="M114.097 50.2883L114.804 50.9951L116.365 49.417" stroke="white" stroke-width="0.647423" stroke-linecap="round"/>
<path d="M182.138 41.3955H150.246" stroke="white" stroke-width="1.29485" stroke-miterlimit="10"/>
<path d="M168.937 56.2562V23" stroke="white" stroke-width="1.29485" stroke-miterlimit="10"/>
<path d="M110.611 25.7129H142.799C142.98 25.7129 143.128 25.8608 143.128 26.0417V33.3899C143.128 33.5708 142.98 33.7187 142.799 33.7187H110.611C110.431 33.7187 110.283 33.5708 110.283 33.3899V26.0417C110.283 25.8608 110.431 25.7129 110.611 25.7129Z" fill="#102DA3"/>
<path d="M138.936 33.7188V36.875L135.78 33.7188H138.936Z" fill="#102DA3"/>
<path d="M141.024 29.6416H112.913V29.806H141.024V29.6416Z" fill="white"/>
<path d="M142.849 58.2453C142.849 58.2618 142.849 58.2782 142.832 58.2782C142.816 58.2947 142.816 58.2947 142.799 58.2947H140.547C140.514 58.2947 140.498 58.2782 140.498 58.2453C140.531 57.6042 141.09 57.0946 141.731 57.1275C142.339 57.1604 142.816 57.6371 142.849 58.2453Z" fill="#F74E4E"/>
<path d="M142.618 56.9964C142.75 56.9964 142.848 56.8978 142.848 56.7663C142.848 56.6348 142.75 56.5361 142.618 56.5361C142.487 56.5361 142.388 56.6348 142.388 56.7663C142.388 56.8978 142.487 56.9964 142.618 56.9964Z" fill="#F74E4E"/>
<path d="M139.413 58.246C139.413 58.2788 139.396 58.2953 139.363 58.2953H137.473C137.44 58.2953 137.424 58.2788 137.424 58.246C137.424 58.2295 137.424 58.2295 137.44 58.2131L138.393 56.5692L138.41 56.5527H138.426H138.443L138.459 56.5692L139.413 58.2131C139.413 58.2131 139.413 58.2295 139.413 58.246Z" fill="#FFB71B"/>
<path d="M145.479 56.5361C145.462 56.5361 145.462 56.5361 145.446 56.5526L144.312 57.391C144.295 57.391 144.295 57.391 144.279 57.4074H144.262L143.144 56.569C143.144 56.569 143.128 56.569 143.128 56.5526C143.111 56.5526 143.095 56.5526 143.095 56.569C143.079 56.5854 143.079 56.5854 143.079 56.6019V58.2458V58.2622C143.079 58.2622 143.079 58.2787 143.095 58.2787L143.111 58.2951H143.128H145.479C145.495 58.2951 145.512 58.2951 145.512 58.2787C145.528 58.2622 145.528 58.2622 145.528 58.2458V56.6019C145.528 56.5854 145.528 56.569 145.512 56.569C145.512 56.5361 145.495 56.5361 145.479 56.5361Z" fill="#4FBF5E"/>
<path d="M140.563 56.5353H140.284C140.284 56.5353 140.268 56.5353 140.268 56.5189V56.5024V56.1079V56.0915C140.268 56.0915 140.268 56.075 140.251 56.075L140.235 56.0586H140.218H139.692C139.676 56.0586 139.659 56.0586 139.659 56.075C139.643 56.0915 139.643 56.0915 139.643 56.1079V58.2285C139.643 58.245 139.643 58.2614 139.659 58.2614C139.676 58.2779 139.676 58.2779 139.692 58.2779H140.218C140.235 58.2779 140.251 58.2779 140.251 58.2614C140.268 58.245 140.268 58.245 140.268 58.2285V57.1929C140.268 57.1929 140.268 57.1929 140.268 57.1764H140.547C140.563 57.1764 140.58 57.1764 140.58 57.16C140.596 57.1436 140.596 57.1436 140.596 57.1271V56.6011C140.613 56.5846 140.596 56.5518 140.58 56.5353C140.58 56.5353 140.58 56.5353 140.563 56.5353Z" fill="#71C5FF"/>
</svg>
