<svg xmlns="http://www.w3.org/2000/svg" viewBox="0 0 1919.09 1757.06"><defs><style>.cls-1{fill:#1e2043;stroke:#575756;}.cls-1,.cls-2{stroke-miterlimit:10;}.cls-2{fill:none;stroke:#c7c6c8;}</style></defs><g id="Layer_5" data-name="Layer 5"><rect class="cls-1" x="0.5" y="0.5" width="1918.09" height="1756.06"/></g><g id="Layer_2_copy_4" data-name="Layer 2 copy 4"><path class="cls-2" d="M825.62,978.62a12.92,12.92,0,1,1-25.84,0V727.31a50.08,50.08,0,0,0-50-50v.57a50.07,50.07,0,0,0-50,50h37.09a12.92,12.92,0,0,1,25.84,0v154a50,50,0,0,0-63.24,48.23v98.39l37.09.28V930.09a12.93,12.93,0,0,1,12.92-12.92,13.2,13.2,0,0,1,13.23,12.92v48.53a50,50,0,1,0,100,0V727.84H825.62Z" transform="translate(0.5 0.5)"/><path class="cls-2" d="M941.09,726.56a48.56,48.56,0,0,0-14.52-2.2,49.41,49.41,0,0,0-49.35,49.35v104.7a49.4,49.4,0,0,0,49.35,49.35,48.56,48.56,0,0,0,14.52-2.2v102.92c0,7.12-7.22,12.92-14.35,12.92a12.94,12.94,0,0,1-12.92-12.92v-33H876.73v33a50.07,50.07,0,0,0,50,50c27.58,0,49.4-22.44,49.4-50V677.29h-35ZM926.57,893.14a14.75,14.75,0,0,1-14.73-14.73V773.71A14.75,14.75,0,0,1,926.57,759c7.64,0,13.39,5.81,14.52,14.17V879C940,887.34,934.21,893.14,926.57,893.14Z" transform="translate(0.5 0.5)"/><path class="cls-2" d="M1086.1,804.82H1027V677.47H989.87v401.2H1027V841.92h59.14a26.37,26.37,0,1,1,0,52.73l-.78.6v-.6a35.05,35.05,0,0,0-35,35.05v98.38h35V931.75h.78a63.47,63.47,0,0,0,0-126.93Z" transform="translate(0.5 0.5)"/><path class="cls-2" d="M1487.31,677.37h-77.48a63.53,63.53,0,0,0-63.46,63.46V983.29a12.92,12.92,0,1,1-25.84,0h0v-128h0V853h-.06a50,50,0,0,0-100,2.31h37.09a12.92,12.92,0,1,1,25.84,0V987.19h.17a50,50,0,0,0,99.7,0h.16V740.83a26.4,26.4,0,0,1,26.37-26.36h77.48a26.37,26.37,0,1,1,0,52.73h-90.93v266.11h37.1v-229h53.83a63.47,63.47,0,1,0,0-126.93Z" transform="translate(0.5 0.5)"/><path class="cls-2" d="M1208.63,1041.68a12.93,12.93,0,0,1-12.92-12.92v-271h110v-37.1h-110V677.29h-37.1v43.35H1050.27v37.1h108.34v271a50,50,0,0,0,100,0h-37.09A12.94,12.94,0,0,1,1208.63,1041.68Z" transform="translate(0.5 0.5)"/><rect class="cls-2" x="763.18" y="1041.34" width="95.19" height="37.09"/><rect class="cls-2" x="1050.14" y="1041.34" width="95.19" height="37.09"/><rect class="cls-2" x="1269.14" y="1041.34" width="100.03" height="37.09"/><rect class="cls-2" x="519.12" y="1041.34" width="100.03" height="37.09"/><path class="cls-2" d="M686.83,1041.68A12.9,12.9,0,0,1,674,1028.76h.08V877.32a63.46,63.46,0,0,0-.25-126.92H618.65V677.29H581.56V978a12.92,12.92,0,1,1-25.84,0V787.49h14.06V750.4H555.72v-9.6a63.53,63.53,0,0,0-63.46-63.46H451.68A63.53,63.53,0,0,0,388.23,742c.66,34.74,29.76,62.23,64.51,62.23h16.37v211a26.37,26.37,0,0,1-52.74,0V898.61H379.28v116.62a63.45,63.45,0,0,0,126,10.69l.92.17V803.77h0a37.09,37.09,0,0,0-37.08-36.59H451.68a26.4,26.4,0,0,1-26.35-27.39c.54-14.27,12.72-25.35,27-25.35h39.93a26.39,26.39,0,0,1,26.36,26.37V980.15h.06a50,50,0,0,0,100-2.19V787.49h55.17a26.37,26.37,0,0,1,0,52.74v.09A37.1,37.1,0,0,0,637,877.41v151.35h.13a49.74,49.74,0,1,0,99.47,0H699.46A12.71,12.71,0,0,1,686.83,1041.68Z" transform="translate(0.5 0.5)"/><path class="cls-2" d="M844.17,678a18.55,18.55,0,0,0-18.55,18.55v.13a18.55,18.55,0,1,0,37.09,0v-.13A18.55,18.55,0,0,0,844.17,678Z" transform="translate(0.5 0.5)"/><path class="cls-2" d="M1400.14,1040.78a18.54,18.54,0,0,0-18.55,18.54v.13a18.55,18.55,0,1,0,37.09,0v-.13A18.54,18.54,0,0,0,1400.14,1040.78Z" transform="translate(0.5 0.5)"/></g></svg>