<svg width="483" height="377" viewBox="0 0 483 377" fill="none" xmlns="http://www.w3.org/2000/svg">
<rect width="481.969" height="377" transform="translate(0.548828 0.000488281)" fill="#F0F0F0"/>
<g clip-path="url(#clip0_654_4076)">
<path d="M218.246 172.36H248.077C252.306 172.36 256.363 174.045 259.354 177.044C262.344 180.043 264.025 184.111 264.025 188.352V214.206H218.246V172.36Z" fill="#19FFC1"/>
<path d="M225.857 180.889V195.816H222.402V189.694H215.642V195.816H212.195V180.889H215.642V186.771H222.402V180.889H225.857Z" fill="black"/>
<path d="M232.413 195.105C231.202 194.453 230.19 193.485 229.484 192.302C228.779 191.119 228.406 189.767 228.406 188.388C228.406 187.01 228.779 185.658 229.484 184.475C230.19 183.292 231.202 182.323 232.413 181.671C233.702 180.993 235.14 180.647 236.595 180.667C238.045 180.646 239.477 180.992 240.759 181.671C241.973 182.321 242.988 183.289 243.695 184.472C244.403 185.655 244.776 187.009 244.776 188.388C244.776 189.768 244.403 191.121 243.695 192.304C242.988 193.487 241.973 194.455 240.759 195.105C239.477 195.785 238.045 196.13 236.595 196.109C235.14 196.129 233.702 195.784 232.413 195.105ZM238.979 192.555C239.681 192.157 240.259 191.569 240.644 190.858C241.06 190.103 241.271 189.251 241.256 188.388C241.27 187.523 241.06 186.668 240.644 185.909C240.258 185.201 239.681 184.616 238.979 184.221C238.248 183.819 237.428 183.608 236.595 183.608C235.762 183.608 234.942 183.819 234.212 184.221C233.51 184.616 232.932 185.201 232.546 185.909C232.131 186.668 231.92 187.523 231.935 188.388C231.919 189.251 232.13 190.103 232.546 190.858C232.932 191.569 233.509 192.157 234.212 192.555C234.944 192.952 235.763 193.159 236.595 193.159C237.427 193.159 238.246 192.952 238.979 192.555Z" fill="black"/>
<path d="M213.986 210.297C213.366 209.62 212.889 208.823 212.585 207.956C212.28 207.088 212.154 206.168 212.214 205.251V196.881H215.66V205.109C215.66 207.78 216.765 209.116 218.974 209.116C219.431 209.147 219.89 209.077 220.318 208.909C220.745 208.742 221.13 208.481 221.446 208.147C222.096 207.274 222.41 206.195 222.332 205.109V196.881H225.734V205.242C225.689 206.582 225.264 207.881 224.51 208.988C223.756 210.095 222.703 210.964 221.475 211.493C220.246 212.023 218.893 212.19 217.573 211.977C216.253 211.764 215.021 211.178 214.021 210.288L213.986 210.297Z" fill="black"/>
<path d="M231.519 211.593C230.564 211.344 229.662 210.919 228.861 210.34L230.031 207.737C230.724 208.236 231.493 208.62 232.308 208.874C233.166 209.156 234.063 209.3 234.966 209.301C235.716 209.35 236.466 209.197 237.137 208.857C237.347 208.746 237.523 208.58 237.646 208.376C237.769 208.173 237.835 207.94 237.837 207.702C237.839 207.532 237.803 207.363 237.731 207.209C237.658 207.055 237.552 206.92 237.42 206.813C237.105 206.557 236.744 206.364 236.357 206.245C235.923 206.102 235.338 205.951 234.585 205.783C233.642 205.567 232.713 205.294 231.803 204.965C231.081 204.702 230.44 204.255 229.942 203.668C229.395 202.996 229.117 202.144 229.163 201.278C229.153 200.44 229.397 199.619 229.863 198.924C230.392 198.173 231.128 197.593 231.98 197.253C233.076 196.807 234.253 196.596 235.435 196.631C236.373 196.631 237.307 196.745 238.218 196.969C239.058 197.171 239.862 197.504 240.601 197.955L239.538 200.621C238.291 199.874 236.87 199.47 235.418 199.448C234.673 199.396 233.929 199.559 233.274 199.919C233.061 200.046 232.885 200.227 232.764 200.444C232.643 200.66 232.58 200.905 232.583 201.154C232.581 201.403 232.657 201.646 232.8 201.85C232.943 202.054 233.146 202.208 233.38 202.291C234.165 202.62 234.981 202.867 235.816 203.028C236.761 203.247 237.692 203.517 238.607 203.837C239.32 204.109 239.958 204.547 240.468 205.116C241.01 205.784 241.284 206.629 241.239 207.488C241.243 208.321 240.996 209.136 240.53 209.825C239.993 210.576 239.252 211.156 238.395 211.495C237.29 211.934 236.109 212.146 234.922 212.117C233.768 212.105 232.623 211.928 231.519 211.593Z" fill="black"/>
<path d="M255.377 209.045V211.817H243.859V196.881H255.103V199.653H247.279V202.896H254.19V205.562H247.279V209.018L255.377 209.045Z" fill="black"/>
<path d="M258.205 211.221C258.01 211.026 257.856 210.793 257.754 210.536C257.652 210.28 257.603 210.005 257.611 209.729C257.599 209.453 257.646 209.178 257.748 208.922C257.851 208.667 258.006 208.436 258.205 208.245C258.606 207.879 259.129 207.676 259.671 207.676C260.213 207.676 260.736 207.879 261.138 208.245C261.336 208.436 261.492 208.667 261.594 208.922C261.697 209.178 261.743 209.453 261.731 209.729C261.737 210.143 261.619 210.549 261.392 210.895C261.166 211.242 260.842 211.513 260.461 211.673C260.08 211.833 259.66 211.876 259.255 211.795C258.85 211.715 258.478 211.515 258.187 211.221H258.205Z" fill="black"/>
<path d="M212.205 164.897H218.965C220.444 164.856 221.912 165.161 223.254 165.785C224.445 166.361 225.448 167.268 226.142 168.397C226.821 169.592 227.178 170.944 227.178 172.32C227.178 173.695 226.821 175.047 226.142 176.242C225.453 177.376 224.449 178.284 223.254 178.855C221.917 179.498 220.448 179.818 218.965 179.787H212.205V164.897ZM218.797 176.989C220.096 177.05 221.368 176.601 222.341 175.736C223.194 174.818 223.669 173.61 223.669 172.355C223.669 171.101 223.194 169.892 222.341 168.975C221.364 168.116 220.094 167.671 218.797 167.731H215.652V176.989H218.797Z" fill="black"/>
<path d="M239.359 176.635H232.448L231.128 179.833H227.584L234.22 164.907H237.622L244.276 179.833H240.661L239.359 176.635ZM238.278 174.014L235.912 168.292L233.556 174.014H238.278Z" fill="black"/>
<path d="M247.209 167.562L269.359 162.231V197.459L247.209 192.084V167.562Z" fill="#E5E5E5"/>
</g>
<defs>
<clipPath id="clip0_654_4076">
<rect width="57.1543" height="51.992" fill="white" transform="translate(212.205 162.213)"/>
</clipPath>
</defs>
</svg>
