<svg width="483" height="377" viewBox="0 0 483 377" fill="none" xmlns="http://www.w3.org/2000/svg">
<rect width="481.969" height="377" transform="translate(0.564453)" fill="#EAF1FB"/>
<path d="M241.553 170.851C236.439 170.85 231.44 172.366 227.187 175.206C222.935 178.047 219.621 182.085 217.663 186.809C215.706 191.533 215.193 196.732 216.19 201.748C217.187 206.763 219.649 211.37 223.265 214.987C226.881 218.603 231.488 221.066 236.503 222.064C241.519 223.062 246.717 222.55 251.442 220.593C256.167 218.636 260.205 215.322 263.046 211.071C265.887 206.819 267.404 201.82 267.404 196.706C267.404 189.849 264.68 183.274 259.832 178.425C254.984 173.577 248.409 170.852 241.553 170.851V170.851ZM241.553 215.251C237.884 215.248 234.3 214.158 231.251 212.117C228.203 210.077 225.828 207.178 224.426 203.789C223.025 200.399 222.66 196.669 223.378 193.072C224.096 189.475 225.864 186.171 228.459 183.578C231.055 180.986 234.36 179.221 237.958 178.507C241.556 177.793 245.285 178.162 248.674 179.567C252.062 180.972 254.958 183.35 256.995 186.401C259.032 189.452 260.119 193.038 260.118 196.706C260.118 199.143 259.638 201.556 258.705 203.808C257.771 206.059 256.404 208.104 254.679 209.827C252.955 211.549 250.908 212.915 248.656 213.845C246.404 214.776 243.99 215.254 241.553 215.251Z" fill="#162AF1"/>
<path d="M241.553 165.384C236.439 165.383 231.439 166.899 227.187 169.74C222.935 172.581 219.62 176.619 217.663 181.343C215.705 186.068 215.193 191.266 216.19 196.282C217.188 201.298 219.65 205.905 223.267 209.521C226.883 213.137 231.49 215.6 236.506 216.597C241.521 217.595 246.72 217.083 251.445 215.125C256.169 213.168 260.207 209.853 263.048 205.601C265.889 201.348 267.404 196.349 267.404 191.235C267.404 184.379 264.68 177.804 259.832 172.956C254.984 168.108 248.409 165.384 241.553 165.384V165.384ZM241.553 209.785C237.885 209.781 234.3 208.691 231.252 206.651C228.203 204.611 225.828 201.712 224.427 198.323C223.025 194.933 222.66 191.204 223.378 187.606C224.095 184.009 225.863 180.706 228.458 178.113C231.053 175.52 234.358 173.755 237.956 173.041C241.554 172.326 245.282 172.695 248.671 174.099C252.06 175.504 254.956 177.881 256.993 180.931C259.031 183.981 260.118 187.567 260.118 191.235C260.118 193.672 259.638 196.086 258.705 198.337C257.772 200.589 256.404 202.635 254.68 204.357C252.955 206.08 250.909 207.446 248.656 208.377C246.404 209.309 243.99 209.787 241.553 209.785Z" fill="#2F6DDA"/>
<path d="M241.553 159.91C236.439 159.909 231.44 161.425 227.187 164.265C222.935 167.106 219.621 171.143 217.663 175.868C215.706 180.592 215.193 185.79 216.19 190.806C217.187 195.822 219.649 200.429 223.265 204.045C226.881 207.662 231.488 210.124 236.503 211.122C241.519 212.12 246.717 211.608 251.442 209.652C256.167 207.695 260.205 204.381 263.046 200.129C265.887 195.877 267.404 190.878 267.404 185.765C267.404 178.908 264.68 172.332 259.832 167.484C254.984 162.635 248.409 159.911 241.553 159.91V159.91ZM241.553 204.31C237.884 204.307 234.3 203.216 231.251 201.176C228.203 199.135 225.828 196.237 224.426 192.847C223.025 189.457 222.66 185.728 223.378 182.13C224.096 178.533 225.864 175.229 228.459 172.637C231.055 170.045 234.36 168.28 237.958 167.566C241.556 166.852 245.285 167.221 248.674 168.626C252.062 170.031 254.958 172.409 256.995 175.46C259.032 178.51 260.119 182.096 260.118 185.765C260.118 188.202 259.638 190.615 258.705 192.866C257.771 195.118 256.404 197.163 254.679 198.885C252.955 200.608 250.908 201.973 248.656 202.904C246.404 203.835 243.99 204.313 241.553 204.31Z" fill="#82B8F5"/>
<path d="M241.553 154.439C236.439 154.438 231.44 155.954 227.187 158.794C222.935 161.635 219.621 165.673 217.663 170.397C215.706 175.121 215.193 180.32 216.19 185.335C217.187 190.351 219.649 194.958 223.265 198.575C226.881 202.191 231.488 204.654 236.503 205.652C241.519 206.65 246.717 206.138 251.442 204.181C256.167 202.224 260.205 198.91 263.046 194.658C265.887 190.407 267.404 185.408 267.404 180.294C267.404 173.437 264.68 166.862 259.832 162.013C254.984 157.164 248.409 154.44 241.553 154.439V154.439ZM241.553 198.843C237.885 198.84 234.3 197.75 231.252 195.709C228.203 193.669 225.828 190.771 224.427 187.381C223.025 183.992 222.66 180.262 223.378 176.665C224.095 173.068 225.863 169.764 228.458 167.172C231.053 164.579 234.358 162.814 237.956 162.1C241.554 161.385 245.282 161.753 248.671 163.158C252.06 164.562 254.956 166.94 256.993 169.99C259.031 173.04 260.118 176.626 260.118 180.294C260.118 182.731 259.638 185.145 258.705 187.396C257.772 189.648 256.404 191.693 254.68 193.416C252.955 195.139 250.909 196.505 248.656 197.436C246.404 198.367 243.99 198.845 241.553 198.843V198.843Z" fill="white"/>
</svg>
