<svg width="482" height="377" viewBox="0 0 482 377" fill="none" xmlns="http://www.w3.org/2000/svg">
<rect width="482" height="377" transform="translate(0 0.000732422)" fill="#0036AE"/>
<g clip-path="url(#clip0_654_4153)">
<path d="M277.658 225.397C298.029 205.026 298.13 172.099 277.883 151.852C257.636 131.605 224.708 131.705 204.337 152.077C183.966 172.448 183.866 205.375 204.112 225.622C224.359 245.869 257.287 245.768 277.658 225.397Z" fill="#FFB71B"/>
<path d="M262.791 210.517C253.825 219.483 240.175 222.145 228.559 217.114L228.815 216.523C240.44 221.563 254.163 218.729 262.908 209.477C270.801 201.15 273.348 189.279 269.558 178.504L270.163 178.289C274.033 189.291 271.431 201.416 263.374 209.916C263.183 210.126 262.987 210.321 262.791 210.517Z" fill="white"/>
<path d="M220.297 206.342L213.434 212.038L215.451 214.474L214.336 215.399L209.283 209.299L210.399 208.374L212.416 210.811L219.279 205.115L220.297 206.342Z" fill="white"/>
<path d="M217.494 202.608L211.046 206.024L210.356 204.705L211.11 204.303L211.002 204.094C210.675 204.132 210.389 204.074 210.14 203.906C209.895 203.744 209.678 203.49 209.502 203.15L209.096 202.38L210.31 201.736L210.739 202.556C210.965 202.991 211.272 203.281 211.662 203.434C212.052 203.587 212.488 203.532 212.988 203.267L216.781 201.258L217.494 202.608Z" fill="white"/>
<path d="M207.147 199.767C207.241 200.044 207.227 200.312 207.108 200.567C206.989 200.821 206.789 200.994 206.498 201.095C206.207 201.196 205.944 201.178 205.695 201.048C205.45 200.921 205.278 200.713 205.184 200.436C205.085 200.146 205.099 199.878 205.218 199.633C205.337 199.387 205.541 199.209 205.832 199.109C206.123 199.008 206.391 199.021 206.636 199.147C206.881 199.273 207.052 199.482 207.147 199.767ZM215.234 197.827L208.33 200.177L207.849 198.739L214.752 196.389L215.234 197.827Z" fill="white"/>
<path d="M213.955 191.376C214.03 192.07 213.955 192.715 213.722 193.311C213.488 193.906 213.11 194.402 212.591 194.794C212.073 195.186 211.414 195.429 210.637 195.517L210.446 195.536C209.665 195.629 208.975 195.541 208.391 195.275C207.806 195.008 207.33 194.615 206.969 194.089C206.607 193.564 206.391 192.947 206.312 192.257C206.236 191.563 206.297 190.959 206.499 190.441C206.7 189.923 206.996 189.491 207.383 189.14C207.775 188.794 208.211 188.547 208.711 188.4L209.179 189.833C208.861 189.916 208.579 190.053 208.333 190.245C208.088 190.436 207.901 190.677 207.773 190.977C207.649 191.282 207.612 191.645 207.656 192.072C207.705 192.494 207.84 192.856 208.066 193.174C208.292 193.491 208.595 193.721 208.976 193.874C209.357 194.028 209.797 194.076 210.306 194.02L210.437 194.006C210.946 193.95 211.369 193.799 211.714 193.562C212.051 193.325 212.302 193.029 212.448 192.665C212.599 192.306 212.646 191.916 212.601 191.498C212.531 190.863 212.314 190.4 211.952 190.102C211.585 189.808 211.15 189.646 210.628 189.616L210.805 188.108C211.318 188.165 211.803 188.323 212.252 188.571C212.705 188.824 213.085 189.177 213.388 189.634C213.691 190.101 213.88 190.682 213.955 191.376Z" fill="white"/>
<path d="M213.534 186.789L203.338 185.145L203.587 183.646L209.4 184.586L209.437 184.35L207.114 181.07L207.447 179.072L210.316 183.262L214.643 180.112L214.311 182.092L210.83 184.568L210.788 184.8L213.774 185.281L213.534 186.789Z" fill="white"/>
<path d="M217.972 180.025L216.784 179.438L218.607 175.796C218.73 175.546 218.663 175.36 218.395 175.229L216.392 174.237L216.287 174.45C216.422 174.613 216.531 174.822 216.612 175.067C216.693 175.312 216.719 175.593 216.686 175.925C216.653 176.256 216.534 176.62 216.329 177.033C216.082 177.524 215.75 177.911 215.34 178.194C214.926 178.472 214.458 178.623 213.95 178.643C213.432 178.663 212.901 178.533 212.344 178.258L208.423 176.313L209.108 174.949L212.92 176.839C213.482 177.119 213.968 177.186 214.381 177.035C214.79 176.888 215.123 176.556 215.374 176.06C215.652 175.501 215.69 174.965 215.492 174.439C215.29 173.918 214.841 173.479 214.139 173.131L210.839 171.498L211.524 170.134L219.361 174.019C219.756 174.213 220.014 174.489 220.135 174.838C220.257 175.187 220.21 175.569 220.014 175.973L217.972 180.025Z" fill="white"/>
<path d="M222.769 168.215L217.097 161.404L214.653 163.441L213.726 162.332L219.843 157.228L220.77 158.338L218.326 160.375L223.998 167.185L222.769 168.215Z" fill="white"/>
<path d="M229.2 164.211C228.541 164.527 227.891 164.669 227.251 164.649C226.611 164.619 226.026 164.425 225.492 164.064C224.957 163.702 224.527 163.163 224.198 162.47L224.108 162.27C223.779 161.577 223.644 160.914 223.701 160.27C223.757 159.625 223.972 159.047 224.355 158.529C224.738 158.01 225.257 157.591 225.916 157.276C226.576 156.96 227.225 156.818 227.874 156.847C228.523 156.877 229.108 157.071 229.643 157.432C230.178 157.794 230.603 158.319 230.932 159.013L231.027 159.217C231.356 159.91 231.495 160.577 231.438 161.222C231.386 161.871 231.162 162.449 230.775 162.972C230.387 163.495 229.859 163.896 229.2 164.211ZM228.618 162.983C229.223 162.695 229.624 162.267 229.821 161.699C230.018 161.131 229.951 160.509 229.627 159.82L229.573 159.702C229.252 159.018 228.809 158.574 228.251 158.362C227.693 158.151 227.112 158.198 226.494 158.49C225.898 158.778 225.502 159.202 225.305 159.77C225.108 160.338 225.174 160.96 225.499 161.649L225.553 161.767C225.878 162.447 226.317 162.895 226.884 163.097C227.441 163.309 228.023 163.271 228.618 162.983Z" fill="white"/>
<path d="M234.002 165.011L232.702 154.868L234.183 154.673L234.321 155.712L234.552 155.68C234.699 155.334 234.94 155.011 235.286 154.701C235.628 154.396 236.15 154.199 236.854 154.102C237.458 154.023 238.03 154.094 238.574 154.319C239.118 154.544 239.576 154.911 239.951 155.423C240.326 155.934 240.569 156.578 240.667 157.359L240.693 157.577C240.791 158.357 240.73 159.043 240.496 159.638C240.268 160.229 239.916 160.707 239.439 161.067C238.97 161.427 238.429 161.651 237.825 161.73C237.357 161.791 236.953 161.788 236.617 161.716C236.282 161.644 236.001 161.527 235.783 161.373C235.566 161.22 235.389 161.052 235.245 160.871L235.013 160.904L235.514 164.811L234.002 165.011ZM237.221 160.47C237.888 160.382 238.398 160.099 238.767 159.621C239.131 159.148 239.265 158.516 239.167 157.736L239.15 157.6C239.052 156.828 238.763 156.266 238.288 155.9C237.808 155.538 237.241 155.399 236.591 155.487C235.946 155.571 235.437 155.854 235.068 156.332C234.699 156.81 234.556 157.432 234.663 158.204L234.676 158.335C234.773 159.116 235.062 159.687 235.542 160.049C236.013 160.419 236.576 160.554 237.221 160.47Z" fill="white"/>
<path d="M242.484 161.407L243.192 154.155L244.708 154.296L244 161.548L242.484 161.407ZM244.053 153.24C243.758 153.209 243.522 153.092 243.341 152.884C243.16 152.675 243.084 152.417 243.112 152.117C243.145 151.813 243.268 151.572 243.486 151.399C243.705 151.225 243.959 151.152 244.259 151.178C244.563 151.209 244.803 151.322 244.979 151.535C245.156 151.748 245.228 152.002 245.204 152.306C245.171 152.61 245.053 152.847 244.839 153.024C244.611 153.198 244.357 153.271 244.053 153.24Z" fill="white"/>
<path d="M248.912 162.828C248.25 162.621 247.688 162.296 247.236 161.844C246.788 161.395 246.49 160.852 246.342 160.221C246.198 159.586 246.246 158.896 246.484 158.141L246.544 157.955C246.782 157.201 247.138 156.609 247.625 156.177C248.108 155.739 248.663 155.465 249.294 155.35C249.925 155.234 250.574 155.273 251.237 155.48C251.899 155.687 252.434 155.985 252.823 156.374C253.212 156.763 253.492 157.207 253.65 157.702C253.807 158.196 253.855 158.7 253.781 159.218L252.283 159.077C252.334 158.754 252.326 158.437 252.254 158.137C252.183 157.838 252.038 157.566 251.812 157.331C251.586 157.095 251.269 156.915 250.856 156.784C250.452 156.663 250.062 156.637 249.68 156.72C249.299 156.803 248.962 156.985 248.666 157.272C248.37 157.559 248.147 157.946 247.986 158.432L247.949 158.559C247.794 159.05 247.756 159.495 247.836 159.903C247.912 160.307 248.084 160.651 248.355 160.932C248.622 161.208 248.958 161.416 249.361 161.537C249.969 161.726 250.487 161.716 250.905 161.496C251.323 161.277 251.651 160.94 251.893 160.481L253.198 161.24C252.934 161.685 252.592 162.063 252.178 162.378C251.764 162.692 251.287 162.898 250.741 162.99C250.196 163.083 249.575 163.035 248.912 162.828Z" fill="white"/>
<path d="M255.686 166.082C254.915 165.576 254.391 164.978 254.111 164.298C253.832 163.618 253.866 162.887 254.213 162.114L255.583 162.609C255.427 162.991 255.358 163.332 255.384 163.631C255.411 163.931 255.514 164.198 255.691 164.438C255.872 164.674 256.098 164.882 256.365 165.058C256.768 165.325 257.127 165.446 257.449 165.432C257.771 165.417 258.012 165.285 258.177 165.039C258.341 164.793 258.355 164.544 258.229 164.29C258.098 164.04 257.858 163.746 257.51 163.407L257.143 163.058C256.781 162.714 256.482 162.361 256.238 161.999C255.994 161.636 255.855 161.269 255.824 160.892C255.793 160.516 255.904 160.134 256.154 159.747C256.538 159.174 257.047 158.864 257.678 158.83C258.314 158.792 258.985 159.008 259.687 159.473C260.367 159.925 260.824 160.446 261.058 161.044C261.292 161.643 261.299 162.251 261.08 162.86L259.678 162.415C259.852 161.997 259.867 161.629 259.732 161.321C259.596 161.012 259.352 160.741 258.999 160.506C258.654 160.28 258.341 160.167 258.06 160.159C257.778 160.16 257.56 160.27 257.41 160.502C257.245 160.747 257.222 160.997 257.339 161.233C257.457 161.477 257.66 161.736 257.95 162.007L258.335 162.365C258.719 162.722 259.05 163.089 259.321 163.46C259.592 163.832 259.754 164.203 259.799 164.594C259.847 164.979 259.733 165.375 259.455 165.789C259.053 166.398 258.512 166.722 257.84 166.761C257.168 166.799 256.447 166.588 255.686 166.082Z" fill="white"/>
<path d="M265.956 178.475L265.998 179.116L274.115 178.536L274.073 177.896L265.956 178.475Z" fill="white"/>
<path d="M229.054 214.026L227.483 219.006L228.096 219.196L229.666 214.216L229.054 214.026Z" fill="white"/>
</g>
<defs>
<clipPath id="clip0_654_4153">
<rect width="104.327" height="103.691" fill="white" transform="translate(167.454 188.955) rotate(-45)"/>
</clipPath>
</defs>
</svg>
