<svg width="482" height="377" viewBox="0 0 482 377" fill="none" xmlns="http://www.w3.org/2000/svg">
<g clip-path="url(#clip0_654_6358)">
<rect width="482" height="377" fill="white"/>
<g clip-path="url(#clip1_654_6358)">
<path d="M164.052 138.127C163.313 138.153 162.582 137.965 161.946 137.586C161.326 137.187 160.583 136.37 160.583 134.72C160.583 134.478 160.678 134.247 160.849 134.076C161.02 133.905 161.251 133.809 161.492 133.809C161.734 133.809 161.965 133.905 162.136 134.076C162.306 134.247 162.402 134.478 162.402 134.72C162.402 135.713 162.798 135.969 162.928 136.052C163.709 136.554 165.561 136.287 167.534 135.387C171.891 133.395 175.714 127.583 175.714 122.948C175.709 120.448 175.048 117.992 173.797 115.828C172.546 113.664 170.749 111.868 168.587 110.619C168.378 110.498 168.225 110.299 168.162 110.065C168.1 109.831 168.132 109.583 168.253 109.373C168.374 109.164 168.573 109.011 168.806 108.948C169.039 108.885 169.287 108.918 169.497 109.039C171.936 110.448 173.962 112.475 175.373 114.916C176.784 117.358 177.529 120.127 177.533 122.948C177.533 128.3 173.302 134.756 168.284 137.045C167.423 137.433 165.68 138.127 164.052 138.127Z" fill="#CCCCCC"/>
<path d="M162.712 134.591H160.158C159.966 134.591 159.779 134.53 159.623 134.417C159.468 134.304 159.352 134.145 159.292 133.962L157.775 129.298C157.697 129.069 157.712 128.819 157.817 128.601C157.923 128.384 158.11 128.218 158.339 128.139C158.567 128.06 158.817 128.075 159.034 128.181C159.251 128.286 159.417 128.474 159.496 128.703L159.506 128.734L160.817 132.77H162.044L163.356 128.734C163.433 128.507 163.597 128.32 163.81 128.213C164.024 128.106 164.272 128.087 164.499 128.161C164.726 128.235 164.915 128.396 165.025 128.609C165.135 128.822 165.157 129.069 165.086 129.298L163.565 133.962C163.506 134.143 163.392 134.301 163.239 134.413C163.086 134.526 162.902 134.588 162.712 134.591V134.591Z" fill="#0047AD"/>
<path d="M165.251 115.617C165.009 115.616 164.778 115.52 164.608 115.35C164.437 115.179 164.341 114.947 164.341 114.706V108.335C164.341 108.093 164.437 107.861 164.607 107.69C164.778 107.519 165.009 107.423 165.251 107.423C165.492 107.423 165.723 107.519 165.894 107.69C166.065 107.861 166.16 108.093 166.16 108.335V114.706C166.16 114.947 166.065 115.179 165.894 115.35C165.723 115.521 165.492 115.617 165.251 115.617V115.617Z" fill="#FFCD38"/>
<path d="M163.473 129.927H159.521C157.792 129.927 156.134 129.239 154.911 128.014C153.688 126.789 153.001 125.128 153.001 123.396V119.22C153.001 118.978 153.097 118.746 153.268 118.575C153.439 118.404 153.67 118.308 153.911 118.308C154.153 118.308 154.384 118.404 154.555 118.575C154.725 118.746 154.821 118.978 154.821 119.22V123.396C154.821 124.645 155.316 125.843 156.198 126.725C157.079 127.608 158.275 128.104 159.521 128.104H163.473C164.718 128.101 165.911 127.604 166.79 126.722C167.669 125.839 168.163 124.643 168.164 123.396V119.22C168.164 118.978 168.259 118.746 168.43 118.575C168.601 118.404 168.832 118.308 169.073 118.308C169.315 118.308 169.546 118.404 169.717 118.575C169.887 118.746 169.983 118.978 169.983 119.22V123.396C169.983 125.127 169.297 126.786 168.077 128.01C166.856 129.235 165.2 129.924 163.473 129.927V129.927Z" fill="#2F80F6"/>
<path d="M157.67 115.617C157.428 115.617 157.197 115.521 157.026 115.35C156.856 115.179 156.76 114.947 156.76 114.706V108.335C156.76 108.093 156.856 107.861 157.026 107.69C157.197 107.519 157.428 107.423 157.67 107.423C157.911 107.423 158.142 107.519 158.313 107.69C158.484 107.861 158.579 108.093 158.579 108.335V114.706C158.579 114.947 158.484 115.179 158.313 115.35C158.142 115.521 157.911 115.617 157.67 115.617V115.617Z" fill="#FFCD38"/>
<path d="M169.668 120.131H153.207C152.584 120.13 151.986 119.882 151.545 119.441C151.105 118.999 150.856 118.401 150.855 117.777V116.791C150.855 116.166 151.103 115.567 151.544 115.125C151.985 114.684 152.583 114.435 153.207 114.435H169.669C169.979 114.434 170.285 114.495 170.571 114.613C170.857 114.731 171.117 114.904 171.336 115.123C171.555 115.342 171.729 115.602 171.848 115.888C171.966 116.174 172.027 116.481 172.028 116.791V117.777C172.027 118.087 171.965 118.393 171.847 118.679C171.728 118.965 171.554 119.225 171.334 119.444C171.115 119.662 170.855 119.835 170.569 119.953C170.283 120.071 169.977 120.132 169.668 120.131V120.131ZM153.207 116.258C153.066 116.258 152.931 116.314 152.831 116.414C152.731 116.514 152.675 116.649 152.675 116.791V117.777C152.675 117.918 152.732 118.053 152.831 118.153C152.931 118.253 153.066 118.309 153.207 118.31H169.669C169.81 118.31 169.945 118.253 170.045 118.153C170.145 118.054 170.201 117.918 170.202 117.777V116.791C170.202 116.649 170.145 116.514 170.046 116.414C169.946 116.314 169.81 116.258 169.669 116.258H153.207Z" fill="#00C98A"/>
<path d="M161.437 125.436C161.073 125.436 160.717 125.328 160.414 125.125C160.111 124.922 159.874 124.634 159.735 124.297C159.596 123.959 159.559 123.588 159.63 123.23C159.701 122.872 159.877 122.543 160.134 122.285C160.392 122.027 160.72 121.852 161.078 121.78C161.435 121.709 161.806 121.746 162.142 121.885C162.479 122.025 162.767 122.262 162.969 122.565C163.171 122.869 163.279 123.225 163.279 123.59C163.279 124.08 163.085 124.549 162.74 124.895C162.394 125.241 161.926 125.436 161.437 125.436V125.436ZM161.437 123.567C161.431 123.567 161.425 123.57 161.421 123.574C161.417 123.578 161.414 123.584 161.414 123.59C161.414 123.615 161.46 123.615 161.46 123.59C161.46 123.584 161.457 123.578 161.453 123.574C161.449 123.57 161.443 123.567 161.437 123.567Z" fill="#CCCCCC"/>
<path d="M157.669 138.561C157.571 138.561 157.473 138.545 157.38 138.514C150.765 136.292 147.888 132.172 146.638 129.105C145.355 125.959 145.485 123.292 145.513 122.911C145.526 120.123 146.26 117.386 147.646 114.968C149.031 112.55 151.018 110.533 153.415 109.115C153.619 108.987 153.867 108.944 154.102 108.998C154.338 109.052 154.543 109.197 154.671 109.402C154.8 109.607 154.842 109.855 154.788 110.091C154.735 110.327 154.589 110.532 154.385 110.661L154.339 110.687C152.212 111.947 150.448 113.74 149.221 115.889C147.994 118.038 147.346 120.469 147.341 122.945V123.025C147.287 124.899 147.636 126.763 148.365 128.491C149.982 132.403 153.216 135.186 157.967 136.784C158.172 136.853 158.345 136.992 158.457 137.177C158.568 137.363 158.611 137.581 158.576 137.795C158.541 138.008 158.431 138.202 158.267 138.342C158.102 138.482 157.893 138.559 157.677 138.559L157.669 138.561Z" fill="#CCCCCC"/>
<path d="M222.045 137.071H216.098C215.687 137.07 215.293 136.907 215.003 136.616C214.712 136.325 214.549 135.93 214.548 135.519V134.345C214.549 133.933 214.712 133.539 215.003 133.248C215.293 132.957 215.687 132.793 216.098 132.793H222.045C222.456 132.793 222.85 132.957 223.14 133.248C223.431 133.539 223.595 133.933 223.596 134.345V135.519C223.595 135.93 223.431 136.325 223.14 136.616C222.85 136.907 222.456 137.07 222.045 137.071V137.071ZM216.368 135.248H221.776V134.625H216.368V135.248Z" fill="#0047AD"/>
<path d="M223.648 134.482H199.344C198.41 134.482 197.515 134.11 196.854 133.448C196.194 132.787 195.823 131.89 195.822 130.954V126.166C195.823 125.231 196.194 124.334 196.854 123.672C197.515 123.011 198.41 122.639 199.344 122.638H223.648C224.582 122.639 225.478 123.011 226.138 123.672C226.799 124.334 227.17 125.231 227.17 126.166V130.954C227.17 131.89 226.799 132.787 226.138 133.448C225.478 134.11 224.582 134.482 223.648 134.482V134.482ZM199.344 124.459C198.893 124.46 198.461 124.64 198.141 124.96C197.822 125.279 197.643 125.713 197.642 126.165V130.953C197.642 131.405 197.822 131.838 198.141 132.158C198.46 132.478 198.893 132.659 199.344 132.659H223.648C224.1 132.659 224.533 132.478 224.852 132.158C225.171 131.838 225.35 131.405 225.351 130.953V126.165C225.35 125.713 225.17 125.279 224.851 124.96C224.532 124.64 224.1 124.46 223.648 124.459H199.344Z" fill="#2F80F6"/>
<path d="M213.165 131.399C212.843 131.399 212.529 131.304 212.261 131.125C211.993 130.945 211.785 130.691 211.661 130.393C211.538 130.095 211.506 129.767 211.569 129.451C211.632 129.135 211.787 128.844 212.014 128.616C212.242 128.388 212.532 128.233 212.848 128.17C213.163 128.107 213.491 128.14 213.788 128.263C214.085 128.386 214.34 128.595 214.518 128.863C214.697 129.131 214.793 129.447 214.793 129.769C214.793 130.201 214.621 130.616 214.316 130.922C214.011 131.228 213.597 131.399 213.165 131.399ZM213.165 129.577C213.126 129.576 213.087 129.588 213.054 129.61C213.021 129.631 212.996 129.662 212.98 129.699C212.965 129.735 212.961 129.775 212.969 129.814C212.976 129.853 212.995 129.888 213.023 129.916C213.051 129.944 213.087 129.963 213.125 129.971C213.164 129.978 213.204 129.974 213.24 129.959C213.277 129.944 213.308 129.918 213.329 129.885C213.351 129.852 213.362 129.813 213.362 129.774C213.363 129.748 213.358 129.721 213.349 129.697C213.339 129.672 213.324 129.65 213.306 129.631C213.288 129.612 213.266 129.597 213.242 129.587C213.217 129.577 213.191 129.572 213.165 129.572V129.577Z" fill="#00C98A"/>
<path d="M217.714 131.399C217.393 131.399 217.078 131.304 216.81 131.125C216.543 130.945 216.334 130.691 216.211 130.393C216.088 130.095 216.055 129.767 216.118 129.451C216.181 129.135 216.336 128.844 216.564 128.616C216.791 128.388 217.081 128.233 217.397 128.17C217.713 128.107 218.04 128.14 218.337 128.263C218.635 128.386 218.889 128.595 219.068 128.863C219.247 129.131 219.342 129.447 219.342 129.769V129.769C219.342 130.201 219.171 130.616 218.865 130.922C218.56 131.228 218.146 131.399 217.714 131.399V131.399ZM217.714 129.577C217.675 129.576 217.636 129.588 217.604 129.61C217.571 129.631 217.545 129.662 217.53 129.699C217.514 129.735 217.51 129.775 217.518 129.814C217.526 129.853 217.545 129.888 217.572 129.916C217.6 129.944 217.636 129.963 217.674 129.971C217.713 129.978 217.753 129.974 217.79 129.959C217.826 129.944 217.857 129.918 217.879 129.885C217.9 129.852 217.912 129.813 217.911 129.774C217.912 129.721 217.891 129.67 217.854 129.632C217.818 129.594 217.767 129.573 217.714 129.572V129.577Z" fill="#00C98A"/>
<path d="M222.263 131.399C221.941 131.399 221.627 131.304 221.359 131.125C221.091 130.945 220.883 130.691 220.76 130.393C220.636 130.095 220.604 129.767 220.667 129.451C220.73 129.135 220.885 128.844 221.112 128.616C221.34 128.388 221.63 128.233 221.946 128.17C222.261 128.107 222.589 128.14 222.886 128.263C223.184 128.386 223.438 128.595 223.617 128.863C223.795 129.131 223.891 129.447 223.891 129.769C223.891 130.201 223.719 130.616 223.414 130.922C223.109 131.228 222.695 131.399 222.263 131.399V131.399ZM222.263 129.577C222.224 129.576 222.185 129.588 222.152 129.61C222.119 129.631 222.094 129.662 222.079 129.699C222.063 129.735 222.059 129.775 222.067 129.814C222.074 129.853 222.093 129.888 222.121 129.916C222.149 129.944 222.185 129.963 222.223 129.971C222.262 129.978 222.302 129.974 222.338 129.959C222.375 129.944 222.406 129.918 222.427 129.885C222.449 129.852 222.461 129.813 222.46 129.774C222.461 129.721 222.44 129.67 222.403 129.632C222.366 129.594 222.316 129.573 222.263 129.572V129.577Z" fill="#00C98A"/>
<path d="M219.078 124.459C218.837 124.459 218.606 124.363 218.435 124.192C218.265 124.021 218.169 123.79 218.168 123.548V115.346C218.168 115.105 218.264 114.873 218.435 114.702C218.606 114.531 218.837 114.435 219.078 114.435C219.32 114.435 219.551 114.531 219.722 114.702C219.892 114.873 219.988 115.105 219.988 115.346V123.548C219.988 123.79 219.892 124.021 219.722 124.192C219.551 124.363 219.32 124.459 219.078 124.459Z" fill="#FFCD38"/>
<path d="M215.288 124.459C215.046 124.459 214.815 124.363 214.644 124.192C214.474 124.021 214.378 123.79 214.378 123.548V119.097C214.378 118.856 214.474 118.624 214.644 118.453C214.815 118.282 215.046 118.186 215.288 118.186C215.529 118.186 215.76 118.282 215.931 118.453C216.102 118.624 216.198 118.856 216.198 119.097V123.548C216.198 123.79 216.102 124.021 215.931 124.192C215.76 124.363 215.529 124.459 215.288 124.459Z" fill="#FFCD38"/>
<path d="M211.673 113.106C211.516 113.108 211.362 113.068 211.225 112.992C211.088 112.916 210.973 112.806 210.891 112.672C210.809 112.539 210.763 112.386 210.757 112.229C210.752 112.073 210.787 111.917 210.859 111.778C211.637 110.268 212.814 109.001 214.263 108.117C215.712 107.233 217.375 106.765 219.071 106.765C220.768 106.765 222.431 107.233 223.88 108.117C225.329 109.001 226.506 110.268 227.284 111.778C227.388 111.992 227.404 112.238 227.33 112.464C227.255 112.69 227.095 112.877 226.884 112.986C226.673 113.096 226.427 113.118 226.2 113.048C225.973 112.979 225.782 112.823 225.668 112.614C225.044 111.401 224.098 110.383 222.935 109.673C221.771 108.962 220.435 108.587 219.072 108.587C217.71 108.587 216.373 108.962 215.21 109.673C214.047 110.383 213.101 111.401 212.477 112.614C212.401 112.762 212.285 112.886 212.144 112.973C212.002 113.06 211.839 113.106 211.673 113.106Z" fill="#FFCD38"/>
<path d="M214.396 113.972C214.224 113.971 214.056 113.922 213.911 113.83C213.766 113.737 213.651 113.606 213.577 113.451C213.503 113.295 213.475 113.122 213.495 112.951C213.515 112.781 213.583 112.619 213.691 112.485C214.341 111.689 215.16 111.046 216.087 110.604C217.015 110.162 218.029 109.931 219.056 109.928C220.083 109.925 221.098 110.15 222.028 110.587C222.958 111.024 223.78 111.661 224.435 112.454C224.513 112.545 224.572 112.65 224.61 112.764C224.647 112.878 224.662 112.998 224.653 113.117C224.645 113.236 224.613 113.353 224.559 113.46C224.505 113.567 224.431 113.662 224.34 113.74C224.25 113.819 224.145 113.878 224.031 113.916C223.918 113.954 223.798 113.968 223.679 113.96C223.559 113.951 223.443 113.919 223.336 113.865C223.23 113.811 223.134 113.737 223.056 113.646L223.032 113.615C222.549 113.028 221.943 112.555 221.256 112.231C220.569 111.907 219.818 111.74 219.059 111.742C218.299 111.744 217.55 111.915 216.865 112.243C216.179 112.57 215.575 113.046 215.096 113.636C215.011 113.74 214.904 113.824 214.783 113.882C214.662 113.94 214.53 113.971 214.396 113.972V113.972Z" fill="#2F80F6"/>
<path d="M219.046 116.937C218.724 116.937 218.409 116.842 218.141 116.663C217.874 116.483 217.665 116.229 217.542 115.931C217.419 115.633 217.386 115.305 217.449 114.989C217.512 114.673 217.667 114.382 217.895 114.154C218.122 113.926 218.412 113.771 218.728 113.708C219.044 113.645 219.371 113.678 219.668 113.801C219.966 113.924 220.22 114.133 220.399 114.401C220.578 114.67 220.673 114.985 220.673 115.307C220.673 115.739 220.502 116.154 220.196 116.46C219.891 116.766 219.477 116.937 219.046 116.937ZM219.046 115.115C219.006 115.114 218.967 115.126 218.935 115.148C218.902 115.169 218.876 115.2 218.861 115.237C218.846 115.273 218.841 115.313 218.849 115.352C218.857 115.391 218.876 115.426 218.903 115.454C218.931 115.482 218.967 115.501 219.006 115.509C219.044 115.516 219.084 115.512 219.121 115.497C219.157 115.482 219.188 115.456 219.21 115.423C219.231 115.39 219.243 115.351 219.242 115.312C219.242 115.26 219.222 115.21 219.185 115.173C219.148 115.136 219.098 115.115 219.046 115.115V115.115Z" fill="#00C98A"/>
<path d="M206.784 137.071H200.835C200.424 137.07 200.03 136.907 199.74 136.616C199.449 136.325 199.286 135.93 199.286 135.519V134.345C199.286 133.933 199.449 133.539 199.74 133.248C200.03 132.957 200.424 132.793 200.835 132.793H206.784C207.194 132.794 207.588 132.958 207.878 133.248C208.169 133.539 208.332 133.934 208.333 134.345V135.519C208.332 135.93 208.169 136.324 207.878 136.615C207.588 136.906 207.194 137.07 206.784 137.071ZM201.105 135.248H206.514V134.625H201.097L201.105 135.248Z" fill="#0047AD"/>
<path d="M203.916 129.927C203.675 129.927 203.443 129.831 203.273 129.66C203.102 129.489 203.006 129.257 203.006 129.016V112.201C203.006 111.96 203.102 111.728 203.273 111.557C203.443 111.386 203.675 111.29 203.916 111.29C204.157 111.29 204.389 111.386 204.559 111.557C204.73 111.728 204.826 111.96 204.826 112.201V129.016C204.826 129.257 204.73 129.489 204.559 129.66C204.389 129.831 204.157 129.927 203.916 129.927V129.927Z" fill="#CCCCCC"/>
<path d="M203.916 112.989C203.594 112.989 203.28 112.893 203.012 112.714C202.744 112.535 202.536 112.28 202.412 111.983C202.289 111.685 202.257 111.357 202.32 111.041C202.383 110.724 202.538 110.434 202.765 110.206C202.993 109.978 203.283 109.823 203.599 109.76C203.914 109.697 204.242 109.729 204.539 109.853C204.836 109.976 205.091 110.185 205.269 110.453C205.448 110.721 205.544 111.036 205.544 111.359C205.544 111.791 205.372 112.206 205.067 112.512C204.762 112.817 204.348 112.989 203.916 112.989V112.989ZM203.916 111.166C203.877 111.166 203.839 111.178 203.807 111.2C203.774 111.221 203.749 111.252 203.734 111.288C203.719 111.324 203.715 111.364 203.723 111.402C203.731 111.44 203.749 111.476 203.777 111.503C203.804 111.531 203.839 111.549 203.878 111.557C203.916 111.565 203.955 111.561 203.991 111.546C204.027 111.531 204.058 111.506 204.08 111.473C204.101 111.441 204.113 111.403 204.113 111.364C204.113 111.311 204.092 111.261 204.055 111.224C204.018 111.187 203.968 111.166 203.916 111.166V111.166Z" fill="#CCCCCC"/>
<path d="M255.66 138.662C255.33 138.669 255.001 138.61 254.694 138.489C254.386 138.367 254.106 138.186 253.87 137.954L245.755 129.816C244.692 128.753 244.845 126.861 246.101 125.602L263.235 108.441C263.625 108.049 264.431 107.609 269.11 107.299C271.307 107.154 273.434 107.107 273.735 107.101C274.12 107.05 274.511 107.089 274.879 107.214C275.246 107.34 275.58 107.548 275.854 107.823C276.128 108.098 276.335 108.433 276.459 108.801C276.583 109.17 276.621 109.562 276.569 109.947C276.569 110.25 276.51 112.376 276.362 114.569C276.05 119.244 275.606 120.053 275.223 120.438L258.083 137.607C257.446 138.265 256.575 138.644 255.66 138.662V138.662ZM264.472 109.768L247.382 126.885C246.798 127.47 246.731 128.217 247.036 128.515L255.159 136.652C255.463 136.957 256.21 136.89 256.794 136.305L273.884 119.187C274.308 118.4 274.658 113.767 274.738 109.87V109.794C274.767 109.673 274.765 109.546 274.731 109.426C274.698 109.306 274.634 109.197 274.547 109.109C274.459 109.021 274.35 108.956 274.231 108.922C274.111 108.888 273.985 108.885 273.864 108.913H273.789C269.904 109.001 265.269 109.342 264.472 109.768Z" fill="#2F80F6"/>
<path d="M259.571 135.737C259.33 135.737 259.098 135.641 258.928 135.47L248.232 124.763C248.072 124.59 247.985 124.361 247.989 124.126C247.993 123.89 248.089 123.665 248.255 123.498C248.422 123.331 248.646 123.236 248.882 123.231C249.117 123.227 249.345 123.314 249.518 123.475L260.214 134.19C260.341 134.318 260.428 134.481 260.463 134.659C260.498 134.836 260.479 135.02 260.409 135.187C260.339 135.353 260.222 135.495 260.071 135.595C259.92 135.694 259.743 135.747 259.563 135.745L259.571 135.737Z" fill="#0047AD"/>
<path d="M271.506 123.783C271.385 123.784 271.265 123.761 271.153 123.715C271.042 123.669 270.94 123.601 270.855 123.515L260.159 112.8C259.986 112.631 259.887 112.399 259.885 112.157C259.882 111.916 259.976 111.682 260.145 111.509C260.314 111.337 260.544 111.238 260.786 111.235C261.028 111.233 261.26 111.326 261.433 111.496L261.444 111.507L272.14 122.221C272.268 122.348 272.354 122.511 272.389 122.687C272.424 122.864 272.406 123.047 272.337 123.213C272.269 123.38 272.152 123.522 272.003 123.622C271.853 123.722 271.677 123.776 271.498 123.776L271.506 123.783Z" fill="#0047AD"/>
<path d="M270.077 116.44C269.514 116.44 268.964 116.273 268.496 115.96C268.027 115.647 267.662 115.202 267.447 114.681C267.232 114.16 267.175 113.587 267.285 113.034C267.395 112.481 267.667 111.973 268.065 111.574C268.463 111.176 268.971 110.905 269.523 110.795C270.075 110.686 270.647 110.743 271.167 110.959C271.687 111.175 272.131 111.541 272.443 112.011C272.755 112.48 272.921 113.032 272.92 113.595C272.919 114.35 272.618 115.073 272.085 115.606C271.553 116.139 270.83 116.439 270.077 116.44ZM270.077 112.562C269.874 112.562 269.676 112.622 269.507 112.735C269.339 112.848 269.207 113.008 269.13 113.196C269.052 113.383 269.032 113.59 269.071 113.789C269.111 113.988 269.209 114.171 269.352 114.315C269.495 114.459 269.678 114.557 269.877 114.596C270.076 114.636 270.282 114.615 270.469 114.538C270.657 114.46 270.817 114.328 270.93 114.159C271.042 113.991 271.102 113.792 271.102 113.589C271.102 113.316 270.994 113.055 270.802 112.863C270.61 112.67 270.349 112.562 270.077 112.562V112.562Z" fill="#CCCCCC"/>
<path d="M260.766 127.516C260.524 127.516 260.293 127.42 260.122 127.249C259.952 127.078 259.856 126.846 259.856 126.605V118.796C259.856 118.554 259.952 118.322 260.122 118.151C260.293 117.981 260.524 117.885 260.766 117.885C261.007 117.885 261.238 117.981 261.409 118.151C261.58 118.322 261.676 118.554 261.676 118.796V126.605C261.676 126.846 261.58 127.078 261.409 127.249C261.238 127.42 261.007 127.516 260.766 127.516Z" fill="#FFCD38"/>
<path d="M256.996 124.952C256.599 124.952 256.211 124.834 255.88 124.613C255.55 124.392 255.293 124.077 255.141 123.71C254.989 123.342 254.949 122.938 255.026 122.547C255.104 122.157 255.295 121.799 255.576 121.517C255.857 121.236 256.215 121.045 256.604 120.967C256.994 120.889 257.398 120.929 257.765 121.081C258.132 121.234 258.445 121.491 258.666 121.822C258.887 122.153 259.005 122.542 259.005 122.94V122.94C259.004 123.473 258.792 123.984 258.415 124.361C258.039 124.739 257.529 124.951 256.996 124.952V124.952ZM256.996 122.752C256.959 122.752 256.922 122.764 256.891 122.784C256.86 122.805 256.836 122.835 256.822 122.87C256.807 122.904 256.804 122.942 256.811 122.979C256.819 123.016 256.837 123.049 256.863 123.076C256.89 123.102 256.924 123.12 256.96 123.127C256.997 123.134 257.035 123.13 257.07 123.116C257.104 123.101 257.133 123.077 257.154 123.045C257.175 123.014 257.185 122.977 257.185 122.94V122.94C257.185 122.915 257.18 122.891 257.171 122.868C257.161 122.845 257.147 122.824 257.13 122.807C257.112 122.789 257.091 122.776 257.068 122.766C257.045 122.757 257.021 122.752 256.996 122.752Z" fill="#00C98A"/>
<path d="M264.579 124.89C264.182 124.89 263.793 124.771 263.462 124.55C263.132 124.328 262.874 124.014 262.723 123.645C262.571 123.277 262.532 122.872 262.61 122.482C262.688 122.091 262.881 121.733 263.163 121.452C263.444 121.171 263.803 120.98 264.193 120.904C264.584 120.827 264.988 120.868 265.355 121.022C265.721 121.176 266.034 121.435 266.254 121.767C266.473 122.1 266.589 122.489 266.588 122.888C266.585 123.419 266.372 123.928 265.995 124.303C265.619 124.678 265.11 124.889 264.579 124.89V124.89ZM264.579 122.69C264.542 122.69 264.505 122.701 264.474 122.722C264.443 122.742 264.418 122.772 264.404 122.806C264.389 122.841 264.385 122.879 264.392 122.915C264.399 122.952 264.417 122.986 264.443 123.013C264.47 123.039 264.503 123.057 264.54 123.065C264.577 123.072 264.615 123.069 264.649 123.054C264.684 123.04 264.714 123.016 264.734 122.985C264.755 122.954 264.766 122.917 264.766 122.88V122.88C264.766 122.83 264.747 122.782 264.712 122.746C264.677 122.711 264.629 122.691 264.579 122.69Z" fill="#00C98A"/>
<path d="M313.655 137.071H308.954C308.713 137.071 308.482 136.975 308.311 136.804C308.14 136.633 308.044 136.401 308.044 136.159V129.5C308.044 129.258 308.14 129.026 308.311 128.856C308.482 128.685 308.713 128.589 308.954 128.589H313.655C313.896 128.589 314.127 128.685 314.298 128.856C314.469 129.026 314.564 129.258 314.564 129.5V136.159C314.564 136.401 314.469 136.633 314.298 136.804C314.127 136.975 313.896 137.071 313.655 137.071V137.071ZM309.864 135.248H312.745V130.411H309.864V135.248Z" fill="#0047AD"/>
<path d="M321.466 137.071H302.383C302.142 137.071 301.911 136.975 301.74 136.804C301.569 136.633 301.474 136.401 301.474 136.16V118.602C301.474 118.36 301.569 118.128 301.74 117.957C301.911 117.787 302.142 117.691 302.383 117.691H320.22C320.461 117.691 320.692 117.787 320.863 117.957C321.034 118.128 321.129 118.36 321.129 118.602V121.802C321.129 122.044 321.033 122.275 320.863 122.446C320.692 122.617 320.461 122.713 320.22 122.713H310.061C309.819 122.713 309.588 122.617 309.417 122.446C309.247 122.275 309.151 122.044 309.151 121.802C309.151 121.56 309.247 121.329 309.417 121.158C309.588 120.987 309.819 120.891 310.061 120.891H319.31V119.513H303.293V135.248H321.461C321.703 135.248 321.934 135.344 322.105 135.515C322.275 135.686 322.371 135.918 322.371 136.16C322.371 136.401 322.275 136.633 322.105 136.804C321.934 136.975 321.703 137.071 321.461 137.071H321.466Z" fill="#2F80F6"/>
<path d="M323.914 119.507H298.687C298.497 119.508 298.311 119.449 298.156 119.339C298.001 119.23 297.884 119.074 297.822 118.894C297.759 118.714 297.755 118.519 297.809 118.337C297.863 118.154 297.972 117.993 298.122 117.876L310.734 107.867C310.895 107.739 311.094 107.67 311.299 107.67C311.504 107.67 311.703 107.739 311.864 107.867L324.477 117.876C324.627 117.993 324.737 118.155 324.79 118.337C324.844 118.52 324.84 118.715 324.777 118.895C324.715 119.075 324.597 119.23 324.442 119.34C324.287 119.45 324.101 119.508 323.911 119.507H323.914ZM301.304 117.684H321.302L311.304 109.75L301.304 117.684Z" fill="#FFCD38"/>
<path d="M318.669 115.335C318.428 115.335 318.196 115.239 318.026 115.068C317.855 114.897 317.759 114.665 317.759 114.423V109.499H316.967V112.291C316.967 112.533 316.871 112.765 316.7 112.936C316.529 113.106 316.298 113.202 316.057 113.202C315.815 113.202 315.584 113.106 315.413 112.936C315.243 112.765 315.147 112.533 315.147 112.291V108.587C315.147 108.346 315.243 108.114 315.413 107.943C315.584 107.772 315.815 107.676 316.057 107.676H318.661C318.902 107.676 319.134 107.772 319.304 107.943C319.475 108.114 319.571 108.346 319.571 108.587V114.425C319.57 114.665 319.475 114.895 319.306 115.066C319.138 115.236 318.909 115.333 318.669 115.335V115.335Z" fill="#CCCCCC"/>
<path d="M325.126 137.216H325.032C324.826 137.216 324.627 137.147 324.466 137.019C320.221 133.638 317.837 126.013 317.739 125.69C317.681 125.503 317.686 125.302 317.751 125.117C317.816 124.933 317.939 124.774 318.102 124.665L324.521 120.358C324.688 120.258 324.88 120.205 325.074 120.205C325.269 120.205 325.46 120.258 325.628 120.358L332.052 124.663C332.214 124.772 332.337 124.93 332.403 125.115C332.469 125.299 332.473 125.5 332.416 125.687C332.315 126.013 329.934 133.636 325.688 137.015C325.529 137.144 325.331 137.215 325.126 137.216V137.216ZM319.692 125.791C320.309 127.547 322.225 132.492 325.081 135.144C327.936 132.492 329.851 127.55 330.47 125.791L325.081 122.18L319.692 125.791Z" fill="#0047AD"/>
<path d="M324.434 130.512C324.362 130.513 324.292 130.498 324.226 130.47C324.16 130.442 324.101 130.401 324.051 130.349L322.977 129.238C322.871 129.145 322.805 129.015 322.794 128.874C322.784 128.733 322.83 128.594 322.922 128.488C323.014 128.381 323.144 128.315 323.285 128.305C323.425 128.294 323.564 128.34 323.67 128.432C323.695 128.452 323.716 128.474 323.736 128.499L324.361 129.151C326.62 125.891 326.639 125.891 326.826 125.822C326.938 125.786 327.058 125.787 327.169 125.827C327.279 125.866 327.374 125.94 327.437 126.039C327.501 126.137 327.531 126.254 327.522 126.371C327.512 126.488 327.465 126.599 327.386 126.686C327.205 126.923 325.759 129.004 324.863 130.287C324.819 130.352 324.761 130.406 324.693 130.445C324.625 130.484 324.549 130.508 324.471 130.514L324.434 130.512Z" fill="#00C98A"/>
<path d="M168.142 181.86C162.245 181.842 156.593 179.495 152.412 175.329L152.062 174.979C151.87 174.788 151.698 174.618 151.542 174.457C151.373 174.284 151.28 174.051 151.283 173.81C151.286 173.568 151.384 173.337 151.557 173.168C151.73 173 151.962 172.906 152.203 172.909C152.445 172.912 152.675 173.011 152.844 173.184V173.184L153.343 173.688L153.698 174.041C157.538 177.865 162.728 180.018 168.142 180.034C169.645 180.034 170.784 179.618 171.526 178.795C172.384 177.846 172.577 176.539 172.612 175.769L168.151 174.757C167.913 174.71 167.704 174.57 167.57 174.368C167.435 174.167 167.386 173.92 167.434 173.682C167.481 173.444 167.621 173.235 167.822 173.1C168.023 172.966 168.27 172.916 168.507 172.964L168.551 172.974L173.707 174.144C173.892 174.186 174.059 174.285 174.185 174.427C174.311 174.569 174.39 174.747 174.41 174.936C174.423 175.06 174.705 177.974 172.882 179.99C171.783 181.237 170.187 181.86 168.142 181.86Z" fill="#0047AD"/>
<path d="M162.786 175.838C162.687 175.838 162.588 175.821 162.494 175.789C160.09 174.949 157.902 173.585 156.088 171.795L156.028 171.738L156.017 171.725C154.184 169.866 152.786 167.624 151.922 165.16C151.849 164.931 151.87 164.683 151.979 164.47C152.087 164.256 152.276 164.094 152.503 164.019L153.891 163.556L152.072 155.137C151.297 155.137 149.956 155.276 148.979 156.125C148.141 156.857 147.716 158.018 147.716 159.573C147.716 163.673 148.516 166.712 150.392 169.716C150.52 169.921 150.561 170.169 150.507 170.405C150.452 170.64 150.306 170.844 150.102 170.972C149.897 171.1 149.65 171.142 149.414 171.087C149.179 171.032 148.975 170.887 148.848 170.681C146.772 167.361 145.889 164.04 145.889 159.568C145.889 157.449 146.528 155.828 147.79 154.736C149.861 152.943 152.819 153.341 152.944 153.359C153.128 153.385 153.299 153.468 153.434 153.595C153.57 153.722 153.664 153.887 153.702 154.069L155.835 163.965C155.883 164.186 155.848 164.417 155.736 164.614C155.624 164.81 155.442 164.958 155.227 165.028L153.961 165.455C154.75 167.306 155.875 168.994 157.278 170.434L157.338 170.492C158.745 171.879 160.402 172.985 162.221 173.753L162.677 172.483C162.752 172.273 162.902 172.098 163.097 171.991C163.293 171.884 163.521 171.852 163.738 171.902L168.533 172.99C168.649 173.016 168.759 173.065 168.857 173.135C168.955 173.204 169.038 173.291 169.102 173.393C169.165 173.494 169.209 173.607 169.229 173.725C169.249 173.843 169.246 173.964 169.219 174.08C169.193 174.197 169.144 174.308 169.075 174.405C169.006 174.503 168.918 174.586 168.817 174.65C168.716 174.714 168.604 174.757 168.486 174.778C168.368 174.798 168.247 174.795 168.131 174.768L164.12 173.857L163.632 175.24C163.568 175.414 163.453 175.564 163.302 175.671C163.151 175.778 162.971 175.836 162.786 175.838V175.838Z" fill="#2F80F6"/>
<path d="M167.981 170.654C167.812 170.654 167.65 170.586 167.53 170.467C167.411 170.347 167.343 170.184 167.343 170.015C167.344 169.921 167.364 169.828 167.404 169.742C167.985 168.491 168.179 167.094 167.96 165.731C167.74 164.369 167.119 163.103 166.174 162.098C165.23 161.093 164.007 160.394 162.662 160.092C161.317 159.79 159.913 159.899 158.631 160.404C158.475 160.461 158.302 160.454 158.15 160.386C157.999 160.317 157.879 160.192 157.818 160.037C157.757 159.882 157.759 159.709 157.823 159.555C157.888 159.401 158.009 159.278 158.162 159.213V159.213C159.683 158.613 161.348 158.483 162.943 158.841C164.537 159.198 165.988 160.027 167.108 161.219C168.228 162.411 168.965 163.912 169.224 165.529C169.484 167.145 169.253 168.802 168.562 170.285C168.511 170.396 168.429 170.49 168.326 170.555C168.223 170.62 168.103 170.655 167.981 170.654V170.654Z" fill="#00C98A"/>
<path d="M171.155 171.906C171.035 171.906 170.917 171.882 170.806 171.836C170.696 171.79 170.596 171.723 170.511 171.638C170.427 171.553 170.36 171.453 170.315 171.342C170.269 171.231 170.246 171.113 170.246 170.993C170.247 170.86 170.276 170.729 170.331 170.608C171.159 168.826 171.435 166.836 171.124 164.895C170.812 162.954 169.926 161.151 168.581 159.719C167.236 158.287 165.493 157.292 163.578 156.862C161.663 156.432 159.663 156.587 157.836 157.307C157.726 157.352 157.607 157.374 157.488 157.373C157.368 157.372 157.25 157.347 157.14 157.3C157.03 157.253 156.93 157.185 156.847 157.1C156.763 157.015 156.697 156.913 156.652 156.802C156.608 156.691 156.585 156.573 156.586 156.453C156.588 156.333 156.612 156.215 156.659 156.105C156.706 155.995 156.774 155.895 156.859 155.811C156.944 155.727 157.045 155.661 157.156 155.616H157.168C159.333 154.763 161.704 154.58 163.974 155.09C166.244 155.6 168.31 156.78 169.904 158.477C171.498 160.175 172.548 162.312 172.918 164.613C173.287 166.914 172.96 169.273 171.978 171.386C171.904 171.541 171.787 171.673 171.641 171.765C171.495 171.857 171.327 171.906 171.155 171.906Z" fill="#FFCD38"/>
<path d="M227.743 155.442V155.359C227.735 155.317 227.725 155.277 227.712 155.237C227.697 155.188 227.678 155.141 227.655 155.096C227.643 155.075 227.63 155.056 227.617 155.034C227.604 155.013 227.59 154.992 227.575 154.972C227.553 154.943 227.53 154.915 227.503 154.889C227.48 154.864 227.456 154.84 227.43 154.818C227.407 154.798 227.383 154.78 227.357 154.764L227.311 154.736L227.256 154.705L227.238 154.697C227.21 154.683 227.182 154.671 227.152 154.661C227.126 154.651 227.1 154.643 227.074 154.637H227.038C227.01 154.631 226.982 154.626 226.953 154.624H226.945C226.912 154.62 226.878 154.62 226.844 154.624H196.522C196.488 154.62 196.454 154.62 196.421 154.624H196.396C196.368 154.626 196.34 154.631 196.312 154.637C196.299 154.638 196.286 154.642 196.274 154.646C196.252 154.651 196.23 154.658 196.209 154.666H196.19C196.167 154.673 196.145 154.682 196.124 154.694L196.089 154.71C196.075 154.717 196.061 154.724 196.048 154.733L195.998 154.764C195.957 154.791 195.92 154.821 195.885 154.855C195.868 154.869 195.852 154.885 195.838 154.902C195.819 154.922 195.802 154.943 195.786 154.964H195.778C195.758 154.99 195.741 155.017 195.724 155.044C195.716 155.06 195.706 155.073 195.698 155.09C195.676 155.135 195.657 155.181 195.641 155.228C195.633 155.251 195.627 155.275 195.622 155.298C195.622 155.315 195.613 155.331 195.61 155.347V155.401C195.608 155.438 195.608 155.474 195.61 155.51C195.61 155.652 195.643 155.791 195.706 155.918C195.769 156.045 195.861 156.155 195.973 156.241L197.438 157.333V156.422H225.928V157.333L227.385 156.241C227.498 156.156 227.59 156.046 227.653 155.92C227.716 155.793 227.748 155.653 227.748 155.512C227.747 155.489 227.746 155.465 227.743 155.442V155.442Z" fill="#FFCD38"/>
<path d="M227.744 155.517V178.298C227.744 178.54 227.648 178.771 227.478 178.942C227.307 179.113 227.076 179.209 226.834 179.209H196.51C196.269 179.209 196.037 179.113 195.867 178.942C195.696 178.771 195.6 178.54 195.6 178.298V155.517C195.6 155.658 195.633 155.798 195.696 155.924C195.759 156.05 195.85 156.161 195.963 156.246L197.42 157.34V177.391H225.926V157.34L227.381 156.246C227.495 156.161 227.587 156.052 227.65 155.925C227.713 155.798 227.745 155.658 227.744 155.517V155.517Z" fill="#0047AD"/>
<path d="M227.744 155.517C227.745 155.658 227.712 155.798 227.649 155.924C227.586 156.05 227.495 156.16 227.381 156.244L225.926 157.338L212.227 167.635C212.07 167.753 211.878 167.817 211.681 167.817C211.484 167.817 211.293 167.753 211.135 167.635L197.417 157.338L195.96 156.244C195.848 156.159 195.756 156.049 195.693 155.923C195.63 155.796 195.597 155.657 195.597 155.515C195.597 155.479 195.6 155.442 195.605 155.406V155.351C195.607 155.334 195.61 155.318 195.615 155.302C195.62 155.278 195.627 155.255 195.635 155.232C195.651 155.184 195.67 155.138 195.693 155.093C195.7 155.078 195.709 155.063 195.718 155.049C195.734 155.021 195.752 154.994 195.771 154.968V154.968C195.788 154.946 195.805 154.925 195.823 154.906C195.837 154.889 195.853 154.874 195.871 154.86C195.905 154.826 195.942 154.795 195.983 154.769C195.999 154.756 196.016 154.745 196.033 154.736C196.046 154.728 196.06 154.72 196.074 154.713L196.11 154.697C196.131 154.686 196.152 154.676 196.175 154.669H196.196C196.217 154.661 196.239 154.655 196.261 154.65C196.273 154.645 196.285 154.642 196.297 154.64L196.382 154.627H196.491C196.688 154.627 196.88 154.691 197.038 154.81L199.22 156.45L211.654 165.791L224.087 156.45L226.27 154.81C226.427 154.691 226.619 154.627 226.817 154.627H226.926L227.01 154.64H227.043L227.121 154.664C227.151 154.674 227.18 154.686 227.207 154.7L227.225 154.708L227.28 154.739L227.326 154.769C227.351 154.785 227.376 154.802 227.399 154.821C227.425 154.844 227.449 154.868 227.473 154.893C227.499 154.918 227.523 154.946 227.544 154.976C227.559 154.996 227.573 155.016 227.586 155.038C227.6 155.058 227.612 155.079 227.622 155.101C227.646 155.145 227.666 155.192 227.681 155.24C227.693 155.28 227.704 155.321 227.712 155.362V155.445C227.724 155.469 227.735 155.493 227.744 155.517V155.517Z" fill="#2F80F6"/>
<path d="M254.579 164.736C254.46 164.736 254.341 164.712 254.231 164.667C254.121 164.621 254.02 164.554 253.936 164.469C253.851 164.384 253.784 164.284 253.739 164.173C253.693 164.063 253.669 163.944 253.669 163.825V157.646C253.655 156.677 253.833 155.714 254.193 154.815C254.554 153.915 255.089 153.096 255.768 152.405C256.447 151.715 257.257 151.167 258.149 150.792C259.042 150.418 260 150.225 260.968 150.225C261.936 150.225 262.894 150.418 263.787 150.792C264.679 151.167 265.489 151.715 266.168 152.405C266.847 153.096 267.382 153.915 267.743 154.815C268.103 155.714 268.281 156.677 268.267 157.646V163.74C268.267 163.982 268.171 164.213 268 164.384C267.83 164.555 267.598 164.651 267.357 164.651C267.116 164.651 266.884 164.555 266.714 164.384C266.543 164.213 266.447 163.982 266.447 163.74V157.646C266.46 156.917 266.327 156.193 266.057 155.517C265.788 154.84 265.386 154.223 264.876 153.704C264.366 153.184 263.758 152.771 263.087 152.489C262.416 152.208 261.696 152.062 260.968 152.062C260.24 152.062 259.52 152.208 258.849 152.489C258.178 152.771 257.57 153.184 257.06 153.704C256.55 154.223 256.148 154.84 255.879 155.517C255.609 156.193 255.476 156.917 255.489 157.646V157.646V163.825C255.488 164.066 255.392 164.298 255.222 164.469C255.051 164.639 254.82 164.735 254.579 164.736V164.736Z" fill="#FFCD38"/>
<path d="M262.051 176.64H259.836C259.69 176.64 259.547 176.605 259.417 176.538C259.288 176.471 259.177 176.374 259.092 176.254C259.008 176.135 258.954 175.998 258.934 175.853C258.914 175.709 258.929 175.561 258.978 175.424L260.077 172.3C260.14 172.123 260.256 171.97 260.409 171.862C260.563 171.753 260.746 171.695 260.934 171.695C261.121 171.695 261.304 171.753 261.458 171.862C261.611 171.97 261.728 172.123 261.791 172.3L262.897 175.419C262.937 175.532 262.955 175.651 262.949 175.771C262.942 175.89 262.913 176.007 262.861 176.115C262.81 176.223 262.738 176.32 262.649 176.4C262.56 176.48 262.457 176.541 262.344 176.581C262.247 176.616 262.144 176.633 262.041 176.633L262.051 176.64Z" fill="#00C98A"/>
<path d="M269.702 182.432H252.17C251.41 182.431 250.682 182.129 250.145 181.59C249.607 181.052 249.305 180.322 249.304 179.561V165.926C249.305 165.165 249.607 164.435 250.145 163.897C250.682 163.359 251.41 163.056 252.17 163.055H269.702C270.462 163.056 271.19 163.359 271.727 163.897C272.264 164.435 272.566 165.165 272.567 165.926V179.563C272.565 180.324 272.263 181.053 271.726 181.59C271.189 182.128 270.461 182.431 269.702 182.432V182.432ZM252.17 164.875C251.893 164.875 251.627 164.987 251.431 165.184C251.235 165.381 251.125 165.648 251.125 165.926V179.563C251.126 179.841 251.236 180.107 251.432 180.304C251.629 180.5 251.895 180.611 252.172 180.611H269.702C269.979 180.611 270.245 180.5 270.441 180.304C270.637 180.107 270.747 179.841 270.747 179.563V165.926C270.747 165.648 270.636 165.382 270.441 165.186C270.245 164.989 269.979 164.879 269.702 164.878L252.17 164.875Z" fill="#0047AD"/>
<path d="M260.962 173.533H260.91C260.433 173.532 259.975 173.341 259.637 173.003C259.299 172.665 259.109 172.206 259.108 171.728V171.676C259.109 171.198 259.299 170.739 259.637 170.401C259.975 170.062 260.433 169.872 260.91 169.871H260.962C261.44 169.872 261.897 170.063 262.235 170.401C262.572 170.739 262.762 171.198 262.762 171.676V171.728C262.762 172.206 262.572 172.665 262.235 173.003C261.897 173.341 261.44 173.532 260.962 173.533V173.533ZM260.926 171.71H260.944V171.692H260.926V171.71Z" fill="#2F80F6"/>
<path d="M317.626 182.432C317.504 182.432 317.384 182.407 317.273 182.359C317.161 182.312 317.06 182.242 316.975 182.155L310.139 175.08H303.912C303.671 175.08 303.44 174.984 303.269 174.813C303.098 174.642 303.002 174.41 303.002 174.168C303.002 173.927 303.098 173.695 303.269 173.524C303.44 173.353 303.671 173.257 303.912 173.257H310.531C310.653 173.258 310.773 173.283 310.885 173.331C310.996 173.378 311.098 173.447 311.182 173.534L316.843 179.395L317.147 174.115C317.161 173.882 317.262 173.664 317.432 173.504C317.601 173.345 317.825 173.256 318.057 173.257H323.902C325.019 173.256 326.089 172.812 326.879 172.02C327.669 171.229 328.113 170.157 328.114 169.038V159.773C328.113 158.655 327.669 157.582 326.879 156.791C326.089 156 325.019 155.555 323.902 155.554H308.253C308.012 155.554 307.78 155.458 307.61 155.288C307.439 155.117 307.343 154.885 307.343 154.643C307.343 154.401 307.439 154.17 307.61 153.999C307.78 153.828 308.012 153.732 308.253 153.732H323.892C325.491 153.734 327.024 154.371 328.155 155.503C329.286 156.636 329.922 158.172 329.924 159.773V169.038C329.922 170.64 329.286 172.176 328.155 173.308C327.024 174.441 325.491 175.078 323.892 175.08H318.905L318.528 181.575C318.514 181.807 318.412 182.025 318.243 182.185C318.074 182.344 317.85 182.433 317.618 182.432H317.626Z" fill="#2F80F6"/>
<path d="M303.911 175.08C302.311 175.078 300.778 174.441 299.647 173.308C298.517 172.176 297.881 170.64 297.879 169.038V159.773C297.881 158.172 298.517 156.636 299.647 155.503C300.778 154.371 302.311 153.734 303.911 153.732H308.253C308.494 153.732 308.726 153.828 308.896 153.999C309.067 154.17 309.163 154.401 309.163 154.643C309.163 154.885 309.067 155.117 308.896 155.288C308.726 155.458 308.494 155.554 308.253 155.554H303.911C302.794 155.555 301.723 156 300.933 156.791C300.143 157.582 299.699 158.655 299.698 159.773V169.038C299.698 170.158 300.142 171.231 300.932 172.023C301.722 172.815 302.793 173.261 303.911 173.262C304.152 173.262 304.383 173.358 304.554 173.529C304.725 173.7 304.82 173.932 304.82 174.173C304.82 174.415 304.725 174.647 304.554 174.818C304.383 174.989 304.152 175.085 303.911 175.085V175.08Z" fill="#0047AD"/>
<path d="M322.044 161.625H305.606C305.365 161.625 305.133 161.529 304.963 161.358C304.792 161.188 304.696 160.956 304.696 160.714C304.696 160.472 304.792 160.241 304.963 160.07C305.133 159.899 305.365 159.803 305.606 159.803H322.044C322.286 159.803 322.517 159.899 322.688 160.07C322.858 160.241 322.954 160.472 322.954 160.714C322.954 160.956 322.858 161.188 322.688 161.358C322.517 161.529 322.286 161.625 322.044 161.625V161.625Z" fill="#FFCD38"/>
<path d="M322.027 165.377H305.589C305.347 165.377 305.116 165.281 304.945 165.11C304.775 164.939 304.679 164.707 304.679 164.465C304.679 164.224 304.775 163.992 304.945 163.821C305.116 163.65 305.347 163.554 305.589 163.554H322.027C322.268 163.554 322.499 163.65 322.67 163.821C322.841 163.992 322.936 164.224 322.936 164.465C322.936 164.707 322.841 164.939 322.67 165.11C322.499 165.281 322.268 165.377 322.027 165.377V165.377Z" fill="#00C98A"/>
<path d="M322.01 169.129H305.572C305.331 169.129 305.099 169.033 304.929 168.862C304.758 168.692 304.662 168.46 304.662 168.218C304.662 167.976 304.758 167.745 304.929 167.574C305.099 167.403 305.331 167.307 305.572 167.307H322.01C322.251 167.307 322.483 167.403 322.653 167.574C322.824 167.745 322.92 167.976 322.92 168.218C322.92 168.46 322.824 168.692 322.653 168.862C322.483 169.033 322.251 169.129 322.01 169.129V169.129Z" fill="#CCCCCC"/>
<path d="M161.448 218.32C161.26 218.321 161.077 218.264 160.923 218.157L153.328 212.764C153.227 212.697 153.141 212.609 153.074 212.508C153.008 212.406 152.962 212.292 152.94 212.172C152.918 212.053 152.92 211.93 152.946 211.811C152.972 211.692 153.022 211.58 153.092 211.48C153.162 211.381 153.252 211.297 153.355 211.233C153.458 211.169 153.573 211.126 153.693 211.107C153.813 211.088 153.936 211.093 154.054 211.123C154.172 211.152 154.283 211.205 154.38 211.278L161.98 216.674C162.137 216.786 162.255 216.945 162.315 217.128C162.376 217.312 162.377 217.51 162.318 217.694C162.259 217.878 162.144 218.038 161.988 218.152C161.832 218.266 161.644 218.327 161.451 218.327L161.448 218.32Z" fill="#FFCD38"/>
<path d="M158.46 218.842C156.67 218.842 154.35 218.374 151.95 216.612C146.947 212.939 147.401 207.895 147.428 207.68C147.445 207.519 147.504 207.365 147.6 207.235C147.695 207.105 147.824 207.002 147.972 206.938C148.169 206.853 152.835 204.9 157.837 208.568C162.838 212.236 162.394 217.287 162.358 217.5C162.341 217.661 162.282 217.815 162.186 217.946C162.09 218.077 161.961 218.179 161.813 218.244C160.743 218.654 159.605 218.857 158.46 218.842V218.842ZM149.242 208.436C149.29 209.691 149.767 212.742 153.032 215.143C156.297 217.544 159.355 217.081 160.563 216.752C160.515 215.503 160.04 212.448 156.772 210.043C153.504 207.639 150.438 208.112 149.242 208.436Z" fill="#00C98A"/>
<path d="M161.437 208.589C161.241 208.592 161.049 208.53 160.89 208.415C160.731 208.299 160.615 208.134 160.557 207.946C160.499 207.758 160.504 207.557 160.571 207.372C160.637 207.187 160.762 207.028 160.926 206.92L166.888 202.879C166.986 202.811 167.098 202.765 167.215 202.74C167.332 202.716 167.452 202.716 167.57 202.738C167.687 202.761 167.799 202.806 167.899 202.872C167.998 202.938 168.084 203.023 168.151 203.122C168.218 203.221 168.265 203.333 168.289 203.45C168.313 203.567 168.314 203.688 168.291 203.806C168.269 203.923 168.223 204.035 168.158 204.135C168.092 204.235 168.007 204.321 167.908 204.388L161.946 208.43C161.796 208.533 161.619 208.589 161.437 208.589V208.589Z" fill="#FFCD38"/>
<path d="M164.339 209.29C163.223 209.307 162.113 209.116 161.067 208.726C160.918 208.663 160.789 208.562 160.692 208.432C160.595 208.302 160.535 208.149 160.517 207.988C160.493 207.776 159.991 202.734 164.959 199.022C169.926 195.309 174.61 197.217 174.815 197.3C174.964 197.363 175.093 197.465 175.19 197.594C175.287 197.724 175.347 197.878 175.365 198.038C175.39 198.25 175.892 203.293 170.924 207.005C168.497 208.809 166.137 209.29 164.339 209.29ZM162.315 207.22C163.528 207.546 166.576 207.978 169.827 205.549C173.077 203.12 173.518 200.053 173.56 198.805C172.346 198.479 169.298 198.047 166.047 200.476C162.797 202.905 162.358 205.971 162.317 207.22H162.315Z" fill="#2F80F6"/>
<path d="M161.437 227.202C161.195 227.201 160.964 227.105 160.794 226.934C160.623 226.764 160.527 226.532 160.527 226.29V207.678C160.527 207.436 160.623 207.205 160.793 207.034C160.964 206.863 161.195 206.767 161.437 206.767C161.678 206.767 161.909 206.863 162.08 207.034C162.251 207.205 162.346 207.436 162.346 207.678V226.29C162.346 226.532 162.251 226.764 162.08 226.935C161.909 227.106 161.678 227.202 161.437 227.202Z" fill="#0047AD"/>
<path d="M200.156 203.941C199.915 203.941 199.684 203.845 199.514 203.674C199.343 203.503 199.247 203.272 199.247 203.03V200.161C199.247 199.919 199.342 199.687 199.513 199.516C199.684 199.346 199.915 199.25 200.156 199.25C200.398 199.25 200.629 199.346 200.8 199.516C200.97 199.687 201.066 199.919 201.066 200.161V203.028C201.066 203.148 201.043 203.267 200.997 203.378C200.952 203.488 200.885 203.589 200.8 203.674C200.716 203.759 200.615 203.826 200.505 203.872C200.394 203.918 200.276 203.941 200.156 203.941Z" fill="#FFCD38"/>
<path d="M204.09 203.637C203.851 203.637 203.622 203.543 203.452 203.375C203.282 203.207 203.184 202.979 203.18 202.74V199.915C203.18 199.673 203.276 199.441 203.447 199.27C203.617 199.099 203.849 199.003 204.09 199.003C204.331 199.003 204.563 199.099 204.733 199.27C204.904 199.441 205 199.673 205 199.915V202.74C204.996 202.979 204.898 203.207 204.728 203.375C204.558 203.543 204.329 203.637 204.09 203.637V203.637Z" fill="#FFCD38"/>
<path d="M208.029 204.276C207.908 204.274 207.788 204.249 207.677 204.202C207.566 204.154 207.466 204.085 207.381 203.999C207.297 203.913 207.23 203.81 207.185 203.698C207.14 203.586 207.117 203.466 207.119 203.345V200.41C207.119 200.169 207.215 199.937 207.385 199.766C207.556 199.595 207.787 199.499 208.029 199.499C208.27 199.499 208.501 199.595 208.672 199.766C208.842 199.937 208.938 200.169 208.938 200.41V203.345C208.94 203.589 208.846 203.824 208.675 203.998C208.505 204.173 208.272 204.273 208.029 204.276V204.276Z" fill="#FFCD38"/>
<path d="M211.964 205.396C211.842 205.393 211.721 205.366 211.609 205.316C211.497 205.267 211.396 205.196 211.312 205.107C211.227 205.018 211.161 204.914 211.117 204.799C211.073 204.685 211.051 204.563 211.054 204.44V201.432C211.054 201.191 211.15 200.959 211.321 200.788C211.492 200.617 211.723 200.521 211.964 200.521C212.206 200.521 212.437 200.617 212.608 200.788C212.778 200.959 212.874 201.191 212.874 201.432V204.44C212.877 204.563 212.856 204.685 212.812 204.8C212.768 204.914 212.702 205.019 212.618 205.108C212.533 205.197 212.432 205.268 212.32 205.318C212.208 205.367 212.087 205.394 211.964 205.397V205.396Z" fill="#FFCD38"/>
<path d="M215.901 206.481C215.66 206.481 215.428 206.385 215.258 206.214C215.087 206.044 214.991 205.812 214.991 205.57V202.702C214.991 202.461 215.087 202.229 215.258 202.058C215.428 201.887 215.66 201.791 215.901 201.791C216.142 201.791 216.374 201.887 216.544 202.058C216.715 202.229 216.811 202.461 216.811 202.702V205.57C216.811 205.812 216.715 206.044 216.544 206.214C216.374 206.385 216.142 206.481 215.901 206.481V206.481Z" fill="#FFCD38"/>
<path d="M219.837 207.079C219.719 207.082 219.603 207.061 219.494 207.018C219.385 206.976 219.285 206.912 219.201 206.831C219.116 206.749 219.048 206.652 219.001 206.545C218.954 206.437 218.929 206.321 218.927 206.204V203.433C218.927 203.191 219.023 202.959 219.193 202.788C219.364 202.617 219.595 202.521 219.837 202.521C220.078 202.521 220.309 202.617 220.48 202.788C220.65 202.959 220.746 203.191 220.746 203.433V206.193C220.745 206.31 220.721 206.426 220.675 206.534C220.629 206.642 220.563 206.74 220.479 206.823C220.395 206.905 220.296 206.97 220.187 207.013C220.078 207.057 219.962 207.079 219.845 207.078L219.837 207.079Z" fill="#FFCD38"/>
<path d="M223.774 206.672C223.532 206.672 223.301 206.576 223.13 206.405C222.96 206.234 222.864 206.002 222.864 205.761V202.918C222.864 202.676 222.96 202.444 223.13 202.273C223.301 202.102 223.532 202.006 223.774 202.006C224.015 202.006 224.246 202.102 224.417 202.273C224.588 202.444 224.683 202.676 224.683 202.918V205.761C224.683 206.002 224.588 206.234 224.417 206.405C224.246 206.576 224.015 206.672 223.774 206.672V206.672Z" fill="#FFCD38"/>
<path d="M200.156 222.006C199.912 222.003 199.679 221.903 199.509 221.728C199.338 221.553 199.244 221.318 199.246 221.074V221.074V218.139C199.246 217.897 199.342 217.666 199.513 217.495C199.683 217.324 199.915 217.228 200.156 217.228C200.397 217.228 200.629 217.324 200.799 217.495C200.97 217.666 201.066 217.897 201.066 218.139V221.074C201.067 221.194 201.045 221.315 201 221.427C200.955 221.539 200.889 221.642 200.804 221.728C200.72 221.815 200.62 221.884 200.509 221.932C200.398 221.979 200.278 222.005 200.158 222.006H200.156Z" fill="#FFCD38"/>
<path d="M204.09 221.768C203.969 221.767 203.85 221.742 203.739 221.695C203.628 221.648 203.527 221.579 203.443 221.492C203.358 221.406 203.292 221.304 203.247 221.192C203.201 221.08 203.179 220.96 203.18 220.839V220.839V217.913C203.18 217.671 203.276 217.439 203.447 217.268C203.617 217.097 203.849 217.001 204.09 217.001C204.331 217.001 204.563 217.097 204.733 217.268C204.904 217.439 205 217.671 205 217.913V220.839C205.001 220.96 204.979 221.08 204.934 221.192C204.889 221.304 204.823 221.406 204.738 221.493C204.654 221.579 204.554 221.648 204.443 221.696C204.332 221.743 204.212 221.768 204.092 221.77L204.09 221.768Z" fill="#FFCD38"/>
<path d="M208.028 222.193C207.911 222.195 207.793 222.174 207.684 222.13C207.574 222.086 207.474 222.021 207.39 221.939C207.305 221.857 207.238 221.758 207.191 221.65C207.145 221.541 207.12 221.425 207.119 221.307V221.307V218.517C207.119 218.276 207.215 218.044 207.385 217.873C207.556 217.702 207.787 217.606 208.028 217.606C208.27 217.606 208.501 217.702 208.672 217.873C208.842 218.044 208.938 218.276 208.938 218.517V221.307C208.935 221.545 208.837 221.772 208.667 221.939C208.496 222.105 208.266 222.196 208.028 222.193V222.193Z" fill="#FFCD38"/>
<path d="M211.964 223.256C211.727 223.261 211.499 223.171 211.328 223.006C211.157 222.842 211.059 222.616 211.054 222.379V219.608C211.054 219.366 211.15 219.134 211.321 218.963C211.491 218.793 211.723 218.697 211.964 218.697C212.205 218.697 212.437 218.793 212.607 218.963C212.778 219.134 212.874 219.366 212.874 219.608V222.379C212.869 222.616 212.771 222.842 212.6 223.006C212.429 223.171 212.201 223.261 211.964 223.256Z" fill="#FFCD38"/>
<path d="M215.901 224.624C215.66 224.624 215.428 224.528 215.258 224.357C215.087 224.186 214.991 223.955 214.991 223.713V220.845C214.991 220.604 215.087 220.372 215.258 220.201C215.428 220.03 215.66 219.934 215.901 219.934C216.142 219.934 216.374 220.03 216.544 220.201C216.715 220.372 216.811 220.604 216.811 220.845V223.713C216.81 223.954 216.714 224.186 216.544 224.357C216.373 224.528 216.142 224.624 215.901 224.624V224.624Z" fill="#FFCD38"/>
<path d="M219.837 225.325C219.59 225.32 219.356 225.216 219.186 225.038C219.015 224.86 218.922 224.622 218.927 224.375V224.375V221.385C218.927 221.143 219.023 220.911 219.193 220.741C219.364 220.57 219.595 220.474 219.837 220.474C220.078 220.474 220.309 220.57 220.48 220.741C220.651 220.911 220.747 221.143 220.747 221.385V224.375C220.749 224.497 220.728 224.619 220.683 224.733C220.639 224.846 220.573 224.951 220.488 225.039C220.404 225.127 220.303 225.198 220.191 225.247C220.079 225.296 219.959 225.323 219.837 225.325V225.325Z" fill="#FFCD38"/>
<path d="M223.774 224.766C223.532 224.766 223.301 224.67 223.13 224.499C222.96 224.328 222.864 224.097 222.864 223.855V220.982C222.864 220.741 222.96 220.509 223.13 220.338C223.301 220.167 223.532 220.071 223.774 220.071C224.015 220.071 224.246 220.167 224.417 220.338C224.588 220.509 224.683 220.741 224.683 220.982V223.855C224.683 224.097 224.588 224.328 224.417 224.499C224.246 224.67 224.015 224.766 223.774 224.766V224.766Z" fill="#FFCD38"/>
<path d="M220.528 222.268C217.475 222.268 214.462 221.357 211.503 220.475C206.499 218.972 201.779 217.552 197.069 220.384C196.931 220.467 196.773 220.512 196.612 220.514C196.451 220.517 196.293 220.476 196.153 220.396C196.012 220.317 195.896 220.202 195.815 220.062C195.734 219.923 195.692 219.764 195.692 219.603V204.414C195.692 204.257 195.733 204.103 195.81 203.966C195.887 203.83 195.999 203.716 196.133 203.635C201.53 200.389 206.865 201.993 212.024 203.544H212.057C217.04 205.042 221.749 206.455 226.461 203.627C226.598 203.544 226.756 203.499 226.917 203.497C227.078 203.494 227.236 203.535 227.376 203.614C227.517 203.693 227.633 203.808 227.714 203.947C227.796 204.087 227.839 204.245 227.839 204.406V219.595C227.839 219.752 227.798 219.907 227.721 220.043C227.644 220.18 227.533 220.295 227.398 220.376C225.329 221.635 222.949 222.291 220.528 222.268V222.268ZM203 216.933C206.051 216.933 209.064 217.844 212.024 218.726C216.869 220.182 221.453 221.559 226.021 219.072V205.92C221.096 208.165 216.244 206.708 211.536 205.294L211.505 205.285C206.66 203.83 202.077 202.453 197.508 204.941V218.093C199.232 217.315 201.105 216.921 202.996 216.941L203 216.933Z" fill="#2F80F6"/>
<path d="M220.239 225.325C217.91 225.325 215.481 224.565 211.419 223.098C206.391 221.554 202.744 221.613 200.567 221.936C198.22 222.281 197.038 222.999 197.027 223.007C196.823 223.137 196.576 223.18 196.34 223.127C196.104 223.074 195.899 222.93 195.769 222.726C195.64 222.521 195.597 222.274 195.649 222.038C195.702 221.802 195.846 221.596 196.05 221.466C196.268 221.328 201.473 218.133 211.972 221.364L212.013 221.378C219.845 224.199 221.127 224.065 226.485 221.833C226.708 221.74 226.959 221.74 227.182 221.832C227.405 221.924 227.583 222.101 227.676 222.325C227.768 222.548 227.769 222.799 227.677 223.023C227.585 223.246 227.408 223.424 227.185 223.517C224.254 224.737 222.284 225.325 220.239 225.325Z" fill="#0047AD"/>
<path d="M220.281 204.399C217.952 204.399 215.525 203.64 211.461 202.173C206.434 200.629 202.786 200.687 200.609 201.01C198.262 201.356 197.08 202.073 197.069 202.081C196.865 202.204 196.622 202.243 196.391 202.188C196.159 202.134 195.958 201.991 195.831 201.79C195.703 201.59 195.659 201.347 195.708 201.114C195.757 200.881 195.895 200.676 196.092 200.544C196.309 200.407 201.514 197.21 212.013 200.443L212.053 200.456C219.885 203.276 221.168 203.143 226.526 200.912C226.748 200.819 226.999 200.819 227.222 200.911C227.445 201.003 227.622 201.18 227.715 201.403C227.808 201.626 227.809 201.877 227.717 202.101C227.625 202.324 227.448 202.502 227.225 202.595C224.296 203.814 222.318 204.399 220.281 204.399Z" fill="#0047AD"/>
<path d="M209.003 215.542C208.762 215.542 208.531 215.446 208.36 215.275C208.189 215.104 208.093 214.872 208.093 214.631V209.315C208.091 209.273 208.091 209.231 208.093 209.189C208.077 209.07 208.083 208.95 208.113 208.834C208.143 208.718 208.196 208.609 208.268 208.513C208.339 208.417 208.43 208.337 208.533 208.276C208.636 208.215 208.75 208.175 208.868 208.159C209.038 208.134 209.212 208.159 209.368 208.23L215.86 211.144C216.021 211.217 216.158 211.336 216.252 211.486C216.347 211.636 216.396 211.811 216.393 211.988C216.39 212.166 216.335 212.338 216.236 212.485C216.136 212.632 215.996 212.747 215.832 212.815L209.34 215.475C209.233 215.519 209.119 215.542 209.003 215.542V215.542ZM209.913 210.461V213.273L213.186 211.929L209.913 210.461Z" fill="#00C98A"/>
<path d="M245.63 211.038C245.468 211.038 245.31 210.994 245.171 210.913C245.032 210.831 244.917 210.714 244.838 210.573C244.759 210.432 244.719 210.273 244.721 210.111C244.724 209.95 244.77 209.792 244.853 209.654C246.481 206.964 248.774 204.739 251.51 203.195C254.246 201.65 257.333 200.838 260.473 200.837C263.614 200.835 266.702 201.644 269.439 203.186C272.177 204.728 274.472 206.951 276.102 209.639C276.228 209.846 276.266 210.094 276.209 210.329C276.152 210.564 276.005 210.766 275.798 210.892C275.592 211.018 275.345 211.056 275.11 210.999C274.876 210.942 274.673 210.794 274.548 210.588C273.08 208.166 271.014 206.165 268.549 204.776C266.084 203.387 263.303 202.657 260.475 202.658C257.647 202.659 254.866 203.389 252.402 204.779C249.938 206.17 247.873 208.172 246.406 210.594C246.325 210.729 246.212 210.841 246.076 210.918C245.94 210.996 245.786 211.037 245.63 211.038V211.038Z" fill="#FFCD38"/>
<path d="M250.475 213.981C250.233 213.98 250.002 213.884 249.831 213.713C249.661 213.541 249.565 213.309 249.565 213.068C249.566 212.901 249.613 212.738 249.698 212.595C250.822 210.738 252.405 209.203 254.293 208.137C256.181 207.07 258.312 206.51 260.48 206.508C262.648 206.507 264.779 207.065 266.669 208.128C268.559 209.192 270.143 210.725 271.27 212.58C271.334 212.682 271.378 212.796 271.398 212.916C271.418 213.035 271.414 213.157 271.386 213.275C271.359 213.393 271.308 213.504 271.237 213.602C271.166 213.699 271.076 213.782 270.973 213.845C270.87 213.908 270.756 213.95 270.636 213.968C270.517 213.986 270.395 213.98 270.278 213.95C270.161 213.921 270.051 213.868 269.954 213.795C269.858 213.723 269.777 213.632 269.716 213.527C268.752 211.939 267.395 210.627 265.778 209.717C264.16 208.806 262.335 208.329 260.48 208.33C258.625 208.332 256.801 208.812 255.185 209.725C253.568 210.638 252.214 211.952 251.253 213.542C251.172 213.676 251.057 213.787 250.921 213.863C250.785 213.94 250.631 213.981 250.475 213.981V213.981Z" fill="#00C98A"/>
<path d="M260.479 222.984C259.874 222.985 259.278 222.826 258.753 222.524C258.228 222.223 257.79 221.788 257.485 221.264C257.18 220.74 257.017 220.145 257.013 219.539C257.009 218.932 257.164 218.335 257.462 217.807C257.585 217.605 257.782 217.46 258.01 217.401C258.238 217.342 258.481 217.374 258.686 217.491C258.891 217.607 259.043 217.799 259.11 218.025C259.176 218.252 259.153 218.496 259.044 218.705C258.902 218.956 258.829 219.241 258.832 219.529C258.834 219.818 258.912 220.101 259.058 220.35C259.204 220.599 259.412 220.805 259.663 220.948C259.913 221.091 260.196 221.166 260.484 221.165C260.773 221.164 261.055 221.087 261.305 220.942C261.554 220.797 261.761 220.59 261.905 220.34C262.049 220.09 262.125 219.807 262.126 219.518C262.126 219.229 262.051 218.946 261.908 218.695C261.796 218.486 261.769 218.241 261.834 218.013C261.899 217.784 262.05 217.59 262.256 217.471C262.461 217.352 262.705 217.319 262.935 217.377C263.165 217.436 263.363 217.581 263.487 217.784C263.789 218.312 263.948 218.91 263.947 219.519C263.945 220.128 263.784 220.726 263.48 221.253C263.175 221.779 262.737 222.217 262.211 222.521C261.684 222.825 261.087 222.984 260.479 222.984Z" fill="#2F80F6"/>
<path d="M254.909 216.682C254.748 216.681 254.59 216.638 254.451 216.557C254.312 216.475 254.197 216.358 254.118 216.217C254.039 216.076 253.998 215.917 254.001 215.755C254.004 215.594 254.049 215.436 254.133 215.298C254.793 214.206 255.724 213.303 256.834 212.675C257.944 212.048 259.196 211.717 260.471 211.716C261.746 211.714 262.999 212.041 264.111 212.666C265.222 213.29 266.155 214.191 266.818 215.281C266.935 215.487 266.968 215.731 266.909 215.96C266.85 216.19 266.704 216.387 266.502 216.511C266.3 216.634 266.057 216.674 265.827 216.622C265.596 216.569 265.395 216.429 265.265 216.23C264.764 215.407 264.06 214.728 263.221 214.256C262.382 213.785 261.436 213.538 260.473 213.539C259.511 213.541 258.566 213.79 257.728 214.264C256.89 214.737 256.188 215.419 255.689 216.243C255.607 216.377 255.493 216.488 255.356 216.564C255.22 216.641 255.066 216.682 254.909 216.682V216.682Z" fill="#0047AD"/>
<path d="M313.873 220.094C312.996 220.094 312.138 219.834 311.409 219.346C310.68 218.859 310.111 218.165 309.775 217.354C309.44 216.542 309.352 215.649 309.522 214.788C309.693 213.926 310.115 213.135 310.735 212.514C311.355 211.892 312.145 211.469 313.005 211.298C313.865 211.126 314.757 211.214 315.567 211.55C316.377 211.886 317.07 212.456 317.557 213.186C318.044 213.916 318.304 214.775 318.304 215.653V215.653C318.303 216.83 317.836 217.959 317.005 218.792C316.175 219.624 315.048 220.093 313.873 220.094V220.094ZM313.873 213.214C313.39 213.214 312.918 213.358 312.516 213.626C312.115 213.895 311.802 214.277 311.617 214.724C311.432 215.171 311.384 215.662 311.478 216.137C311.572 216.611 311.805 217.047 312.146 217.389C312.488 217.731 312.923 217.964 313.396 218.058C313.87 218.152 314.361 218.104 314.807 217.919C315.253 217.734 315.634 217.42 315.902 217.018C316.171 216.616 316.314 216.143 316.314 215.66C316.314 215.011 316.057 214.389 315.599 213.931C315.141 213.472 314.52 213.214 313.873 213.214Z" fill="#00C98A"/>
<path d="M305.388 215.974H299.708C299.444 215.974 299.19 215.869 299.003 215.682C298.816 215.494 298.71 215.24 298.71 214.975C298.71 205.971 304.657 201.433 310.222 200.187C310.481 200.129 310.752 200.177 310.976 200.32C311.2 200.462 311.358 200.688 311.416 200.948C311.473 201.207 311.426 201.479 311.283 201.703C311.141 201.927 310.916 202.086 310.657 202.143C307.83 202.776 305.411 204.191 303.67 206.243C301.894 208.327 300.903 210.927 300.74 213.989H304.439C304.68 211.217 305.938 208.875 308.041 207.336C310.526 205.513 313.97 204.998 317.028 205.976C317.153 206.016 317.269 206.08 317.369 206.165C317.469 206.25 317.552 206.353 317.612 206.47C317.672 206.586 317.708 206.714 317.719 206.845C317.73 206.975 317.715 207.107 317.675 207.232C317.636 207.357 317.571 207.473 317.487 207.573C317.402 207.673 317.299 207.756 317.182 207.816C317.066 207.876 316.939 207.913 316.808 207.924C316.678 207.935 316.546 207.92 316.421 207.88C313.959 207.093 311.2 207.502 309.219 208.943C307.93 209.887 306.394 211.698 306.394 214.975C306.394 215.107 306.367 215.237 306.316 215.359C306.266 215.48 306.191 215.591 306.098 215.683C306.005 215.776 305.894 215.85 305.772 215.9C305.65 215.95 305.52 215.975 305.388 215.974Z" fill="#2F80F6"/>
<path d="M328.037 215.974H322.357C322.092 215.974 321.839 215.868 321.652 215.681C321.465 215.494 321.36 215.24 321.359 214.975V214.975C321.359 209.99 317.901 208.343 316.413 207.867C316.161 207.786 315.951 207.609 315.83 207.373C315.709 207.138 315.686 206.863 315.766 206.611C315.847 206.358 316.024 206.148 316.259 206.027C316.494 205.905 316.768 205.882 317.02 205.963C320.679 207.135 322.977 210.092 323.312 213.974H327.012C326.785 210.089 325.231 206.892 322.481 204.682C319.313 202.138 314.899 201.188 310.653 202.137C310.525 202.165 310.392 202.168 310.263 202.146C310.134 202.123 310.01 202.075 309.899 202.004C309.675 201.862 309.517 201.636 309.459 201.376C309.402 201.117 309.449 200.845 309.592 200.621C309.734 200.397 309.96 200.238 310.219 200.18C315.039 199.103 320.09 200.202 323.727 203.115C326.152 205.058 329.033 208.69 329.033 214.962C329.035 215.094 329.011 215.225 328.961 215.348C328.912 215.471 328.839 215.583 328.747 215.677C328.654 215.771 328.543 215.846 328.422 215.897C328.3 215.948 328.169 215.974 328.037 215.974V215.974Z" fill="#0047AD"/>
<path d="M313.907 216.91C313.709 216.91 313.516 216.851 313.352 216.742C313.188 216.632 313.06 216.475 312.984 216.293C312.909 216.11 312.889 215.909 312.928 215.715C312.967 215.521 313.062 215.343 313.202 215.203L321.652 206.739C321.743 206.639 321.853 206.559 321.976 206.503C322.098 206.446 322.231 206.416 322.366 206.413C322.501 206.409 322.635 206.434 322.76 206.484C322.885 206.534 322.999 206.609 323.094 206.704C323.19 206.8 323.265 206.913 323.315 207.039C323.366 207.164 323.39 207.298 323.387 207.433C323.384 207.569 323.354 207.702 323.298 207.825C323.243 207.948 323.163 208.058 323.063 208.149L314.613 216.613C314.52 216.707 314.411 216.782 314.289 216.832C314.168 216.883 314.038 216.91 313.907 216.91Z" fill="#FFCD38"/>
<path d="M240.006 273.953C237.721 273.953 235.487 273.274 233.586 272.002C231.686 270.73 230.205 268.923 229.33 266.808C228.456 264.693 228.227 262.365 228.673 260.12C229.119 257.875 230.219 255.812 231.835 254.194C233.451 252.575 235.51 251.472 237.752 251.026C239.993 250.579 242.317 250.808 244.428 251.685C246.54 252.561 248.345 254.044 249.614 255.948C250.884 257.851 251.562 260.089 251.562 262.378C251.559 265.447 250.34 268.389 248.174 270.559C246.007 272.729 243.07 273.95 240.006 273.953ZM240.006 252.631C238.081 252.631 236.2 253.203 234.599 254.275C232.999 255.346 231.752 256.869 231.016 258.65C230.279 260.432 230.087 262.392 230.462 264.283C230.838 266.174 231.765 267.911 233.126 269.274C234.488 270.637 236.222 271.565 238.11 271.941C239.998 272.317 241.954 272.124 243.733 271.386C245.511 270.648 247.031 269.399 248.1 267.796C249.17 266.193 249.741 264.308 249.741 262.38C249.737 259.795 248.71 257.318 246.885 255.49C245.06 253.663 242.587 252.634 240.006 252.631V252.631Z" fill="#2F80F6"/>
<path d="M236.37 269.589C235.548 269.591 234.756 269.28 234.154 268.72V268.72L233.908 268.492C233.273 267.901 232.898 267.082 232.865 266.215C232.832 265.347 233.144 264.502 233.732 263.865L240.778 256.249C241.367 255.613 242.184 255.237 243.05 255.204C243.916 255.171 244.759 255.483 245.395 256.072L245.641 256.301C246.275 256.891 246.651 257.709 246.684 258.576C246.718 259.443 246.407 260.288 245.82 260.926L238.776 268.545C238.484 268.862 238.133 269.118 237.741 269.297C237.35 269.477 236.927 269.576 236.497 269.59L236.37 269.589ZM243.177 257.023C242.977 257.023 242.78 257.065 242.597 257.145C242.414 257.224 242.25 257.341 242.114 257.487L235.067 265.104C234.806 265.386 234.668 265.761 234.683 266.145C234.698 266.529 234.865 266.892 235.146 267.153L235.392 267.381C235.674 267.642 236.048 267.78 236.431 267.765C236.814 267.75 237.176 267.584 237.438 267.303L244.484 259.687C244.743 259.404 244.88 259.03 244.865 258.646C244.851 258.262 244.685 257.9 244.405 257.637L244.16 257.409C243.893 257.16 243.541 257.022 243.177 257.023V257.023Z" fill="#0047AD"/>
<path d="M242.801 260.393C242.499 260.393 242.208 260.288 241.975 260.097C241.742 259.906 241.582 259.639 241.523 259.344C241.464 259.048 241.51 258.741 241.651 258.474C241.793 258.208 242.023 258 242.301 257.884C242.579 257.768 242.889 257.753 243.177 257.84C243.465 257.927 243.714 258.112 243.882 258.363C244.05 258.613 244.125 258.914 244.096 259.215C244.067 259.515 243.935 259.796 243.722 260.009C243.601 260.131 243.457 260.227 243.299 260.293C243.141 260.359 242.972 260.392 242.801 260.393ZM242.801 258.57C242.698 258.569 242.598 258.599 242.513 258.655C242.428 258.712 242.361 258.792 242.322 258.887C242.282 258.981 242.271 259.085 242.291 259.186C242.311 259.286 242.359 259.378 242.431 259.451C242.503 259.524 242.595 259.573 242.696 259.593C242.796 259.614 242.9 259.604 242.994 259.564C243.089 259.525 243.169 259.459 243.226 259.374C243.283 259.289 243.313 259.189 243.313 259.087C243.314 259.019 243.301 258.952 243.275 258.889C243.249 258.826 243.212 258.769 243.164 258.722C243.067 258.625 242.937 258.571 242.801 258.57Z" fill="#FFCD38"/>
<path d="M228.547 245.652C228.547 246.819 227.831 247.574 226.744 247.574C225.657 247.574 224.939 246.814 224.939 245.652C224.939 244.49 225.657 243.732 226.744 243.732C227.831 243.732 228.547 244.485 228.547 245.652ZM225.836 245.652C225.836 246.236 226.099 246.793 226.746 246.793C227.392 246.793 227.655 246.229 227.655 245.652C227.655 245.075 227.393 244.511 226.746 244.511C226.098 244.511 225.841 245.073 225.841 245.652H225.836Z" fill="#CCCCCC"/>
<path d="M228.861 244.232C228.859 244.179 228.867 244.126 228.886 244.076C228.904 244.027 228.932 243.981 228.968 243.942C229.005 243.904 229.048 243.872 229.096 243.85C229.145 243.829 229.197 243.816 229.25 243.815H230.552C230.65 243.803 230.748 243.831 230.826 243.892C230.903 243.953 230.953 244.043 230.965 244.141C230.967 244.16 230.967 244.179 230.965 244.198C230.97 244.296 230.936 244.392 230.87 244.465C230.805 244.539 230.713 244.583 230.615 244.589C230.593 244.591 230.571 244.591 230.548 244.589H229.686V245.241H230.444C230.496 245.235 230.548 245.24 230.598 245.254C230.648 245.269 230.694 245.294 230.734 245.326C230.774 245.359 230.808 245.4 230.832 245.446C230.856 245.492 230.871 245.542 230.876 245.594C230.88 245.646 230.874 245.698 230.858 245.747C230.843 245.797 230.817 245.843 230.783 245.882C230.749 245.922 230.708 245.954 230.661 245.977C230.615 246 230.564 246.014 230.513 246.017H229.686V247.08C229.691 247.19 229.652 247.297 229.579 247.379C229.505 247.461 229.403 247.51 229.293 247.517C229.184 247.524 229.076 247.487 228.993 247.414C228.91 247.342 228.859 247.24 228.851 247.131C228.849 247.114 228.849 247.097 228.851 247.08L228.861 244.232Z" fill="#CCCCCC"/>
<path d="M231.151 244.232C231.149 244.179 231.157 244.126 231.176 244.076C231.194 244.027 231.222 243.981 231.259 243.942C231.295 243.903 231.338 243.872 231.386 243.85C231.435 243.828 231.487 243.816 231.54 243.815H232.842C232.89 243.809 232.94 243.812 232.987 243.826C233.034 243.839 233.078 243.861 233.117 243.891C233.155 243.922 233.187 243.959 233.211 244.002C233.235 244.045 233.251 244.092 233.257 244.141C233.258 244.16 233.258 244.179 233.257 244.198C233.262 244.296 233.228 244.392 233.162 244.465C233.097 244.539 233.005 244.583 232.907 244.589C232.884 244.591 232.861 244.591 232.838 244.589H231.986V245.241H232.744C232.796 245.235 232.848 245.24 232.898 245.254C232.947 245.269 232.994 245.294 233.034 245.326C233.074 245.359 233.107 245.4 233.132 245.446C233.156 245.492 233.171 245.542 233.175 245.594C233.18 245.646 233.174 245.698 233.158 245.747C233.142 245.797 233.117 245.843 233.083 245.882C233.049 245.922 233.008 245.954 232.961 245.977C232.915 246 232.864 246.014 232.812 246.017H231.986V247.08C231.99 247.19 231.952 247.297 231.879 247.379C231.805 247.461 231.703 247.51 231.593 247.517C231.483 247.523 231.376 247.487 231.293 247.414C231.21 247.342 231.159 247.24 231.151 247.131C231.149 247.114 231.149 247.097 231.151 247.08V244.232Z" fill="#CCCCCC"/>
<path d="M251.595 245.652C251.595 246.819 250.877 247.574 249.79 247.574C248.702 247.574 247.986 246.814 247.986 245.652C247.986 244.49 248.702 243.732 249.79 243.732C250.877 243.732 251.595 244.485 251.595 245.652ZM248.883 245.652C248.883 246.236 249.145 246.793 249.793 246.793C250.441 246.793 250.703 246.229 250.703 245.652C250.703 245.075 250.441 244.511 249.793 244.511C249.145 244.511 248.888 245.073 248.888 245.652H248.883Z" fill="#2F80F6"/>
<path d="M251.908 244.225C251.902 244.174 251.907 244.121 251.921 244.071C251.935 244.021 251.959 243.974 251.991 243.933C252.024 243.892 252.064 243.858 252.109 243.833C252.155 243.807 252.205 243.791 252.257 243.785C252.28 243.784 252.302 243.784 252.325 243.785C252.546 243.785 252.628 243.885 252.903 244.242L254.288 245.981H254.299V244.237C254.295 244.181 254.302 244.126 254.319 244.073C254.337 244.02 254.365 243.971 254.401 243.93C254.438 243.888 254.482 243.854 254.532 243.829C254.582 243.804 254.636 243.79 254.691 243.787C254.747 243.783 254.802 243.791 254.854 243.809C254.907 243.828 254.955 243.856 254.996 243.894C255.038 243.931 255.071 243.976 255.095 244.026C255.118 244.076 255.132 244.131 255.134 244.186C255.136 244.203 255.136 244.22 255.134 244.237V247.088C255.14 247.14 255.136 247.192 255.122 247.243C255.108 247.293 255.084 247.34 255.051 247.381C255.019 247.422 254.979 247.456 254.933 247.481C254.888 247.506 254.838 247.522 254.786 247.528C254.763 247.531 254.74 247.531 254.718 247.528C254.496 247.528 254.415 247.429 254.14 247.072L252.755 245.332H252.743V247.077C252.748 247.187 252.71 247.294 252.636 247.376C252.563 247.457 252.46 247.507 252.351 247.514C252.241 247.52 252.133 247.483 252.051 247.411C251.968 247.339 251.917 247.237 251.908 247.127C251.907 247.11 251.907 247.094 251.908 247.077V244.225Z" fill="#2F80F6"/>
<path d="M228.776 254.786C228.607 254.785 228.441 254.737 228.297 254.647C228.153 254.557 228.038 254.428 227.963 254.276C227.888 254.123 227.857 253.953 227.874 253.784C227.891 253.615 227.954 253.454 228.057 253.319C228.14 253.213 228.22 253.107 228.309 253.003C228.464 252.823 228.683 252.71 228.92 252.69C229.157 252.669 229.392 252.742 229.575 252.893C229.759 253.044 229.876 253.261 229.902 253.497C229.929 253.734 229.861 253.971 229.715 254.159C229.642 254.25 229.567 254.343 229.494 254.437C229.409 254.546 229.3 254.635 229.175 254.695C229.051 254.756 228.915 254.787 228.776 254.786V254.786Z" fill="#00C98A"/>
<path d="M231.579 252.054C231.387 252.054 231.2 251.993 231.045 251.88C230.89 251.767 230.774 251.608 230.714 251.426C230.655 251.243 230.654 251.046 230.713 250.863C230.772 250.68 230.887 250.521 231.042 250.407C231.244 250.256 231.45 250.114 231.66 249.975C231.861 249.856 232.1 249.819 232.328 249.872C232.555 249.925 232.754 250.063 232.882 250.258C233.011 250.453 233.06 250.69 233.019 250.921C232.977 251.151 232.849 251.356 232.661 251.495C232.476 251.617 232.293 251.744 232.116 251.875C231.96 251.99 231.772 252.053 231.579 252.054V252.054ZM248.146 252.021C247.953 252.022 247.765 251.961 247.61 251.847C247.433 251.718 247.249 251.593 247.063 251.47C246.858 251.35 246.709 251.154 246.646 250.925C246.583 250.696 246.612 250.451 246.727 250.243C246.842 250.035 247.033 249.88 247.261 249.811C247.488 249.743 247.733 249.766 247.944 249.876C247.984 249.898 248.023 249.924 248.059 249.953C248.271 250.089 248.479 250.235 248.679 250.381C248.835 250.494 248.95 250.654 249.009 250.837C249.069 251.02 249.069 251.217 249.009 251.4C248.95 251.583 248.834 251.743 248.679 251.856C248.523 251.969 248.336 252.03 248.144 252.029L248.146 252.021ZM235.332 250.088C235.116 250.088 234.908 250.011 234.743 249.872C234.579 249.732 234.469 249.539 234.434 249.326C234.399 249.113 234.44 248.895 234.55 248.709C234.661 248.524 234.833 248.384 235.037 248.314C235.275 248.233 235.526 248.163 235.758 248.088C235.991 248.021 236.24 248.05 236.451 248.167C236.662 248.285 236.817 248.482 236.884 248.714C236.95 248.947 236.921 249.196 236.804 249.408C236.687 249.619 236.49 249.775 236.258 249.842C236.048 249.902 235.836 249.969 235.626 250.041C235.532 250.073 235.433 250.09 235.334 250.089L235.332 250.088ZM244.383 250.072C244.284 250.072 244.185 250.055 244.091 250.023C243.886 249.954 243.673 249.887 243.46 249.827C243.236 249.755 243.05 249.598 242.939 249.391C242.828 249.184 242.801 248.942 242.864 248.715C242.927 248.489 243.075 248.296 243.277 248.176C243.479 248.056 243.72 248.019 243.948 248.073C244.192 248.141 244.436 248.218 244.671 248.296C244.876 248.365 245.049 248.505 245.161 248.69C245.272 248.875 245.314 249.094 245.279 249.308C245.244 249.522 245.134 249.716 244.97 249.856C244.805 249.996 244.595 250.072 244.379 250.072H244.383ZM239.5 249.34C239.259 249.343 239.026 249.25 238.853 249.081C238.68 248.913 238.581 248.682 238.578 248.441C238.575 248.199 238.668 247.966 238.836 247.793C239.004 247.619 239.234 247.52 239.476 247.517H240.234C240.475 247.52 240.706 247.618 240.874 247.791C241.043 247.964 241.136 248.197 241.133 248.439C241.13 248.681 241.032 248.911 240.859 249.08C240.687 249.249 240.454 249.342 240.213 249.34H239.5V249.34Z" fill="#00C98A"/>
<path d="M250.961 254.747C250.823 254.747 250.687 254.715 250.563 254.654C250.439 254.594 250.33 254.505 250.245 254.397C250.172 254.302 250.099 254.211 250.024 254.119C249.948 254.027 249.89 253.921 249.855 253.806C249.82 253.692 249.808 253.572 249.82 253.453C249.842 253.212 249.96 252.99 250.146 252.836C250.332 252.682 250.571 252.609 250.812 252.632C251.052 252.655 251.273 252.772 251.427 252.959C251.511 253.06 251.589 253.166 251.679 253.275C251.782 253.409 251.846 253.57 251.863 253.739C251.88 253.908 251.85 254.079 251.775 254.231C251.701 254.384 251.585 254.512 251.442 254.603C251.298 254.693 251.132 254.741 250.963 254.742L250.961 254.747Z" fill="#00C98A"/>
</g>
</g>
<defs>
<clipPath id="clip0_654_6358">
<rect width="482" height="377" fill="white"/>
</clipPath>
<clipPath id="clip1_654_6358">
<rect width="191" height="177.468" fill="white" transform="translate(145.5 106.766)"/>
</clipPath>
</defs>
</svg>
