<svg width="482" height="377" viewBox="0 0 482 377" fill="none" xmlns="http://www.w3.org/2000/svg">
<rect width="481.969" height="377" fill="#162AF1"/>
<g clip-path="url(#clip0_654_4024)">
<path d="M230.877 186.856C230.877 186.856 230.886 186.846 230.891 186.842Z" fill="white"/>
<path d="M201.314 179.16H200.582C200.322 179.16 200.079 179.264 199.895 179.444C199.711 179.628 199.607 179.871 199.607 180.132V189.227C199.581 191.9 197.479 193.844 194.613 193.844H194.599C191.68 193.844 189.618 191.837 189.592 188.966V180.137C189.592 179.876 189.488 179.628 189.304 179.444C189.12 179.259 188.877 179.16 188.617 179.16H187.88C187.346 179.16 186.91 179.601 186.91 180.137V189.092C186.91 191.351 187.674 193.246 189.115 194.578C190.4 195.757 192.21 196.446 194.213 196.518H194.811C196.859 196.482 198.709 195.807 200.025 194.618C201.503 193.286 202.28 191.374 202.28 189.088V180.137C202.28 179.601 201.844 179.16 201.305 179.16H201.314Z" fill="white"/>
<path d="M182.457 193.664H178.828C175.927 193.655 173.879 191.652 173.847 188.79V180.141C173.847 179.601 173.412 179.164 172.873 179.164H172.141C171.602 179.164 171.166 179.601 171.166 180.141V188.912C171.166 191.198 171.948 193.11 173.421 194.442C174.737 195.63 176.587 196.305 178.64 196.341H182.453C182.992 196.341 183.428 195.905 183.428 195.365V194.636C183.428 194.28 183.239 193.956 182.916 193.772C182.776 193.695 182.615 193.659 182.457 193.659V193.664Z" fill="white"/>
<path d="M241.234 181.609C239.622 179.926 237.371 178.999 234.915 178.999C232.539 178.967 230.226 179.926 228.564 181.636C226.987 183.297 226.125 185.475 226.143 187.77V187.815C226.125 190.101 226.978 192.27 228.55 193.926C230.163 195.609 232.408 196.536 234.874 196.536C234.906 196.536 234.942 196.536 234.973 196.536C237.309 196.536 239.577 195.578 241.207 193.899C242.788 192.239 243.65 190.06 243.637 187.765V187.72C243.659 185.439 242.806 183.27 241.239 181.609H241.234ZM240.87 187.765V187.81C240.87 191.334 238.315 193.989 234.919 193.989C233.307 194.007 231.739 193.341 230.625 192.171C229.511 190.969 228.905 189.408 228.923 187.765V187.72C228.923 184.197 231.479 181.541 234.874 181.541C234.874 181.541 234.91 181.541 234.924 181.541C236.518 181.541 238.059 182.203 239.159 183.36C240.277 184.557 240.884 186.123 240.866 187.765H240.87Z" fill="white"/>
<path d="M220.032 180.934C218.747 179.755 216.937 179.066 214.934 178.994H214.336C212.288 179.03 210.438 179.705 209.122 180.893C207.644 182.225 206.867 184.138 206.867 186.424V195.371C206.867 195.906 207.303 196.347 207.842 196.347H208.574C208.834 196.347 209.077 196.244 209.261 196.064C209.445 195.879 209.549 195.636 209.549 195.375V186.285C209.576 183.611 211.678 181.667 214.543 181.667H214.557C217.476 181.667 219.538 183.674 219.564 186.546V195.375C219.564 195.636 219.668 195.884 219.852 196.068C220.036 196.253 220.283 196.352 220.544 196.352H221.276C221.81 196.352 222.246 195.911 222.246 195.375V186.42C222.246 184.16 221.482 182.266 220.041 180.934H220.032Z" fill="white"/>
<path d="M266.383 181.636C264.77 179.953 262.52 179.026 260.063 179.026C257.687 178.995 255.374 179.953 253.712 181.663C252.136 183.324 251.273 185.502 251.291 187.797V187.842C251.273 190.128 252.127 192.297 253.699 193.953C255.311 195.637 257.557 196.564 260.023 196.564C260.054 196.564 260.09 196.564 260.121 196.564C262.457 196.564 264.725 195.605 266.356 193.926C267.937 192.266 268.799 190.088 268.785 187.793V187.748C268.808 185.466 267.955 183.297 266.387 181.636H266.383ZM266.019 187.793V187.838C266.019 191.361 263.463 194.016 260.068 194.016C258.455 194.034 256.888 193.368 255.774 192.198C254.66 190.997 254.054 189.435 254.071 187.793V187.748C254.071 184.224 256.627 181.569 260.023 181.569C260.023 181.569 260.059 181.569 260.072 181.569C261.667 181.569 263.207 182.23 264.307 183.387C265.426 184.584 266.032 186.15 266.014 187.793H266.019Z" fill="white"/>
<path d="M285.854 180.965C284.569 179.786 282.759 179.097 280.756 179.025H280.159C278.111 179.061 276.26 179.736 274.944 180.924C273.466 182.257 272.689 184.169 272.689 186.455V195.402C272.689 195.942 273.125 196.378 273.664 196.378H274.396C274.571 196.378 274.751 196.333 274.899 196.239C275.2 196.05 275.371 195.739 275.371 195.402V186.316C275.398 183.643 277.5 181.699 280.365 181.699H280.379C283.298 181.699 285.36 183.706 285.387 186.577V195.384C285.387 195.582 285.441 195.78 285.548 195.946C285.737 196.225 286.043 196.383 286.361 196.383H287.094C287.632 196.383 288.064 195.942 288.064 195.406V186.451C288.064 184.192 287.3 182.297 285.858 180.965H285.854Z" fill="white"/>
<path d="M309.159 186.711C309.128 186.427 309.083 186.153 309.024 185.878C308.108 181.509 304.016 178.457 299.493 178.943C294.665 179.461 291.171 183.799 291.687 188.637C292.204 193.475 296.534 196.976 301.362 196.458L301.083 193.866C297.755 194.222 294.755 191.85 294.297 188.556C294.288 188.493 294.279 188.425 294.274 188.362C294.185 187.503 294.274 186.661 294.512 185.883C295.222 183.583 297.239 181.81 299.772 181.54C302.763 181.221 305.494 183.102 306.343 185.883C306.455 186.256 306.536 186.643 306.581 187.044L309.168 186.765C309.168 186.765 309.168 186.729 309.164 186.711H309.159Z" fill="white"/>
<path d="M309.2 187.219V187.579C309.2 188.119 308.764 188.556 308.225 188.556H292.209V185.883H309.025C309.083 186.153 309.128 186.432 309.16 186.715V186.769L309.2 187.219Z" fill="white"/>
<path d="M308.072 192.021C306.725 194.415 304.282 196.143 301.349 196.458L301.07 193.866C303.154 193.641 304.893 192.399 305.836 190.685C306.114 190.176 306.779 190.028 307.251 190.365L307.789 190.752C308.194 191.04 308.319 191.589 308.072 192.026V192.021Z" fill="white"/>
</g>
<defs>
<clipPath id="clip0_654_4024">
<rect width="138.031" height="17.668" fill="white" transform="translate(171.166 178.895)"/>
</clipPath>
</defs>
</svg>
