<svg width="481" height="376" viewBox="0 0 481 376" fill="none" xmlns="http://www.w3.org/2000/svg">
<rect width="480" height="375.46" transform="translate(0.480469 0.294922)" fill="#F2F6FD"/>
<g clip-path="url(#clip0_508_4035)">
<path d="M260.362 203.846C260.357 204.046 260.276 204.236 260.136 204.375C259.996 204.515 259.807 204.591 259.612 204.589H227.247C227.05 204.589 226.862 204.509 226.722 204.367C226.583 204.224 226.505 204.031 226.505 203.829C226.505 194.643 234.326 187.219 243.434 187.219C252.541 187.219 260.362 194.601 260.362 203.787V203.846Z" fill="#F74E4E"/>
<path d="M257.022 185.49C258.862 185.49 260.354 183.961 260.354 182.075C260.354 180.188 258.862 178.659 257.022 178.659C255.182 178.659 253.69 180.188 253.69 182.075C253.69 183.961 255.182 185.49 257.022 185.49Z" fill="#F74E4E"/>
<path d="M210.808 203.821C210.808 204.024 210.729 204.22 210.588 204.364C210.448 204.508 210.257 204.589 210.058 204.589H182.703C182.504 204.589 182.313 204.508 182.173 204.364C182.032 204.22 181.953 204.024 181.953 203.821C181.958 203.669 182.003 203.522 182.083 203.395L195.753 179.002C195.826 178.9 195.92 178.816 196.028 178.757C196.137 178.697 196.257 178.664 196.38 178.659C196.503 178.66 196.624 178.692 196.732 178.751C196.839 178.811 196.931 178.897 196.999 179.002L210.677 203.395C210.761 203.52 210.807 203.668 210.808 203.821Z" fill="#FFB71B"/>
<path d="M298.324 178.659C298.189 178.66 298.057 178.707 297.95 178.793L281.657 191.169C281.547 191.254 281.412 191.298 281.274 191.294C281.152 191.297 281.032 191.259 280.932 191.186H280.883L264.729 178.835C264.624 178.756 264.499 178.713 264.37 178.709C264.182 178.72 264.005 178.807 263.878 178.951C263.751 179.095 263.685 179.284 263.694 179.478V203.829C263.69 203.924 263.704 204.02 263.735 204.11C263.767 204.199 263.816 204.282 263.878 204.353C263.941 204.423 264.017 204.48 264.101 204.521C264.186 204.561 264.277 204.585 264.37 204.589H298.324C298.513 204.58 298.691 204.495 298.819 204.353C298.947 204.211 299.015 204.022 299.009 203.829V179.427C299.015 179.233 298.947 179.044 298.82 178.9C298.692 178.756 298.514 178.67 298.324 178.659V178.659Z" fill="#4FBF5E"/>
<path d="M227.418 178.701H223.5C223.402 178.699 223.309 178.657 223.24 178.586C223.172 178.514 223.133 178.417 223.133 178.317V172.596C223.133 172.495 223.114 172.394 223.075 172.301C223.037 172.207 222.981 172.122 222.911 172.05C222.84 171.979 222.757 171.922 222.665 171.884C222.573 171.846 222.475 171.827 222.376 171.828H214.889C214.69 171.828 214.5 171.909 214.359 172.053C214.219 172.197 214.14 172.393 214.14 172.596V203.829C214.142 204.031 214.222 204.225 214.362 204.367C214.502 204.509 214.692 204.589 214.889 204.589H222.376C222.573 204.589 222.762 204.509 222.903 204.367C223.043 204.225 223.123 204.031 223.125 203.829V188.296C223.124 188.246 223.133 188.196 223.151 188.15C223.169 188.103 223.195 188.061 223.23 188.025C223.264 187.989 223.304 187.961 223.349 187.941C223.395 187.922 223.443 187.912 223.492 187.912H227.418C227.617 187.912 227.808 187.831 227.948 187.687C228.089 187.543 228.168 187.348 228.168 187.144V179.469C228.168 179.266 228.089 179.07 227.948 178.926C227.808 178.782 227.617 178.701 227.418 178.701Z" fill="#71C5FF"/>
</g>
<defs>
<clipPath id="clip0_508_4035">
<rect width="117.055" height="32.7607" fill="white" transform="translate(181.953 171.828)"/>
</clipPath>
</defs>
</svg>
