<svg width="482" height="377" viewBox="0 0 482 377" fill="none" xmlns="http://www.w3.org/2000/svg">
<rect width="481.969" height="377" transform="translate(0 0.00146484)" fill="#A8C5AF"/>
<g clip-path="url(#clip0_654_4121)">
<path d="M171.061 181.494H172.635V187.997H180.011V181.494H181.586V195.967H180.011V189.398H172.641V195.967H171.061V181.494Z" fill="white"/>
<path d="M189.082 185.758C191.04 185.758 192.443 186.762 192.895 187.844H192.933C192.914 187.553 192.895 187.282 192.895 186.782V186.067H194.336V195.966H192.895V195.058C192.895 194.614 192.914 194.289 192.933 193.979H192.895C192.415 195.271 190.955 196.256 189.054 196.276C185.925 196.276 183.928 194.018 183.928 191.007C183.928 187.997 186.042 185.758 189.082 185.758ZM192.851 191.007C192.851 188.769 191.315 187.129 189.144 187.129C187.052 187.129 185.478 188.771 185.478 191.007C185.478 193.243 187.052 194.885 189.144 194.885C191.31 194.885 192.851 193.227 192.851 191.007Z" fill="white"/>
<path d="M197.149 183.21C197.149 183.082 197.174 182.954 197.223 182.836C197.273 182.717 197.345 182.61 197.437 182.52C197.528 182.43 197.637 182.36 197.756 182.313C197.875 182.266 198.002 182.243 198.13 182.247C198.325 182.247 198.515 182.305 198.677 182.414C198.838 182.524 198.964 182.679 199.038 182.86C199.111 183.041 199.129 183.241 199.09 183.432C199.05 183.624 198.954 183.799 198.815 183.936C198.676 184.073 198.499 184.165 198.307 184.201C198.116 184.236 197.918 184.214 197.739 184.136C197.56 184.058 197.409 183.928 197.304 183.763C197.199 183.598 197.145 183.406 197.149 183.21V183.21ZM197.362 195.966V186.067H198.898V195.966H197.362Z" fill="white"/>
<path d="M202.298 187.42H201.165V186.068H202.298V183.424H203.834V186.068H206.868V187.42H203.834V194.596H206.579V195.964H202.298V187.42Z" fill="white"/>
<path d="M213.073 196.276C210.077 196.276 207.868 194.018 207.868 191.007C207.868 187.997 210.077 185.758 213.043 185.758C215.922 185.758 217.899 188.016 217.899 191.007C217.899 191.199 217.88 191.527 217.861 191.683H209.48C209.752 193.599 211.152 194.885 213.092 194.885C213.696 194.896 214.294 194.764 214.838 194.499C215.382 194.234 215.856 193.844 216.221 193.361L217.123 194.289C216.657 194.924 216.046 195.436 215.341 195.782C214.635 196.128 213.857 196.297 213.073 196.276V196.276ZM209.48 190.372H216.374C216.259 188.5 214.936 187.132 213.035 187.132C211.133 187.132 209.739 188.44 209.48 190.372Z" fill="white"/>
<path d="M224.537 186.067V187.435H221.658V195.966H220.122V186.067H224.537Z" fill="white"/>
<path d="M234.947 191.219C234.986 191.399 235.006 191.583 235.007 191.767C235.007 194.274 233.43 196.282 230.281 196.282C227.304 196.282 225.692 194.43 225.692 192.057C225.699 191.259 225.952 190.484 226.417 189.837C226.881 189.191 227.534 188.705 228.285 188.447C227.656 188.143 227.128 187.663 226.766 187.063C226.404 186.463 226.224 185.771 226.248 185.07C226.248 182.831 227.977 181.192 230.453 181.192C233.239 181.192 234.468 183.064 234.468 184.821C234.47 185.095 234.451 185.37 234.411 185.642H232.951C232.97 185.467 232.989 185.179 232.989 184.985C232.989 183.789 232.24 182.574 230.437 182.574C228.783 182.574 227.767 183.595 227.767 185.119C227.767 186.471 228.631 187.842 230.665 187.842H235.759C237.257 187.842 237.698 187.262 237.774 186.162L239.063 186.452C239.044 188.015 238.006 189.189 236.067 189.189H230.347C228.331 189.189 227.255 190.557 227.255 191.986C227.255 193.647 228.465 194.881 230.385 194.881C232.479 194.881 233.419 193.532 233.419 191.775C233.419 191.591 233.4 191.407 233.362 191.228L234.947 191.219Z" fill="white"/>
<path d="M230.295 187.799C232.153 187.66 232.992 186.683 232.992 185.024C232.993 184.84 232.973 184.656 232.932 184.477H234.455C234.642 186.778 233.185 188.954 230.423 189.187" fill="white"/>
<path d="M237.446 188.731C237.446 184.41 240.54 181.186 244.764 181.186C248.989 181.186 252.08 184.41 252.08 188.731C252.08 193.053 248.959 196.277 244.764 196.277C240.499 196.277 237.446 193.053 237.446 188.731ZM250.468 188.731C250.468 185.22 248.085 182.614 244.764 182.614C241.444 182.614 239.061 185.22 239.061 188.731C239.061 192.243 241.442 194.829 244.764 194.829C248.087 194.829 250.468 192.243 250.468 188.731Z" fill="white"/>
<path d="M254.333 181.494H255.869V194.596H258.71V195.964H254.333V181.494Z" fill="white"/>
<path d="M260.19 183.21C260.189 183.082 260.214 182.954 260.263 182.836C260.313 182.717 260.385 182.61 260.476 182.52C260.567 182.43 260.676 182.36 260.794 182.313C260.913 182.266 261.04 182.243 261.168 182.247C261.363 182.246 261.554 182.304 261.716 182.413C261.878 182.522 262.004 182.677 262.078 182.858C262.152 183.039 262.17 183.239 262.131 183.431C262.092 183.623 261.996 183.798 261.857 183.935C261.718 184.073 261.541 184.165 261.349 184.201C261.158 184.236 260.96 184.214 260.781 184.136C260.602 184.058 260.45 183.928 260.345 183.764C260.24 183.599 260.186 183.406 260.19 183.21V183.21ZM260.4 195.966V186.067H261.936V195.966H260.4Z" fill="white"/>
<path d="M267.545 195.966L263.819 186.067H265.529L268.506 194.595H268.572L271.568 186.067H273.24L269.533 195.966H267.545Z" fill="white"/>
<path d="M279.319 185.758C281.277 185.758 282.68 186.762 283.132 187.844H283.17C283.151 187.553 283.132 187.282 283.132 186.782V186.067H284.573V195.966H283.132V195.058C283.132 194.614 283.151 194.289 283.17 193.979H283.132C282.652 195.271 281.193 196.256 279.291 196.276C276.159 196.276 274.163 194.018 274.163 191.007C274.163 187.997 276.265 185.758 279.319 185.758ZM283.083 191.007C283.083 188.769 281.547 187.129 279.376 187.129C277.281 187.129 275.707 188.771 275.707 191.007C275.707 193.243 277.281 194.885 279.376 194.885C281.547 194.885 283.083 193.227 283.083 191.007V191.007Z" fill="white"/>
<path d="M292.014 186.067V187.435H289.132V195.966H287.596V186.067H292.014Z" fill="white"/>
<path d="M297.987 196.276C294.991 196.276 292.782 194.018 292.782 191.007C292.782 187.997 294.991 185.758 297.957 185.758C300.839 185.758 302.816 188.016 302.816 191.007C302.816 191.199 302.797 191.527 302.778 191.683H294.394C294.667 193.599 296.067 194.885 298.006 194.885C298.61 194.896 299.208 194.764 299.752 194.499C300.296 194.234 300.77 193.844 301.135 193.361L302.04 194.289C301.574 194.924 300.962 195.436 300.256 195.782C299.55 196.128 298.772 196.297 297.987 196.276V196.276ZM294.394 190.372H301.291C301.174 188.5 299.85 187.132 297.949 187.132C296.047 187.132 294.645 188.44 294.394 190.372Z" fill="white"/>
<path d="M307.496 190.04L308.801 190.645C310.07 191.223 310.933 191.994 310.933 193.442C310.933 195.103 309.626 196.28 307.572 196.28C305.595 196.28 304.424 195.084 304.116 193.694L305.325 193.037C305.433 193.578 305.727 194.064 306.155 194.409C306.583 194.755 307.118 194.939 307.667 194.928C308.686 194.928 309.397 194.408 309.397 193.442C309.397 192.75 308.918 192.285 307.899 191.822L306.69 191.275C305.42 190.694 304.538 189.961 304.538 188.475C304.538 186.931 305.826 185.774 307.61 185.774C309.394 185.774 310.473 186.759 310.933 188.012L309.781 188.65C309.641 188.193 309.357 187.795 308.973 187.513C308.589 187.231 308.124 187.082 307.648 187.087C306.69 187.087 306.036 187.665 306.036 188.456C306.036 189.173 306.496 189.578 307.496 190.04Z" fill="white"/>
</g>
<defs>
<clipPath id="clip0_654_4121">
<rect width="139.866" height="15.0908" fill="white" transform="translate(171.067 181.186)"/>
</clipPath>
</defs>
</svg>
