<svg width="482" height="377" viewBox="0 0 482 377" fill="none" xmlns="http://www.w3.org/2000/svg">
<rect width="481.969" height="377" transform="translate(0 0.000488281)" fill="#F6F6F6"/>
<g clip-path="url(#clip0_654_4076)">
<path d="M217.697 172.36H247.528C251.758 172.36 255.814 174.045 258.805 177.044C261.795 180.043 263.476 184.111 263.476 188.352V214.206H217.697V172.36Z" fill="#19FFC1"/>
<path d="M225.309 180.889V195.816H221.853V189.694H215.093V195.816H211.646V180.889H215.093V186.771H221.853V180.889H225.309Z" fill="black"/>
<path d="M231.864 195.105C230.653 194.453 229.641 193.485 228.936 192.302C228.23 191.119 227.857 189.767 227.857 188.388C227.857 187.01 228.23 185.658 228.936 184.475C229.641 183.292 230.653 182.323 231.864 181.671C233.153 180.993 234.591 180.647 236.046 180.667C237.496 180.646 238.929 180.992 240.211 181.671C241.424 182.321 242.439 183.289 243.146 184.472C243.854 185.655 244.227 187.009 244.227 188.388C244.227 189.768 243.854 191.121 243.146 192.304C242.439 193.487 241.424 194.455 240.211 195.105C238.929 195.785 237.496 196.13 236.046 196.109C234.591 196.129 233.153 195.784 231.864 195.105ZM238.43 192.555C239.133 192.157 239.71 191.569 240.095 190.858C240.512 190.103 240.722 189.251 240.707 188.388C240.721 187.523 240.511 186.668 240.095 185.909C239.709 185.201 239.132 184.616 238.43 184.221C237.699 183.819 236.88 183.608 236.046 183.608C235.213 183.608 234.393 183.819 233.663 184.221C232.961 184.616 232.384 185.201 231.997 185.909C231.582 186.668 231.371 187.523 231.386 188.388C231.37 189.251 231.581 190.103 231.997 190.858C232.383 191.569 232.96 192.157 233.663 192.555C234.395 192.952 235.214 193.159 236.046 193.159C236.878 193.159 237.698 192.952 238.43 192.555V192.555Z" fill="black"/>
<path d="M213.437 210.297C212.817 209.62 212.341 208.823 212.036 207.956C211.732 207.088 211.605 206.168 211.665 205.251V196.881H215.111V205.109C215.111 207.78 216.216 209.116 218.425 209.116C218.883 209.147 219.342 209.077 219.769 208.909C220.196 208.742 220.582 208.481 220.897 208.147C221.547 207.274 221.861 206.195 221.783 205.109V196.881H225.185V205.242C225.14 206.582 224.715 207.881 223.961 208.988C223.207 210.095 222.154 210.964 220.926 211.493C219.698 212.023 218.344 212.19 217.024 211.977C215.705 211.764 214.472 211.178 213.472 210.288L213.437 210.297Z" fill="black"/>
<path d="M230.971 211.593C230.015 211.344 229.114 210.919 228.312 210.34L229.482 207.737C230.175 208.236 230.944 208.62 231.759 208.874C232.617 209.156 233.514 209.3 234.417 209.301C235.167 209.35 235.917 209.197 236.588 208.857C236.798 208.746 236.974 208.58 237.097 208.376C237.22 208.173 237.286 207.94 237.288 207.702C237.29 207.532 237.254 207.363 237.182 207.209C237.11 207.055 237.003 206.92 236.871 206.813C236.556 206.557 236.195 206.364 235.808 206.245C235.374 206.102 234.789 205.951 234.036 205.783C233.093 205.567 232.164 205.294 231.254 204.965C230.532 204.702 229.891 204.255 229.393 203.668C228.847 202.996 228.569 202.144 228.614 201.278C228.604 200.44 228.848 199.619 229.314 198.924C229.844 198.173 230.579 197.593 231.431 197.253C232.527 196.807 233.704 196.596 234.887 196.631C235.824 196.631 236.758 196.745 237.669 196.969C238.509 197.171 239.314 197.504 240.052 197.955L238.989 200.621C237.742 199.874 236.321 199.47 234.869 199.448C234.124 199.396 233.38 199.559 232.725 199.919C232.512 200.046 232.336 200.227 232.215 200.444C232.094 200.66 232.031 200.905 232.034 201.154C232.032 201.403 232.108 201.646 232.251 201.85C232.394 202.054 232.597 202.208 232.831 202.291C233.616 202.62 234.432 202.867 235.268 203.028C236.212 203.247 237.144 203.517 238.059 203.837C238.771 204.109 239.409 204.547 239.919 205.116C240.461 205.784 240.736 206.629 240.69 207.488C240.694 208.321 240.447 209.136 239.981 209.825C239.444 210.576 238.703 211.156 237.846 211.495C236.741 211.934 235.56 212.146 234.373 212.117C233.22 212.105 232.074 211.928 230.971 211.593V211.593Z" fill="black"/>
<path d="M254.829 209.045V211.817H243.311V196.881H254.554V199.653H246.731V202.896H253.641V205.562H246.731V209.018L254.829 209.045Z" fill="black"/>
<path d="M257.656 211.221C257.461 211.026 257.307 210.793 257.205 210.536C257.103 210.28 257.055 210.005 257.062 209.729C257.05 209.453 257.097 209.178 257.199 208.922C257.302 208.667 257.457 208.436 257.656 208.245C258.057 207.879 258.58 207.676 259.122 207.676C259.665 207.676 260.187 207.879 260.589 208.245C260.787 208.436 260.943 208.667 261.045 208.922C261.148 209.178 261.194 209.453 261.182 209.729C261.188 210.143 261.07 210.549 260.843 210.895C260.617 211.242 260.293 211.513 259.912 211.673C259.531 211.833 259.111 211.876 258.706 211.795C258.301 211.715 257.929 211.515 257.638 211.221H257.656Z" fill="black"/>
<path d="M211.656 164.897H218.416C219.895 164.856 221.363 165.161 222.705 165.785C223.896 166.361 224.899 167.268 225.593 168.397C226.272 169.592 226.629 170.944 226.629 172.32C226.629 173.695 226.272 175.047 225.593 176.242C224.904 177.376 223.9 178.284 222.705 178.855C221.368 179.498 219.899 179.818 218.416 179.787H211.656V164.897ZM218.248 176.989C219.547 177.05 220.819 176.601 221.792 175.736C222.645 174.818 223.12 173.61 223.12 172.355C223.12 171.101 222.645 169.892 221.792 168.975C220.816 168.116 219.545 167.671 218.248 167.731H215.103V176.989H218.248Z" fill="black"/>
<path d="M238.81 176.635H231.899L230.579 179.833H227.035L233.671 164.907H237.074L243.727 179.833H240.113L238.81 176.635ZM237.729 174.014L235.364 168.292L233.007 174.014H237.729Z" fill="black"/>
<path d="M246.66 167.562L268.81 162.231V197.459L246.66 192.084V167.562Z" fill="#E5E5E5"/>
</g>
<defs>
<clipPath id="clip0_654_4076">
<rect width="57.1543" height="51.992" fill="white" transform="translate(211.656 162.213)"/>
</clipPath>
</defs>
</svg>
