<svg width="480" height="376" viewBox="0 0 480 376" fill="none" xmlns="http://www.w3.org/2000/svg">
<rect width="479.999" height="375.459" transform="translate(0 0.00146484)" fill="#A8C5AF"/>
<g clip-path="url(#clip0_654_4121)">
<path d="M170.061 180.494H171.635V186.997H179.011V180.494H180.586V194.967H179.011V188.398H171.641V194.967H170.061V180.494Z" fill="white"/>
<path d="M188.082 184.758C190.04 184.758 191.443 185.762 191.895 186.844H191.933C191.914 186.553 191.895 186.282 191.895 185.782V185.067H193.336V194.966H191.895V194.058C191.895 193.614 191.914 193.289 191.933 192.979H191.895C191.415 194.271 189.955 195.256 188.054 195.276C184.925 195.276 182.928 193.018 182.928 190.007C182.928 186.997 185.042 184.758 188.082 184.758ZM191.851 190.007C191.851 187.769 190.315 186.129 188.144 186.129C186.052 186.129 184.478 187.771 184.478 190.007C184.478 192.243 186.052 193.885 188.144 193.885C190.31 193.885 191.851 192.227 191.851 190.007Z" fill="white"/>
<path d="M196.149 182.21C196.149 182.082 196.174 181.954 196.223 181.836C196.273 181.717 196.345 181.61 196.437 181.52C196.528 181.43 196.637 181.36 196.756 181.313C196.875 181.266 197.002 181.243 197.13 181.247C197.325 181.247 197.515 181.305 197.677 181.414C197.838 181.524 197.964 181.679 198.038 181.86C198.111 182.041 198.129 182.241 198.09 182.432C198.05 182.624 197.954 182.799 197.815 182.936C197.676 183.073 197.499 183.165 197.307 183.201C197.116 183.236 196.918 183.214 196.739 183.136C196.56 183.058 196.409 182.928 196.304 182.763C196.199 182.598 196.145 182.406 196.149 182.21V182.21ZM196.362 194.966V185.067H197.898V194.966H196.362Z" fill="white"/>
<path d="M201.298 186.42H200.165V185.068H201.298V182.424H202.834V185.068H205.868V186.42H202.834V193.596H205.579V194.964H201.298V186.42Z" fill="white"/>
<path d="M212.073 195.276C209.077 195.276 206.868 193.018 206.868 190.007C206.868 186.997 209.077 184.758 212.043 184.758C214.922 184.758 216.899 187.016 216.899 190.007C216.899 190.199 216.88 190.527 216.861 190.683H208.48C208.752 192.599 210.152 193.885 212.092 193.885C212.696 193.896 213.294 193.764 213.838 193.499C214.382 193.234 214.856 192.844 215.221 192.361L216.123 193.289C215.657 193.924 215.046 194.436 214.341 194.782C213.635 195.128 212.857 195.297 212.073 195.276V195.276ZM208.48 189.372H215.374C215.259 187.5 213.936 186.132 212.035 186.132C210.133 186.132 208.739 187.44 208.48 189.372Z" fill="white"/>
<path d="M223.537 185.067V186.435H220.658V194.966H219.122V185.067H223.537Z" fill="white"/>
<path d="M233.947 190.219C233.986 190.399 234.006 190.583 234.007 190.767C234.007 193.274 232.43 195.282 229.281 195.282C226.304 195.282 224.692 193.43 224.692 191.057C224.699 190.259 224.952 189.484 225.417 188.837C225.881 188.191 226.534 187.705 227.285 187.447C226.656 187.143 226.128 186.663 225.766 186.063C225.404 185.463 225.224 184.771 225.248 184.07C225.248 181.831 226.977 180.192 229.453 180.192C232.239 180.192 233.468 182.064 233.468 183.821C233.47 184.095 233.451 184.37 233.411 184.642H231.951C231.97 184.467 231.989 184.179 231.989 183.985C231.989 182.789 231.24 181.574 229.437 181.574C227.783 181.574 226.767 182.595 226.767 184.119C226.767 185.471 227.631 186.842 229.665 186.842H234.759C236.257 186.842 236.698 186.262 236.774 185.162L238.063 185.452C238.044 187.015 237.006 188.189 235.067 188.189H229.347C227.331 188.189 226.255 189.557 226.255 190.986C226.255 192.647 227.465 193.881 229.385 193.881C231.479 193.881 232.419 192.532 232.419 190.775C232.419 190.591 232.4 190.407 232.362 190.228L233.947 190.219Z" fill="white"/>
<path d="M229.295 186.799C231.153 186.66 231.992 185.683 231.992 184.024C231.993 183.84 231.973 183.656 231.932 183.477H233.455C233.642 185.778 232.185 187.954 229.423 188.187" fill="white"/>
<path d="M236.446 187.731C236.446 183.41 239.54 180.186 243.764 180.186C247.989 180.186 251.08 183.41 251.08 187.731C251.08 192.053 247.959 195.277 243.764 195.277C239.499 195.277 236.446 192.053 236.446 187.731ZM249.468 187.731C249.468 184.22 247.085 181.614 243.764 181.614C240.444 181.614 238.061 184.22 238.061 187.731C238.061 191.243 240.442 193.829 243.764 193.829C247.087 193.829 249.468 191.243 249.468 187.731Z" fill="white"/>
<path d="M253.333 180.494H254.869V193.596H257.71V194.964H253.333V180.494Z" fill="white"/>
<path d="M259.19 182.21C259.189 182.082 259.214 181.954 259.263 181.836C259.313 181.717 259.385 181.61 259.476 181.52C259.567 181.43 259.676 181.36 259.794 181.313C259.913 181.266 260.04 181.243 260.168 181.247C260.363 181.246 260.554 181.304 260.716 181.413C260.878 181.522 261.004 181.677 261.078 181.858C261.152 182.039 261.17 182.239 261.131 182.431C261.092 182.623 260.996 182.798 260.857 182.935C260.718 183.073 260.541 183.165 260.349 183.201C260.158 183.236 259.96 183.214 259.781 183.136C259.602 183.058 259.45 182.928 259.345 182.764C259.24 182.599 259.186 182.406 259.19 182.21V182.21ZM259.4 194.966V185.067H260.936V194.966H259.4Z" fill="white"/>
<path d="M266.545 194.966L262.819 185.067H264.529L267.506 193.595H267.572L270.568 185.067H272.24L268.533 194.966H266.545Z" fill="white"/>
<path d="M278.319 184.758C280.277 184.758 281.68 185.762 282.132 186.844H282.17C282.151 186.553 282.132 186.282 282.132 185.782V185.067H283.573V194.966H282.132V194.058C282.132 193.614 282.151 193.289 282.17 192.979H282.132C281.652 194.271 280.193 195.256 278.291 195.276C275.159 195.276 273.163 193.018 273.163 190.007C273.163 186.997 275.265 184.758 278.319 184.758ZM282.083 190.007C282.083 187.769 280.547 186.129 278.376 186.129C276.281 186.129 274.707 187.771 274.707 190.007C274.707 192.243 276.281 193.885 278.376 193.885C280.547 193.885 282.083 192.227 282.083 190.007V190.007Z" fill="white"/>
<path d="M291.014 185.067V186.435H288.132V194.966H286.596V185.067H291.014Z" fill="white"/>
<path d="M296.987 195.276C293.991 195.276 291.782 193.018 291.782 190.007C291.782 186.997 293.991 184.758 296.957 184.758C299.839 184.758 301.816 187.016 301.816 190.007C301.816 190.199 301.797 190.527 301.778 190.683H293.394C293.667 192.599 295.067 193.885 297.006 193.885C297.61 193.896 298.208 193.764 298.752 193.499C299.296 193.234 299.77 192.844 300.135 192.361L301.04 193.289C300.574 193.924 299.962 194.436 299.256 194.782C298.55 195.128 297.772 195.297 296.987 195.276V195.276ZM293.394 189.372H300.291C300.174 187.5 298.85 186.132 296.949 186.132C295.047 186.132 293.645 187.44 293.394 189.372Z" fill="white"/>
<path d="M306.496 189.04L307.801 189.645C309.07 190.223 309.933 190.994 309.933 192.442C309.933 194.103 308.626 195.28 306.572 195.28C304.595 195.28 303.424 194.084 303.116 192.694L304.325 192.037C304.433 192.578 304.727 193.064 305.155 193.409C305.583 193.755 306.118 193.939 306.667 193.928C307.686 193.928 308.397 193.408 308.397 192.442C308.397 191.75 307.918 191.285 306.899 190.822L305.69 190.275C304.42 189.694 303.538 188.961 303.538 187.475C303.538 185.931 304.826 184.774 306.61 184.774C308.394 184.774 309.473 185.759 309.933 187.012L308.781 187.65C308.641 187.193 308.357 186.795 307.973 186.513C307.589 186.231 307.124 186.082 306.648 186.087C305.69 186.087 305.036 186.665 305.036 187.456C305.036 188.173 305.496 188.578 306.496 189.04Z" fill="white"/>
</g>
<defs>
<clipPath id="clip0_654_4121">
<rect width="139.866" height="15.0908" fill="white" transform="translate(170.067 180.186)"/>
</clipPath>
</defs>
</svg>
