<svg width="482" height="377" viewBox="0 0 482 377" fill="none" xmlns="http://www.w3.org/2000/svg">
<rect width="481.969" height="377" fill="white"/>
<g clip-path="url(#clip0_654_4039)">
<path d="M259.881 203.846C259.877 204.046 259.796 204.236 259.656 204.375C259.515 204.515 259.327 204.591 259.132 204.589H226.766C226.57 204.589 226.381 204.509 226.242 204.367C226.103 204.224 226.025 204.031 226.025 203.829C226.025 194.643 233.845 187.219 242.953 187.219C252.061 187.219 259.881 194.601 259.881 203.787V203.846Z" fill="#F74E4E"/>
<path d="M256.541 185.49C258.381 185.49 259.873 183.961 259.873 182.075C259.873 180.188 258.381 178.659 256.541 178.659C254.701 178.659 253.209 180.188 253.209 182.075C253.209 183.961 254.701 185.49 256.541 185.49Z" fill="#F74E4E"/>
<path d="M210.327 203.821C210.327 204.024 210.248 204.22 210.108 204.364C209.967 204.508 209.776 204.589 209.578 204.589H182.222C182.023 204.589 181.833 204.508 181.692 204.364C181.552 204.22 181.473 204.024 181.473 203.821C181.478 203.669 181.523 203.522 181.603 203.395L195.273 179.002C195.345 178.9 195.439 178.816 195.548 178.757C195.657 178.697 195.777 178.664 195.9 178.659C196.023 178.66 196.143 178.692 196.251 178.751C196.359 178.811 196.451 178.897 196.519 179.002L210.197 203.395C210.281 203.52 210.326 203.668 210.327 203.821Z" fill="#FFB71B"/>
<path d="M297.844 178.659C297.708 178.66 297.576 178.707 297.469 178.793L281.176 191.169C281.066 191.254 280.931 191.298 280.794 191.294C280.671 191.297 280.551 191.259 280.451 191.186H280.403L264.248 178.835C264.144 178.756 264.019 178.713 263.89 178.709C263.701 178.72 263.524 178.807 263.397 178.951C263.271 179.095 263.205 179.284 263.214 179.478V203.829C263.209 203.924 263.223 204.02 263.255 204.11C263.287 204.199 263.335 204.282 263.398 204.353C263.461 204.423 263.537 204.48 263.621 204.521C263.705 204.561 263.797 204.585 263.89 204.589H297.844C298.033 204.58 298.21 204.495 298.339 204.353C298.467 204.211 298.535 204.022 298.528 203.829V179.427C298.535 179.233 298.467 179.044 298.339 178.9C298.211 178.756 298.033 178.67 297.844 178.659V178.659Z" fill="#4FBF5E"/>
<path d="M226.938 178.701H223.019C222.921 178.699 222.828 178.657 222.76 178.586C222.691 178.514 222.653 178.417 222.653 178.317V172.596C222.653 172.495 222.633 172.394 222.595 172.301C222.557 172.207 222.501 172.122 222.43 172.05C222.36 171.979 222.276 171.922 222.184 171.884C222.093 171.846 221.994 171.827 221.895 171.828H214.409C214.21 171.828 214.019 171.909 213.879 172.053C213.738 172.197 213.659 172.393 213.659 172.596V203.829C213.661 204.031 213.741 204.225 213.882 204.367C214.022 204.509 214.211 204.589 214.409 204.589H221.895C222.093 204.589 222.282 204.509 222.422 204.367C222.563 204.225 222.642 204.031 222.645 203.829V188.296C222.644 188.246 222.652 188.196 222.67 188.15C222.688 188.103 222.715 188.061 222.749 188.025C222.783 187.989 222.824 187.961 222.869 187.941C222.914 187.922 222.962 187.912 223.011 187.912H226.938C227.137 187.912 227.327 187.831 227.468 187.687C227.608 187.543 227.687 187.348 227.687 187.144V179.469C227.687 179.266 227.608 179.07 227.468 178.926C227.327 178.782 227.137 178.701 226.938 178.701Z" fill="#71C5FF"/>
</g>
<defs>
<clipPath id="clip0_654_4039">
<rect width="117.055" height="32.7607" fill="white" transform="translate(181.473 171.828)"/>
</clipPath>
</defs>
</svg>
