<svg width="482" height="377" viewBox="0 0 482 377" fill="none" xmlns="http://www.w3.org/2000/svg">
<rect width="481.969" height="377" transform="translate(0 0.000976562)" fill="#F6F6F6"/>
<path d="M227.965 162.463H254.003V188.501L280.042 162.463V188.501L306.08 162.463V214.539H227.965V162.463ZM227.965 162.463H201.927V214.539H175.889V188.501H306.08" stroke="#1D1D1B" stroke-width="0.405185" stroke-miterlimit="10"/>
<path d="M254.003 214.539V188.501" stroke="#1D1D1B" stroke-width="0.405185" stroke-miterlimit="10"/>
<path d="M280.041 214.539V188.501" stroke="#1D1D1B" stroke-width="0.405185" stroke-miterlimit="10"/>
<path d="M175.971 188.501V214.539" stroke="#1D1D1B" stroke-width="0.405185" stroke-miterlimit="10"/>
<path d="M182.482 188.501V214.539" stroke="#1D1D1B" stroke-width="0.405185" stroke-miterlimit="10"/>
<path d="M188.991 188.501V214.539" stroke="#1D1D1B" stroke-width="0.405185" stroke-miterlimit="10"/>
<path d="M195.5 188.501V214.539" stroke="#1D1D1B" stroke-width="0.405185" stroke-miterlimit="10"/>
<path d="M212.958 173.837L216.31 170.539H217.168V180.665H216.249V171.902L213.598 174.495L212.958 173.837Z" fill="#1D1D1B"/>
<path d="M236.464 178.429V177.576L242.424 170.535H243.223V177.504H245.278V178.429H243.223V180.668H242.298V178.429H236.464ZM237.77 177.504H242.298V172.151L237.77 177.504Z" fill="#1D1D1B"/>
<path d="M237.784 206.707V196.581H238.71V205.784H243.943V206.71L237.784 206.707Z" fill="#1D1D1B"/>
<path d="M261.698 206.707L266.418 196.581H267.383L272.103 206.707H271.079L270.222 204.855H263.586L262.733 206.707H261.698ZM264.002 203.929H269.788L266.895 197.694L264.002 203.929Z" fill="#1D1D1B"/>
<path d="M289.735 206.707V196.581H293.796C294.181 196.577 294.563 196.642 294.924 196.772C295.257 196.89 295.563 197.074 295.821 197.315C296.076 197.556 296.278 197.848 296.414 198.172C296.566 198.533 296.642 198.923 296.635 199.315C296.646 199.821 296.502 200.318 296.223 200.74C295.949 201.148 295.558 201.463 295.102 201.644C295.557 201.827 295.947 202.142 296.223 202.548C296.501 202.971 296.645 203.469 296.635 203.976C296.642 204.367 296.567 204.755 296.414 205.115C296.277 205.441 296.075 205.735 295.821 205.98C295.563 206.221 295.258 206.406 294.924 206.522C294.562 206.651 294.18 206.715 293.796 206.71L289.735 206.707ZM290.657 201.181H293.912C294.151 201.188 294.389 201.146 294.611 201.056C294.832 200.967 295.033 200.832 295.199 200.66C295.369 200.48 295.501 200.268 295.588 200.036C295.675 199.805 295.715 199.558 295.706 199.311C295.717 199.068 295.677 198.824 295.588 198.597C295.499 198.371 295.363 198.165 295.188 197.995C294.807 197.652 294.305 197.475 293.792 197.503H290.653L290.657 201.181ZM290.657 205.781H293.796C294.308 205.808 294.81 205.631 295.192 205.289C295.366 205.118 295.502 204.913 295.591 204.686C295.68 204.459 295.72 204.216 295.709 203.973C295.719 203.726 295.679 203.479 295.591 203.248C295.504 203.017 295.37 202.806 295.199 202.627C295.033 202.456 294.833 202.321 294.612 202.231C294.391 202.142 294.154 202.099 293.915 202.107H290.661L290.657 205.781Z" fill="#1D1D1B"/>
</svg>
