<svg width="140" height="140" viewBox="0 0 140 140" fill="none" xmlns="http://www.w3.org/2000/svg">
<rect width="140" height="140" fill="#1D6FF5"/>
<circle cx="59.7142" cy="81.0754" r="0.217455" transform="rotate(90 59.7142 81.0754)" fill="black"/>
<rect x="60.8017" y="71.6538" width="10.6172" height="10.6172" transform="rotate(-180 60.8017 71.6538)" fill="#71C5FF"/>
<rect x="60.8017" y="82.272" width="10.6172" height="10.6172" transform="rotate(-180 60.8017 82.272)" fill="white"/>
<circle cx="59.7142" cy="81.0754" r="0.217455" transform="rotate(90 59.7142 81.0754)" fill="black"/>
<rect x="75.3343" y="72.3784" width="10.3585" height="10.3585" transform="rotate(90 75.3343 72.3784)" fill="#1D6FF5" stroke="white" stroke-width="0.258742"/>
<rect x="86.0806" y="72.249" width="10.6172" height="10.6172" transform="rotate(90 86.0806 72.249)" fill="white"/>
<circle cx="84.7051" cy="73.5534" r="0.217455" transform="rotate(90 84.7051 73.5534)" fill="black"/>
<rect x="75.4637" y="57.855" width="10.6172" height="10.6172" transform="rotate(-180 75.4637 57.855)" fill="#102DA3"/>
<rect x="75.4637" y="68.4727" width="10.6172" height="10.6172" transform="rotate(-180 75.4637 68.4727)" fill="white"/>
<circle cx="73.8329" cy="66.842" r="0.217455" transform="rotate(90 73.8329 66.842)" fill="black"/>
<circle cx="99.388" cy="92.2878" r="0.217455" transform="rotate(90 99.388 92.2878)" fill="black"/>
<rect x="100.475" y="82.8662" width="10.6172" height="10.6172" transform="rotate(-180 100.475 82.8662)" fill="#F2F6FD"/>
<rect x="100.475" y="93.4844" width="10.6172" height="10.6172" transform="rotate(-180 100.475 93.4844)" fill="white"/>
<circle cx="99.388" cy="92.2878" r="0.217455" transform="rotate(90 99.388 92.2878)" fill="black"/>
<rect x="89.8582" y="36.2935" width="10.6172" height="10.6172" fill="#FF8D6B"/>
<circle cx="99.3887" cy="26.9802" r="0.217455" transform="rotate(90 99.3887 26.9802)" fill="black"/>
<circle cx="98.0829" cy="26.9802" r="0.217455" transform="rotate(90 98.0829 26.9802)" fill="black"/>
<rect x="89.8582" y="25.6758" width="10.6172" height="10.6172" fill="white"/>
<circle cx="99.1703" cy="26.7629" r="0.217455" transform="rotate(90 99.1703 26.7629)" fill="black"/>
<circle cx="97.8656" cy="26.7629" r="0.217455" transform="rotate(90 97.8656 26.7629)" fill="black"/>
<rect x="50.4516" y="111.117" width="10.6172" height="10.6172" transform="rotate(-90 50.4516 111.117)" fill="#F74E4E"/>
<rect x="39.8347" y="111.117" width="10.6172" height="10.6172" transform="rotate(-90 39.8347 111.117)" fill="white"/>
<circle cx="41.0627" cy="101.658" r="0.217455" transform="rotate(90 41.0627 101.658)" fill="black"/>
<rect x="105.383" y="111.329" width="10.6172" height="10.6172" fill="#3206AE"/>
<rect x="105.383" y="100.711" width="10.6172" height="10.6172" fill="white"/>
<circle cx="114.261" cy="102.667" r="0.217455" transform="rotate(90 114.261 102.667)" fill="black"/>
<circle cx="112.957" cy="102.667" r="0.217455" transform="rotate(90 112.957 102.667)" fill="black"/>
<rect x="34.6599" y="36.2939" width="10.6172" height="10.6172" fill="#FFA230"/>
<rect x="34.6599" y="25.6758" width="10.6172" height="10.6172" fill="white"/>
<circle cx="43.7545" cy="26.9802" r="0.217455" transform="rotate(90 43.7545 26.9802)" fill="black"/>
<circle cx="42.4502" cy="26.9802" r="0.217455" transform="rotate(90 42.4502 26.9802)" fill="black"/>
<rect x="100.476" y="63.0293" width="10.6172" height="10.6172" transform="rotate(-90 100.476 63.0293)" fill="#FFB71B"/>
<rect x="89.8582" y="63.0293" width="10.6172" height="10.6172" transform="rotate(-90 89.8582 63.0293)" fill="white"/>
<circle cx="90.9975" cy="53.5705" r="0.217455" transform="rotate(90 90.9975 53.5705)" fill="black"/>
<rect x="90.1254" y="111.328" width="10.6172" height="10.6172" transform="rotate(-90 90.1254 111.328)" fill="#4FBF5E"/>
<rect x="79.5085" y="111.328" width="10.6172" height="10.6172" transform="rotate(-90 79.5085 111.328)" fill="white"/>
<circle cx="80.7365" cy="102.336" r="0.217455" transform="rotate(90 80.7365 102.336)" fill="black"/>
<rect x="24.3103" y="82.8667" width="10.6172" height="10.6172" fill="#006853"/>
<rect x="24.3103" y="72.249" width="10.6172" height="10.6172" fill="white"/>
<circle cx="33.405" cy="73.7707" r="0.217455" transform="rotate(90 33.405 73.7707)" fill="black"/>
<circle cx="32.1008" cy="73.7707" r="0.217455" transform="rotate(90 32.1008 73.7707)" fill="black"/>
<rect x="105.383" y="82.8672" width="10.6172" height="10.6172" fill="#7F5EDD"/>
<rect x="105.383" y="72.249" width="10.6172" height="10.6172" fill="white"/>
<circle cx="114.446" cy="73.6955" r="0.217455" transform="rotate(90 114.446 73.6955)" fill="black"/>
</svg>
