<svg width="140" height="140" viewBox="0 0 140 140" fill="none" xmlns="http://www.w3.org/2000/svg">
<rect width="140" height="140" fill="white"/>
<path d="M29.7691 57.8794H28.9636L27.6484 59.1452L28.9636 60.4274L27.6484 61.7097L28.9636 62.9919L27.6484 64.2577L28.9636 65.54L27.6484 66.8222L28.9636 68.1045L27.6484 69.3867L28.9636 70.6525L27.6484 71.9348L28.9636 73.217L27.6484 74.4993L28.9636 75.7651L27.6484 77.0473L28.9636 78.3296L27.6484 79.6118L28.9636 80.8941L27.6484 82.1599L28.9636 83.4421L27.6484 84.7244L28.9636 86.0066L27.6484 87.2889L28.9636 88.5547L27.6484 89.8369L28.9636 91.1192H29.7691" fill="#71C5FF"/>
<path d="M70.1434 57.8794H28.9471V91.1192H70.1434V57.8794Z" fill="#71C5FF"/>
<path d="M99.6022 57.8794H69.4201V81.2557H99.6022V57.8794Z" fill="#F74E4E"/>
<path d="M104.55 73.6943H82.6042V91.169H104.55V73.6943Z" fill="#FFB71B"/>
<path d="M112.786 48H80.8945V81.2562H112.786V48Z" fill="#4FBF5E"/>
<path d="M77.8439 74.2302C78.4461 70.5199 75.9265 67.0241 72.2162 66.4219C68.506 65.8198 65.0101 68.3394 64.408 72.0496C63.8058 75.7598 66.3254 79.2557 70.0357 79.8579C73.7459 80.46 77.2418 77.9404 77.8439 74.2302Z" fill="#FF8D6B"/>
<path d="M78.4944 71.9679H74.5326L74.4669 70.0281L63.765 71.9679C63.8308 67.9074 67.1679 64.6525 71.2284 64.7183C75.223 64.7676 78.4287 67.9896 78.4944 71.9679Z" fill="#3D3D3D"/>
<path d="M95.6567 79.481H91.4648V80.5495H95.6567V79.481Z" fill="#102DA3"/>
<path d="M97.6952 77.9028H91.4648V78.9714H97.6952V77.9028Z" fill="#102DA3"/>
<path d="M53.6715 73.1353H89.5744C89.7552 73.1353 89.9031 73.2832 89.9031 73.464V90.8894C89.9031 91.0703 89.7552 91.2182 89.5744 91.2182H53.6715C53.4906 91.2182 53.3427 91.0703 53.3427 90.8894V73.464C53.3427 73.2832 53.4906 73.1353 53.6715 73.1353Z" fill="white"/>
<path d="M87.1578 70.9492H92.632C92.7307 70.9492 92.7964 71.015 92.7964 71.1136V75.733C92.7964 75.8316 92.7307 75.8974 92.632 75.8974H87.1578C87.0592 75.8974 86.9934 75.8316 86.9934 75.733V71.1136C86.9934 71.015 87.0756 70.9492 87.1578 70.9492Z" fill="#1D6FF5"/>
<path d="M89.6401 74.1053C89.673 74.1053 89.7223 74.1382 89.7223 74.1711C89.7223 74.204 89.7388 74.2204 89.7552 74.2533H89.9032V74.1053H89.6401ZM90.6922 74.1053C90.5772 74.0396 90.5114 73.9081 90.5278 73.7601V73.2505C90.5278 72.8888 90.2484 72.5929 89.8867 72.5601H89.8374C89.5086 72.5601 89.2127 72.7902 89.1634 73.119C89.147 73.1683 89.147 73.2012 89.147 73.2505V73.7601C89.1634 73.8916 89.0976 74.0231 88.9826 74.1053C88.9497 74.1218 88.9332 74.1546 88.9497 74.1875C88.9497 74.2204 88.9826 74.2533 89.0319 74.2533H90.6758C90.7251 74.2533 90.758 74.2204 90.758 74.1711C90.7415 74.1546 90.7251 74.1382 90.6922 74.1053ZM89.2127 74.1053C89.2785 74.0067 89.2949 73.8916 89.2949 73.7765V73.2669C89.2949 73.2176 89.2949 73.1847 89.3113 73.1354C89.3607 72.8888 89.5908 72.7244 89.8374 72.7244C89.8538 72.7244 89.8867 72.7244 89.9032 72.7244C90.1662 72.7573 90.3799 72.9875 90.3799 73.2505V73.7601C90.3799 73.8752 90.4128 73.9903 90.4621 74.0889L89.2127 74.1053Z" fill="white"/>
<path d="M89.8538 74.4671C89.7059 74.4671 89.5743 74.3356 89.5743 74.1877C89.5743 74.1383 89.6237 74.1219 89.6565 74.1219C89.6894 74.1219 89.7223 74.1548 89.7223 74.1877C89.7223 74.2534 89.7716 74.3192 89.8538 74.3192C89.9196 74.3192 89.9853 74.2699 89.9853 74.1877C89.9853 74.1383 90.0182 74.1055 90.0675 74.1055C90.1004 74.1055 90.1497 74.1383 90.1497 74.1712C90.1333 74.3356 90.0018 74.4671 89.8538 74.4671Z" fill="white"/>
<path d="M90.7415 73.4146C91.2045 73.4146 91.5799 73.0392 91.5799 72.5762C91.5799 72.1132 91.2045 71.7378 90.7415 71.7378C90.2785 71.7378 89.9031 72.1132 89.9031 72.5762C89.9031 73.0392 90.2785 73.4146 90.7415 73.4146Z" fill="#F74E4E"/>
<path d="M55.9072 88.9829H44.63V91.1693H55.9072V88.9829Z" fill="#1D6FF5"/>
<path d="M46.093 88.9829H45.7971V91.1693H46.093V88.9829Z" fill="#102DA3"/>
<path d="M46.5862 88.9829H46.2903V91.1693H46.5862V88.9829Z" fill="#102DA3"/>
<path d="M55.266 86.8125H43.9888V88.9989H55.266V86.8125Z" fill="#FFB71B"/>
<path d="M55.9072 82.4561H44.63V84.6424H55.9072V82.4561Z" fill="#F74E4E"/>
<path d="M45.7971 88.3081C46.0695 88.3081 46.2903 88.0873 46.2903 87.8149C46.2903 87.5426 46.0695 87.3218 45.7971 87.3218C45.5248 87.3218 45.304 87.5426 45.304 87.8149C45.304 88.0873 45.5248 88.3081 45.7971 88.3081Z" fill="#FF8C00"/>
<path d="M55.266 84.6265H43.9888V86.8129H55.266V84.6265Z" fill="white"/>
<path d="M43.9888 84.6265H55.266" stroke="#717171" stroke-width="0.161856" stroke-miterlimit="10"/>
<path d="M43.9888 85.7114H55.266" stroke="#717171" stroke-width="0.161856" stroke-miterlimit="10"/>
<path d="M43.9888 86.8125H55.266" stroke="#717171" stroke-width="0.161856" stroke-miterlimit="10"/>
<path d="M45.9287 83.623H54.4605" stroke="#FF8D6B" stroke-width="0.323711" stroke-miterlimit="10"/>
<path d="M28.9471 91.1689H113" stroke="#1D6FF5" stroke-width="0.323711" stroke-miterlimit="10"/>
<path d="M91.2347 85.563V87.9467H91.1032C91.0867 87.9467 91.0867 87.9467 91.0703 87.9467C90.9717 87.9467 90.8895 87.9302 90.8073 87.9138H90.7744L90.6593 87.8809V85.5794L91.2347 85.563Z" fill="#4FBF5E"/>
<path d="M91.2347 86.1221H90.6593V86.2043H91.2347V86.1221Z" fill="#557D6B"/>
<path d="M91.2347 85.9907H90.6593V86.0729H91.2347V85.9907Z" fill="#557D6B"/>
<path d="M91.1854 85.5632H90.7086L90.9059 84.7412H90.9881L91.1854 85.5632Z" fill="#4FBF5E"/>
<path d="M91.021 86.6152C91.0045 86.5495 90.9716 86.5166 90.9388 86.5166C90.9059 86.5166 90.873 86.5495 90.8566 86.6152C90.7908 86.9276 90.7579 87.2564 90.7579 87.5851C90.7579 87.6838 90.7579 87.7824 90.7579 87.8975H90.7908C90.7908 87.7988 90.7908 87.6838 90.7908 87.5687C90.7744 87.2399 90.8073 86.9111 90.8894 86.5988C90.9059 86.5495 90.9223 86.533 90.9388 86.533C90.9552 86.533 90.9716 86.5495 90.9881 86.5988C91.0703 86.9111 91.1032 87.2399 91.0867 87.5687C91.0867 87.7002 91.0867 87.8153 91.0703 87.9304C91.0867 87.9304 91.0867 87.9304 91.1032 87.9304C91.1032 87.7988 91.1196 87.6838 91.1196 87.5687C91.1196 87.2399 91.0867 86.9276 91.021 86.6152Z" fill="#557D6B"/>
<path d="M89.9524 84.7412V87.6016C90.0182 87.6345 90.0839 87.6674 90.1497 87.7002C90.1661 87.7002 90.1661 87.7167 90.1826 87.7167L90.2648 87.7496C90.2812 87.7496 90.2812 87.7496 90.2976 87.766C90.3634 87.7989 90.4456 87.8153 90.5278 87.8318V84.7412H89.9524V84.7412Z" fill="#FFB71B"/>
<path d="M90.5278 85.3003H89.9524V85.3825H90.5278V85.3003Z" fill="#FF8C00"/>
<path d="M90.5278 85.1523H89.9524V85.2345H90.5278V85.1523Z" fill="#FF8C00"/>
<path d="M90.4785 84.7414H90.0018L90.199 83.9194H90.2812L90.4785 84.7414Z" fill="#FFB71B"/>
<path d="M90.4127 86.6152C90.4127 86.2371 90.3634 85.7769 90.2648 85.6947C90.2648 85.6947 90.2484 85.6782 90.2319 85.6782C90.2155 85.6782 90.1826 85.6947 90.1662 85.7275C90.084 85.8755 90.0511 86.27 90.0511 86.5988C90.0511 86.6481 90.0511 86.6974 90.0511 86.7468C90.0511 87.0591 90.0675 87.3879 90.1333 87.7002C90.1497 87.7002 90.1497 87.7167 90.1662 87.7167C90.084 87.4043 90.0511 87.0755 90.0675 86.7468C90.0675 86.6974 90.0675 86.6481 90.0675 86.5988C90.084 86.0399 90.1497 85.7111 90.2155 85.7111C90.2812 85.7111 90.347 86.0399 90.3634 86.5988C90.3634 86.6481 90.3634 86.6974 90.3634 86.7468C90.3799 87.0755 90.347 87.4208 90.2484 87.7495C90.2648 87.7495 90.2648 87.7495 90.2812 87.766C90.3634 87.6016 90.3963 87.1084 90.3963 86.7632C90.4127 86.7139 90.4127 86.6646 90.4127 86.6152Z" fill="#FF8C00"/>
<path d="M91.9416 84.8403V87.9309C91.7772 87.9473 91.6128 87.9638 91.4484 87.9638H91.3662V84.8403H91.9416Z" fill="#F74E4E"/>
<path d="M91.958 85.3984H91.3826V85.4806H91.958V85.3984Z" fill="#C32410"/>
<path d="M91.958 85.251H91.3826V85.3332H91.958V85.251Z" fill="#C32410"/>
<path d="M91.8922 84.84H91.4319L91.6292 84.0181H91.7114L91.8922 84.84Z" fill="#F74E4E"/>
<path d="M91.8265 86.6152C91.8101 86.2207 91.7607 85.7769 91.6621 85.7769C91.5635 85.7769 91.4977 86.2207 91.4977 86.6152C91.4977 86.6974 91.4977 86.7796 91.4977 86.8454C91.4977 87.2728 91.547 87.9139 91.6785 87.9139C91.8101 87.9139 91.8594 87.2728 91.8594 86.8454C91.8429 86.7796 91.8429 86.6974 91.8265 86.6152ZM91.6621 87.8811C91.5963 87.8811 91.5142 87.4865 91.5142 86.8454C91.5142 86.7632 91.5142 86.681 91.5142 86.6152C91.5306 86.1056 91.5963 85.8097 91.6621 85.8097C91.7279 85.8097 91.7936 86.1056 91.8101 86.6152C91.8101 86.6974 91.8101 86.7632 91.8101 86.8454C91.8101 87.4865 91.7279 87.8811 91.6621 87.8811Z" fill="#C32410"/>
<path d="M92.7964 84.5439V87.6838C92.6156 87.766 92.4183 87.8318 92.221 87.8811V84.5439H92.7964V84.5439Z" fill="#102DA3"/>
<path d="M92.8128 85.103H92.2375V85.1852H92.8128V85.103Z" fill="#041F63"/>
<path d="M92.8128 84.9551H92.2375V85.0373H92.8128V84.9551Z" fill="#041F63"/>
<path d="M92.7471 84.5441H92.2868L92.4676 83.7222H92.5498L92.7471 84.5441Z" fill="#102DA3"/>
<path d="M92.6156 85.6947C92.5827 85.5632 92.5498 85.481 92.5169 85.481C92.484 85.481 92.4512 85.5303 92.4183 85.6289C92.3525 85.9412 92.3361 86.2372 92.3361 86.5495V86.6153C92.3361 87.0427 92.3854 87.618 92.5169 87.618C92.6484 87.618 92.6813 87.0262 92.6978 86.6153V86.5495C92.6978 86.27 92.6649 85.9741 92.6156 85.6947ZM92.5169 87.5852C92.4512 87.5852 92.369 87.2071 92.369 86.6153C92.369 86.5988 92.369 86.5824 92.369 86.5495C92.369 86.2372 92.3854 85.9412 92.4512 85.6289C92.4676 85.5467 92.5005 85.4974 92.5169 85.4974C92.5334 85.4974 92.5662 85.5632 92.5991 85.6618C92.6484 85.9413 92.6813 86.2372 92.6649 86.5331C92.6649 86.5495 92.6649 86.5659 92.6649 86.5988C92.6484 87.2235 92.5662 87.5852 92.5169 87.5852Z" fill="#041F63"/>
<path d="M93.7334 86.6152H89.0318V91.1195H93.7334V86.6152Z" fill="#71C5FF"/>
<path d="M77.2615 65.8362C78.2511 65.8362 79.0534 65.0339 79.0534 64.0443C79.0534 63.0547 78.2511 62.2524 77.2615 62.2524C76.2719 62.2524 75.4697 63.0547 75.4697 64.0443C75.4697 65.0339 76.2719 65.8362 77.2615 65.8362Z" fill="#3D3D3D"/>
<path d="M32.9911 63.0088V66.3295H46.1095V63.0088H32.9911ZM43.3149 63.6006V64.3239C43.2984 64.5047 43.4464 64.6691 43.6272 64.6856C43.808 64.702 43.9724 64.5541 43.9889 64.3732C43.9889 64.3568 43.9889 64.3404 43.9889 64.3239V63.6006C44.4163 63.7814 44.6136 64.291 44.4163 64.702C44.2355 65.1294 43.7259 65.3267 43.3149 65.1294C42.8875 64.9486 42.6902 64.439 42.8875 64.028C42.9697 63.8307 43.1176 63.6828 43.3149 63.6006ZM35.0132 63.6006V64.3239C34.9967 64.5047 35.1447 64.6691 35.3255 64.6856C35.5063 64.702 35.6707 64.5541 35.6872 64.3732C35.6872 64.3568 35.6872 64.3404 35.6872 64.3239V63.6006C36.1146 63.7814 36.3118 64.291 36.1146 64.7184C35.9337 65.1459 35.4241 65.3431 34.9967 65.1459C34.5693 64.965 34.372 64.4554 34.5693 64.028C34.6679 63.8307 34.8159 63.6828 35.0132 63.6006Z" fill="#F74E4E"/>
<path d="M46.1095 66.1982V73.2835L44.6793 74.7137H32.9911V66.1982H46.1095Z" fill="white"/>
<path d="M37.8735 68.4995L37.2982 69.7653H37.8406L38.2187 68.8776H38.2845V71.3106H38.7941V68.4995H37.8735V68.4995Z" fill="#585858"/>
<path d="M41.26 69.9134C41.1778 69.7819 41.0627 69.6833 40.9312 69.6011C40.7833 69.5353 40.6353 69.5025 40.4709 69.5025C40.323 69.5025 40.1914 69.5189 40.0599 69.5682C39.9777 69.6011 39.912 69.6504 39.8462 69.7162H39.7805V69.4203C39.7805 69.2723 39.8298 69.1408 39.9284 69.0257C40.0435 68.9271 40.1914 68.8778 40.3394 68.8778C40.4874 68.8613 40.6189 68.9107 40.7339 69.0093C40.8161 69.0915 40.849 69.1901 40.849 69.3052H41.3751C41.3751 69.1408 41.3422 68.9764 41.2435 68.8285C41.1614 68.6969 41.0298 68.5819 40.8819 68.5326C40.7175 68.4504 40.5202 68.4175 40.3394 68.4175C40.1421 68.4175 39.9613 68.4504 39.7805 68.5326C39.6161 68.5983 39.4846 68.7134 39.4024 68.8778C39.3037 69.0586 39.2544 69.2559 39.2709 69.4531V70.4066C39.2709 70.5874 39.3037 70.7518 39.4024 70.8998C39.4846 71.0477 39.6161 71.1628 39.764 71.2286C39.9449 71.3108 40.1257 71.3601 40.323 71.3436C40.5202 71.3436 40.7175 71.3108 40.8819 71.2286C41.1942 71.0806 41.3915 70.7518 41.3915 70.4066V70.3573C41.3915 70.2093 41.3586 70.0449 41.26 69.9134ZM40.8819 70.423C40.8819 70.5546 40.8326 70.6861 40.7339 70.7847C40.5038 70.9655 40.175 70.9655 39.9284 70.7847C39.8298 70.6861 39.7805 70.571 39.7805 70.423V70.3902C39.7805 70.308 39.7969 70.2093 39.8462 70.1271C39.8955 70.0614 39.9613 69.9956 40.0435 69.9628C40.1421 69.9134 40.2408 69.897 40.3394 69.897C40.438 69.897 40.5367 69.9134 40.6353 69.9628C40.7175 69.9956 40.7833 70.0614 40.8326 70.1271C40.8819 70.2093 40.8983 70.2915 40.8983 70.3902V70.423H40.8819Z" fill="#585858"/>
<path d="M35.6871 63.6008V64.3241C35.7036 64.505 35.5556 64.6694 35.3748 64.6858C35.194 64.7022 35.0296 64.5543 35.0131 64.3735C35.0131 64.357 35.0131 64.3406 35.0131 64.3241V63.6008C35.2268 63.5022 35.4734 63.5022 35.6871 63.6008Z" fill="#4FBF5E"/>
<path d="M35.6871 62.1871V64.3242C35.7036 64.505 35.5556 64.6694 35.3748 64.6859C35.194 64.7023 35.0296 64.5544 35.0131 64.3735C35.0131 64.3571 35.0131 64.3406 35.0131 64.3242V62.1871C35.0296 62.0063 35.194 61.8583 35.3748 61.8748C35.5556 61.8748 35.6871 62.0227 35.6871 62.1871Z" fill="#F1F1F1"/>
<path d="M43.9889 62.1872V64.3243C43.9889 64.5051 43.8409 64.6695 43.6601 64.6695C43.4793 64.6695 43.3149 64.5215 43.3149 64.3407V62.2036C43.3149 62.0228 43.4464 61.8748 43.6272 61.8584C43.6272 61.8584 43.6272 61.8584 43.6436 61.8584C43.8245 61.8584 43.9724 61.9899 43.9889 62.1707V62.1872Z" fill="#F1F1F1"/>
<path d="M46.1095 73.2837L44.6793 74.7139V73.2837H46.1095Z" fill="#E7E7E7"/>
<path d="M45.8793 77.4755C47.2866 77.4755 48.4274 76.3347 48.4274 74.9274C48.4274 73.5202 47.2866 72.3794 45.8793 72.3794C44.4721 72.3794 43.3313 73.5202 43.3313 74.9274C43.3313 76.3347 44.4721 77.4755 45.8793 77.4755Z" fill="#4FBF5E"/>
<path d="M44.7451 75.2888L45.4519 75.9956L47.0136 74.4175" stroke="white" stroke-width="0.647423" stroke-linecap="round"/>
<path d="M112.786 66.395H80.8945" stroke="white" stroke-width="1.29485" stroke-miterlimit="10"/>
<path d="M99.5858 81.2562V48" stroke="white" stroke-width="1.29485" stroke-miterlimit="10"/>
<path d="M41.26 50.7129H73.4477C73.6285 50.7129 73.7764 50.8608 73.7764 51.0417V58.3899C73.7764 58.5708 73.6285 58.7187 73.4477 58.7187H41.26C41.0792 58.7187 40.9312 58.5708 40.9312 58.3899V51.0417C40.9312 50.8608 41.0792 50.7129 41.26 50.7129Z" fill="#102DA3"/>
<path d="M69.5844 58.7183V61.8746L66.4281 58.7183H69.5844Z" fill="#102DA3"/>
<path d="M71.6722 54.6416H43.5614V54.806H71.6722V54.6416Z" fill="white"/>
<path d="M73.497 83.2453C73.497 83.2618 73.497 83.2782 73.4805 83.2782C73.4641 83.2947 73.4641 83.2947 73.4477 83.2947H71.1955C71.1626 83.2947 71.1462 83.2782 71.1462 83.2453C71.1791 82.6042 71.738 82.0946 72.3791 82.1275C72.9874 82.1604 73.4641 82.6371 73.497 83.2453Z" fill="#F74E4E"/>
<path d="M73.2668 81.9959C73.3983 81.9959 73.497 81.8973 73.497 81.7658C73.497 81.6343 73.3983 81.5356 73.2668 81.5356C73.1353 81.5356 73.0367 81.6343 73.0367 81.7658C73.0367 81.8973 73.1353 81.9959 73.2668 81.9959Z" fill="#F74E4E"/>
<path d="M70.0612 83.2455C70.0612 83.2783 70.0448 83.2948 70.0119 83.2948H68.1214C68.0885 83.2948 68.0721 83.2783 68.0721 83.2455C68.0721 83.229 68.0721 83.229 68.0885 83.2126L69.042 81.5687L69.0584 81.5522H69.0749H69.0913L69.1077 81.5687L70.0612 83.2126C70.0612 83.2126 70.0612 83.229 70.0612 83.2455Z" fill="#FFB71B"/>
<path d="M76.1272 81.5356C76.1108 81.5356 76.1108 81.5356 76.0943 81.5521L74.96 82.3905C74.9436 82.3905 74.9436 82.3905 74.9272 82.4069H74.9107L73.7929 81.5685C73.7929 81.5685 73.7764 81.5685 73.7764 81.5521C73.76 81.5521 73.7436 81.5521 73.7436 81.5685C73.7271 81.585 73.7271 81.585 73.7271 81.6014V83.2453V83.2617C73.7271 83.2617 73.7271 83.2782 73.7436 83.2782L73.76 83.2946H73.7764H76.1272C76.1437 83.2946 76.1601 83.2946 76.1601 83.2782C76.1765 83.2617 76.1765 83.2617 76.1765 83.2453V81.6014C76.1765 81.585 76.1765 81.5685 76.1601 81.5685C76.1601 81.5356 76.1437 81.5356 76.1272 81.5356Z" fill="#4FBF5E"/>
<path d="M71.2119 81.5358H70.9324C70.9324 81.5358 70.916 81.5358 70.916 81.5194V81.5029V81.1084V81.092C70.916 81.092 70.916 81.0755 70.8996 81.0755L70.8831 81.0591H70.8667H70.3406C70.3242 81.0591 70.3078 81.0591 70.3078 81.0755C70.2913 81.092 70.2913 81.092 70.2913 81.1084V83.229C70.2913 83.2455 70.2913 83.2619 70.3078 83.2619C70.3242 83.2784 70.3242 83.2784 70.3406 83.2784H70.8667C70.8831 83.2784 70.8996 83.2784 70.8996 83.2619C70.916 83.2455 70.916 83.2455 70.916 83.229V82.1934C70.916 82.1934 70.916 82.1934 70.916 82.1769H71.1955C71.2119 82.1769 71.2283 82.1769 71.2283 82.1605C71.2448 82.1441 71.2448 82.1441 71.2448 82.1276V81.6016C71.2612 81.5851 71.2448 81.5523 71.2283 81.5358C71.2283 81.5358 71.2283 81.5358 71.2119 81.5358Z" fill="#71C5FF"/>
</svg>
