<svg width="140" height="140" viewBox="0 0 140 140" fill="none" xmlns="http://www.w3.org/2000/svg">
<rect width="140" height="140" fill="#FFB71B"/>
<path d="M114.434 99.0926H90.604C90.306 99.0926 90.0622 98.8488 90.0622 98.5507V74.7206C90.0622 74.4225 90.306 74.1787 90.604 74.1787H114.434C114.732 74.1787 114.976 74.4225 114.976 74.7206V98.5507C114.976 98.8515 114.732 99.0926 114.434 99.0926Z" fill="white"/>
<path d="M110.1 86.6821L108.084 87.9391L107.683 87.2944L106.778 88.1234C106.783 88.164 106.786 88.2074 106.781 88.2507C106.756 88.6273 106.429 88.9117 106.052 88.8847C106.084 89.0093 106.082 89.142 106.044 89.2667C105.933 89.6405 105.543 89.8546 105.169 89.7408C105.19 89.9006 105.155 90.0632 105.071 90.1986C104.868 90.5319 104.435 90.6375 104.101 90.4343C104.104 90.5779 104.061 90.7161 103.977 90.8326C103.765 91.1252 103.356 91.1929 103.061 90.9816L102.411 90.5129V90.5156L101.92 90.9193C101.793 91.0222 101.639 91.0791 101.479 91.0818C101.089 91.0845 100.769 90.773 100.766 90.3828C100.634 90.4804 100.468 90.5319 100.303 90.521C99.9129 90.4993 99.6176 90.1661 99.6393 89.776C99.5119 89.8247 99.3765 89.8329 99.241 89.8058C98.859 89.7245 98.6179 89.3479 98.6965 88.9686C98.5177 88.9903 98.3361 88.947 98.1926 88.8386C97.8783 88.6056 97.8106 88.1667 98.0408 87.8524L97.6805 87.5897L97.3256 88.1776L95.2964 86.9449L98.03 82.4395L100.059 83.6721L99.6908 84.2763C100.189 84.2844 100.685 84.2655 101.181 84.2221C101.704 84.065 102.259 84.0487 102.79 84.1706C103.077 84.0162 103.413 83.9918 103.722 84.1029L104.917 84.531L105.757 84.2221L105.469 83.7615L107.485 82.5018L110.1 86.6821Z" fill="#636363"/>
<path d="M109.742 86.4164L107.726 87.6735L107.325 87.0287L106.42 87.8577C106.426 87.8984 106.429 87.9417 106.423 87.9851C106.399 88.3617 106.071 88.6461 105.694 88.619C105.727 88.7437 105.724 88.8764 105.686 89.001C105.575 89.3749 105.185 89.5889 104.811 89.4751C104.833 89.635 104.798 89.7975 104.714 89.933C104.51 90.2662 104.077 90.3719 103.744 90.1687C103.746 90.3123 103.703 90.4505 103.619 90.567C103.408 90.8596 102.999 90.9273 102.703 90.716L102.053 90.2473V90.25L101.563 90.6536C101.435 90.7566 101.281 90.8135 101.121 90.8162C100.731 90.8189 100.411 90.5074 100.409 90.1172C100.276 90.2148 100.111 90.2662 99.9454 90.2554C99.5553 90.2337 99.26 89.9005 99.2816 89.5104C99.1543 89.5591 99.0188 89.5673 98.8834 89.5402C98.5014 89.4589 98.2603 89.0823 98.3388 88.703C98.16 88.7247 97.9785 88.6813 97.8349 88.573C97.5207 88.34 97.4529 87.9011 97.6832 87.5868L97.3229 87.324L96.968 87.9119L94.9388 86.6792L97.6724 82.1738L99.7016 83.4065L99.3331 84.0107C99.8316 84.0188 100.327 83.9998 100.823 83.9565C101.346 83.7994 101.901 83.7831 102.432 83.905C102.72 83.7506 103.056 83.7262 103.364 83.8373L104.559 84.2653L105.399 83.9565L105.112 83.4959L107.128 82.2361L109.742 86.4164Z" fill="white"/>
<path d="M107.128 82.2283L105.112 83.4881L105.399 83.9487L104.559 84.2575L103.364 83.8295C103.058 83.7184 102.72 83.7455 102.432 83.8972C101.901 83.7726 101.346 83.7888 100.823 83.9487C100.327 83.992 99.8316 84.011 99.3331 84.0029L99.7016 83.3987L97.6724 82.166L94.9388 86.6714L96.968 87.9041L97.3229 87.3162L97.6832 87.579C97.4502 87.8933 97.5207 88.3349 97.8349 88.5652C97.9785 88.6735 98.16 88.7196 98.3388 88.6952C98.2576 89.0772 98.5014 89.4511 98.8834 89.5324C99.0161 89.5594 99.1543 89.5513 99.2816 89.5025C99.26 89.8927 99.5553 90.2259 99.9454 90.2476C100.111 90.2584 100.276 90.2097 100.409 90.1094C100.414 90.4995 100.731 90.8111 101.121 90.8084C101.281 90.8057 101.438 90.7488 101.563 90.6458L102.053 90.2422V90.2395L102.703 90.7081C102.996 90.9195 103.408 90.8517 103.619 90.5591C103.7 90.4426 103.746 90.3018 103.744 90.1609C104.077 90.3641 104.51 90.2584 104.714 89.9252C104.795 89.787 104.83 89.6272 104.811 89.4673C105.185 89.5784 105.578 89.3671 105.686 88.9932C105.724 88.8686 105.724 88.7358 105.694 88.6112C106.071 88.6383 106.399 88.3538 106.423 87.9773C106.429 87.9366 106.426 87.8933 106.42 87.8499L107.325 87.0209L107.726 87.6657L109.742 86.4086L107.128 82.2283ZM96.8732 87.5465L95.2937 86.5847L97.7591 82.529L99.3385 83.4908L96.8732 87.5465ZM97.9054 88.2617C97.7618 88.0775 97.7889 87.812 97.9623 87.6576L98.4851 87.2268C98.5583 87.1672 98.6477 87.132 98.7425 87.1293C98.7588 87.1266 98.7696 87.1266 98.7859 87.1293C99.0297 87.1374 99.2193 87.346 99.2112 87.5898C99.2031 87.7145 99.1462 87.831 99.0541 87.9122L98.5285 88.343C98.3361 88.492 98.0544 88.4568 97.9054 88.2617ZM99.3087 89.1883C99.1191 89.3427 98.84 89.3156 98.6856 89.1233C98.5339 88.9363 98.5583 88.66 98.7452 88.5029L99.6907 87.7226C99.7639 87.6603 99.856 87.6251 99.9535 87.6224C100.2 87.6088 100.406 87.7985 100.42 88.0423C100.425 88.1832 100.368 88.3186 100.257 88.408L99.3087 89.1883ZM100.262 89.8927C100.075 90.0498 99.7937 90.02 99.6393 89.8331C99.4821 89.6434 99.5092 89.3617 99.6989 89.2072L100.438 88.5977C100.512 88.5381 100.601 88.5029 100.696 88.5001C100.942 88.4866 101.151 88.6735 101.165 88.9174C101.173 89.0582 101.113 89.1937 101.005 89.2831L100.262 89.8927ZM101.88 90.0471L101.392 90.4508C101.2 90.6052 100.921 90.5754 100.769 90.383C100.617 90.1961 100.642 89.9225 100.826 89.7653L101.316 89.3617C101.389 89.3021 101.476 89.2669 101.568 89.2641H101.614C101.858 89.2723 102.048 89.4809 102.04 89.7247C102.034 89.8493 101.977 89.9685 101.88 90.0471ZM106.06 88.1994C105.919 88.3647 105.678 88.3999 105.499 88.2753L103.348 86.731C103.289 86.6877 103.205 86.7039 103.164 86.7635C103.123 86.8204 103.137 86.9017 103.194 86.9451L105.269 88.4351C105.464 88.5841 105.502 88.8632 105.353 89.0555C105.209 89.2425 104.947 89.2885 104.752 89.1531L102.793 87.747C102.733 87.7036 102.652 87.7172 102.609 87.7768C102.568 87.8364 102.581 87.9177 102.638 87.961L104.37 89.2018C104.573 89.34 104.624 89.6136 104.486 89.8195C104.348 90.0227 104.074 90.0742 103.871 89.936C103.863 89.9306 103.857 89.9279 103.849 89.9225L102.224 88.7548C102.162 88.7169 102.08 88.7331 102.042 88.7927C102.004 88.8496 102.018 88.9255 102.069 88.9661L103.313 89.8575C103.486 89.9902 103.516 90.2395 103.383 90.4101C103.256 90.5727 103.026 90.6133 102.852 90.4968L102.216 90.039C102.403 89.6976 102.275 89.2668 101.934 89.0826C101.777 88.9959 101.593 88.9715 101.416 89.0176C101.463 88.6302 101.184 88.278 100.796 88.2346C100.75 88.2265 100.699 88.2265 100.652 88.2319C100.747 87.8526 100.514 87.4706 100.135 87.3758C99.9183 87.3216 99.688 87.3731 99.5146 87.5167L99.4659 87.5546C99.4605 87.1645 99.1435 86.8529 98.7534 86.8584C98.5935 86.8611 98.4364 86.918 98.3117 87.0182L97.8593 87.3921L97.4475 87.0886L99.1679 84.2575C99.7314 84.2711 100.298 84.2521 100.864 84.2033C101.135 84.1194 101.419 84.076 101.704 84.076C101.836 84.076 101.969 84.0841 102.102 84.1004C101.774 84.3063 101.425 84.4743 101.062 84.6043C100.829 84.6856 100.709 84.9402 100.796 85.1732C100.845 85.306 100.953 85.4089 101.091 85.4496C101.769 85.6419 102.492 85.5769 103.126 85.2708L105.998 87.6007C106.187 87.7578 106.209 88.0206 106.06 88.1994ZM106.328 87.5844C106.29 87.5167 106.233 87.4544 106.171 87.4029L103.167 84.9619C102.56 85.306 101.842 85.3927 101.17 85.203C101.072 85.1759 101.018 85.0757 101.043 84.9809C101.059 84.924 101.1 84.8806 101.154 84.859C101.62 84.691 102.061 84.4634 102.47 84.1817C102.628 84.0733 102.82 84.0191 103.012 84.0245C103.102 84.0299 103.188 84.0462 103.275 84.076L104.559 84.5339L105.54 84.1735L107.179 86.7988L106.328 87.5844ZM105.472 83.5694L107.041 82.5887L109.379 86.3274L107.81 87.3081L105.472 83.5694Z" fill="#636363"/>
<path d="M86.0255 87.651H35.7372C35.4392 87.651 35.1953 87.4072 35.1953 87.1092V63.2953C35.1953 62.9972 35.4392 62.7534 35.7372 62.7534H86.0228C86.3208 62.7534 86.5646 62.9972 86.5646 63.2953V87.1092C86.5673 87.4072 86.3235 87.651 86.0255 87.651Z" fill="white"/>
<path d="M77.0454 87.6504L72.8233 83.4282L68.6011 87.6504L72.8233 91.8725L77.0454 87.6504Z" fill="white"/>
<path d="M118.734 87.7707L114.925 85.7469L111.099 87.7381L111.145 77.0747L118.78 77.1072L118.734 87.7707Z" fill="#F74E4E"/>
<path d="M108.195 74.1971L109.211 73.5929L108.35 72.7883L109.468 72.409L108.794 71.4391L109.967 71.3036L109.509 70.2173L110.685 70.3283L110.46 69.1688L111.587 69.521L111.611 68.3398L112.641 68.9168L112.906 67.7681L113.792 68.5484L114.296 67.481L115.001 68.4292L115.713 67.4864L116.206 68.5592L117.098 67.7844L117.358 68.9385L118.39 68.3696L118.403 69.5481L119.533 69.2067L119.3 70.3663L120.476 70.2633L120.01 71.347L121.18 71.4933L120.498 72.4578L121.614 72.8452L120.744 73.6444L121.755 74.254L120.739 74.8581L121.6 75.6628L120.481 76.0421L121.159 77.0092L119.986 77.1447L120.443 78.2338L119.268 78.1227L119.49 79.2823L118.363 78.9301L118.341 80.1113L117.312 79.5342L117.043 80.6829L116.157 79.9027L115.654 80.9701L114.949 80.0219L114.237 80.9647L113.744 79.8918L112.852 80.664L112.595 79.5126L111.56 80.0815L111.546 78.9003L110.417 79.2443L110.65 78.0848L109.474 78.1877L109.94 77.1014L108.769 76.9578L109.452 75.9933L108.336 75.6059L109.206 74.8067L108.195 74.1971Z" fill="#71C5FF"/>
<path d="M115.055 71.4419L115.686 73.5876L117.921 73.6526L116.073 74.9151L116.702 77.0608L114.933 75.6954L113.085 76.9551L113.838 74.8501L112.069 73.4846L114.304 73.5497L115.055 71.4419Z" fill="white"/>
<path d="M41.1203 70.7924L40.6218 67.1919H41.2341L41.6242 70.3671H41.7109L42.2148 67.1919H43.2904L43.7943 70.3671H43.881L44.2657 67.1919H44.8834L44.3795 70.7924H43.3039L42.7946 67.5576H42.7079L42.1932 70.7924H41.1203Z" fill="#71C5FF"/>
<path d="M46.5442 70.863C46.2895 70.863 46.0674 70.8089 45.8723 70.7005C45.6773 70.5921 45.5282 70.4404 45.4199 70.2426C45.3115 70.0449 45.2573 69.8146 45.2573 69.5518V69.4895C45.2573 69.2213 45.3115 68.991 45.4172 68.7959C45.5228 68.6009 45.6718 68.4491 45.8642 68.3408C46.0565 68.2324 46.2787 68.1782 46.5279 68.1782C46.7745 68.1782 46.9912 68.2324 47.1754 68.3408C47.3597 68.4491 47.506 68.6009 47.6062 68.7959C47.7092 68.991 47.7606 69.2186 47.7606 69.4814V69.6927H45.8506C45.8588 69.8932 45.9292 70.0503 46.062 70.1722C46.1947 70.2941 46.36 70.351 46.555 70.351C46.7474 70.351 46.8883 70.3104 46.9831 70.2237C47.0752 70.1397 47.1456 70.0449 47.1944 69.9392L47.6821 70.1912C47.6333 70.2833 47.5656 70.3835 47.4735 70.4865C47.3813 70.5921 47.2621 70.6815 47.1104 70.7547C46.9641 70.8278 46.7745 70.863 46.5442 70.863ZM45.8588 69.2429H47.1592C47.1456 69.075 47.0806 68.9422 46.9668 68.842C46.853 68.7417 46.704 68.693 46.5225 68.693C46.3329 68.693 46.1839 68.7417 46.0701 68.842C45.9563 68.9422 45.8859 69.075 45.8588 69.2429Z" fill="#71C5FF"/>
<path d="M50.3181 70.8623C50.1393 70.8623 49.9795 70.8298 49.8359 70.7675C49.6923 70.7052 49.5785 70.6131 49.4945 70.4912C49.4105 70.372 49.3672 70.223 49.3672 70.0496C49.3672 69.8789 49.4078 69.7326 49.4945 69.6161C49.5785 69.4996 49.695 69.4102 49.8413 69.3506C49.9876 69.291 50.1556 69.2612 50.3452 69.2612H51.0821V69.1068C51.0821 68.974 51.0415 68.8629 50.9575 68.779C50.8762 68.695 50.7462 68.6516 50.5728 68.6516C50.4021 68.6516 50.2721 68.6923 50.1854 68.7735C50.0987 68.8548 50.0418 68.9578 50.012 69.0851L49.4674 68.9063C49.5081 68.7735 49.5731 68.6516 49.6652 68.5405C49.7573 68.4322 49.8765 68.3428 50.0282 68.275C50.18 68.2073 50.3642 68.1748 50.5836 68.1748C50.9169 68.1748 51.1769 68.2588 51.3693 68.4241C51.5589 68.5893 51.6538 68.8304 51.6538 69.1474V70.1444C51.6538 70.2473 51.7025 70.2988 51.7973 70.2988H52.0141V70.7865H51.5942C51.4695 70.7865 51.3693 70.7567 51.2907 70.6944C51.2122 70.6321 51.1715 70.5481 51.1715 70.4424V70.4316H51.0848C51.0632 70.4803 51.0279 70.5372 50.9765 70.6077C50.925 70.6754 50.8464 70.735 50.7435 70.7865C50.6378 70.838 50.4969 70.8623 50.3181 70.8623ZM50.4157 70.3801C50.6107 70.3801 50.7706 70.3232 50.8952 70.2121C51.0198 70.1011 51.0794 69.9493 51.0794 69.7624V69.7109H50.3804C50.2531 69.7109 50.1501 69.738 50.0716 69.7922C49.993 69.8464 49.9524 69.9277 49.9524 70.0333C49.9524 70.1363 49.993 70.2203 50.077 70.2826C50.1583 70.3476 50.2721 70.3801 50.4157 70.3801Z" fill="#71C5FF"/>
<path d="M52.4991 70.7918V68.2506H53.0815V68.5432H53.1682C53.2062 68.4375 53.2685 68.359 53.3579 68.3129C53.4473 68.2641 53.5529 68.2397 53.6776 68.2397H53.9864V68.7653H53.6667C53.496 68.7653 53.3552 68.8114 53.2495 68.9008C53.1438 68.9902 53.0897 69.1311 53.0897 69.3207V70.7918H52.4991Z" fill="#71C5FF"/>
<path d="M55.582 70.8621C55.3274 70.8621 55.1052 70.8079 54.9102 70.6995C54.7151 70.5911 54.5661 70.4394 54.4577 70.2417C54.3494 70.0439 54.2952 69.8136 54.2952 69.5508V69.4885C54.2952 69.2203 54.3493 68.99 54.455 68.7949C54.5607 68.5999 54.7097 68.4482 54.902 68.3398C55.0944 68.2314 55.3165 68.1772 55.5658 68.1772C55.8123 68.1772 56.0291 68.2314 56.2133 68.3398C56.3975 68.4482 56.5438 68.5999 56.644 68.7949C56.747 68.99 56.7985 69.2176 56.7985 69.4804V69.6917H54.8885C54.8966 69.8922 54.967 70.0493 55.0998 70.1712C55.2326 70.2904 55.3978 70.35 55.5929 70.35C55.7852 70.35 55.9261 70.3094 56.0209 70.2227C56.113 70.1387 56.1835 70.0439 56.2322 69.9382L56.7199 70.1902C56.6711 70.2823 56.6034 70.3825 56.5113 70.4855C56.4192 70.5911 56.3 70.6806 56.1483 70.7537C56.002 70.8269 55.8096 70.8621 55.582 70.8621ZM54.8966 69.242H56.197C56.1835 69.074 56.1185 68.9412 56.0047 68.841C55.8909 68.7408 55.7419 68.692 55.5604 68.692C55.3707 68.692 55.2217 68.7408 55.1079 68.841C54.9941 68.9412 54.9237 69.074 54.8966 69.242Z" fill="#71C5FF"/>
<path d="M40.6842 82.3387V72.8755H42.2393V76.5383H42.4696C42.5427 76.3866 42.6592 76.2322 42.8218 76.0805C42.9843 75.9261 43.1983 75.8014 43.4638 75.7012C43.7294 75.6009 44.0653 75.5522 44.4717 75.5522C44.9864 75.5522 45.4416 75.6687 45.8371 75.899C46.2327 76.1292 46.5415 76.4516 46.7637 76.8662C46.9831 77.2807 47.0942 77.7737 47.0942 78.34V82.3415H45.5391V78.4619C45.5391 77.9227 45.4064 77.5191 45.1408 77.2536C44.8753 76.9881 44.4988 76.8553 44.0111 76.8553C43.4611 76.8553 43.0277 77.0368 42.7134 77.4026C42.3991 77.7683 42.2393 78.2885 42.2393 78.9631V82.3415H40.6842V82.3387Z" fill="#4E8EF7"/>
<path d="M49.7682 74.8097C49.4891 74.8097 49.248 74.7176 49.0448 74.5334C48.8416 74.3491 48.7414 74.1026 48.7414 73.7964C48.7414 73.4903 48.8416 73.2438 49.0448 73.0595C49.248 72.8753 49.4891 72.7832 49.7682 72.7832C50.0662 72.7832 50.31 72.8753 50.5051 73.0595C50.6974 73.2438 50.7949 73.4903 50.7949 73.7964C50.7949 74.1026 50.6974 74.3491 50.5051 74.5334C50.3127 74.7176 50.0662 74.8097 49.7682 74.8097ZM48.9987 82.3386V75.6604H50.5538V82.3386H48.9987Z" fill="#4E8EF7"/>
<path d="M52.5262 82.3389V75.6607H54.0541V76.4301H54.2844C54.3847 76.151 54.5499 75.9478 54.7856 75.8205C55.0186 75.6959 55.3004 75.6309 55.6228 75.6309H56.4328V77.0098H55.5957C55.146 77.0098 54.7802 77.1291 54.5012 77.3675C54.2221 77.6059 54.0812 77.9743 54.0812 78.4701V82.3361H52.5262V82.3389Z" fill="#4E8EF7"/>
<path d="M58.5812 74.8097C58.3022 74.8097 58.0611 74.7176 57.8579 74.5334C57.6547 74.3491 57.5544 74.1026 57.5544 73.7964C57.5544 73.4903 57.6547 73.2438 57.8579 73.0595C58.0611 72.8753 58.3022 72.7832 58.5812 72.7832C58.8792 72.7832 59.1231 72.8753 59.3181 73.0595C59.5105 73.2438 59.608 73.4903 59.608 73.7964C59.608 74.1026 59.5105 74.3491 59.3181 74.5334C59.1258 74.7176 58.8792 74.8097 58.5812 74.8097ZM57.8118 82.3386V75.6604H59.3669V82.3386H57.8118Z" fill="#4E8EF7"/>
<path d="M61.3392 82.3385V75.6603H62.8672V76.5922H63.0974C63.2139 76.3403 63.4253 76.0992 63.7341 75.8743C64.0403 75.6494 64.5035 75.5356 65.1266 75.5356C65.6414 75.5356 66.0965 75.6521 66.4921 75.8878C66.8876 76.1208 67.1965 76.4459 67.4186 76.8604C67.6381 77.275 67.7492 77.768 67.7492 78.3343V82.3358H66.1941V78.4562C66.1941 77.917 66.0613 77.5134 65.7958 77.2479C65.5303 76.9824 65.1537 76.8496 64.6661 76.8496C64.1161 76.8496 63.6826 77.0311 63.3684 77.3969C63.0541 77.7626 62.8943 78.2828 62.8943 78.9574V82.3358H61.3392V82.3385Z" fill="#4E8EF7"/>
<path d="M69.3287 79.0252V78.822C69.3287 78.1203 69.4695 77.5162 69.7486 77.0177C70.0276 76.5165 70.4015 76.1345 70.8702 75.869C71.3389 75.6035 71.8509 75.4707 72.4118 75.4707C73.043 75.4707 73.5225 75.5818 73.8503 75.8094C74.1782 76.0342 74.4193 76.278 74.5737 76.5381H74.804V75.6603H76.3184V83.6092C76.3184 84.0508 76.1911 84.4003 75.9391 84.6576C75.6872 84.915 75.3458 85.045 74.9124 85.045H70.4232V83.6931H74.3841C74.6441 83.6931 74.7769 83.5577 74.7769 83.2868V81.3551H74.5466C74.4464 81.5068 74.3109 81.664 74.1402 81.8211C73.9695 81.9782 73.7447 82.111 73.4629 82.2193C73.1839 82.3277 72.8317 82.3819 72.409 82.3819C71.8509 82.3819 71.3362 82.2491 70.8675 81.9836C70.3988 81.7181 70.0249 81.3361 69.7459 80.8349C69.4696 80.331 69.3287 79.7296 69.3287 79.0252ZM72.8425 81.0137C73.4006 81.0137 73.8639 80.8349 74.235 80.48C74.6035 80.1251 74.7904 79.6266 74.7904 78.9873V78.8518C74.7904 78.2016 74.6089 77.7031 74.2432 77.3509C73.8774 76.9987 73.4114 76.8226 72.8425 76.8226C72.2844 76.8226 71.8184 76.9987 71.4419 77.3509C71.068 77.7031 70.881 78.2016 70.881 78.8518V78.9873C70.881 79.6266 71.068 80.1251 71.4419 80.48C71.8184 80.8349 72.2844 81.0137 72.8425 81.0137Z" fill="#4E8EF7"/>
<path d="M48.5788 48.7227L54.4497 58.9906L40.397 64.9698L39.8254 65.2136L35.7995 58.1697L36.298 57.8012L48.5788 48.7227Z" fill="#71C5FF"/>
<path d="M24.0724 67.6711L20.6505 69.6274L22.2653 72.452L25.6873 70.4957L24.0724 67.6711Z" fill="#102DA3"/>
<path d="M36.298 57.8013L40.397 64.9698L39.8253 65.2137L39.5029 64.6501L37.574 65.471L34.434 59.9795L36.1191 58.7332L35.7995 58.1697L36.298 57.8013Z" fill="#1D6FF5"/>
<path d="M36.1192 58.7329L39.503 64.6498L37.574 65.4707L28.7718 69.2148L25.705 70.5207L24.0605 67.6462L26.7426 65.6631L34.434 59.9791L36.1192 58.7329Z" fill="#71C5FF"/>
<path d="M53.4689 58.6551C56.7353 58.6551 59.3832 56.0072 59.3832 52.7409C59.3832 49.4745 56.7353 46.8267 53.4689 46.8267C50.2026 46.8267 47.5547 49.4745 47.5547 52.7409C47.5547 56.0072 50.2026 58.6551 53.4689 58.6551Z" fill="white"/>
<path d="M54.7071 55.5797C56.0986 55.5797 57.2266 54.4516 57.2266 53.0601C57.2266 51.6686 56.0986 50.5405 54.7071 50.5405C53.3155 50.5405 52.1875 51.6686 52.1875 53.0601C52.1875 54.4516 53.3155 55.5797 54.7071 55.5797Z" fill="#636363"/>
<path d="M56.6767 58.351C53.5828 60.1202 49.6273 59.0419 47.8582 55.948C46.0891 52.8541 47.1674 48.8986 50.2613 47.1295C53.3552 45.3604 57.3106 46.4387 59.0797 49.5326C60.8489 52.6265 59.7706 56.5819 56.6767 58.351ZM50.8058 48.0804C48.2375 49.5488 47.3407 52.8351 48.8091 55.4034C50.2775 57.9718 53.5638 58.8685 56.1321 57.4001C58.7005 55.9317 59.5972 52.6455 58.1288 50.0771C56.6604 47.5061 53.3742 46.612 50.8058 48.0804Z" fill="#F74E4E"/>
<path d="M47.2653 42.207L46.6938 42.5337L48.63 45.9204L49.2015 45.5936L47.2653 42.207Z" fill="#636363"/>
<path d="M55.5039 40.9997L54.4783 44.7637L55.1134 44.9367L56.1391 41.1728L55.5039 40.9997Z" fill="#636363"/>
<path d="M62.8162 46.1449L59.4295 48.0811L59.7562 48.6526L63.1429 46.7164L62.8162 46.1449Z" fill="#636363"/>
<path d="M78.3665 96.5729V95.3239H79.797L81.1001 95.5407L81.1895 95.3239L80.1221 94.5626L79.1088 93.5304L79.9785 92.6608L81.0107 93.6767L81.753 94.7442L81.9887 94.6548L81.772 93.3679V91.9185H83.0209V93.3679L82.8042 94.6548L83.0399 94.7442L83.7822 93.6767L84.8144 92.6608L85.703 93.5304L84.6708 94.5626L83.6034 95.3239L83.6928 95.5407L84.9959 95.3239H86.4264V96.5729H84.9959L83.6928 96.3561L83.6034 96.5918L84.6708 97.3342L85.703 98.3664L84.8144 99.255L83.7822 98.2417L83.0399 97.1743L82.8042 97.2637L83.0209 98.5506V100H81.772V98.5506L81.9887 97.2637L81.753 97.1743L81.0107 98.2417L79.9785 99.255L79.1088 98.3664L80.1221 97.3342L81.1895 96.5918L81.1001 96.3561L79.797 96.5729H78.3665Z" fill="#71C5FF"/>
<path d="M32.6324 84.9092H21.2565V87.6265H32.6324V84.9092Z" fill="#1D6FF5"/>
<path d="M32.6324 89.1304H18V91.8477H32.6324V89.1304Z" fill="#1D6FF5"/>
<path d="M93.4785 66.1324C95.8725 66.1324 97.8133 64.1916 97.8133 61.7976C97.8133 59.4036 95.8725 57.4629 93.4785 57.4629C91.0845 57.4629 89.1438 59.4036 89.1438 61.7976C89.1438 64.1916 91.0845 66.1324 93.4785 66.1324Z" fill="#F2F2F2"/>
<path d="M93.4786 63.9651C94.6756 63.9651 95.6459 62.9947 95.6459 61.7977C95.6459 60.6007 94.6756 59.6304 93.4786 59.6304C92.2816 59.6304 91.3112 60.6007 91.3112 61.7977C91.3112 62.9947 92.2816 63.9651 93.4786 63.9651Z" fill="#F74E4E"/>
<path d="M93.4785 70.5974L91.6796 67.4818L89.8834 64.3662H93.4785H97.0763L95.2774 67.4818L93.4785 70.5974Z" fill="#F2F2F2"/>
</svg>
