<svg width="444" height="140" viewBox="0 0 444 140" fill="none" xmlns="http://www.w3.org/2000/svg">
<rect width="444" height="140" fill="white"/>
<rect x="296" width="148" height="140" fill="#102DA3"/>
<rect x="148" width="148" height="140" fill="#F2F6FD"/>
<g clip-path="url(#clip0_8_3810)">
<path d="M87.7063 83.4842C87.7033 83.6231 87.6467 83.7551 87.5488 83.8517C87.4509 83.9482 87.3196 84.0015 87.1834 83.9999H64.6017C64.4646 83.9999 64.333 83.9444 64.236 83.8455C64.139 83.7466 64.0845 83.6125 64.0845 83.4726C64.0845 77.0983 69.5409 71.9468 75.8954 71.9468C82.2499 71.9468 87.7063 77.0694 87.7063 83.4436V83.4842Z" fill="#F74E4E"/>
<path d="M85.3761 70.7475C86.66 70.7475 87.7008 69.6863 87.7008 68.3774C87.7008 67.0684 86.66 66.0073 85.3761 66.0073C84.0922 66.0073 83.0514 67.0684 83.0514 68.3774C83.0514 69.6863 84.0922 70.7475 85.3761 70.7475Z" fill="#F74E4E"/>
<path d="M53.132 83.467C53.132 83.6084 53.0769 83.744 52.9788 83.844C52.8807 83.944 52.7477 84.0002 52.6091 84.0002H33.5229C33.3842 84.0002 33.2512 83.944 33.1532 83.844C33.0551 83.744 33 83.6084 33 83.467C33.0035 83.3619 33.0349 83.2598 33.0909 83.1715L42.6283 66.2449C42.6789 66.1742 42.7446 66.116 42.8204 66.0749C42.8962 66.0337 42.9802 66.0106 43.066 66.0073C43.1516 66.0079 43.2357 66.0298 43.311 66.0712C43.3863 66.1127 43.4505 66.1723 43.4979 66.2449L53.041 83.1715C53.0997 83.2585 53.1313 83.3615 53.132 83.467Z" fill="#FFB71B"/>
<path d="M114.193 66.0073C114.098 66.0082 114.006 66.0407 113.932 66.1L102.564 74.6879C102.487 74.7468 102.393 74.7774 102.297 74.7748C102.211 74.7765 102.128 74.7501 102.058 74.6995H102.024L90.753 66.129C90.6803 66.0748 90.593 66.0445 90.5029 66.0421C90.3713 66.0496 90.2478 66.1098 90.1594 66.2097C90.0711 66.3095 90.025 66.4409 90.0312 66.5752V83.4728C90.0281 83.5391 90.0379 83.6052 90.06 83.6676C90.0821 83.73 90.116 83.7873 90.1598 83.8363C90.2036 83.8852 90.2565 83.9249 90.3154 83.9531C90.3742 83.9812 90.438 83.9972 90.5029 84.0002H114.193C114.325 83.9941 114.449 83.9354 114.538 83.8366C114.627 83.7379 114.675 83.6071 114.67 83.4728V66.5404C114.675 66.4056 114.628 66.2742 114.538 66.1745C114.449 66.0748 114.325 66.0148 114.193 66.0073Z" fill="#4FBF5E"/>
<path d="M64.7211 66.0362H61.9872C61.9189 66.0347 61.8538 66.006 61.806 65.9561C61.7582 65.9063 61.7315 65.8394 61.7315 65.7697V61.8002C61.7315 61.7297 61.7178 61.6599 61.6911 61.5949C61.6645 61.5298 61.6255 61.4708 61.5763 61.4212C61.5271 61.3716 61.4688 61.3325 61.4047 61.306C61.3406 61.2796 61.272 61.2664 61.2029 61.2671H55.9795C55.8408 61.2671 55.7078 61.3233 55.6097 61.4233C55.5117 61.5232 55.4566 61.6588 55.4566 61.8002V83.4728C55.4581 83.6132 55.5138 83.7473 55.6117 83.846C55.7096 83.9447 55.8418 84.0001 55.9795 84.0001H61.2029C61.3406 84.0001 61.4727 83.9447 61.5706 83.846C61.6685 83.7473 61.7243 83.6132 61.7258 83.4728V72.6945C61.725 72.6597 61.7311 72.6252 61.7436 72.5929C61.7561 72.5606 61.7748 72.5311 61.7987 72.5063C61.8225 72.4815 61.8509 72.4617 61.8823 72.4483C61.9138 72.4348 61.9475 72.4279 61.9816 72.4279H64.7211C64.8598 72.4279 64.9928 72.3717 65.0909 72.2717C65.189 72.1718 65.244 72.0362 65.244 71.8948V66.5694C65.244 66.428 65.189 66.2924 65.0909 66.1924C64.9928 66.0924 64.8598 66.0362 64.7211 66.0362Z" fill="#71C5FF"/>
</g>
<g clip-path="url(#clip1_8_3810)">
<path d="M235.706 83.4842C235.703 83.6231 235.647 83.7551 235.549 83.8517C235.451 83.9482 235.32 84.0015 235.183 83.9999H212.602C212.465 83.9999 212.333 83.9444 212.236 83.8455C212.139 83.7466 212.085 83.6125 212.085 83.4726C212.085 77.0983 217.541 71.9468 223.895 71.9468C230.25 71.9468 235.706 77.0694 235.706 83.4436V83.4842Z" fill="#1D6FF5"/>
<path d="M233.376 70.7475C234.66 70.7475 235.701 69.6863 235.701 68.3774C235.701 67.0684 234.66 66.0073 233.376 66.0073C232.092 66.0073 231.051 67.0684 231.051 68.3774C231.051 69.6863 232.092 70.7475 233.376 70.7475Z" fill="#1D6FF5"/>
<path d="M201.132 83.467C201.132 83.6084 201.077 83.744 200.979 83.844C200.881 83.944 200.748 84.0002 200.609 84.0002H181.523C181.384 84.0002 181.251 83.944 181.153 83.844C181.055 83.744 181 83.6084 181 83.467C181.003 83.3619 181.035 83.2598 181.091 83.1715L190.628 66.2449C190.679 66.1742 190.745 66.116 190.82 66.0749C190.896 66.0337 190.98 66.0106 191.066 66.0073C191.152 66.0079 191.236 66.0298 191.311 66.0712C191.386 66.1127 191.451 66.1723 191.498 66.2449L201.041 83.1715C201.1 83.2585 201.131 83.3615 201.132 83.467Z" fill="#1D6FF5"/>
<path d="M262.193 66.0073C262.098 66.0082 262.006 66.0407 261.932 66.1L250.564 74.6879C250.487 74.7468 250.393 74.7774 250.297 74.7748C250.211 74.7765 250.128 74.7501 250.058 74.6995H250.024L238.753 66.129C238.68 66.0748 238.593 66.0445 238.503 66.0421C238.371 66.0496 238.248 66.1098 238.159 66.2097C238.071 66.3095 238.025 66.4409 238.031 66.5752V83.4728C238.028 83.5391 238.038 83.6052 238.06 83.6676C238.082 83.73 238.116 83.7873 238.16 83.8363C238.204 83.8852 238.256 83.9249 238.315 83.9531C238.374 83.9812 238.438 83.9972 238.503 84.0002H262.193C262.325 83.9941 262.449 83.9354 262.538 83.8366C262.627 83.7379 262.675 83.6071 262.67 83.4728V66.5404C262.675 66.4056 262.628 66.2742 262.538 66.1745C262.449 66.0748 262.325 66.0148 262.193 66.0073Z" fill="#1D6FF5"/>
<path d="M212.721 66.0362H209.987C209.919 66.0347 209.854 66.006 209.806 65.9561C209.758 65.9063 209.731 65.8394 209.731 65.7697V61.8002C209.731 61.7297 209.718 61.6599 209.691 61.5949C209.664 61.5298 209.625 61.4708 209.576 61.4212C209.527 61.3716 209.469 61.3325 209.405 61.306C209.341 61.2796 209.272 61.2664 209.203 61.2671H203.979C203.841 61.2671 203.708 61.3233 203.61 61.4233C203.512 61.5232 203.457 61.6588 203.457 61.8002V83.4728C203.458 83.6132 203.514 83.7473 203.612 83.846C203.71 83.9447 203.842 84.0001 203.979 84.0001H209.203C209.341 84.0001 209.473 83.9447 209.571 83.846C209.669 83.7473 209.724 83.6132 209.726 83.4728V72.6945C209.725 72.6597 209.731 72.6252 209.744 72.5929C209.756 72.5606 209.775 72.5311 209.799 72.5063C209.822 72.4815 209.851 72.4617 209.882 72.4483C209.914 72.4348 209.947 72.4279 209.982 72.4279H212.721C212.86 72.4279 212.993 72.3717 213.091 72.2717C213.189 72.1718 213.244 72.0362 213.244 71.8948V66.5694C213.244 66.428 213.189 66.2924 213.091 66.1924C212.993 66.0924 212.86 66.0362 212.721 66.0362Z" fill="#1D6FF5"/>
</g>
<g clip-path="url(#clip2_8_3810)">
<path d="M383.706 83.4842C383.703 83.6231 383.647 83.7551 383.549 83.8517C383.451 83.9482 383.32 84.0015 383.183 83.9999H360.602C360.465 83.9999 360.333 83.9444 360.236 83.8455C360.139 83.7466 360.084 83.6125 360.084 83.4726C360.084 77.0983 365.541 71.9468 371.895 71.9468C378.25 71.9468 383.706 77.0694 383.706 83.4436V83.4842Z" fill="white"/>
<path d="M381.376 70.7475C382.66 70.7475 383.701 69.6863 383.701 68.3774C383.701 67.0684 382.66 66.0073 381.376 66.0073C380.092 66.0073 379.051 67.0684 379.051 68.3774C379.051 69.6863 380.092 70.7475 381.376 70.7475Z" fill="white"/>
<path d="M349.132 83.467C349.132 83.6084 349.077 83.744 348.979 83.844C348.881 83.944 348.748 84.0002 348.609 84.0002H329.523C329.384 84.0002 329.251 83.944 329.153 83.844C329.055 83.744 329 83.6084 329 83.467C329.003 83.3619 329.035 83.2598 329.091 83.1715L338.628 66.2449C338.679 66.1742 338.745 66.116 338.82 66.0749C338.896 66.0337 338.98 66.0106 339.066 66.0073C339.152 66.0079 339.236 66.0298 339.311 66.0712C339.386 66.1127 339.451 66.1723 339.498 66.2449L349.041 83.1715C349.1 83.2585 349.131 83.3615 349.132 83.467Z" fill="white"/>
<path d="M410.193 66.0073C410.098 66.0082 410.006 66.0407 409.932 66.1L398.564 74.6879C398.487 74.7468 398.393 74.7774 398.297 74.7748C398.211 74.7765 398.128 74.7501 398.058 74.6995H398.024L386.753 66.129C386.68 66.0748 386.593 66.0445 386.503 66.0421C386.371 66.0496 386.248 66.1098 386.159 66.2097C386.071 66.3095 386.025 66.4409 386.031 66.5752V83.4728C386.028 83.5391 386.038 83.6052 386.06 83.6676C386.082 83.73 386.116 83.7873 386.16 83.8363C386.204 83.8852 386.256 83.9249 386.315 83.9531C386.374 83.9812 386.438 83.9972 386.503 84.0002H410.193C410.325 83.9941 410.449 83.9354 410.538 83.8366C410.627 83.7379 410.675 83.6071 410.67 83.4728V66.5404C410.675 66.4056 410.628 66.2742 410.538 66.1745C410.449 66.0748 410.325 66.0148 410.193 66.0073Z" fill="white"/>
<path d="M360.721 66.0362H357.987C357.919 66.0347 357.854 66.006 357.806 65.9561C357.758 65.9063 357.731 65.8394 357.731 65.7697V61.8002C357.731 61.7297 357.718 61.6599 357.691 61.5949C357.664 61.5298 357.625 61.4708 357.576 61.4212C357.527 61.3716 357.469 61.3325 357.405 61.306C357.341 61.2796 357.272 61.2664 357.203 61.2671H351.979C351.841 61.2671 351.708 61.3233 351.61 61.4233C351.512 61.5232 351.457 61.6588 351.457 61.8002V83.4728C351.458 83.6132 351.514 83.7473 351.612 83.846C351.71 83.9447 351.842 84.0001 351.979 84.0001H357.203C357.341 84.0001 357.473 83.9447 357.571 83.846C357.669 83.7473 357.724 83.6132 357.726 83.4728V72.6945C357.725 72.6597 357.731 72.6252 357.744 72.5929C357.756 72.5606 357.775 72.5311 357.799 72.5063C357.822 72.4815 357.851 72.4617 357.882 72.4483C357.914 72.4348 357.947 72.4279 357.982 72.4279H360.721C360.86 72.4279 360.993 72.3717 361.091 72.2717C361.189 72.1718 361.244 72.0362 361.244 71.8948V66.5694C361.244 66.428 361.189 66.2924 361.091 66.1924C360.993 66.0924 360.86 66.0362 360.721 66.0362Z" fill="white"/>
</g>
<defs>
<clipPath id="clip0_8_3810">
<rect width="81.6703" height="22.733" fill="white" transform="translate(33 61.2671)"/>
</clipPath>
<clipPath id="clip1_8_3810">
<rect width="81.6703" height="22.733" fill="white" transform="translate(181 61.2671)"/>
</clipPath>
<clipPath id="clip2_8_3810">
<rect width="81.6703" height="22.733" fill="white" transform="translate(329 61.2671)"/>
</clipPath>
</defs>
</svg>
