<svg width="291" height="56" viewBox="0 0 291 56" fill="none" xmlns="http://www.w3.org/2000/svg">
<rect width="291" height="56" fill="#F2F6FD"/>
<g clip-path="url(#clip0_13_638)">
<path d="M38.9832 31.9271C38.5973 32.3517 38.3672 32.8745 38.3635 33.4437C38.3561 34.6507 39.3579 35.6686 40.7308 35.9801C40.5156 36.3268 40.3932 36.7162 40.3895 37.1278C40.3802 38.5739 41.8254 39.7531 43.6139 39.7679C44.5211 39.7735 45.3448 39.475 45.9366 38.9948C46.5155 39.4453 47.2984 39.7253 48.1648 39.7327C49.9569 39.7438 51.4151 38.5832 51.4263 37.137C51.4281 36.7254 51.3094 36.3361 51.1016 35.9857C52.4782 35.6909 53.4949 34.686 53.5023 33.4827C53.506 33.0766 53.391 32.6947 53.1888 32.3498C54.0589 31.8882 54.6377 31.0928 54.6433 30.1843C54.6507 29.1813 53.955 28.3061 52.9309 27.8593C53.3168 27.431 53.5487 26.9063 53.5524 26.3371C53.5598 25.1338 52.558 24.1141 51.1851 23.7989C51.3984 23.4541 51.5227 23.0647 51.5246 22.6531C51.5339 21.2069 50.0924 20.0259 48.3002 20.0148C47.3911 20.0074 46.5711 20.304 45.9774 20.7861C45.3986 20.3355 44.6157 20.0556 43.7493 20.05C41.9571 20.037 40.4989 21.1995 40.4896 22.6438C40.4859 23.0554 40.6047 23.4467 40.8143 23.7934C39.4414 24.09 38.4229 25.0931 38.4136 26.3C38.4099 26.7061 38.5268 27.088 38.729 27.431C37.857 27.8927 37.2801 28.6899 37.2745 29.5966C37.2615 30.6033 37.9572 31.4803 38.9832 31.9271Z" fill="#FF8D6B"/>
<path d="M48.3577 37.0989L48.1685 36.9116C48.4765 36.5983 48.6434 36.1867 48.6379 35.751C48.6323 35.3153 48.4561 34.9093 48.1388 34.6052C47.7715 34.2511 47.5655 33.7764 47.56 33.2703C47.5544 32.7641 47.7474 32.2858 48.1054 31.9224L48.2947 32.1096C47.9867 32.4211 47.8197 32.8309 47.8253 33.2666C47.8308 33.7023 48.0071 34.1083 48.3225 34.4124C48.6898 34.7665 48.8958 35.2393 48.9032 35.7473C48.9106 36.2553 48.7158 36.7355 48.3577 37.0989Z" fill="white"/>
<path d="M50.1351 29.6884L49.9458 29.5011C50.2538 29.1896 50.4208 28.778 50.4152 28.3442C50.4096 27.9085 50.2334 27.5024 49.9162 27.1984C49.5488 26.8442 49.3429 26.3714 49.3373 25.8634C49.3318 25.3554 49.5247 24.8771 49.8846 24.5137L50.0739 24.7009C49.7659 25.0124 49.5989 25.424 49.6045 25.8597C49.61 26.2954 49.7863 26.7015 50.1017 27.0055C50.469 27.3597 50.6749 27.8343 50.6824 28.3405C50.6879 28.8466 50.4931 29.325 50.1351 29.6884Z" fill="white"/>
<path d="M50.7584 34.7092L50.5692 34.5219C50.8771 34.2105 51.0441 33.7989 51.0385 33.365C51.033 32.9293 50.8549 32.5233 50.5395 32.2192L50.725 32.0264C51.0924 32.3805 51.2983 32.8551 51.3057 33.3613C51.3113 33.8675 51.1165 34.3477 50.7584 34.7092Z" fill="white"/>
<path d="M48.0906 25.1068C47.8772 24.6507 47.8568 24.139 48.0312 23.6662C48.2093 23.186 48.5655 22.804 49.0367 22.5908L49.1462 22.8337C48.7418 23.0173 48.4338 23.3454 48.2817 23.7589C48.1314 24.1649 48.1499 24.6025 48.3317 24.9937L48.0906 25.1068Z" fill="white"/>
<path d="M47.2446 30.1039C47.0312 29.6459 47.0127 29.1323 47.1871 28.6595C47.3652 28.1812 47.7214 27.8011 48.1908 27.5879L48.3002 27.8308C47.8958 28.0143 47.5897 28.3406 47.4357 28.7522C47.2854 29.1583 47.3021 29.5977 47.4839 29.9926L47.2446 30.1039Z" fill="white"/>
<path d="M51.5765 31.222L51.4671 30.9791C51.8715 30.7974 52.1776 30.4693 52.3298 30.0577C52.48 29.6516 52.4634 29.2104 52.2797 28.8192L52.5209 28.7061C52.7342 29.164 52.7546 29.6776 52.5784 30.1504C52.4003 30.6287 52.0441 31.0088 51.5765 31.222Z" fill="white"/>
<path d="M43.6491 37.1729C43.2966 36.8058 43.1093 36.3238 43.1222 35.8176C43.1352 35.3115 43.3486 34.8387 43.7196 34.4901C44.0406 34.1897 44.2224 33.7856 44.2335 33.3499C44.2447 32.916 44.0833 32.5025 43.7809 32.1874L43.9738 32.002C44.3282 32.3691 44.5155 32.8493 44.5025 33.3554C44.4896 33.8616 44.2781 34.3344 43.9052 34.6829C43.5861 34.9833 43.4024 35.3875 43.3913 35.8232C43.3801 36.2589 43.5397 36.6723 43.8439 36.9875L43.6491 37.1729Z" fill="white"/>
<path d="M41.9738 29.7402C41.6195 29.3713 41.4321 28.8892 41.4469 28.383C41.4599 27.8769 41.6733 27.4059 42.0443 27.0555C42.3634 26.757 42.5471 26.3528 42.5582 25.9171C42.5693 25.4814 42.4079 25.068 42.1037 24.7528L42.2966 24.5674C42.651 24.9345 42.8384 25.4165 42.8254 25.9227C42.8124 26.4289 42.599 26.8998 42.228 27.2484C41.9089 27.5487 41.7252 27.9529 41.7141 28.3886C41.7029 28.8225 41.8644 29.2378 42.1668 29.5548L41.9738 29.7402Z" fill="white"/>
<path d="M44.0777 25.1886L43.8365 25.0737C44.0239 24.6843 44.048 24.2449 43.9033 23.837C43.7567 23.4235 43.4543 23.0898 43.0517 22.9007L43.1649 22.6597C43.6306 22.8803 43.9831 23.2659 44.1538 23.748C44.3244 24.2208 44.2985 24.7325 44.0777 25.1886Z" fill="white"/>
<path d="M44.8569 30.1946L44.6157 30.0796C44.805 29.6884 44.8272 29.2471 44.6825 28.8392C44.5359 28.4258 44.2335 28.0958 43.8328 27.9085L43.946 27.6675C44.4116 27.8844 44.7623 28.27 44.9348 28.7503C45.1036 29.2249 45.0758 29.7385 44.8569 30.1946Z" fill="white"/>
<path d="M45.8327 27.2114L45.8717 21.3804L46.1388 21.3822L46.098 27.2132L45.8327 27.2114Z" fill="white"/>
<path d="M45.8032 33.899L45.7718 38.397L46.0389 38.3988L46.0704 33.9009L45.8032 33.899Z" fill="white"/>
<path d="M42.1353 31.3294C42.7624 31.3294 43.2707 30.8214 43.2707 30.1947C43.2707 29.5681 42.7624 29.0601 42.1353 29.0601C41.5082 29.0601 40.9999 29.5681 40.9999 30.1947C40.9999 30.8214 41.5082 31.3294 42.1353 31.3294Z" fill="#F74E4E"/>
<path d="M36.1354 24.2972C36.7625 24.2972 37.2708 23.7892 37.2708 23.1625C37.2708 22.5358 36.7625 22.0278 36.1354 22.0278C35.5084 22.0278 35 22.5358 35 23.1625C35 23.7892 35.5084 24.2972 36.1354 24.2972Z" fill="#FFB71B"/>
<path d="M51.3058 19.5872C51.9328 19.5872 52.4412 19.0792 52.4412 18.4526C52.4412 17.8259 51.9328 17.3179 51.3058 17.3179C50.6787 17.3179 50.1704 17.8259 50.1704 18.4526C50.1704 19.0792 50.6787 19.5872 51.3058 19.5872Z" fill="#4E8EF7"/>
<path d="M41.2095 18.453C41.8366 18.453 42.3449 17.9449 42.3449 17.3183C42.3449 16.6916 41.8366 16.1836 41.2095 16.1836C40.5825 16.1836 40.0741 16.6916 40.0741 17.3183C40.0741 17.9449 40.5825 18.453 41.2095 18.453Z" fill="#4FBF5E"/>
<path d="M55.1907 24.514C55.8177 24.514 56.3261 24.006 56.3261 23.3793C56.3261 22.7526 55.8177 22.2446 55.1907 22.2446C54.5636 22.2446 54.0553 22.7526 54.0553 23.3793C54.0553 24.006 54.5636 24.514 55.1907 24.514Z" fill="#7F5EDD"/>
<path d="M39.6548 36.6078L40.2039 35.1765L40.7531 33.7451L39.2726 34.1437L37.7903 34.5405L38.4897 35.3155L36.5139 37.0973L36.9795 37.6145L38.9554 35.8328L39.6548 36.6078Z" fill="#585858"/>
<path d="M39.5899 36.2465L40.1391 34.8151L40.6882 33.3838L39.2059 33.7824L37.7254 34.1792L38.4248 34.9542L36.4471 36.7359L36.9147 37.2532L38.8905 35.4715L39.5899 36.2465Z" fill="white" stroke="#585858" stroke-width="0.229292" stroke-miterlimit="10"/>
</g>
<g clip-path="url(#clip1_13_638)">
<path d="M93.5446 16.1836H74.5752V37.6386H93.5446V16.1836Z" fill="white"/>
<path d="M91.1383 40.2682H74.5752C73.1114 40.2682 71.9283 39.0841 71.9283 37.639C71.9283 36.1739 73.1114 34.9897 74.5752 34.9897H91.1383V40.2682Z" fill="#102DA3"/>
<path d="M90.8977 40.2883C92.3595 40.2883 93.5446 39.1022 93.5446 37.639C93.5446 36.1759 92.3595 34.9897 90.8977 34.9897C89.4358 34.9897 88.2508 36.1759 88.2508 37.639C88.2508 39.1022 89.4358 40.2883 90.8977 40.2883Z" fill="white"/>
<path d="M93.5446 37.639H88.2508C88.2508 36.1739 89.4339 34.9897 90.8977 34.9897C92.3615 34.9897 93.5446 36.1739 93.5446 37.639Z" fill="#E9E9E9"/>
<path d="M89.8348 22.3453C89.0728 22.3453 88.4713 21.7231 88.4713 20.9805C88.4713 20.2379 89.0929 19.6157 89.8348 19.6157C90.2158 19.6157 90.5567 19.7562 90.8174 20.0372L90.7171 20.1375C90.4765 19.8967 90.1757 19.7562 89.8348 19.7562C89.1531 19.7562 88.5916 20.3182 88.5916 21.0006C88.5916 21.683 89.1531 22.2449 89.8348 22.2449C90.5166 22.2449 91.0781 21.683 91.0781 21.0006C91.0781 20.9203 91.0781 20.84 91.058 20.7597L91.1783 20.7397C91.1984 20.8199 91.1984 20.9203 91.1984 21.0206C91.2184 21.7231 90.5968 22.3453 89.8348 22.3453Z" fill="#56C766"/>
<path d="M89.8548 21.4224C89.8147 21.4224 89.7746 21.4023 89.7545 21.3622L89.153 20.7801L89.2532 20.6798L89.8749 21.2819L91.7798 19.4756L91.86 19.5759L89.9551 21.3823C89.915 21.4023 89.8949 21.4224 89.8548 21.4224Z" fill="#56C766"/>
<path d="M83.3781 24.3535H76.7208V24.5542H83.3781V24.3535Z" fill="#A9A9A9"/>
<path d="M83.378 25.2363H76.7207V25.437H83.378V25.2363Z" fill="#A9A9A9"/>
<path d="M83.378 26.1387H76.7207V26.3394H83.378V26.1387Z" fill="#A9A9A9"/>
<path d="M83.3781 27.0225H76.7208V27.2232H83.3781V27.0225Z" fill="#A9A9A9"/>
<path d="M83.378 27.9053H76.7207V28.106H83.378V27.9053Z" fill="#A9A9A9"/>
<path d="M83.3781 28.7891H76.7208V28.9898H83.3781V28.7891Z" fill="#A9A9A9"/>
<path d="M83.3781 29.6919H76.7207V29.8926H83.3781V29.6919Z" fill="#A9A9A9"/>
<path d="M83.3781 30.5752H76.7207V30.7759H83.3781V30.5752Z" fill="#A9A9A9"/>
<path d="M83.3781 31.4585H76.7207V31.6592H83.3781V31.4585Z" fill="#A9A9A9"/>
<path d="M83.3782 32.3408H76.7209V32.5415H83.3782V32.3408Z" fill="#A9A9A9"/>
<path d="M91.3588 24.3535H84.7015V24.5542H91.3588V24.3535Z" fill="#A9A9A9"/>
<path d="M91.3588 25.2363H84.7015V25.437H91.3588V25.2363Z" fill="#A9A9A9"/>
<path d="M91.3588 26.1387H84.7014V26.3394H91.3588V26.1387Z" fill="#A9A9A9"/>
<path d="M91.3588 27.0225H84.7015V27.2232H91.3588V27.0225Z" fill="#A9A9A9"/>
<path d="M91.3588 27.9053H84.7015V28.106H91.3588V27.9053Z" fill="#A9A9A9"/>
<path d="M91.3588 28.7891H84.7014V28.9898H91.3588V28.7891Z" fill="#A9A9A9"/>
<path d="M91.3588 29.6919H84.7014V29.8926H91.3588V29.6919Z" fill="#A9A9A9"/>
<path d="M91.3588 30.5752H84.7014V30.7759H91.3588V30.5752Z" fill="#A9A9A9"/>
<path d="M91.3587 31.4585H84.7014V31.6592H91.3587V31.4585Z" fill="#A9A9A9"/>
<path d="M91.3588 32.3408H84.7014V32.5415H91.3588V32.3408Z" fill="#A9A9A9"/>
<path d="M79.7085 21.3204C79.7085 21.3404 79.6885 21.3404 79.7085 21.3204C79.6885 21.3404 79.6885 21.3404 79.6885 21.3404H78.4653H78.4453V21.3204C78.4453 20.9792 78.746 20.7183 79.0869 20.7183C79.4078 20.7183 79.7085 20.9792 79.7085 21.3204Z" fill="#FA5453"/>
<path d="M79.5682 20.6583C79.6283 20.6583 79.6885 20.5981 79.6885 20.5379C79.6885 20.4777 79.6283 20.4175 79.5682 20.4175C79.508 20.4175 79.4479 20.4777 79.4479 20.5379C79.4479 20.5981 79.508 20.6583 79.5682 20.6583Z" fill="#FA5453"/>
<path d="M77.8436 21.3207C77.8436 21.3408 77.8436 21.3408 77.8436 21.3207C77.8236 21.3408 77.8236 21.3408 77.8236 21.3408H76.8009H76.7809V21.3207V21.3006L77.3022 20.3975C77.3022 20.3975 77.3022 20.3975 77.3223 20.3975C77.3223 20.3975 77.3223 20.3975 77.3423 20.3975C77.3423 20.3975 77.3423 20.3975 77.3624 20.3975C77.3624 20.3975 77.3624 20.3975 77.3824 20.3975L77.8436 21.3207Z" fill="#FFBE00"/>
<path d="M81.1323 20.3975C81.1122 20.3975 81.1122 20.3975 81.1323 20.3975L80.5107 20.8591C80.5107 20.8591 80.5107 20.8591 80.4906 20.8591C80.4906 20.8591 80.4906 20.8591 80.4706 20.8591L79.869 20.3975C79.869 20.3975 79.869 20.3975 79.8489 20.3975H79.8289V20.4175V21.3006C79.8289 21.3006 79.8289 21.3006 79.8289 21.3207C79.8289 21.3207 79.8289 21.3207 79.8489 21.3207H81.1323H81.1523V21.3006V20.3975C81.1523 20.4175 81.1523 20.4175 81.1323 20.3975Z" fill="#56C766"/>
<path d="M78.4653 20.3975H78.3249V20.1968C78.3249 20.1968 78.3249 20.1968 78.3249 20.1768C78.3249 20.1768 78.3249 20.1768 78.3049 20.1768H78.0241H78.0041V20.1968V21.3408V21.3609H78.0241H78.3049H78.3249V21.3408V20.7789H78.4653H78.4853V20.7588V20.4778C78.4853 20.4176 78.4853 20.4176 78.4653 20.3975C78.4653 20.3975 78.4853 20.3975 78.4653 20.3975Z" fill="#7ACCFF"/>
</g>
<path d="M129.919 18.8407L112.49 23.6377L115.674 35.138L133.103 30.3411L129.919 18.8407Z" fill="#F9F9F9"/>
<path d="M125.078 28.2506C126.636 28.2506 127.899 26.9914 127.899 25.4381C127.899 23.8847 126.636 22.6255 125.078 22.6255C123.52 22.6255 122.257 23.8847 122.257 25.4381C122.257 26.9914 123.52 28.2506 125.078 28.2506Z" fill="#FFB71B"/>
<path d="M130.474 38.9534H110.746C110.538 38.9534 110.368 38.7835 110.368 38.5759V25.8155C110.368 25.6079 110.538 25.438 110.746 25.438H130.474C130.682 25.438 130.852 25.6079 130.852 25.8155V38.5759C130.852 38.7835 130.682 38.9534 130.474 38.9534Z" fill="#71C5FF"/>
<path d="M130.852 33.744H125.229C124.378 33.744 123.696 33.0644 123.696 32.215C123.696 31.3656 124.378 30.686 125.229 30.686H130.852V33.744Z" fill="#1D6FF5"/>
<path d="M125.381 33.2341C125.956 33.2341 126.422 32.7693 126.422 32.1959C126.422 31.6225 125.956 31.1577 125.381 31.1577C124.806 31.1577 124.34 31.6225 124.34 32.1959C124.34 32.7693 124.806 33.2341 125.381 33.2341Z" fill="white"/>
<path d="M117.581 24.1549C119.139 24.1549 120.402 22.8957 120.402 21.3424C120.402 19.789 119.139 18.5298 117.581 18.5298C116.023 18.5298 114.76 19.789 114.76 21.3424C114.76 22.8957 116.023 24.1549 117.581 24.1549Z" fill="#FFB71B"/>
<path d="M124.737 20.8513C125.804 20.8513 126.668 19.9892 126.668 18.9259C126.668 17.8625 125.804 17.0005 124.737 17.0005C123.671 17.0005 122.806 17.8625 122.806 18.9259C122.806 19.9892 123.671 20.8513 124.737 20.8513Z" fill="#FFB71B"/>
<path d="M165.522 28.4679C165.327 28.3554 165.327 28.0743 165.522 27.9618L169.828 25.4774L174.157 22.9703C174.351 22.8575 174.595 22.998 174.595 23.223V28.2149V33.2067C174.595 33.4317 174.351 33.5722 174.157 33.4595L169.828 30.9523L165.522 28.4679Z" fill="#F74E4E"/>
<path d="M167.718 21.6304H150.058C149.896 21.6304 149.766 21.7612 149.766 21.9225V34.53C149.766 34.6914 149.896 34.8222 150.058 34.8222H167.718C167.879 34.8222 168.01 34.6914 168.01 34.53V21.9225C168.01 21.7612 167.879 21.6304 167.718 21.6304Z" fill="#F74E4E"/>
<path d="M161.402 28.549L158.9 29.9885L156.398 31.4281V28.549V25.6699L158.9 27.1095L161.402 28.549Z" fill="white" stroke="white" stroke-width="0.292111" stroke-miterlimit="10"/>
<path d="M196.084 18.5252L192.908 21.7017L210.261 39.0549L213.438 35.8784L196.084 18.5252Z" fill="#102DA3"/>
<path d="M195.287 19.3225L193.705 20.9043L211.059 38.2576L212.64 36.6758L195.287 19.3225Z" fill="#71C5FF"/>
<path d="M214.037 38.0725L213.438 35.8782L211.243 35.2786L209.662 36.8604L210.261 39.0547L212.456 39.6543L214.037 38.0725Z" fill="#F3EDE1"/>
<path d="M212.368 38.0755C212.613 37.8311 212.613 37.4203 212.37 37.1768C212.126 36.9333 211.728 36.9211 211.471 37.1783C211.227 37.4227 211.226 37.8335 211.47 38.077C211.713 38.3205 212.111 38.3327 212.368 38.0755Z" fill="#F74E4E"/>
<path d="M196.084 18.5253L191.965 17.6465L192.908 21.7018L196.084 18.5253Z" fill="#F3EDE1"/>
<path d="M192.156 18.5317L192.85 17.8372L191.939 17.6205L192.156 18.5317Z" fill="#F74E4E"/>
<path d="M212.617 22.5198L210.207 20.1104L192.616 37.7012L195.026 40.1106L212.617 22.5198Z" fill="#4FBF5E"/>
<path d="M197.114 38.0237L194.704 35.6143L194.352 35.9667L196.761 38.3761L197.114 38.0237Z" fill="#006853"/>
<path d="M197.728 37.408L195.319 34.9985L194.966 35.3509L197.376 37.7604L197.728 37.408Z" fill="#006853"/>
<path d="M210.247 24.8894L207.838 22.48L207.485 22.8324L209.895 25.2418L210.247 24.8894Z" fill="#006853"/>
<path d="M210.861 24.2762L208.452 21.8667L208.1 22.2191L210.509 24.6285L210.861 24.2762Z" fill="#006853"/>
<path d="M212.399 22.3023L210.419 20.3224L214.711 17.6596L215.059 18.0076L212.399 22.3023Z" fill="#4FBF5E"/>
<path d="M198.409 34.3097C197.867 33.7679 200.369 30.8739 202.182 29.0614C203.994 27.2488 206.888 24.7468 207.43 25.2886C207.972 25.8304 205.47 28.7244 203.657 30.537C201.845 32.3496 198.951 34.8515 198.409 34.3097ZM207.302 25.4163C207.047 25.1609 205.025 26.4735 202.309 29.1891C199.594 31.9047 198.281 33.9265 198.537 34.182C198.792 34.4375 200.814 33.1248 203.529 30.4092C206.247 27.6958 207.558 25.6718 207.302 25.4163Z" fill="#006853"/>
<path d="M248.184 20.5591L251.649 26.6199L243.354 30.1493L243.017 30.2932L240.641 26.1354L240.935 25.9179L248.184 20.5591Z" fill="#FFB71B"/>
<path d="M233.718 31.7432L231.698 32.8979L232.652 34.5652L234.672 33.4104L233.718 31.7432Z" fill="#FFA230"/>
<path d="M240.935 25.917L243.354 30.1484L243.017 30.2923L242.827 29.9597L241.688 30.4442L239.835 27.2027L240.829 26.4671L240.641 26.1345L240.935 25.917Z" fill="#FFA230"/>
<path d="M240.829 26.4673L242.827 29.9599L241.688 30.4444L236.492 32.6545L234.682 33.4253L233.711 31.7286L235.295 30.558L239.835 27.2029L240.829 26.4673Z" fill="#FFB71B"/>
<path d="M251.07 26.4209C252.998 26.4209 254.561 24.858 254.561 22.93C254.561 21.0019 252.998 19.439 251.07 19.439C249.142 19.439 247.579 21.0019 247.579 22.93C247.579 24.858 249.142 26.4209 251.07 26.4209Z" fill="white"/>
<path d="M251.801 24.6058C252.623 24.6058 253.288 23.94 253.288 23.1186C253.288 22.2972 252.623 21.6313 251.801 21.6313C250.98 21.6313 250.314 22.2972 250.314 23.1186C250.314 23.94 250.98 24.6058 251.801 24.6058Z" fill="#636363"/>
<path d="M252.964 26.2419C251.138 27.2862 248.803 26.6497 247.759 24.8235C246.714 22.9972 247.351 20.6624 249.177 19.6182C251.003 18.5739 253.338 19.2104 254.382 21.0366C255.427 22.8629 254.79 25.1977 252.964 26.2419ZM249.498 20.1795C247.982 21.0462 247.453 22.986 248.32 24.502C249.187 26.018 251.126 26.5474 252.642 25.6806C254.158 24.8139 254.688 22.8741 253.821 21.3581C252.954 19.8404 251.014 19.3127 249.498 20.1795Z" fill="#F74E4E"/>
<path d="M247.408 16.7124L247.071 16.9053L248.214 18.9043L248.551 18.7115L247.408 16.7124Z" fill="#636363"/>
<path d="M252.272 15.9999L251.666 18.2217L252.041 18.3238L252.646 16.1021L252.272 15.9999Z" fill="#636363"/>
<path d="M256.588 19.0368L254.589 20.1797L254.782 20.517L256.781 19.3741L256.588 19.0368Z" fill="#636363"/>
<defs>
<clipPath id="clip0_13_638">
<rect width="21.3241" height="23.5836" fill="white" transform="translate(35 16.1836)"/>
</clipPath>
<clipPath id="clip1_13_638">
<rect width="21.6162" height="24.0842" fill="white" transform="translate(71.9282 16.1836)"/>
</clipPath>
</defs>
</svg>
