<svg width="140" height="140" viewBox="0 0 140 140" fill="none" xmlns="http://www.w3.org/2000/svg">
<rect width="140" height="140" fill="#102DA3"/>
<path d="M33 77.5964L39.2025 54H46.9556L53.1581 77.5964H48.5736L47.2927 72.4052H38.8654L37.5845 77.5964H33ZM39.9104 68.2927H46.2477L43.3824 56.7979H42.7757L39.9104 68.2927Z" fill="white"/>
<path d="M61.3086 78.0684C60.1176 78.0684 59.0501 77.8661 58.1062 77.4616C57.1624 77.0346 56.4095 76.4279 55.8477 75.6413C55.3084 74.8323 55.0387 73.8547 55.0387 72.7086C55.0387 71.5625 55.3084 70.6074 55.8477 69.8433C56.4095 69.0568 57.1736 68.4725 58.14 68.0904C59.1288 67.6859 60.2524 67.4837 61.5109 67.4837H66.0953V66.5398C66.0953 65.7533 65.8481 65.1128 65.3537 64.6184C64.8593 64.1015 64.0728 63.8431 62.9941 63.8431C61.9379 63.8431 61.1513 64.0903 60.6344 64.5847C60.1176 65.0566 59.7805 65.6746 59.6232 66.4387L55.7129 65.124C55.9826 64.2701 56.4095 63.4948 56.9938 62.7981C57.6006 62.079 58.3984 61.5059 59.3872 61.0789C60.3985 60.6295 61.6232 60.4047 63.0615 60.4047C65.2638 60.4047 67.0055 60.9553 68.2864 62.0565C69.5674 63.1577 70.2078 64.7532 70.2078 66.8432V73.0794C70.2078 73.7536 70.5225 74.0907 71.1517 74.0907H72.5001V77.5964H69.6685C68.837 77.5964 68.1516 77.3942 67.6122 76.9897C67.0729 76.5852 66.8032 76.0458 66.8032 75.3716V75.3379H66.1627C66.0728 75.6076 65.8706 75.9672 65.556 76.4166C65.2414 76.8436 64.747 77.2256 64.0728 77.5627C63.3986 77.8998 62.4772 78.0684 61.3086 78.0684ZM62.0502 74.63C63.2413 74.63 64.2076 74.3042 64.9492 73.6525C65.7133 72.9783 66.0953 72.0906 66.0953 70.9894V70.6523H61.8143C61.0277 70.6523 60.4097 70.8209 59.9602 71.158C59.5108 71.4951 59.2861 71.967 59.2861 72.5738C59.2861 73.1805 59.522 73.6749 59.994 74.057C60.4659 74.439 61.1513 74.63 62.0502 74.63Z" fill="white"/>
<path d="M35.0962 84.5605H34.35V82.3584H35.1113C35.3299 82.3584 35.5177 82.4025 35.6747 82.4907C35.8324 82.5781 35.9535 82.7039 36.0381 82.8681C36.1227 83.0322 36.165 83.2286 36.165 83.4573C36.165 83.6867 36.1224 83.8838 36.0371 84.0487C35.9525 84.2135 35.8302 84.3401 35.6704 84.4282C35.5113 84.5164 35.3199 84.5605 35.0962 84.5605ZM34.7489 84.2153H35.0769C35.2303 84.2153 35.3582 84.1874 35.4607 84.1315C35.5632 84.0748 35.6403 83.9906 35.6919 83.8788C35.7435 83.7662 35.7693 83.6257 35.7693 83.4573C35.7693 83.2888 35.7435 83.1491 35.6919 83.038C35.6403 82.9261 35.5639 82.8426 35.4629 82.7874C35.3625 82.7315 35.2378 82.7036 35.0887 82.7036H34.7489V84.2153Z" fill="white"/>
<path d="M36.5268 84.5605V82.9089H36.9161V84.5605H36.5268ZM36.7225 82.6745C36.6609 82.6745 36.6078 82.6541 36.5634 82.6132C36.5189 82.5717 36.4967 82.5218 36.4967 82.4638C36.4967 82.405 36.5189 82.3552 36.5634 82.3143C36.6078 82.2727 36.6609 82.252 36.7225 82.252C36.7849 82.252 36.8379 82.2727 36.8816 82.3143C36.9261 82.3552 36.9483 82.405 36.9483 82.4638C36.9483 82.5218 36.9261 82.5717 36.8816 82.6132C36.8379 82.6541 36.7849 82.6745 36.7225 82.6745Z" fill="white"/>
<path d="M38.6216 83.3455L38.2668 83.3842C38.2568 83.3483 38.2392 83.3146 38.2141 83.2831C38.1898 83.2516 38.1568 83.2261 38.1152 83.2068C38.0736 83.1874 38.0227 83.1777 37.9625 83.1777C37.8815 83.1777 37.8134 83.1953 37.7582 83.2304C37.7038 83.2655 37.6769 83.3111 37.6776 83.367C37.6769 83.415 37.6944 83.4541 37.7303 83.4842C37.7668 83.5143 37.827 83.539 37.9109 83.5584L38.1926 83.6186C38.3489 83.6523 38.465 83.7057 38.541 83.7788C38.6177 83.8519 38.6564 83.9476 38.6571 84.0659C38.6564 84.1698 38.6259 84.2616 38.5657 84.3411C38.5062 84.42 38.4234 84.4816 38.3174 84.5261C38.2113 84.5705 38.0894 84.5927 37.9518 84.5927C37.7496 84.5927 37.5869 84.5504 37.4636 84.4659C37.3403 84.3806 37.2669 84.2619 37.2432 84.11L37.6228 84.0734C37.64 84.148 37.6765 84.2042 37.7324 84.2422C37.7883 84.2802 37.8611 84.2992 37.9507 84.2992C38.0432 84.2992 38.1174 84.2802 38.1733 84.2422C38.2299 84.2042 38.2582 84.1573 38.2582 84.1014C38.2582 84.054 38.2399 84.015 38.2034 83.9842C38.1675 83.9533 38.1116 83.9297 38.0356 83.9132L37.7539 83.8541C37.5955 83.8211 37.4783 83.7655 37.4023 83.6874C37.3263 83.6085 37.2887 83.5089 37.2894 83.3885C37.2887 83.2867 37.3163 83.1985 37.3722 83.124C37.4289 83.0487 37.5073 82.9906 37.6077 82.9498C37.7088 82.9082 37.8253 82.8874 37.9572 82.8874C38.1507 82.8874 38.303 82.9286 38.4141 83.0111C38.526 83.0935 38.5951 83.205 38.6216 83.3455Z" fill="white"/>
<path d="M38.9781 85.1798V82.9089H39.3609V83.182H39.3835C39.4035 83.1419 39.4318 83.0992 39.4684 83.0541C39.505 83.0082 39.5544 82.9691 39.6168 82.9369C39.6791 82.9039 39.7587 82.8874 39.8555 82.8874C39.9831 82.8874 40.0981 82.92 40.2006 82.9853C40.3039 83.0498 40.3856 83.1455 40.4458 83.2724C40.5067 83.3985 40.5372 83.5533 40.5372 83.7369C40.5372 83.9182 40.5074 84.0723 40.4479 84.1992C40.3884 84.3261 40.3074 84.4229 40.2049 84.4895C40.1024 84.5562 39.9863 84.5895 39.8566 84.5895C39.7619 84.5895 39.6834 84.5737 39.6211 84.5422C39.5587 84.5107 39.5085 84.4727 39.4705 84.4282C39.4333 84.3831 39.4042 84.3404 39.3835 84.3003H39.3673V85.1798H38.9781ZM39.3598 83.7347C39.3598 83.8415 39.3748 83.9351 39.405 84.0153C39.4358 84.0956 39.4799 84.1583 39.5372 84.2035C39.5953 84.2479 39.6655 84.2702 39.748 84.2702C39.834 84.2702 39.906 84.2472 39.9641 84.2014C40.0221 84.1548 40.0659 84.0913 40.0953 84.011C40.1254 83.93 40.1404 83.8379 40.1404 83.7347C40.1404 83.6322 40.1257 83.5412 40.0963 83.4616C40.0669 83.382 40.0232 83.3197 39.9652 83.2745C39.9071 83.2293 39.8347 83.2068 39.748 83.2068C39.6648 83.2068 39.5942 83.2286 39.5361 83.2724C39.4781 83.3161 39.434 83.3774 39.4039 83.4562C39.3745 83.5351 39.3598 83.6279 39.3598 83.7347Z" fill="white"/>
<path d="M41.2597 82.3584V84.5605H40.8705V82.3584H41.2597Z" fill="white"/>
<path d="M42.1352 84.5938C42.0306 84.5938 41.9363 84.5752 41.8525 84.5379C41.7693 84.4999 41.7034 84.444 41.6546 84.3702C41.6066 84.2963 41.5826 84.2053 41.5826 84.0971C41.5826 84.0039 41.5998 83.9268 41.6342 83.8659C41.6686 83.805 41.7155 83.7562 41.775 83.7196C41.8345 83.6831 41.9016 83.6555 41.9761 83.6369C42.0514 83.6175 42.1292 83.6035 42.2094 83.5949C42.3062 83.5849 42.3847 83.5759 42.4449 83.568C42.5051 83.5594 42.5489 83.5465 42.5761 83.5293C42.604 83.5114 42.618 83.4838 42.618 83.4465V83.4401C42.618 83.3591 42.594 83.2964 42.546 83.2519C42.498 83.2075 42.4288 83.1853 42.3385 83.1853C42.2431 83.1853 42.1675 83.206 42.1116 83.2476C42.0564 83.2892 42.0191 83.3383 41.9998 83.3949L41.6363 83.3433C41.665 83.243 41.7123 83.1591 41.7783 83.0917C41.8442 83.0236 41.9249 82.9727 42.0202 82.939C42.1155 82.9046 42.2209 82.8874 42.3363 82.8874C42.4159 82.8874 42.4951 82.8967 42.5739 82.9154C42.6528 82.934 42.7248 82.9648 42.7901 83.0078C42.8553 83.0501 42.9076 83.1078 42.947 83.181C42.9872 83.2541 43.0073 83.3455 43.0073 83.4551V84.5605H42.6331V84.3336H42.6202C42.5965 84.3795 42.5632 84.4225 42.5202 84.4626C42.4779 84.5021 42.4245 84.534 42.36 84.5583C42.2962 84.582 42.2213 84.5938 42.1352 84.5938ZM42.2363 84.3078C42.3145 84.3078 42.3822 84.2924 42.4395 84.2616C42.4969 84.23 42.541 84.1885 42.5718 84.1368C42.6033 84.0852 42.6191 84.029 42.6191 83.968V83.7734C42.6069 83.7834 42.5861 83.7928 42.5567 83.8014C42.5281 83.81 42.4958 83.8175 42.46 83.8239C42.4241 83.8304 42.3886 83.8361 42.3535 83.8412C42.3184 83.8462 42.2879 83.8505 42.2621 83.8541C42.2041 83.8619 42.1521 83.8748 42.1062 83.8928C42.0603 83.9107 42.0241 83.9358 41.9976 83.968C41.9711 83.9996 41.9578 84.0404 41.9578 84.0906C41.9578 84.1623 41.984 84.2164 42.0363 84.253C42.0887 84.2895 42.1553 84.3078 42.2363 84.3078Z" fill="white"/>
<path d="M43.5814 85.1798C43.5284 85.1798 43.4793 85.1755 43.4341 85.1669C43.3897 85.159 43.3542 85.1497 43.3277 85.139L43.418 84.8357C43.4746 84.8522 43.5252 84.8601 43.5696 84.8594C43.6141 84.8587 43.6531 84.8447 43.6868 84.8175C43.7212 84.7909 43.7503 84.7465 43.7739 84.6841L43.8072 84.5949L43.2083 82.9089H43.6212L44.0019 84.1562H44.0191L44.4008 82.9089H44.8147L44.1535 84.7605C44.1226 84.8479 44.0818 84.9228 44.0309 84.9852C43.98 85.0483 43.9176 85.0963 43.8438 85.1293C43.7707 85.163 43.6832 85.1798 43.5814 85.1798Z" fill="white"/>
<path d="M45.3239 84.5841C45.2586 84.5841 45.2027 84.5612 45.1561 84.5153C45.1095 84.4694 45.0866 84.4135 45.0873 84.3476C45.0866 84.2831 45.1095 84.2279 45.1561 84.182C45.2027 84.1361 45.2586 84.1132 45.3239 84.1132C45.3869 84.1132 45.4418 84.1361 45.4884 84.182C45.5357 84.2279 45.5597 84.2831 45.5604 84.3476C45.5597 84.3913 45.5482 84.4311 45.526 84.4669C45.5045 84.5028 45.4758 84.5315 45.44 84.553C45.4049 84.5737 45.3661 84.5841 45.3239 84.5841ZM45.3239 83.4057C45.2586 83.4057 45.2027 83.3827 45.1561 83.3369C45.1095 83.2903 45.0866 83.2344 45.0873 83.1691C45.0866 83.1046 45.1095 83.0494 45.1561 83.0035C45.2027 82.9569 45.2586 82.9337 45.3239 82.9337C45.3869 82.9337 45.4418 82.9569 45.4884 83.0035C45.5357 83.0494 45.5597 83.1046 45.5604 83.1691C45.5597 83.2121 45.5482 83.2516 45.526 83.2874C45.5045 83.3232 45.4758 83.3519 45.44 83.3734C45.4049 83.3949 45.3661 83.4057 45.3239 83.4057Z" fill="white"/>
<path d="M47.9843 82.9089C47.9714 82.8 47.919 82.7154 47.8273 82.6552C47.7355 82.595 47.623 82.5648 47.4896 82.5648C47.3922 82.5648 47.3069 82.5806 47.2337 82.6122C47.1613 82.6437 47.1047 82.6871 47.0639 82.7423C47.0237 82.7975 47.0036 82.8602 47.0036 82.9304C47.0036 82.9892 47.0176 83.0397 47.0456 83.082C47.0743 83.1236 47.1108 83.1584 47.1553 83.1863C47.1997 83.2136 47.2463 83.2362 47.295 83.2541C47.3438 83.2713 47.3886 83.2853 47.4294 83.296L47.6531 83.3562C47.7104 83.3713 47.7742 83.3921 47.8445 83.4186C47.9154 83.4451 47.9832 83.4813 48.0477 83.5272C48.1129 83.5723 48.1667 83.6304 48.209 83.7014C48.2513 83.7723 48.2724 83.8594 48.2724 83.9627C48.2724 84.0816 48.2412 84.1892 48.1789 84.2852C48.1172 84.3813 48.0269 84.4576 47.9079 84.5142C47.7896 84.5709 47.6459 84.5992 47.4767 84.5992C47.319 84.5992 47.1825 84.5737 47.0671 84.5229C46.9524 84.472 46.8621 84.401 46.7961 84.31C46.7309 84.2189 46.694 84.1132 46.6854 83.9928H46.9606C46.9678 84.0759 46.9958 84.1447 47.0445 84.1992C47.094 84.253 47.1563 84.2931 47.2316 84.3196C47.3076 84.3454 47.3893 84.3583 47.4767 84.3583C47.5785 84.3583 47.6699 84.3419 47.7509 84.3089C47.8319 84.2752 47.8961 84.2286 47.9434 84.1691C47.9907 84.1089 48.0144 84.0386 48.0144 83.9584C48.0144 83.8852 47.9939 83.8257 47.9531 83.7799C47.9122 83.734 47.8585 83.6967 47.7918 83.668C47.7251 83.6394 47.6531 83.6143 47.5757 83.5928L47.3047 83.5154C47.1327 83.4659 46.9965 83.3953 46.8961 83.3035C46.7958 83.2118 46.7456 83.0917 46.7456 82.9433C46.7456 82.82 46.7789 82.7125 46.8456 82.6208C46.913 82.5283 47.0033 82.4566 47.1165 82.4057C47.2305 82.3541 47.3578 82.3283 47.4983 82.3283C47.6402 82.3283 47.7663 82.3537 47.8767 82.4046C47.9871 82.4548 48.0746 82.5236 48.1391 82.6111C48.2043 82.6985 48.2387 82.7978 48.2423 82.9089H47.9843Z" fill="white"/>
<path d="M48.6764 85.1798V82.9089H48.9216V83.1713H48.9517C48.9703 83.1426 48.9961 83.106 49.0291 83.0616C49.0628 83.0164 49.1108 82.9763 49.1732 82.9412C49.2363 82.9053 49.3216 82.8874 49.4291 82.8874C49.5682 82.8874 49.6907 82.9222 49.7968 82.9917C49.9029 83.0612 49.9857 83.1598 50.0452 83.2874C50.1047 83.415 50.1345 83.5655 50.1345 83.739C50.1345 83.9139 50.1047 84.0655 50.0452 84.1938C49.9857 84.3214 49.9033 84.4203 49.7979 84.4906C49.6925 84.5601 49.571 84.5949 49.4334 84.5949C49.3273 84.5949 49.2424 84.5773 49.1786 84.5422C49.1148 84.5064 49.0657 84.4659 49.0313 84.4207C48.9969 84.3748 48.9703 84.3368 48.9517 84.3067H48.9302V85.1798H48.6764ZM48.9259 83.7347C48.9259 83.8594 48.9442 83.9695 48.9807 84.0648C49.0173 84.1594 49.0707 84.2336 49.1409 84.2874C49.2112 84.3404 49.2972 84.3669 49.399 84.3669C49.5051 84.3669 49.5936 84.339 49.6646 84.2831C49.7363 84.2264 49.79 84.1505 49.8259 84.0551C49.8624 83.9591 49.8807 83.8523 49.8807 83.7347C49.8807 83.6186 49.8628 83.5139 49.8269 83.4207C49.7918 83.3268 49.7384 83.2526 49.6667 83.1982C49.5958 83.143 49.5065 83.1154 49.399 83.1154C49.2958 83.1154 49.209 83.1415 49.1388 83.1939C49.0685 83.2455 49.0155 83.3179 48.9797 83.4111C48.9438 83.5035 48.9259 83.6114 48.9259 83.7347Z" fill="white"/>
<path d="M51.0076 84.5992C50.9029 84.5992 50.8079 84.5795 50.7226 84.5401C50.6373 84.4999 50.5696 84.4422 50.5194 84.3669C50.4692 84.291 50.4441 84.1992 50.4441 84.0917C50.4441 83.9971 50.4628 83.9204 50.5 83.8616C50.5373 83.8021 50.5871 83.7555 50.6495 83.7218C50.7119 83.6881 50.7807 83.663 50.8559 83.6465C50.9319 83.6293 51.0083 83.6157 51.085 83.6057C51.1853 83.5928 51.2667 83.5831 51.329 83.5766C51.3921 83.5695 51.438 83.5576 51.4667 83.5412C51.4961 83.5247 51.5108 83.496 51.5108 83.4551V83.4465C51.5108 83.3404 51.4817 83.258 51.4237 83.1992C51.3663 83.1405 51.2792 83.1111 51.1624 83.1111C51.0412 83.1111 50.9463 83.1376 50.8774 83.1906C50.8086 83.2437 50.7602 83.3003 50.7323 83.3605L50.4914 83.2745C50.5344 83.1741 50.5918 83.096 50.6635 83.0401C50.7359 82.9835 50.8147 82.944 50.9 82.9218C50.986 82.8989 51.0706 82.8874 51.1538 82.8874C51.2068 82.8874 51.2678 82.8939 51.3366 82.9068C51.4061 82.919 51.4731 82.9444 51.5376 82.9831C51.6029 83.0218 51.657 83.0802 51.7 83.1584C51.743 83.2365 51.7645 83.3412 51.7645 83.4723V84.5605H51.5108V84.3368H51.4979C51.4807 84.3727 51.452 84.411 51.4118 84.4519C51.3717 84.4927 51.3183 84.5275 51.2516 84.5562C51.185 84.5849 51.1036 84.5992 51.0076 84.5992ZM51.0463 84.3712C51.1466 84.3712 51.2312 84.3515 51.3 84.3121C51.3695 84.2727 51.4219 84.2218 51.457 84.1594C51.4928 84.0971 51.5108 84.0315 51.5108 83.9627V83.7304C51.5 83.7433 51.4764 83.7551 51.4398 83.7659C51.404 83.7759 51.3624 83.7849 51.3151 83.7928C51.2685 83.7999 51.223 83.8064 51.1785 83.8121C51.1348 83.8171 51.0993 83.8214 51.0721 83.825C51.0061 83.8336 50.9445 83.8476 50.8871 83.867C50.8305 83.8856 50.7846 83.9139 50.7495 83.9519C50.7151 83.9892 50.6979 84.0401 50.6979 84.1046C50.6979 84.1928 50.7305 84.2594 50.7957 84.3046C50.8617 84.349 50.9452 84.3712 51.0463 84.3712Z" fill="white"/>
<path d="M52.8986 84.5949C52.7438 84.5949 52.6105 84.5583 52.4986 84.4852C52.3868 84.4121 52.3008 84.3114 52.2406 84.1831C52.1804 84.0548 52.1503 83.9082 52.1503 83.7433C52.1503 83.5756 52.1811 83.4275 52.2427 83.2992C52.3051 83.1702 52.3918 83.0695 52.5029 82.9971C52.6148 82.924 52.7452 82.8874 52.8943 82.8874C53.0104 82.8874 53.1151 82.9089 53.2083 82.9519C53.3015 82.9949 53.3778 83.0552 53.4373 83.1326C53.4968 83.21 53.5337 83.3003 53.5481 83.4035H53.2943C53.275 83.3283 53.2319 83.2616 53.1653 83.2035C53.0993 83.1448 53.0104 83.1154 52.8986 83.1154C52.7997 83.1154 52.713 83.1412 52.6384 83.1928C52.5646 83.2437 52.5069 83.3157 52.4653 83.4089C52.4244 83.5014 52.404 83.61 52.404 83.7347C52.404 83.8623 52.4241 83.9734 52.4642 84.068C52.5051 84.1626 52.5624 84.2361 52.6363 84.2884C52.7108 84.3408 52.7983 84.3669 52.8986 84.3669C52.9646 84.3669 53.0244 84.3555 53.0782 84.3325C53.1319 84.3096 53.1775 84.2766 53.2147 84.2336C53.252 84.1906 53.2785 84.139 53.2943 84.0788H53.5481C53.5337 84.1763 53.4982 84.2641 53.4416 84.3422C53.3857 84.4196 53.3115 84.4813 53.219 84.5272C53.1273 84.5723 53.0205 84.5949 52.8986 84.5949Z" fill="white"/>
<path d="M54.6115 84.5949C54.4523 84.5949 54.3151 84.5598 54.1997 84.4895C54.085 84.4186 53.9964 84.3196 53.9341 84.1928C53.8724 84.0652 53.8416 83.9168 53.8416 83.7476C53.8416 83.5784 53.8724 83.4293 53.9341 83.3003C53.9964 83.1706 54.0832 83.0695 54.1943 82.9971C54.3061 82.924 54.4366 82.8874 54.5857 82.8874C54.6717 82.8874 54.7566 82.9018 54.8405 82.9304C54.9244 82.9591 55.0007 83.0057 55.0695 83.0702C55.1383 83.134 55.1932 83.2186 55.234 83.324C55.2749 83.4293 55.2953 83.5591 55.2953 83.7132V83.8207H54.0222V83.6014H55.0373C55.0373 83.5082 55.0186 83.425 54.9814 83.3519C54.9448 83.2788 54.8925 83.2211 54.8244 83.1788C54.757 83.1365 54.6774 83.1154 54.5857 83.1154C54.4846 83.1154 54.3971 83.1405 54.3233 83.1906C54.2502 83.2401 54.1939 83.3046 54.1545 83.3842C54.1151 83.4637 54.0954 83.549 54.0954 83.6401V83.7863C54.0954 83.911 54.1169 84.0168 54.1599 84.1035C54.2036 84.1895 54.2642 84.2551 54.3416 84.3003C54.419 84.3447 54.509 84.3669 54.6115 84.3669C54.6781 84.3669 54.7383 84.3576 54.7921 84.339C54.8466 84.3196 54.8935 84.291 54.933 84.253C54.9724 84.2143 55.0029 84.1662 55.0244 84.1089L55.2695 84.1777C55.2437 84.2609 55.2003 84.334 55.1394 84.397C55.0785 84.4594 55.0032 84.5082 54.9136 84.5433C54.824 84.5777 54.7233 84.5949 54.6115 84.5949Z" fill="white"/>
<path d="M58.0727 83.0466C58.049 82.9742 58.0178 82.9093 57.9791 82.8519C57.9411 82.7939 57.8956 82.7444 57.8426 82.7036C57.7902 82.6627 57.7307 82.6315 57.6641 82.61C57.5974 82.5885 57.5243 82.5777 57.4447 82.5777C57.3143 82.5777 57.1956 82.6114 57.0888 82.6788C56.982 82.7462 56.8971 82.8455 56.834 82.9767C56.7709 83.1078 56.7394 83.2688 56.7394 83.4594C56.7394 83.6501 56.7713 83.811 56.8351 83.9422C56.8989 84.0734 56.9852 84.1727 57.0942 84.2401C57.2031 84.3074 57.3257 84.3411 57.4619 84.3411C57.5881 84.3411 57.6992 84.3143 57.7952 84.2605C57.892 84.206 57.9673 84.1293 58.021 84.0304C58.0755 83.9308 58.1028 83.8136 58.1028 83.6788L58.1845 83.696H57.5221V83.4594H58.3608V83.696C58.3608 83.8774 58.3221 84.0351 58.2447 84.1691C58.168 84.3031 58.0619 84.4071 57.9264 84.4809C57.7917 84.554 57.6368 84.5906 57.4619 84.5906C57.2669 84.5906 57.0956 84.5447 56.948 84.453C56.801 84.3612 56.6863 84.2307 56.6039 84.0616C56.5222 83.8924 56.4813 83.6917 56.4813 83.4594C56.4813 83.2853 56.5046 83.1286 56.5512 82.9896C56.5985 82.8498 56.6652 82.7308 56.7512 82.6326C56.8372 82.5344 56.939 82.4591 57.0566 82.4068C57.1741 82.3545 57.3035 82.3283 57.4447 82.3283C57.5608 82.3283 57.6691 82.3459 57.7694 82.381C57.8705 82.4154 57.9605 82.4645 58.0393 82.5283C58.1189 82.5914 58.1852 82.667 58.2382 82.7552C58.2913 82.8426 58.3278 82.9397 58.3479 83.0466H58.0727Z" fill="white"/>
<path d="M58.7831 84.5605V82.9089H59.0283V83.1584H59.0455C59.0756 83.0767 59.1301 83.0104 59.2089 82.9595C59.2878 82.9086 59.3766 82.8831 59.4756 82.8831C59.4942 82.8831 59.5175 82.8835 59.5455 82.8842C59.5734 82.8849 59.5946 82.886 59.6089 82.8874V83.1455C59.6003 83.1433 59.5806 83.1401 59.5498 83.1358C59.5197 83.1308 59.4878 83.1283 59.4541 83.1283C59.3738 83.1283 59.3021 83.1451 59.239 83.1788C59.1767 83.2118 59.1272 83.2577 59.0906 83.3164C59.0548 83.3745 59.0369 83.4408 59.0369 83.5154V84.5605H58.7831Z" fill="white"/>
<path d="M60.5304 84.5949C60.3813 84.5949 60.2505 84.5594 60.1379 84.4884C60.0261 84.4175 59.9386 84.3182 59.8756 84.1906C59.8132 84.063 59.782 83.9139 59.782 83.7433C59.782 83.5713 59.8132 83.4211 59.8756 83.2928C59.9386 83.1645 60.0261 83.0648 60.1379 82.9939C60.2505 82.9229 60.3813 82.8874 60.5304 82.8874C60.6795 82.8874 60.8099 82.9229 60.9218 82.9939C61.0343 83.0648 61.1218 83.1645 61.1841 83.2928C61.2472 83.4211 61.2787 83.5713 61.2787 83.7433C61.2787 83.9139 61.2472 84.063 61.1841 84.1906C61.1218 84.3182 61.0343 84.4175 60.9218 84.4884C60.8099 84.5594 60.6795 84.5949 60.5304 84.5949ZM60.5304 84.3669C60.6436 84.3669 60.7368 84.3379 60.8099 84.2798C60.883 84.2218 60.9372 84.1454 60.9723 84.0508C61.0074 83.9562 61.025 83.8537 61.025 83.7433C61.025 83.6329 61.0074 83.53 60.9723 83.4347C60.9372 83.3394 60.883 83.2623 60.8099 83.2035C60.7368 83.1448 60.6436 83.1154 60.5304 83.1154C60.4171 83.1154 60.3239 83.1448 60.2508 83.2035C60.1777 83.2623 60.1236 83.3394 60.0885 83.4347C60.0533 83.53 60.0358 83.6329 60.0358 83.7433C60.0358 83.8537 60.0533 83.9562 60.0885 84.0508C60.1236 84.1454 60.1777 84.2218 60.2508 84.2798C60.3239 84.3379 60.4171 84.3669 60.5304 84.3669Z" fill="white"/>
<path d="M62.3843 82.9089V83.124H61.5285V82.9089H62.3843ZM61.7779 82.5132H62.0317V84.0874C62.0317 84.1591 62.0421 84.2128 62.0629 84.2487C62.0844 84.2838 62.1116 84.3074 62.1446 84.3196C62.1783 84.3311 62.2137 84.3368 62.251 84.3368C62.279 84.3368 62.3019 84.3354 62.3198 84.3325C62.3378 84.3289 62.3521 84.3261 62.3628 84.3239L62.4145 84.5519C62.3973 84.5583 62.3732 84.5648 62.3424 84.5712C62.3116 84.5784 62.2725 84.582 62.2252 84.582C62.1535 84.582 62.0833 84.5666 62.0145 84.5358C61.9464 84.5049 61.8897 84.458 61.8446 84.3949C61.8001 84.3318 61.7779 84.2522 61.7779 84.1562V82.5132Z" fill="white"/>
<path d="M63.4408 84.5949C63.2816 84.5949 63.1444 84.5598 63.029 84.4895C62.9143 84.4186 62.8257 84.3196 62.7634 84.1928C62.7017 84.0652 62.6709 83.9168 62.6709 83.7476C62.6709 83.5784 62.7017 83.4293 62.7634 83.3003C62.8257 83.1706 62.9125 83.0695 63.0236 82.9971C63.1354 82.924 63.2659 82.8874 63.415 82.8874C63.501 82.8874 63.5859 82.9018 63.6698 82.9304C63.7537 82.9591 63.83 83.0057 63.8988 83.0702C63.9676 83.134 64.0225 83.2186 64.0633 83.324C64.1042 83.4293 64.1246 83.5591 64.1246 83.7132V83.8207H62.8515V83.6014H63.8666C63.8666 83.5082 63.8479 83.425 63.8106 83.3519C63.7741 83.2788 63.7218 83.2211 63.6537 83.1788C63.5863 83.1365 63.5067 83.1154 63.415 83.1154C63.3139 83.1154 63.2264 83.1405 63.1526 83.1906C63.0795 83.2401 63.0232 83.3046 62.9838 83.3842C62.9444 83.4637 62.9247 83.549 62.9247 83.6401V83.7863C62.9247 83.911 62.9462 84.0168 62.9892 84.1035C63.0329 84.1895 63.0935 84.2551 63.1709 84.3003C63.2483 84.3447 63.3383 84.3669 63.4408 84.3669C63.5074 84.3669 63.5676 84.3576 63.6214 84.339C63.6759 84.3196 63.7228 84.291 63.7623 84.253C63.8017 84.2143 63.8322 84.1662 63.8537 84.1089L64.0988 84.1777C64.073 84.2609 64.0296 84.334 63.9687 84.397C63.9078 84.4594 63.8325 84.5082 63.7429 84.5433C63.6533 84.5777 63.5526 84.5949 63.4408 84.5949Z" fill="white"/>
<path d="M65.6805 83.2788L65.4525 83.3433C65.4382 83.3053 65.417 83.2684 65.3891 83.2326C65.3619 83.196 65.3246 83.1659 65.2773 83.1422C65.23 83.1186 65.1694 83.1068 65.0956 83.1068C64.9945 83.1068 64.9103 83.1301 64.8429 83.1767C64.7762 83.2225 64.7429 83.281 64.7429 83.3519C64.7429 83.415 64.7658 83.4648 64.8117 83.5014C64.8576 83.5379 64.9292 83.5684 65.0267 83.5928L65.2719 83.653C65.4196 83.6888 65.5296 83.7437 65.602 83.8175C65.6744 83.8906 65.7106 83.9849 65.7106 84.1003C65.7106 84.1949 65.6833 84.2795 65.6289 84.354C65.5751 84.4286 65.4998 84.4874 65.4031 84.5304C65.3063 84.5734 65.1938 84.5949 65.0654 84.5949C64.897 84.5949 64.7576 84.5583 64.6472 84.4852C64.5368 84.4121 64.4669 84.3053 64.4375 84.1648L64.6784 84.1046C64.7013 84.1935 64.7447 84.2601 64.8085 84.3046C64.873 84.349 64.9572 84.3712 65.0611 84.3712C65.1794 84.3712 65.2733 84.3462 65.3429 84.296C65.4131 84.2451 65.4482 84.1842 65.4482 84.1132C65.4482 84.0558 65.4282 84.0078 65.388 83.9691C65.3479 83.9297 65.2862 83.9003 65.2031 83.8809L64.9278 83.8164C64.7766 83.7806 64.6655 83.725 64.5945 83.6498C64.5242 83.5738 64.4891 83.4788 64.4891 83.3648C64.4891 83.2716 64.5153 83.1892 64.5676 83.1175C64.6207 83.0458 64.6927 82.9896 64.7837 82.9487C64.8755 82.9078 64.9794 82.8874 65.0956 82.8874C65.259 82.8874 65.3873 82.9233 65.4805 82.9949C65.5744 83.0666 65.6411 83.1612 65.6805 83.2788Z" fill="white"/>
<path d="M67.2194 85.1798V84.3067H67.1979C67.1793 84.3368 67.1527 84.3748 67.1183 84.4207C67.0839 84.4659 67.0348 84.5064 66.971 84.5422C66.9072 84.5773 66.8223 84.5949 66.7162 84.5949C66.5786 84.5949 66.4571 84.5601 66.3517 84.4906C66.2463 84.4203 66.1639 84.3214 66.1044 84.1938C66.0449 84.0655 66.0151 83.9139 66.0151 83.739C66.0151 83.5655 66.0449 83.415 66.1044 83.2874C66.1639 83.1598 66.2467 83.0612 66.3528 82.9917C66.4589 82.9222 66.5814 82.8874 66.7205 82.8874C66.828 82.8874 66.913 82.9053 66.9753 82.9412C67.0384 82.9763 67.0864 83.0164 67.1194 83.0616C67.1531 83.106 67.1793 83.1426 67.1979 83.1713H67.228V82.9089H67.4732V85.1798H67.2194ZM66.7506 84.3669C66.8524 84.3669 66.9384 84.3404 67.0087 84.2874C67.0789 84.2336 67.1323 84.1594 67.1689 84.0648C67.2054 83.9695 67.2237 83.8594 67.2237 83.7347C67.2237 83.6114 67.2058 83.5035 67.17 83.4111C67.1341 83.3179 67.0811 83.2455 67.0108 83.1939C66.9406 83.1415 66.8538 83.1154 66.7506 83.1154C66.6431 83.1154 66.5535 83.143 66.4818 83.1982C66.4108 83.2526 66.3574 83.3268 66.3216 83.4207C66.2865 83.5139 66.2689 83.6186 66.2689 83.7347C66.2689 83.8523 66.2868 83.9591 66.3227 84.0551C66.3592 84.1505 66.413 84.2264 66.484 84.2831C66.5556 84.339 66.6445 84.3669 66.7506 84.3669Z" fill="white"/>
<path d="M68.9785 83.8852V82.9089H69.2323V84.5605H68.9785V84.2809H68.9613C68.9226 84.3648 68.8624 84.4361 68.7807 84.4949C68.6989 84.553 68.5957 84.582 68.471 84.582C68.3678 84.582 68.276 84.5594 68.1957 84.5142C68.1154 84.4684 68.0524 84.3996 68.0065 84.3078C67.9606 84.2153 67.9377 84.0988 67.9377 83.9584V82.9089H68.1914V83.9411C68.1914 84.0616 68.2251 84.1576 68.2925 84.2293C68.3606 84.301 68.4473 84.3368 68.5527 84.3368C68.6158 84.3368 68.6799 84.3207 68.7452 84.2884C68.8111 84.2562 68.8663 84.2067 68.9108 84.1401C68.9559 84.0734 68.9785 83.9885 68.9785 83.8852Z" fill="white"/>
<path d="M70.3895 84.5949C70.2303 84.5949 70.0931 84.5598 69.9777 84.4895C69.863 84.4186 69.7744 84.3196 69.7121 84.1928C69.6504 84.0652 69.6196 83.9168 69.6196 83.7476C69.6196 83.5784 69.6504 83.4293 69.7121 83.3003C69.7744 83.1706 69.8612 83.0695 69.9723 82.9971C70.0841 82.924 70.2146 82.8874 70.3637 82.8874C70.4497 82.8874 70.5346 82.9018 70.6185 82.9304C70.7024 82.9591 70.7787 83.0057 70.8475 83.0702C70.9163 83.134 70.9712 83.2186 71.012 83.324C71.0529 83.4293 71.0733 83.5591 71.0733 83.7132V83.8207H69.8002V83.6014H70.8153C70.8153 83.5082 70.7966 83.425 70.7594 83.3519C70.7228 83.2788 70.6705 83.2211 70.6024 83.1788C70.535 83.1365 70.4554 83.1154 70.3637 83.1154C70.2626 83.1154 70.1751 83.1405 70.1013 83.1906C70.0282 83.2401 69.9719 83.3046 69.9325 83.3842C69.8931 83.4637 69.8734 83.549 69.8734 83.6401V83.7863C69.8734 83.911 69.8949 84.0168 69.9379 84.1035C69.9816 84.1895 70.0422 84.2551 70.1196 84.3003C70.197 84.3447 70.287 84.3669 70.3895 84.3669C70.4561 84.3669 70.5164 84.3576 70.5701 84.339C70.6246 84.3196 70.6715 84.291 70.711 84.253C70.7504 84.2143 70.7809 84.1662 70.8024 84.1089L71.0475 84.1777C71.0217 84.2609 70.9783 84.334 70.9174 84.397C70.8565 84.4594 70.7812 84.5082 70.6916 84.5433C70.602 84.5777 70.5013 84.5949 70.3895 84.5949Z" fill="white"/>
<path d="M85.7045 79.031H83.3604L88.6276 64.3945H91.1789L96.4461 79.031H94.1019L89.964 67.0531H89.8496L85.7045 79.031ZM86.0976 73.2994H93.7017V75.1575H86.0976V73.2994Z" fill="white"/>
<path d="M101.583 79.274C100.887 79.274 100.258 79.1454 99.696 78.8881C99.1338 78.626 98.6884 78.2473 98.3596 77.7518C98.0356 77.2563 97.8736 76.6488 97.8736 75.9293C97.8736 75.31 97.9927 74.8002 98.231 74.3999C98.4692 73.9997 98.7908 73.6829 99.1958 73.4494C99.6008 73.216 100.053 73.0397 100.554 72.9206C101.054 72.8015 101.564 72.7109 102.083 72.649C102.741 72.5728 103.274 72.5108 103.684 72.4632C104.094 72.4108 104.391 72.3274 104.577 72.2131C104.763 72.0987 104.856 71.9129 104.856 71.6556V71.6056C104.856 70.9814 104.68 70.4978 104.327 70.1548C103.979 69.8118 103.46 69.6402 102.769 69.6402C102.05 69.6402 101.483 69.7998 101.068 70.1191C100.658 70.4335 100.375 70.7837 100.218 71.1696L98.2095 70.7122C98.4477 70.0452 98.7956 69.5068 99.2529 69.0971C99.7151 68.6826 100.246 68.3824 100.847 68.1966C101.447 68.006 102.078 67.9107 102.741 67.9107C103.179 67.9107 103.643 67.9631 104.134 68.0679C104.63 68.168 105.092 68.3538 105.521 68.6254C105.954 68.897 106.309 69.2853 106.585 69.7903C106.862 70.2906 107 70.9409 107 71.7414V79.031H104.913V77.5302H104.827C104.689 77.8066 104.482 78.0781 104.206 78.3449C103.929 78.6118 103.574 78.8333 103.141 79.0096C102.707 79.1859 102.188 79.274 101.583 79.274ZM102.047 77.5588C102.638 77.5588 103.143 77.4421 103.562 77.2086C103.986 76.9752 104.308 76.6702 104.527 76.2938C104.751 75.9127 104.863 75.5053 104.863 75.0717V73.6567C104.787 73.7329 104.639 73.8044 104.42 73.8711C104.206 73.933 103.96 73.9878 103.684 74.0355C103.408 74.0783 103.138 74.1188 102.876 74.157C102.614 74.1903 102.395 74.2189 102.219 74.2427C101.804 74.2951 101.426 74.3833 101.083 74.5072C100.744 74.631 100.473 74.8097 100.268 75.0432C100.068 75.2719 99.9676 75.5768 99.9676 75.9579C99.9676 76.4868 100.163 76.887 100.554 77.1586C100.944 77.4254 101.442 77.5588 102.047 77.5588Z" fill="white"/>
<path d="M83.7624 84.6736V82.6217H85.0769V82.9333H84.1341V83.4903H84.9868V83.8019H84.1341V84.6736H83.7624Z" fill="white"/>
<path d="M86.284 84.0263V83.1346H86.6467V84.6736H86.295V84.4001H86.279C86.2443 84.4862 86.1872 84.5567 86.1077 84.6115C86.0289 84.6662 85.9317 84.6936 85.8161 84.6936C85.7153 84.6936 85.6261 84.6713 85.5486 84.6265C85.4718 84.5811 85.4117 84.5153 85.3683 84.4291C85.3248 84.3423 85.3031 84.2374 85.3031 84.1145V83.1346H85.6658V84.0584C85.6658 84.1559 85.6925 84.2334 85.746 84.2909C85.7994 84.3483 85.8696 84.377 85.9564 84.377C86.0098 84.377 86.0616 84.364 86.1117 84.3379C86.1618 84.3119 86.2029 84.2732 86.2349 84.2217C86.2676 84.1696 86.284 84.1045 86.284 84.0263Z" fill="white"/>
<path d="M87.3824 83.7719V84.6736H87.0197V83.1346H87.3663V83.3961H87.3844C87.4198 83.31 87.4762 83.2415 87.5537 83.1907C87.6319 83.14 87.7284 83.1146 87.8433 83.1146C87.9495 83.1146 88.042 83.1373 88.1208 83.1827C88.2003 83.2281 88.2617 83.2939 88.3051 83.3801C88.3492 83.4663 88.3709 83.5708 88.3703 83.6937V84.6736H88.0076V83.7498C88.0076 83.647 87.9809 83.5665 87.9274 83.5084C87.8747 83.4502 87.8015 83.4212 87.708 83.4212C87.6445 83.4212 87.5881 83.4352 87.5387 83.4633C87.4899 83.4907 87.4515 83.5304 87.4235 83.5825C87.3961 83.6346 87.3824 83.6977 87.3824 83.7719Z" fill="white"/>
<path d="M89.4103 84.7037C89.2566 84.7037 89.1247 84.6699 89.0145 84.6025C88.905 84.535 88.8205 84.4418 88.761 84.3229C88.7022 84.2034 88.6729 84.0658 88.6729 83.9101C88.6729 83.7538 88.7029 83.6159 88.763 83.4963C88.8231 83.3761 88.908 83.2826 89.0175 83.2158C89.1277 83.1483 89.258 83.1146 89.4083 83.1146C89.5332 83.1146 89.6437 83.1376 89.7399 83.1837C89.8368 83.2292 89.9139 83.2936 89.9713 83.3771C90.0288 83.4599 90.0615 83.5568 90.0695 83.6677H89.7229C89.7088 83.5935 89.6754 83.5317 89.6227 83.4823C89.5706 83.4322 89.5008 83.4072 89.4133 83.4072C89.3391 83.4072 89.274 83.4272 89.2179 83.4673C89.1618 83.5067 89.118 83.5635 89.0866 83.6376C89.0559 83.7117 89.0406 83.8006 89.0406 83.9041C89.0406 84.009 89.0559 84.0992 89.0866 84.1746C89.1174 84.2494 89.1605 84.3072 89.2159 84.348C89.272 84.388 89.3378 84.4081 89.4133 84.4081C89.4667 84.4081 89.5145 84.3981 89.5565 84.378C89.5993 84.3573 89.635 84.3276 89.6638 84.2889C89.6925 84.2501 89.7122 84.203 89.7229 84.1476H90.0695C90.0609 84.2565 90.0288 84.353 89.9734 84.4371C89.9179 84.5206 89.8424 84.5861 89.7469 84.6335C89.6514 84.6803 89.5392 84.7037 89.4103 84.7037Z" fill="white"/>
<path d="M91.1358 83.1346V83.4152H90.2511V83.1346H91.1358ZM90.4696 82.7659H90.8323V84.2107C90.8323 84.2595 90.8396 84.2969 90.8543 84.3229C90.8697 84.3483 90.8897 84.3657 90.9144 84.375C90.9391 84.3844 90.9665 84.389 90.9966 84.389C91.0193 84.389 91.04 84.3874 91.0587 84.384C91.0781 84.3807 91.0928 84.3777 91.1028 84.375L91.1639 84.6586C91.1445 84.6652 91.1168 84.6726 91.0807 84.6806C91.0453 84.6886 91.0019 84.6933 90.9505 84.6946C90.8596 84.6973 90.7778 84.6836 90.705 84.6536C90.6322 84.6228 90.5744 84.5754 90.5317 84.5113C90.4896 84.4472 90.4689 84.367 90.4696 84.2708V82.7659Z" fill="white"/>
<path d="M91.4392 84.6736V83.1346H91.8019V84.6736H91.4392ZM91.6215 82.9162C91.5641 82.9162 91.5146 82.8972 91.4732 82.8591C91.4318 82.8204 91.4111 82.7739 91.4111 82.7198C91.4111 82.6651 91.4318 82.6186 91.4732 82.5806C91.5146 82.5418 91.5641 82.5225 91.6215 82.5225C91.6796 82.5225 91.7291 82.5418 91.7698 82.5806C91.8112 82.6186 91.8319 82.6651 91.8319 82.7198C91.8319 82.7739 91.8112 82.8204 91.7698 82.8591C91.7291 82.8972 91.6796 82.9162 91.6215 82.9162Z" fill="white"/>
<path d="M92.8461 84.7037C92.6958 84.7037 92.5656 84.6706 92.4554 84.6045C92.3452 84.5383 92.2597 84.4458 92.1989 84.3269C92.1388 84.208 92.1087 84.0691 92.1087 83.9101C92.1087 83.7512 92.1388 83.6119 92.1989 83.4923C92.2597 83.3728 92.3452 83.2799 92.4554 83.2138C92.5656 83.1477 92.6958 83.1146 92.8461 83.1146C92.9964 83.1146 93.1267 83.1477 93.2369 83.2138C93.3471 83.2799 93.4322 83.3728 93.4924 83.4923C93.5531 83.6119 93.5835 83.7512 93.5835 83.9101C93.5835 84.0691 93.5531 84.208 93.4924 84.3269C93.4322 84.4458 93.3471 84.5383 93.2369 84.6045C93.1267 84.6706 92.9964 84.7037 92.8461 84.7037ZM92.8481 84.4131C92.9296 84.4131 92.9977 84.3907 93.0525 84.346C93.1073 84.3005 93.148 84.2398 93.1747 84.1636C93.2021 84.0875 93.2158 84.0026 93.2158 83.9091C93.2158 83.8149 93.2021 83.7298 93.1747 83.6536C93.148 83.5768 93.1073 83.5157 93.0525 83.4703C92.9977 83.4249 92.9296 83.4022 92.8481 83.4022C92.7646 83.4022 92.6952 83.4249 92.6397 83.4703C92.585 83.5157 92.5439 83.5768 92.5165 83.6536C92.4898 83.7298 92.4764 83.8149 92.4764 83.9091C92.4764 84.0026 92.4898 84.0875 92.5165 84.1636C92.5439 84.2398 92.585 84.3005 92.6397 84.346C92.6952 84.3907 92.7646 84.4131 92.8481 84.4131Z" fill="white"/>
<path d="M94.2541 83.7719V84.6736H93.8914V83.1346H94.238V83.3961H94.2561C94.2915 83.31 94.3479 83.2415 94.4254 83.1907C94.5036 83.14 94.6001 83.1146 94.715 83.1146C94.8212 83.1146 94.9137 83.1373 94.9925 83.1827C95.072 83.2281 95.1334 83.2939 95.1768 83.3801C95.2209 83.4663 95.2426 83.5708 95.242 83.6937V84.6736H94.8793V83.7498C94.8793 83.647 94.8526 83.5665 94.7991 83.5084C94.7464 83.4502 94.6732 83.4212 94.5797 83.4212C94.5162 83.4212 94.4598 83.4352 94.4104 83.4633C94.3616 83.4907 94.3232 83.5304 94.2952 83.5825C94.2678 83.6346 94.2541 83.6977 94.2541 83.7719Z" fill="white"/>
<path d="M96.0535 84.7047C95.956 84.7047 95.8682 84.6873 95.79 84.6526C95.7125 84.6172 95.6511 84.5651 95.6057 84.4963C95.5609 84.4275 95.5385 84.3426 95.5385 84.2418C95.5385 84.1549 95.5546 84.0831 95.5866 84.0263C95.6187 83.9696 95.6624 83.9242 95.7179 83.8901C95.7733 83.856 95.8358 83.8303 95.9052 83.8129C95.9754 83.7949 96.0479 83.7819 96.1227 83.7739C96.2128 83.7645 96.286 83.7562 96.3421 83.7488C96.3982 83.7408 96.4389 83.7288 96.4643 83.7127C96.4904 83.696 96.5034 83.6703 96.5034 83.6356V83.6296C96.5034 83.5541 96.481 83.4957 96.4363 83.4543C96.3915 83.4128 96.3271 83.3921 96.2429 83.3921C96.1541 83.3921 96.0836 83.4115 96.0315 83.4502C95.9801 83.489 95.9453 83.5347 95.9273 83.5875L95.5886 83.5394C95.6154 83.4459 95.6594 83.3678 95.7209 83.305C95.7823 83.2415 95.8575 83.1941 95.9463 83.1627C96.0352 83.1306 96.1333 83.1146 96.2409 83.1146C96.315 83.1146 96.3888 83.1233 96.4623 83.1406C96.5358 83.158 96.6029 83.1867 96.6637 83.2268C96.7245 83.2662 96.7732 83.32 96.81 83.3881C96.8474 83.4563 96.8661 83.5414 96.8661 83.6436V84.6736H96.5174V84.4622H96.5054C96.4834 84.5049 96.4523 84.545 96.4122 84.5824C96.3728 84.6192 96.323 84.6489 96.2629 84.6716C96.2035 84.6936 96.1337 84.7047 96.0535 84.7047ZM96.1477 84.4381C96.2205 84.4381 96.2836 84.4238 96.3371 84.3951C96.3905 84.3657 96.4316 84.3269 96.4603 84.2788C96.4897 84.2307 96.5044 84.1783 96.5044 84.1215V83.9402C96.493 83.9495 96.4737 83.9582 96.4463 83.9662C96.4196 83.9742 96.3895 83.9813 96.3561 83.9873C96.3227 83.9933 96.2896 83.9986 96.2569 84.0033C96.2242 84.008 96.1958 84.012 96.1718 84.0153C96.1177 84.0227 96.0692 84.0347 96.0265 84.0514C95.9837 84.0681 95.95 84.0915 95.9253 84.1215C95.9006 84.1509 95.8882 84.189 95.8882 84.2358C95.8882 84.3025 95.9126 84.353 95.9614 84.387C96.0101 84.4211 96.0722 84.4381 96.1477 84.4381Z" fill="white"/>
<path d="M97.5935 82.6217V84.6736H97.2308V82.6217H97.5935Z" fill="white"/>
<path d="M98.1899 84.6956C98.1291 84.6956 98.077 84.6743 98.0336 84.6315C97.9902 84.5888 97.9688 84.5367 97.9695 84.4752C97.9688 84.4151 97.9902 84.3637 98.0336 84.3209C98.077 84.2782 98.1291 84.2568 98.1899 84.2568C98.2487 84.2568 98.2998 84.2782 98.3432 84.3209C98.3873 84.3637 98.4096 84.4151 98.4103 84.4752C98.4096 84.516 98.399 84.553 98.3782 84.5864C98.3582 84.6198 98.3315 84.6465 98.2981 84.6666C98.2654 84.6859 98.2293 84.6956 98.1899 84.6956ZM98.1899 83.5975C98.1291 83.5975 98.077 83.5762 98.0336 83.5334C97.9902 83.49 97.9688 83.4379 97.9695 83.3771C97.9688 83.317 97.9902 83.2656 98.0336 83.2228C98.077 83.1794 98.1291 83.1577 98.1899 83.1577C98.2487 83.1577 98.2998 83.1794 98.3432 83.2228C98.3873 83.2656 98.4096 83.317 98.4103 83.3771C98.4096 83.4172 98.399 83.4539 98.3782 83.4873C98.3582 83.5207 98.3315 83.5474 98.2981 83.5675C98.2654 83.5875 98.2293 83.5975 98.1899 83.5975Z" fill="white"/>
<path d="M100.495 82.6217V84.6736H100.247V82.6217H100.495Z" fill="white"/>
<path d="M101.198 83.7478V84.6736H100.961V83.1346H101.19V83.3751H101.21C101.246 83.2969 101.301 83.2342 101.374 83.1867C101.447 83.1386 101.542 83.1146 101.659 83.1146C101.763 83.1146 101.854 83.136 101.932 83.1787C102.01 83.2208 102.071 83.2849 102.114 83.3711C102.158 83.4566 102.18 83.5648 102.18 83.6957V84.6736H101.943V83.7117C101.943 83.5908 101.912 83.4967 101.849 83.4292C101.786 83.3611 101.7 83.327 101.59 83.327C101.515 83.327 101.447 83.3434 101.388 83.3761C101.329 83.4088 101.283 83.4566 101.249 83.5194C101.215 83.5822 101.198 83.6583 101.198 83.7478Z" fill="white"/>
<path d="M103.281 83.1346V83.335H102.483V83.1346H103.281ZM102.716 82.7659H102.952V84.2327C102.952 84.2995 102.962 84.3496 102.981 84.383C103.001 84.4158 103.027 84.4378 103.057 84.4492C103.089 84.4598 103.122 84.4652 103.157 84.4652C103.183 84.4652 103.204 84.4639 103.221 84.4612C103.237 84.4578 103.251 84.4552 103.261 84.4532L103.309 84.6656C103.293 84.6716 103.271 84.6776 103.242 84.6836C103.213 84.6903 103.177 84.6936 103.133 84.6936C103.066 84.6936 103 84.6793 102.936 84.6505C102.873 84.6218 102.82 84.5781 102.778 84.5193C102.737 84.4605 102.716 84.3864 102.716 84.2969V82.7659Z" fill="white"/>
<path d="M104.265 84.7057C104.117 84.7057 103.989 84.6729 103.882 84.6075C103.775 84.5413 103.692 84.4492 103.634 84.3309C103.577 84.212 103.548 84.0738 103.548 83.9161C103.548 83.7585 103.577 83.6196 103.634 83.4993C103.692 83.3784 103.773 83.2843 103.877 83.2168C103.981 83.1487 104.102 83.1146 104.241 83.1146C104.321 83.1146 104.401 83.128 104.479 83.1547C104.557 83.1814 104.628 83.2248 104.692 83.2849C104.756 83.3444 104.807 83.4232 104.845 83.5214C104.883 83.6196 104.903 83.7405 104.903 83.8841V83.9843H103.716V83.7799H104.662C104.662 83.693 104.645 83.6156 104.61 83.5474C104.576 83.4793 104.527 83.4255 104.464 83.3861C104.401 83.3467 104.327 83.327 104.241 83.327C104.147 83.327 104.066 83.3504 103.997 83.3971C103.929 83.4432 103.876 83.5033 103.839 83.5775C103.803 83.6516 103.784 83.7311 103.784 83.8159V83.9522C103.784 84.0684 103.804 84.167 103.844 84.2478C103.885 84.3279 103.942 84.389 104.014 84.4311C104.086 84.4725 104.17 84.4932 104.265 84.4932C104.327 84.4932 104.384 84.4846 104.434 84.4672C104.484 84.4492 104.528 84.4224 104.565 84.387C104.602 84.351 104.63 84.3062 104.65 84.2528L104.878 84.3169C104.854 84.3944 104.814 84.4625 104.757 84.5213C104.7 84.5794 104.63 84.6248 104.547 84.6576C104.463 84.6896 104.37 84.7057 104.265 84.7057Z" fill="white"/>
<path d="M105.262 84.6736V83.1346H105.491V83.3671H105.507C105.535 83.2909 105.586 83.2292 105.659 83.1817C105.732 83.1343 105.815 83.1106 105.907 83.1106C105.925 83.1106 105.947 83.1109 105.973 83.1116C105.999 83.1123 106.018 83.1133 106.032 83.1146V83.3551C106.024 83.3531 106.005 83.3501 105.977 83.346C105.949 83.3414 105.919 83.339 105.887 83.339C105.813 83.339 105.746 83.3547 105.687 83.3861C105.629 83.4168 105.583 83.4596 105.549 83.5144C105.515 83.5685 105.499 83.6303 105.499 83.6997V84.6736H105.262Z" fill="white"/>
</svg>
